<svg xmlns="http://www.w3.org/2000/svg" width="48.731" height="53.914" viewBox="0 0 48.731 53.914">
  <path id="Path_2852" data-name="Path 2852" d="M415.45,308.57a20.91,20.91,0,0,0,2-11.82,21.21,21.21,0,0,0-14.54-17.46l4.74,11.22a1.44,1.44,0,0,1-1.53,2l-5.7-.87,2.05,2.19a1.43,1.43,0,0,1,0,2L398.31,300a1.44,1.44,0,0,1-1,.42,1.41,1.41,0,0,1-1-.41,1.43,1.43,0,0,1,0-2l3.12-3.17-3.94-4.2a1.44,1.44,0,0,1,1.27-2.4l7.25,1.1-4.54-10.75c-.27,0-.54-.08-.81-.1a21,21,0,0,0-21.07,30.16,6,6,0,0,0-5.4,6.67,6.12,6.12,0,0,0,6.15,5.22H384l1.63,1.45v6.66a1.31,1.31,0,0,0,1.31,1.31h1.8a2.55,2.55,0,0,0,5.08,0H394a2.55,2.55,0,0,0,5.08,0h.05a2.55,2.55,0,0,0,5.08,0H406a1.31,1.31,0,0,0,1.31-1.31v-6.66l1.63-1.45h5.74a6.12,6.12,0,0,0,6.15-5.22,6,6,0,0,0-5.38-6.75Zm-28.06,3.64a5.65,5.65,0,1,1,5.64-5.65,5.65,5.65,0,0,1-5.64,5.65Zm11.3,8.44-2.19-.79-2.19.79a.92.92,0,0,1-1.09-1,8.49,8.49,0,0,1,2.67-5.43.9.9,0,0,1,1.22,0,8.49,8.49,0,0,1,2.67,5.43.92.92,0,0,1-1.09,1Zm6.92-8.44a5.64,5.64,0,1,1,4-1.652,5.65,5.65,0,0,1-4,1.652Z" transform="translate(-372.149 -278.371)" fill="#fff"/>
</svg>
