<svg xmlns="http://www.w3.org/2000/svg" width="50.382" height="41.942" viewBox="0 0 50.382 41.942">
  <g id="constitution" transform="translate(-62.167 -319.196)">
    <path id="Path_2818" data-name="Path 2818" d="M108.881,322.864a12.524,12.524,0,0,0-17.712,0l-3.811,3.811-3.811-3.811a12.524,12.524,0,0,0-17.712,0h0a12.524,12.524,0,0,0,0,17.712l3.811,3.811,16.071,16.071a2.32,2.32,0,0,0,3.281,0l16.071-16.071,3.812-3.811A12.525,12.525,0,0,0,108.881,322.864Z" fill="#fff"/>
    <path id="Path_2847" data-name="Path 2847" d="M91.059,348.166a1.22,1.22,0,0,1-.135-.007,1.323,1.323,0,0,1-1.168-1.085l-1.861-10.545-2,10.561a1.32,1.32,0,0,1-1.3,1.076H84.59a1.322,1.322,0,0,1-1.3-1.085l-1.319-7.24-.969,1.666a1.322,1.322,0,0,1-1.143.657H71.226a1.322,1.322,0,0,1,0-2.643H79.1l2.387-4.106a1.321,1.321,0,0,1,2.443.428l.687,3.769,2.023-10.672a1.34,1.34,0,0,1,1.307-1.076,1.323,1.323,0,0,1,1.294,1.093l2.305,13.061.7-1.778a1.32,1.32,0,0,1,1.229-.835h9.7a1.322,1.322,0,0,1,0,2.644h-8.8l-2.093,5.282A1.321,1.321,0,0,1,91.059,348.166Z" fill="#353535"/>
  </g>
</svg>
