<svg xmlns="http://www.w3.org/2000/svg" width="36.969" height="54.711" viewBox="0 0 36.969 54.711">
  <g id="dexterity" transform="translate(-561.022 -300.913)">
    <g id="Group_462" data-name="Group 462">
      <path id="Path_2824" data-name="Path 2824" d="M597.411,353.224l.446-.446.007-.011.011-.007c.219-.234.123-1.572-.249-7.864a5.078,5.078,0,0,0-.914-2.6c-.889-1.276-1.931-2.563-2.925-3.837l-1.019-1.28a21.176,21.176,0,0,1-2.32-3.6l-.676-1.49a16.625,16.625,0,0,1-1.221-5.5l.015-1.626a16.6,16.6,0,0,1,1.18-5.153l.687-1.521a24.25,24.25,0,0,1,2.939-4.47l1.064-1.235c.355-.39.726-.781,1.119-1.175a.813.813,0,0,0,.03-1.118c-.115-.129-2.687-2.937-5.567-2.12l-6.533-6.533a2.438,2.438,0,0,0-3.448,0l-2.872,2.872-1.148,1.148-12.646,12.646-.465.465Z" fill="#fff"/>
      <path id="Path_2825" data-name="Path 2825" d="M561.116,320.654a3.246,3.246,0,0,0,.855,3.076l29.888,29.888a3.247,3.247,0,0,0,3.107.847Z" fill="#fff"/>
    </g>
    <g id="Group_463" data-name="Group 463">
      <path id="Path_2826" data-name="Path 2826" d="M576.519,348.939h-11.21a1.057,1.057,0,0,1,0-2.115h11.21a1.057,1.057,0,1,1,0,2.115Z" fill="#fff"/>
      <path id="Path_2827" data-name="Path 2827" d="M569.965,342.255h-4.656a1.057,1.057,0,0,1,0-2.115h4.656a1.057,1.057,0,0,1,0,2.115Z" fill="#fff"/>
      <path id="Path_2828" data-name="Path 2828" d="M583.174,355.624H565.309a1.057,1.057,0,0,1,0-2.115h17.865a1.057,1.057,0,0,1,0,2.115Z" fill="#fff"/>
    </g>
  </g>
</svg>
