<svg xmlns="http://www.w3.org/2000/svg" width="43.692" height="46.843" viewBox="0 0 43.692 46.843">
  <g id="mentality" transform="translate(-311.087 -308.302)">
    <path id="Path_2829" data-name="Path 2829" d="M332.933,331.723" fill="#5b5b5b" stroke="#fff" stroke-miterlimit="10" stroke-width="4"/>
    <g id="Group_468" data-name="Group 468">
      <path id="Path_2831" data-name="Path 2831" d="M319.078,346.065" fill="#5b5b5b" stroke="#fff" stroke-miterlimit="10" stroke-width="4"/>
    </g>
    <g id="Group_469" data-name="Group 469">
      <path id="Path_2832" data-name="Path 2832" d="M319.236,348.213l0,.012a5.81,5.81,0,0,0,5.706,6.92,5.8,5.8,0,0,0,5.391-3.647h0V311.949a5.811,5.811,0,0,0-11.2,2.165,5.864,5.864,0,0,0,.095,1.039,2.6,2.6,0,0,1-2.265,3.047,6.633,6.633,0,0,0-4.768,10.25,11.8,11.8,0,0,1,6.048-1.661h4.286a2.6,2.6,0,1,1,0,5.2h-4.287a6.6,6.6,0,0,0-4.547,1.805c-.008.008-.015.017-.024.025a6.634,6.634,0,0,0,1.393,10.633,11,11,0,0,1,2.091-2.915,2.6,2.6,0,0,1,3.681,3.68A5.779,5.779,0,0,0,319.236,348.213Z" fill="#fff"/>
      <path id="Path_2833" data-name="Path 2833" d="M343.342,326.79h4.287a11.791,11.791,0,0,1,6.047,1.66,6.632,6.632,0,0,0-4.767-10.25,2.6,2.6,0,0,1-2.265-3.047,5.81,5.81,0,0,0-11.108-3.2V351.5a5.81,5.81,0,0,0,11.1-3.273l0-.014a5.776,5.776,0,0,0-1.594-2.989,2.6,2.6,0,0,1,3.68-3.68,11,11,0,0,1,2.092,2.915,6.633,6.633,0,0,0,1.392-10.633l-.024-.026a6.605,6.605,0,0,0-4.547-1.8h-4.286a2.6,2.6,0,1,1,0-5.2Z" fill="#fff"/>
    </g>
  </g>
</svg>
