<svg xmlns="http://www.w3.org/2000/svg" xmlns:xlink="http://www.w3.org/1999/xlink" width="55.264" height="49.631"
  viewBox="0 0 55.264 49.631">
  <g id="strength" transform="translate(-183.622 -304.528)">
    <g id="Group_457" data-name="Group 457">
      <path id="Path_2820" data-name="Path 2820"
        d="M196.84,315.431a14.788,14.788,0,0,0-4.338,10.3l-.083,7.536-7.3,7.3,12.522,12.522,13.72-.346.793-.231a20.518,20.518,0,0,0,8.755-5.188l8.943-8.942h-.02c.064-.056.13-.111.191-.173l6.731-6.731a3.682,3.682,0,0,0,0-5.207l-.627-.627a3.682,3.682,0,0,0-5.207,0l1.57-1.571a3.683,3.683,0,0,0,0-5.208l-.626-.626a3.681,3.681,0,0,0-4.691-.428,3.681,3.681,0,0,0-.427-4.69l-.627-.627a3.683,3.683,0,0,0-5.208,0,3.683,3.683,0,0,0,0-5.208l-.627-.627a3.682,3.682,0,0,0-5.207,0l-4.524,4.524-1.9-1.9a4.314,4.314,0,0,0-4.713-.931Z"
        fill="#fff" />
      <path id="Path_2821" data-ignore-fill="" data-name="Path 2821"
        d="M196.093,314.683a15.756,15.756,0,0,0-4.648,11.036l-.078,7.106-7.745,7.744,13.591,13.59,14.31-.36.926-.27a21.645,21.645,0,0,0,9.206-5.455l8.942-8.943a.794.794,0,0,0,.052-.063c.04-.037.082-.07.12-.108l6.731-6.731a4.745,4.745,0,0,0,0-6.7l-.627-.627a4.715,4.715,0,0,0-2.737-1.341,4.745,4.745,0,0,0-.9-5.438l-.627-.626a4.724,4.724,0,0,0-3.75-1.367,4.73,4.73,0,0,0-1.368-3.751l-.626-.627a4.731,4.731,0,0,0-3.85-1.358,4.731,4.731,0,0,0-1.358-3.85l-.627-.626a4.743,4.743,0,0,0-6.7,0l-3.776,3.775-1.157-1.157a5.355,5.355,0,0,0-5.868-1.159l-.193.08Zm24.068-2.934-3.775,3.776-4.339-4.339,3.775-3.776a2.63,2.63,0,0,1,3.713,0l.627.627A2.628,2.628,0,0,1,220.161,311.749Zm6.215,5.339a4.711,4.711,0,0,0-.47.406l-3.776,3.776-4.249-4.25,3.776-3.775a2.628,2.628,0,0,1,3.712,0l.627.627A2.624,2.624,0,0,1,226.376,317.088Zm-2.937,14.542a2.628,2.628,0,0,1-3.712,0L219.1,331a2.623,2.623,0,0,1-.38-3.216,4.85,4.85,0,0,0,.47-.406l.367-.367,4.159-4.159,3.775-3.776a4.589,4.589,0,0,0,.406-.47,2.625,2.625,0,0,1,3.217.38l.627.627a2.63,2.63,0,0,1,0,3.713l-1.571,1.57Zm5.835,5.834a2.629,2.629,0,0,1-3.713,0l-.626-.626a2.628,2.628,0,0,1,0-3.713l6.73-6.73a2.627,2.627,0,0,1,3.712,0l.627.627a2.625,2.625,0,0,1,0,3.711ZM197.587,316.18l6.935-6.924a3.245,3.245,0,0,1,3.376.773l12.827,12.826-2.663,2.663a3.262,3.262,0,0,1-4.609,0l-8.079-8.078-1.495,1.495c10.235,10.235.422,20.342,0,20.767a1.058,1.058,0,0,0,0,1.494h0a1.057,1.057,0,0,0,1.494,0c.092-.092,7.128-7.294,4.757-16.008l1.825,1.826a5.387,5.387,0,0,0,1.051.81,4.737,4.737,0,0,0,3.23.924,4.726,4.726,0,0,0,1.366,3.75l.627.627a4.732,4.732,0,0,0,3.85,1.359,4.728,4.728,0,0,0,1.358,3.849l.627.627a4.714,4.714,0,0,0,2.419,1.293l-6.326,6.325a19.507,19.507,0,0,1-8.3,4.92l-.661.194-13.129.33-11.453-11.453,6.859-6.859.088-7.967A13.647,13.647,0,0,1,197.587,316.18Z"
        fill="black" />
    </g>
    <path id="Path_2822" data-name="Path 2822" d="M196.534,346.065" fill="#5b5b5b" stroke="#fff" stroke-miterlimit="10"
      stroke-width="4" />
  </g>
</svg>