<svg xmlns="http://www.w3.org/2000/svg" width="26" height="26" viewBox="0 0 26 26">
  <g id="Group_410" data-name="Group 410" transform="translate(-1688 -1201)">
    <g id="Group_12" data-name="Group 12" transform="translate(1688 1201.001)">
      <g id="Group_10" data-name="Group 10">
        <rect id="Rectangle_3" data-name="Rectangle 3" width="26" height="26" rx="5" transform="translate(0 -0.001)" fill="#2e1954"/>
        <rect id="Rectangle_3150" data-name="Rectangle 3150" width="20" height="20" rx="5" transform="translate(3 2.999)" fill="none" stroke="#05e88b" stroke-width="1"/>
        <g id="Group_383" data-name="Group 383" transform="translate(8.375 5.623)">
          <path id="Path_21" data-name="Path 21" d="M442.628,314.648a4.054,4.054,0,0,0,.38-2.29,4.115,4.115,0,0,0-2.818-3.384l.919,2.175a.278.278,0,0,1-.3.383l-1.1-.168.4.424a.278.278,0,0,1-.005.385l-.793.8a.278.278,0,0,1-.4-.391l.606-.614-.763-.815a.278.278,0,0,1,.245-.465l1.406.214-.881-2.085c-.052-.007-.1-.014-.157-.019a4.078,4.078,0,0,0-4.082,5.844,1.154,1.154,0,0,0-1.047,1.293,1.188,1.188,0,0,0,1.193,1.012h1.112l.315.282v1.29a.253.253,0,0,0,.253.253h.349a.495.495,0,0,0,.984,0h.029a.495.495,0,0,0,.984,0h.011a.495.495,0,0,0,.984,0h.349a.253.253,0,0,0,.253-.253v-1.29l.315-.282h1.112a1.187,1.187,0,0,0,1.193-1.012A1.153,1.153,0,0,0,442.628,314.648Zm-5.438.706a1.094,1.094,0,1,1,1.094-1.094A1.094,1.094,0,0,1,437.19,315.354Zm2.189,1.636-.424-.153-.423.153a.179.179,0,0,1-.213-.191,1.649,1.649,0,0,1,.518-1.051.174.174,0,0,1,.238,0,1.649,1.649,0,0,1,.518,1.051A.179.179,0,0,1,439.379,316.99Zm1.342-1.636a1.094,1.094,0,1,1,1.094-1.094A1.094,1.094,0,0,1,440.722,315.354Z" transform="translate(-434.228 -306.747)" fill="#fff"/>
          <path id="Path_22" data-name="Path 22" d="M455.41,300.21l-1.02-.408.8-.7" transform="translate(-450.148 -299.103)" fill="#fff"/>
          <path id="Path_23" data-name="Path 23" d="M461.611,302.394l.382.447-.447.382" transform="translate(-455.798 -301.701)" fill="#fff"/>
        </g>
      </g>
    </g>
  </g>
</svg>
