<svg xmlns="http://www.w3.org/2000/svg" xmlns:xlink="http://www.w3.org/1999/xlink" width="129.362" height="129.362"
  viewBox="10 10 109.362 109.362">
  <defs>
    <linearGradient id="linear-gradient-agg" x1="1.163" y1="-1.937" x2="2.012" y2="-1.087"
      gradientUnits="objectBoundingBox">
      <stop offset="0" stop-color="#58595b" />
      <stop offset="0.199" stop-color="#454546" />
      <stop offset="0.479" stop-color="#323031" />
      <stop offset="0.75" stop-color="#262324" />
      <stop offset="1" stop-color="#231f20" />
    </linearGradient>
  </defs>
  <g id="aggressiveness" transform="translate(-392.018 -267.043)">
    <path id="Path_2834" data-name="Path 2834" d="M457.376,332.422" fill="#5b5b5b" stroke="#fff" stroke-miterlimit="10"
      stroke-width="4" />
    <g id="Group_474" data-name="Group 474">
      <g id="Group_473" data-name="Group 473">
        <g id="Group_471" data-name="Group 471">
          <rect id="Rectangle_3172" data-name="Rectangle 3172" width="91.472" height="91.472" rx="23.573"
            transform="translate(392.018 331.723) rotate(-45)" fill="url(#linear-gradient-agg)" />
        </g>
        <g id="Group_472" data-name="Group 472">
          <path id="Path_2835" data-name="Path 2835"
            d="M456.694,381.154a19.427,19.427,0,0,1-13.78-5.7L412.962,345.5a19.512,19.512,0,0,1,0-27.561l29.952-29.951a19.51,19.51,0,0,1,27.561,0l29.95,29.951a19.489,19.489,0,0,1,0,27.561l-29.95,29.951A19.431,19.431,0,0,1,456.694,381.154Zm0-96.747a17.319,17.319,0,0,0-12.285,5.08l-29.951,29.951a17.394,17.394,0,0,0,0,24.571l29.951,29.951a17.394,17.394,0,0,0,24.57,0l29.951-29.951a17.376,17.376,0,0,0,0-24.571l-29.951-29.951A17.319,17.319,0,0,0,456.694,284.407Z"
            fill="#05e88b" />
        </g>
      </g>
      <path id="Path_2836" data-name="Path 2836" d="M444.2,346.764" fill="#5b5b5b" stroke="#fff" stroke-miterlimit="10"
        stroke-width="4" />
    </g>
    <path id="Path_2837" data-name="Path 2837"
      d="M474.152,336.654a19.267,19.267,0,0,0,1.808-10.882,19.555,19.555,0,0,0-13.391-16.082l4.366,10.337a1.322,1.322,0,0,1-1.417,1.821l-5.246-.8,1.887,2.015a1.322,1.322,0,0,1-.024,1.832l-3.771,3.822a1.322,1.322,0,0,1-1.881-1.857l2.878-2.917-3.628-3.874a1.322,1.322,0,0,1,1.165-2.21l6.682,1.019-4.185-9.909c-.248-.034-.5-.065-.748-.09a19.383,19.383,0,0,0-19.4,27.775,5.483,5.483,0,0,0-4.975,6.144,5.644,5.644,0,0,0,5.671,4.812h5.285l1.5,1.338v6.133a1.2,1.2,0,0,0,1.2,1.2h1.66a2.352,2.352,0,0,0,4.677,0h.138a2.351,2.351,0,0,0,4.676,0h.053a2.352,2.352,0,0,0,4.677,0h1.66a1.2,1.2,0,0,0,1.2-1.2v-6.133l1.5-1.338h5.285a5.643,5.643,0,0,0,5.67-4.812A5.481,5.481,0,0,0,474.152,336.654Zm-25.845,3.354a5.2,5.2,0,1,1,5.2-5.2A5.2,5.2,0,0,1,448.307,340.008Zm10.4,7.776-2.013-.728-2.012.728a.851.851,0,0,1-1.012-.907,7.835,7.835,0,0,1,2.46-4.994.829.829,0,0,1,1.129,0,7.835,7.835,0,0,1,2.46,4.994A.851.851,0,0,1,458.711,347.784Zm6.379-7.776a5.2,5.2,0,1,1,5.2-5.2A5.2,5.2,0,0,1,465.09,340.008Z"
      fill="#fff" />
    <path id="Path_2838" data-name="Path 2838" d="M459.236,304.364l-4.846-1.939L458.2,299.1" fill="#fff" />
    <path id="Path_2839" data-name="Path 2839" d="M461.852,302.394l1.817,2.123-2.123,1.817" fill="#fff" />
  </g>
</svg>