<svg xmlns="http://www.w3.org/2000/svg" width="26" height="26" viewBox="0 0 26 26">
  <g id="Group_409" data-name="Group 409" transform="translate(-1688 -1162.999)">
    <g id="Group_12" data-name="Group 12" transform="translate(1688 1163.055)">
      <g id="Group_10" data-name="Group 10">
        <rect id="Rectangle_3" data-name="Rectangle 3" width="26" height="26" rx="5" transform="translate(0 -0.055)" fill="#2e1954"/>
        <rect id="Rectangle_3150" data-name="Rectangle 3150" width="20" height="20" rx="5" transform="translate(3 2.945)" fill="none" stroke="#05e88b" stroke-width="1"/>
      </g>
      <g id="Group_471" data-name="Group 471" transform="translate(11.648 11.677)">
        <path id="Path_2913" data-name="Path 2913" d="M370.253,312.576a4.949,4.949,0,0,1-4.943-4.943V304.92h2.942v2.714a1.994,1.994,0,1,0,3.989,0V304.92h2.948v2.714A4.947,4.947,0,0,1,370.253,312.576Z" transform="translate(-368.9 -303.951)" fill="#fff"/>
        <rect id="Rectangle_3680" data-name="Rectangle 3680" width="2.97" height="1.796" transform="translate(-3.59 -1.713)" fill="#fff"/>
        <rect id="Rectangle_3681" data-name="Rectangle 3681" width="2.97" height="1.796" transform="translate(3.325 -1.713)" fill="#fff"/>
        <path id="Path_2914" data-name="Path 2914" d="M394.1,262.444a.49.49,0,0,1-.49-.49v-1.426a.49.49,0,0,1,.977,0v1.431A.488.488,0,0,1,394.1,262.444Z" transform="translate(-392.745 -266.158)" fill="#fff"/>
        <path id="Path_2915" data-name="Path 2915" d="M409.276,267.73a.49.49,0,0,1-.346-.834l1.012-1.012a.489.489,0,0,1,.691.691l-1.012,1.012A.483.483,0,0,1,409.276,267.73Z" transform="translate(-405.535 -270.939)" fill="#fff"/>
        <path id="Path_2916" data-name="Path 2916" d="M373.511,267.7a.483.483,0,0,1-.345-.143l-1.012-1.018a.489.489,0,1,1,.691-.691l1.012,1.012a.49.49,0,0,1-.346.834Z" transform="translate(-374.546 -270.905)" fill="#fff"/>
      </g>
    </g>
  </g>
</svg>
