<svg xmlns="http://www.w3.org/2000/svg" width="26" height="26" viewBox="0 0 26 26">
  <g id="Group_408" data-name="Group 408" transform="translate(-1575 -1163.002)">
    <g id="Group_31" data-name="Group 31" transform="translate(1575 1162.781)">
      <path id="Path_24" data-name="Path 24" d="M705.218,330.307" transform="translate(-691.701 -317.47)" fill="#5b5b5b" stroke="#fff" stroke-miterlimit="10" stroke-width="4"/>
      <g id="Group_30" data-name="Group 30">
        <rect id="Rectangle_3151" data-name="Rectangle 3151" width="26" height="26" rx="5" transform="translate(0 0.221)" fill="#2e1954"/>
        <rect id="Rectangle_3152" data-name="Rectangle 3152" width="20" height="20" rx="5" transform="translate(3 3.221)" fill="none" stroke="#05e88b" stroke-width="1"/>
        <g id="Group_382" data-name="Group 382" transform="translate(7.269 8.23)">
          <path id="Path_2" data-name="Path 2" d="M72.793,320.03a2.849,2.849,0,0,0-4.029,0l-.867.867-.867-.867a2.849,2.849,0,0,0-4.029,0h0a2.849,2.849,0,0,0,0,4.029l.867.867,3.656,3.656a.528.528,0,0,0,.746,0l3.656-3.656.867-.867A2.849,2.849,0,0,0,72.793,320.03Z" transform="translate(-62.167 -319.196)" fill="#fff"/>
          <path id="Path_30" data-name="Path 30" d="M74.717,332.482l-.031,0a.3.3,0,0,1-.266-.247l-.423-2.4-.455,2.4a.3.3,0,0,1-.3.245h0a.3.3,0,0,1-.295-.247l-.3-1.647-.22.379a.3.3,0,0,1-.26.149H70.205a.3.3,0,0,1,0-.6H72l.543-.934a.3.3,0,0,1,.556.1l.156.857.46-2.428a.3.3,0,0,1,.3-.245.3.3,0,0,1,.294.249l.524,2.971.16-.4a.3.3,0,0,1,.28-.19h2.206a.3.3,0,1,1,0,.6h-2l-.476,1.2A.3.3,0,0,1,74.717,332.482Z" transform="translate(-68.145 -325.892)" fill="#353535"/>
        </g>
      </g>
    </g>
  </g>
</svg>
