<svg xmlns="http://www.w3.org/2000/svg" width="26" height="26" viewBox="0 0 26 26">
  <g id="Group_407" data-name="Group 407" transform="translate(-886 -1258.751)">
    <g id="Group_12" data-name="Group 12" transform="translate(885.83 1258.41)">
      <g id="Group_10" data-name="Group 10">
        <rect id="Rectangle_3" data-name="Rectangle 3" width="26" height="26" rx="5" transform="translate(0.17 0.341)" fill="#2e1954"/>
        <rect id="Rectangle_3150" data-name="Rectangle 3150" width="20" height="20" rx="5" transform="translate(3.17 3.341)" fill="none" stroke="#05e88b" stroke-width="1"/>
      </g>
    </g>
    <g id="Group_13" data-name="Group 13" transform="translate(894.254 1264.086)">
      <path id="Path_8" data-name="Path 8" d="M571.709,314.259l.114-.114,0,0,0,0a8.8,8.8,0,0,0-.063-2.006,1.3,1.3,0,0,0-.233-.664c-.227-.326-.493-.654-.746-.979l-.26-.327a5.407,5.407,0,0,1-.592-.919l-.172-.38a4.243,4.243,0,0,1-.311-1.4l0-.415a4.236,4.236,0,0,1,.3-1.315l.175-.388a6.184,6.184,0,0,1,.75-1.14l.271-.315c.091-.1.185-.2.286-.3a.207.207,0,0,0,.008-.285,1.59,1.59,0,0,0-1.42-.541l-1.667-1.667a.622.622,0,0,0-.88,0l-.733.733-.293.293-3.226,3.226-.119.119Z" transform="translate(-562.425 -300.913)" fill="#fff"/>
      <path id="Path_9" data-name="Path 9" d="M561.046,320.654a.828.828,0,0,0,.218.785l7.625,7.625a.828.828,0,0,0,.793.216Z" transform="translate(-561.022 -315.618)" fill="#fff"/>
    </g>
    <g id="Group_14" data-name="Group 14" transform="translate(895.078 1274.094)">
      <path id="Path_10" data-name="Path 10" d="M567.382,347.364h-2.86a.27.27,0,0,1,0-.54h2.86a.27.27,0,1,1,0,.54Z" transform="translate(-564.252 -345.119)" fill="#fff"/>
      <path id="Path_11" data-name="Path 11" d="M565.71,340.68h-1.188a.27.27,0,0,1,0-.54h1.188a.27.27,0,0,1,0,.54Z" transform="translate(-564.252 -340.14)" fill="#fff"/>
      <path id="Path_12" data-name="Path 12" d="M569.08,354.049h-4.558a.27.27,0,0,1,0-.54h4.558a.27.27,0,0,1,0,.54Z" transform="translate(-564.252 -350.098)" fill="#fff"/>
    </g>
  </g>
</svg>
