<svg xmlns="http://www.w3.org/2000/svg" xmlns:xlink="http://www.w3.org/1999/xlink" width="129.362" height="129.362"
  viewBox="10 10 109.362 109.362">
  <defs>
    <linearGradient id="linear-gradient-men" x1="1.163" y1="-1.937" x2="2.012" y2="-1.087"
      gradientUnits="objectBoundingBox">
      <stop offset="0" stop-color="#58595b" />
      <stop offset="0.199" stop-color="#454546" />
      <stop offset="0.479" stop-color="#323031" />
      <stop offset="0.75" stop-color="#262324" />
      <stop offset="1" stop-color="#231f20" />
    </linearGradient>
  </defs>
  <g id="mentality" transform="translate(-268.252 -267.043)">
    <path id="Path_2829" data-name="Path 2829" d="M332.933,331.723" fill="#5b5b5b" stroke="#fff" stroke-miterlimit="10"
      stroke-width="4" />
    <g id="Group_468" data-name="Group 468">
      <g id="Group_467" data-name="Group 467">
        <g id="Group_465" data-name="Group 465">
          <rect id="Rectangle_3171" data-name="Rectangle 3171" width="91.472" height="91.472" rx="23.573"
            transform="translate(268.252 331.723) rotate(-45)" fill="url(#linear-gradient-men)" />
        </g>
        <g id="Group_466" data-name="Group 466">
          <path id="Path_2830" data-name="Path 2830"
            d="M332.933,380.89a19.427,19.427,0,0,1-13.78-5.7L289.2,345.24a19.512,19.512,0,0,1,0-27.561l29.952-29.952a19.511,19.511,0,0,1,27.56,0l29.951,29.952a19.489,19.489,0,0,1,0,27.561l-29.951,29.951A19.427,19.427,0,0,1,332.933,380.89Zm0-96.748a17.32,17.32,0,0,0-12.285,5.081L290.7,319.174a17.393,17.393,0,0,0,0,24.57L320.648,373.7a17.394,17.394,0,0,0,24.57,0l29.951-29.951a17.375,17.375,0,0,0,0-24.57l-29.951-29.951A17.32,17.32,0,0,0,332.933,284.142Z"
            fill="#05e88b" />
        </g>
      </g>
      <path id="Path_2831" data-name="Path 2831" d="M319.078,346.065" fill="#5b5b5b" stroke="#fff"
        stroke-miterlimit="10" stroke-width="4" />
    </g>
    <g id="Group_469" data-name="Group 469">
      <path id="Path_2832" data-name="Path 2832"
        d="M319.236,348.213l0,.012a5.81,5.81,0,0,0,5.706,6.92,5.8,5.8,0,0,0,5.391-3.647h0V311.949a5.811,5.811,0,0,0-11.2,2.165,5.864,5.864,0,0,0,.095,1.039,2.6,2.6,0,0,1-2.265,3.047,6.633,6.633,0,0,0-4.768,10.25,11.8,11.8,0,0,1,6.048-1.661h4.286a2.6,2.6,0,1,1,0,5.2h-4.287a6.6,6.6,0,0,0-4.547,1.805c-.008.008-.015.017-.024.025a6.634,6.634,0,0,0,1.393,10.633,11,11,0,0,1,2.091-2.915,2.6,2.6,0,0,1,3.681,3.68A5.779,5.779,0,0,0,319.236,348.213Z"
        fill="#fff" />
      <path id="Path_2833" data-name="Path 2833"
        d="M343.342,326.79h4.287a11.791,11.791,0,0,1,6.047,1.66,6.632,6.632,0,0,0-4.767-10.25,2.6,2.6,0,0,1-2.265-3.047,5.81,5.81,0,0,0-11.108-3.2V351.5a5.81,5.81,0,0,0,11.1-3.273l0-.014a5.776,5.776,0,0,0-1.594-2.989,2.6,2.6,0,0,1,3.68-3.68,11,11,0,0,1,2.092,2.915,6.633,6.633,0,0,0,1.392-10.633l-.024-.026a6.605,6.605,0,0,0-4.547-1.8h-4.286a2.6,2.6,0,1,1,0-5.2Z"
        fill="#fff" />
    </g>
  </g>
</svg>