<svg xmlns="http://www.w3.org/2000/svg" width="26" height="26" viewBox="0 0 26 26">
  <g id="men" transform="translate(0 0)">
    <path id="Path_24" data-name="Path 24" d="M705.218,330.307" transform="translate(-691.701 -317.47)" fill="#5b5b5b" stroke="#fff" stroke-miterlimit="10" stroke-width="4"/>
    <g id="Group_30" data-name="Group 30">
      <rect id="Rectangle_3151" data-name="Rectangle 3151" width="26" height="26" rx="5" transform="translate(0 0)" fill="#2e1954"/>
      <rect id="Rectangle_3152" data-name="Rectangle 3152" width="20" height="20" rx="5" transform="translate(3 3)" fill="none" stroke="#05e88b" stroke-width="1"/>
      <g id="Group_20" data-name="Group 20" transform="translate(7.501 7.104)">
        <path id="Path_16" data-name="Path 16" d="M313.138,318.348v0a1.463,1.463,0,0,0,1.436,1.742,1.46,1.46,0,0,0,1.357-.918h0V309.22a1.463,1.463,0,0,0-2.82.545,1.475,1.475,0,0,0,.024.262.655.655,0,0,1-.57.767,1.67,1.67,0,0,0-1.2,2.58,2.969,2.969,0,0,1,1.522-.418h1.079a.655.655,0,1,1,0,1.31h-1.079a1.662,1.662,0,0,0-1.145.454l-.006.006a1.67,1.67,0,0,0,.351,2.676,2.769,2.769,0,0,1,.526-.734.655.655,0,1,1,.927.926A1.455,1.455,0,0,0,313.138,318.348Z" transform="translate(-311.087 -308.302)" fill="#fff"/>
        <path id="Path_17" data-name="Path 17" d="M337.5,312.956h1.079a2.968,2.968,0,0,1,1.522.418,1.669,1.669,0,0,0-1.2-2.58.655.655,0,0,1-.57-.767,1.462,1.462,0,0,0-2.8-.807v9.955a1.463,1.463,0,0,0,2.793-.824v0a1.454,1.454,0,0,0-.4-.752.655.655,0,1,1,.926-.926,2.769,2.769,0,0,1,.527.734,1.67,1.67,0,0,0,.35-2.676l-.006-.007a1.663,1.663,0,0,0-1.145-.454H337.5a.655.655,0,1,1,0-1.31Z" transform="translate(-329.382 -308.302)" fill="#fff"/>
      </g>
    </g>
  </g>
</svg>
