<svg xmlns="http://www.w3.org/2000/svg" xmlns:xlink="http://www.w3.org/1999/xlink" width="26" height="26" viewBox="0 0 26 26">
  <defs>
    <linearGradient id="linear-gradient" x1="5.251" y1="2.178" x2="5.251" y2="3.205" gradientUnits="objectBoundingBox">
      <stop offset="0" stop-color="#414042"/>
      <stop offset="0.373" stop-color="#393739"/>
      <stop offset="0.978" stop-color="#231f20"/>
      <stop offset="1" stop-color="#231f20"/>
    </linearGradient>
  </defs>
  <g id="str" transform="translate(-0.171 0.001)">
    <path id="Path_24" data-name="Path 24" d="M705.218,330.307" transform="translate(-691.524 -317.301)" fill="#5b5b5b" stroke="#fff" stroke-miterlimit="10" stroke-width="4"/>
    <g id="Group_30" data-name="Group 30">
      <rect id="Rectangle_3151" data-name="Rectangle 3151" width="26" height="26" rx="5" transform="translate(0.171 -0.001)" fill="#2e1954"/>
      <rect id="Rectangle_3152" data-name="Rectangle 3152" width="20" height="20" rx="5" transform="translate(3.171 2.999)" fill="none" stroke="#05e88b" stroke-width="1"/>
      <g id="Group_381" data-name="Group 381" transform="translate(6.969 7.601)">
        <path id="Path_4" data-name="Path 4" d="M187.748,307.794a3.319,3.319,0,0,0-.974,2.312l-.019,1.691-1.639,1.639,2.81,2.81,3.079-.078.178-.052a4.6,4.6,0,0,0,1.965-1.164l2.007-2.007h0c.014-.013.029-.025.043-.039l1.511-1.511a.826.826,0,0,0,0-1.169l-.141-.141a.826.826,0,0,0-1.169,0l.352-.353a.827.827,0,0,0,0-1.169l-.14-.14a.826.826,0,0,1-1.149-1.149l-.141-.141a.826.826,0,0,1-1.169-1.169l-.141-.141a.826.826,0,0,0-1.169,0l-1.015,1.015-.428-.428a.968.968,0,0,0-1.058-.209Z" transform="translate(-184.781 -305.347)" fill="#fff"/>
        <path id="Path_5" data-name="Path 5" d="M186.421,306.807a3.536,3.536,0,0,0-1.043,2.477l-.018,1.595-1.738,1.738,3.05,3.05,3.212-.081.208-.061a4.857,4.857,0,0,0,2.066-1.224l2.007-2.007a.176.176,0,0,0,.012-.014l.027-.024,1.511-1.511a1.065,1.065,0,0,0,0-1.5l-.141-.141a1.06,1.06,0,0,1-.816-1.521l-.141-.141a1.061,1.061,0,0,1-1.149-1.149l-.141-.141a1.061,1.061,0,0,1-1.169-1.169l-.141-.141a1.065,1.065,0,0,0-1.5,0l-.847.847-.26-.26a1.2,1.2,0,0,0-1.317-.26l-.043.018Zm5.4-.658-.847.847-.974-.974.847-.847a.59.59,0,0,1,.833,0l.141.141A.59.59,0,0,1,191.822,306.149Zm1.395,1.2a1.055,1.055,0,0,0-.105.091l-.847.847-.954-.954.847-.847a.59.59,0,0,1,.833,0l.141.141A.589.589,0,0,1,193.217,307.347Zm-.659,3.264a.59.59,0,0,1-.833,0l-.141-.141a.589.589,0,0,1-.085-.722,1.082,1.082,0,0,0,.105-.091l.082-.082.933-.933.847-.847a1.032,1.032,0,0,0,.091-.105.589.589,0,0,1,.722.085l.141.141a.59.59,0,0,1,0,.833l-.353.352Zm1.31,1.309a.59.59,0,0,1-.833,0l-.141-.14a.59.59,0,0,1,0-.833l1.51-1.51a.59.59,0,0,1,.833,0l.141.141a.589.589,0,0,1,0,.833Zm-7.111-4.777,1.556-1.554a.728.728,0,0,1,.758.173l2.879,2.879-.6.6a.732.732,0,0,1-1.034,0l-1.813-1.813-.336.336a3.2,3.2,0,0,1,0,4.661.237.237,0,0,0,0,.335h0a.237.237,0,0,0,.335,0,4.084,4.084,0,0,0,1.068-3.593l.41.41a1.21,1.21,0,0,0,.236.182.909.909,0,0,1,1.031,1.049l.141.141a1.062,1.062,0,0,1,1.169,1.169l.141.141a1.058,1.058,0,0,0,.543.29l-1.42,1.419a4.378,4.378,0,0,1-1.863,1.1l-.148.044-2.947.074-2.57-2.57,1.539-1.539.02-1.788A3.063,3.063,0,0,1,186.756,307.143Z" transform="translate(-183.622 -304.528)" fill="url(#linear-gradient)"/>
      </g>
    </g>
  </g>
</svg>
