<svg xmlns="http://www.w3.org/2000/svg" xmlns:xlink="http://www.w3.org/1999/xlink" width="78.69" height="78.69"
  viewBox="0 0 78.69 78.69">
  <defs>
    <linearGradient id="linear-gradient-komorebi" x1="0.075" y1="0.076" x2="0.924" y2="0.925"
      gradientUnits="objectBoundingBox">
      <stop offset="0" stop-color="#ffe90b" />
      <stop offset="0.5" stop-color="#ff9516" />
      <stop offset="1" stop-color="#ffe90b" />
    </linearGradient>
  </defs>
  <g id="Group_554" data-name="Group 554" transform="translate(-547.99 -10.94)">
    <path id="Path_2859" data-name="Path 2859"
      d="M606.4,89.63H568.27a20.28,20.28,0,0,1-20.28-20.28V31.22a20.28,20.28,0,0,1,20.28-20.28H606.4a20.28,20.28,0,0,1,20.28,20.28V69.35A20.293,20.293,0,0,1,606.4,89.63Z"
      fill="url(#linear-gradient-komorebi)" />
    <g id="Group_553" data-name="Group 553">
      <g id="Group_547" data-name="Group 547">
        <path id="Path_2860" data-name="Path 2860" d="M584.74,50.29h5.18l-2.59-27.3Z" fill="#fff" />
        <path id="Path_2861" data-name="Path 2861" d="M589.92,50.29h-5.18l2.59,27.29Z" fill="#fff" />
        <path id="Path_2862" data-name="Path 2862" d="M587.33,47.69v5.19l27.29-2.59Z" fill="#fff" />
        <path id="Path_2863" data-name="Path 2863" d="M587.33,52.88V47.69l-27.29,2.6Z" fill="#fff" />
      </g>
      <g id="Group_552" data-name="Group 552">
        <g id="Group_548" data-name="Group 548">
          <path id="Path_2864" data-name="Path 2864" d="M583.94,53.67l6.78-6.77L568.99,31.95Z" fill="#ffe90b" />
        </g>
        <g id="Group_549" data-name="Group 549">
          <path id="Path_2865" data-name="Path 2865" d="M590.72,46.9l-6.78,6.77,21.73,14.96Z" fill="#ffe90b" />
        </g>
        <g id="Group_550" data-name="Group 550">
          <path id="Path_2866" data-name="Path 2866" d="M583.94,46.9l6.78,6.77,14.95-21.72Z" fill="#ffe90b" />
        </g>
        <g id="Group_551" data-name="Group 551">
          <path id="Path_2867" data-name="Path 2867" d="M590.72,53.67l-6.78-6.77L568.99,68.63Z" fill="#ffe90b" />
        </g>
      </g>
      <circle id="Ellipse_233" data-name="Ellipse 233" cx="14.56" cy="14.56" r="14.56"
        transform="translate(572.77 35.73)" fill="#fff" />
      <circle id="Ellipse_234" data-name="Ellipse 234" cx="11.81" cy="11.81" r="11.81"
        transform="translate(575.52 38.48)" fill="#ffe90b" />
    </g>
  </g>
</svg>