<svg xmlns="http://www.w3.org/2000/svg" xmlns:xlink="http://www.w3.org/1999/xlink" width="78.69" height="78.69"
  viewBox="0 0 78.69 78.69">
  <defs>
    <linearGradient id="linear-gradient-magesta" x1="0.076" y1="0.075" x2="0.925" y2="0.924"
      gradientUnits="objectBoundingBox">
      <stop offset="0" stop-color="#d432cc" />
      <stop offset="0.5" stop-color="#6a19cc" />
      <stop offset="1" stop-color="#d432cc" />
    </linearGradient>
  </defs>
  <g id="Group_559" data-name="Group 559" transform="translate(-460.13 -10.37)">
    <path id="Path_2873" data-name="Path 2873"
      d="M518.54,89.06H480.41a20.28,20.28,0,0,1-20.28-20.28V30.65a20.28,20.28,0,0,1,20.28-20.28h38.13a20.28,20.28,0,0,1,20.28,20.28V68.78A20.28,20.28,0,0,1,518.54,89.06Z"
      fill="url(#linear-gradient-magesta)" />
    <g id="Group_558" data-name="Group 558">
      <path id="Path_2874" data-name="Path 2874"
        d="M516.37,31.02c7.88,5.83,10.62,17.32,7.09,26.56-3.53,9.92-13.66,16.67-24.19,16.48-10.48.04-20.59-6.96-23.9-16.9-3.37-9.3-.42-20.75,7.57-26.44-5.16,6.95-6.42,16.71-2.63,24.44a21.316,21.316,0,0,0,30.25,9.06c11.48-7.01,13.47-22.49,5.81-33.2Z"
        fill="#fff" opacity="0.25" />
      <g id="Group_557" data-name="Group 557">
        <path id="Path_2875" data-name="Path 2875"
          d="M492.48,50.96v-.13a8.293,8.293,0,0,1-5.9-4.1l-2.27-4H467.78l23.4,18.4a4.631,4.631,0,0,0,6.8-3.33A7,7,0,0,1,492.48,50.96Z"
          fill="#fff" />
        <path id="Path_2876" data-name="Path 2876"
          d="M514.65,42.72l-2.27,4a8.284,8.284,0,0,1-5.9,4.1v.13a7.013,7.013,0,0,1-5.5,6.84,4.636,4.636,0,0,0,6.8,3.33l23.4-18.4Z"
          fill="#fff" />
      </g>
      <path id="Path_2877" data-name="Path 2877"
        d="M508.81,41.4a2.837,2.837,0,0,1-5.45-1.56c-1.76-.81-3.23-1.93-3.71-3.5a.171.171,0,0,0-.33,0c-.48,1.57-1.95,2.7-3.71,3.5a2.908,2.908,0,0,1,.08.66,2.838,2.838,0,0,1-5.53.9,29.616,29.616,0,0,1-3.21.39h.01l1.72,3.03a7.437,7.437,0,0,0,4.34,3.45,7.005,7.005,0,0,1,12.94,0,7.37,7.37,0,0,0,4.34-3.45l1.72-3.03h.01A26.394,26.394,0,0,1,508.81,41.4Z"
        fill="#fff" />
      <circle id="Ellipse_235" data-name="Ellipse 235" cx="4.22" cy="4.22" r="4.22" transform="translate(495.26 46.74)"
        fill="#fff" />
    </g>
  </g>
</svg>