<svg xmlns="http://www.w3.org/2000/svg" xmlns:xlink="http://www.w3.org/1999/xlink" width="78.69" height="78.69"
  viewBox="0 0 78.69 78.69">
  <defs>
    <linearGradient id="linear-gradient-nubia" x1="0.076" y1="0.075" x2="0.925" y2="0.924"
      gradientUnits="objectBoundingBox">
      <stop offset="0" stop-color="#ffb62c" />
      <stop offset="0.5" stop-color="#ff6d00" />
      <stop offset="1" stop-color="#ffb62c" />
    </linearGradient>
  </defs>
  <g id="Group_556" data-name="Group 556" transform="translate(-372.28 -10.79)">
    <path id="Path_2868" data-name="Path 2868"
      d="M430.69,89.48H392.56A20.28,20.28,0,0,1,372.28,69.2V31.07a20.28,20.28,0,0,1,20.28-20.28h38.13a20.28,20.28,0,0,1,20.28,20.28V69.2A20.28,20.28,0,0,1,430.69,89.48Z"
      fill="url(#linear-gradient-nubia)" />
    <g id="Group_555" data-name="Group 555">
      <path id="Path_2869" data-name="Path 2869"
        d="M436.59,43.44a2.016,2.016,0,0,1-1.42-.59l-4.84-4.84a26.46,26.46,0,0,0-37.42,0l-4.84,4.84a2.008,2.008,0,1,1-2.84-2.84l4.84-4.84a30.479,30.479,0,0,1,43.09,0L438,40.01a2.016,2.016,0,0,1,0,2.84A1.959,1.959,0,0,1,436.59,43.44Z"
        fill="#fff" />
      <path id="Path_2870" data-name="Path 2870"
        d="M438.01,51.24l-8.97-8.97a24.625,24.625,0,0,0-34.82,0l-8.97,8.97.13.13-.13.13,8.97,8.97a24.625,24.625,0,0,0,34.82,0l8.97-8.97-.13-.13Z"
        fill="#fff" opacity="0.35" />
      <path id="Path_2871" data-name="Path 2871"
        d="M411.63,59.16a7.83,7.83,0,1,1,7.83-7.83A7.836,7.836,0,0,1,411.63,59.16Zm0-12.67a4.84,4.84,0,1,0,4.84,4.84A4.844,4.844,0,0,0,411.63,46.49Z"
        fill="#fff" />
      <path id="Path_2872" data-name="Path 2872"
        d="M438.01,51.24l-8.97-8.97a24.625,24.625,0,0,0-34.82,0l-8.97,8.97.13.13-.13.13,8.97,8.97a24.483,24.483,0,0,0,15.41,7.13v8.05a2.01,2.01,0,0,0,4.02,0V67.6a24.456,24.456,0,0,0,15.41-7.13l8.97-8.97-.13-.13Zm-11.81,6.4a20.593,20.593,0,0,1-29.14,0l-6.27-6.27,6.27-6.27a20.593,20.593,0,0,1,29.14,0l6.27,6.27Z"
        fill="#fff" />
    </g>
  </g>
</svg>