<svg xmlns="http://www.w3.org/2000/svg" xmlns:xlink="http://www.w3.org/1999/xlink" width="78.69" height="78.69"
  viewBox="0 0 78.69 78.69">
  <defs>
    <linearGradient id="linear-gradient-sigr" x1="0.076" y1="0.076" x2="0.925" y2="0.925"
      gradientUnits="objectBoundingBox">
      <stop offset="0" stop-color="#ff9804" />
      <stop offset="0.5" stop-color="#ff2b34" />
      <stop offset="1" stop-color="#ff9804" />
    </linearGradient>
  </defs>
  <g id="Group_562" data-name="Group 562" transform="translate(-635.91 -10.94)">
    <g id="Group_560" data-name="Group 560">
      <path id="Path_2878" data-name="Path 2878"
        d="M694.32,89.63H656.19a20.28,20.28,0,0,1-20.28-20.28V31.22a20.28,20.28,0,0,1,20.28-20.28h38.13A20.28,20.28,0,0,1,714.6,31.22V69.35A20.28,20.28,0,0,1,694.32,89.63Z"
        fill="url(#linear-gradient-sigr)" />
    </g>
    <g id="Group_561" data-name="Group 561">
      <path id="Path_2879" data-name="Path 2879"
        d="M675.26,70.97a1.831,1.831,0,0,1-1.83-1.83V23.7a1.83,1.83,0,0,1,3.66,0V69.14A1.831,1.831,0,0,1,675.26,70.97Z"
        fill="#fff" />
      <path id="Path_2880" data-name="Path 2880"
        d="M694.15,59.31H656.36a1.83,1.83,0,1,1,0-3.66h37.79a1.83,1.83,0,1,1,0,3.66Z" fill="#fff" />
      <path id="Path_2881" data-name="Path 2881"
        d="M675.21,54.01a13.42,13.42,0,1,1,13.42-13.42A13.435,13.435,0,0,1,675.21,54.01Zm0-23.17a9.75,9.75,0,1,0,9.75,9.75A9.763,9.763,0,0,0,675.21,30.84Z"
        fill="#fff" />
      <path id="Path_2882" data-name="Path 2882"
        d="M675.26,70.97c-1.01,0-1.83-.49-1.83-1.09v-27c0-.6.82-1.09,1.83-1.09s1.83.49,1.83,1.09v27C677.09,70.48,676.27,70.97,675.26,70.97Z"
        fill="#fff" />
      <path id="Path_2883" data-name="Path 2883"
        d="M686.79,76.32a1.831,1.831,0,0,1-1.83-1.83,9.75,9.75,0,0,0-19.5,0,1.83,1.83,0,0,1-3.66,0,13.42,13.42,0,1,1,26.84,0A1.861,1.861,0,0,1,686.79,76.32Z"
        fill="#fff" />
      <path id="Path_2884" data-name="Path 2884"
        d="M663.05,63.06a1.831,1.831,0,0,1-1.83-1.83V53.85a1.83,1.83,0,0,1,3.66,0v7.38A1.818,1.818,0,0,1,663.05,63.06Z"
        fill="#fff" />
      <path id="Path_2885" data-name="Path 2885"
        d="M656.36,69.17h0a1.831,1.831,0,0,1-1.83-1.83V47.36a1.831,1.831,0,0,1,1.83-1.83h0a1.831,1.831,0,0,1,1.83,1.83V67.34A1.831,1.831,0,0,1,656.36,69.17Z"
        fill="#fff" />
      <path id="Path_2886" data-name="Path 2886"
        d="M687.42,63.06a1.831,1.831,0,0,1-1.83-1.83V53.85a1.83,1.83,0,0,1,3.66,0v7.38A1.831,1.831,0,0,1,687.42,63.06Z"
        fill="#fff" />
      <path id="Path_2887" data-name="Path 2887"
        d="M694.11,69.17a1.831,1.831,0,0,1-1.83-1.83V47.35a1.83,1.83,0,0,1,3.66,0V67.33A1.82,1.82,0,0,1,694.11,69.17Z"
        fill="#fff" />
    </g>
  </g>
</svg>