<svg xmlns="http://www.w3.org/2000/svg" xmlns:xlink="http://www.w3.org/1999/xlink" width="78.69" height="78.69"
  viewBox="0 0 78.69 78.69">
  <defs>
    <linearGradient id="linear-gradient-ufm" x1="0.075" y1="0.076" x2="0.924" y2="0.925"
      gradientUnits="objectBoundingBox">
      <stop offset="0" stop-color="#077bd3" />
      <stop offset="0.5" stop-color="#071a81" />
      <stop offset="1" stop-color="#077bd3" />
    </linearGradient>
  </defs>
  <g id="Group_546" data-name="Group 546" transform="translate(-285.4 -10.6)">
    <path id="Path_2855" data-name="Path 2855"
      d="M343.81,89.29H305.68A20.28,20.28,0,0,1,285.4,69.01V30.88A20.28,20.28,0,0,1,305.68,10.6h38.13a20.28,20.28,0,0,1,20.28,20.28V69.01A20.28,20.28,0,0,1,343.81,89.29Z"
      fill="url(#linear-gradient-ufm)" />
    <g id="Group_545" data-name="Group 545">
      <path id="Path_2856" data-name="Path 2856"
        d="M324.74,79.53a29.58,29.58,0,1,1,29.58-29.58A29.614,29.614,0,0,1,324.74,79.53Zm0-55.21a25.63,25.63,0,1,0,25.63,25.63A25.662,25.662,0,0,0,324.74,24.32Z"
        fill="#fff" />
      <g id="Group_544" data-name="Group 544">
        <path id="Path_2857" data-name="Path 2857"
          d="M337.68,52.08a1.967,1.967,0,0,1,2.77-1.79l4.75,2.14a20.1,20.1,0,0,0,.15-2.47,20.611,20.611,0,0,0-14.33-19.63,14.546,14.546,0,0,1,7,12.31,13.182,13.182,0,0,1-1.25,5.62h-.08a5.062,5.062,0,0,1-4.72,3.25c-1.72,0-3.71-2.08-4.44-2.91a1.178,1.178,0,0,1-.29-.76V43.97a.555.555,0,0,0-.55-.55h-5.83a3.086,3.086,0,0,0-3.09,3.09v1.26a4.082,4.082,0,0,1,2.79-1.26h.09a1.53,1.53,0,0,1,1.53,1.53h0a1.166,1.166,0,0,1-.09.45,5.056,5.056,0,0,1-9.35-.23h-.02a13.215,13.215,0,0,1-1.25-5.62,14.546,14.546,0,0,1,7-12.31A20.53,20.53,0,0,0,304.3,52.46l4.83-2.18a1.963,1.963,0,0,1,2.77,1.79h0a5.109,5.109,0,0,1-2.77,4.28l-3.4,1.53a20.548,20.548,0,0,0,3.63,5.77,5.982,5.982,0,1,1,9.64,6.1,20.743,20.743,0,0,0,11.48,0,5.983,5.983,0,1,1,9.64-6.1,20.509,20.509,0,0,0,3.64-5.8l-3.33-1.5a5.088,5.088,0,0,1-2.75-4.27Z"
          fill="#fff" />
        <path id="Path_2858" data-name="Path 2858"
          d="M324.74,70.72a20.493,20.493,0,0,1-5.78-.82l-.27-.08.22-.18a5.831,5.831,0,1,0-9.4-5.94l-.07.28-.19-.21a20.79,20.79,0,0,1-3.65-5.81l-.06-.14,3.53-1.59a4.927,4.927,0,0,0,2.68-4.14,1.81,1.81,0,0,0-2.55-1.65l-5.02,2.26-.03-.21a22,22,0,0,1-.16-2.52,20.692,20.692,0,0,1,14.44-19.78l1.28-.41-1.16.69a14.391,14.391,0,0,0-6.93,12.18,13.011,13.011,0,0,0,1.19,5.47h.01l.06.1a4.9,4.9,0,0,0,9.07.22.97.97,0,0,0,.08-.39,1.383,1.383,0,0,0-1.38-1.38h-.09a3.987,3.987,0,0,0-2.68,1.2l-.27.3V46.52a3.246,3.246,0,0,1,3.24-3.24h5.83a.7.7,0,0,1,.7.7v3.87a1,1,0,0,0,.25.66c.75.86,2.68,2.86,4.32,2.86a4.935,4.935,0,0,0,4.58-3.15l.04-.1h.08a13.011,13.011,0,0,0,1.19-5.47,14.416,14.416,0,0,0-6.93-12.18l-1.16-.69,1.28.41a20.683,20.683,0,0,1,14.44,19.78,21.436,21.436,0,0,1-.15,2.49l-.02.21-4.94-2.23a1.813,1.813,0,0,0-1.72.13,1.791,1.791,0,0,0-.83,1.52,4.927,4.927,0,0,0,2.68,4.14l3.46,1.56-.06.14a20.689,20.689,0,0,1-3.67,5.85l-.19.21-.07-.28a5.83,5.83,0,1,0-9.4,5.94l.22.18-.27.08A20.677,20.677,0,0,1,324.74,70.72Zm-5.43-1.03a20.628,20.628,0,0,0,10.86,0,6.135,6.135,0,1,1,10.02-6.34,20.63,20.63,0,0,0,3.37-5.41l-3.19-1.44a5.286,5.286,0,0,1-2.86-4.42,2.113,2.113,0,0,1,2.98-1.92l4.56,2.05a21.814,21.814,0,0,0,.13-2.24A20.373,20.373,0,0,0,332.13,30.9a14.744,14.744,0,0,1,6.03,11.75,13.275,13.275,0,0,1-1.26,5.69l-.04.09h-.07a5.239,5.239,0,0,1-4.83,3.25c-1.77,0-3.78-2.07-4.55-2.96a1.31,1.31,0,0,1-.32-.86V43.99a.4.4,0,0,0-.4-.4h-5.83a2.945,2.945,0,0,0-2.94,2.94v.9a4.12,4.12,0,0,1,2.64-1.05h.09a1.677,1.677,0,0,1,1.68,1.68,1.191,1.191,0,0,1-.1.51,5.207,5.207,0,0,1-9.6-.16l-.05-.07a13.275,13.275,0,0,1-1.26-5.69,14.744,14.744,0,0,1,6.03-11.75A20.373,20.373,0,0,0,304.3,49.97a19.863,19.863,0,0,0,.13,2.28l4.64-2.09a2.085,2.085,0,0,1,2.01.15,2.111,2.111,0,0,1,.97,1.77,5.265,5.265,0,0,1-2.86,4.42l-3.26,1.47a20.368,20.368,0,0,0,3.36,5.38,6.135,6.135,0,1,1,10.02,6.34Z"
          fill="#fff" />
      </g>
    </g>
  </g>
</svg>