<svg id="Layer_1" data-name="Layer 1" xmlns="http://www.w3.org/2000/svg" xmlns:xlink="http://www.w3.org/1999/xlink" viewBox="0 0 32 32"><defs><style>.cls-1{fill:url(#linear-gradient);}.cls-2{fill:#05e88b;}.cls-3{fill:#ccc;}.cls-4{fill:#fff;}</style><linearGradient id="linear-gradient" x1="-159.84" y1="-19.71" x2="-137.21" y2="2.92" gradientTransform="translate(7.6 164.53) rotate(90)" gradientUnits="userSpaceOnUse"><stop offset="0" stop-color="#58595b"/><stop offset="0.2" stop-color="#464547"/><stop offset="0.48" stop-color="#333031"/><stop offset="0.75" stop-color="#272324"/><stop offset="1" stop-color="#231f20"/></linearGradient></defs><rect class="cls-1" x="2.67" y="2.67" width="26.65" height="26.65" rx="6.87" transform="translate(-6.63 16) rotate(-45)"/><path class="cls-2" d="M16,30.4a5.63,5.63,0,0,1-4-1.66L3.26,20a5.67,5.67,0,0,1,0-8L12,3.26a5.67,5.67,0,0,1,8,0L28.74,12a5.69,5.69,0,0,1,0,8L20,28.74A5.63,5.63,0,0,1,16,30.4ZM16,2.21a5.06,5.06,0,0,0-3.58,1.48L3.69,12.42a5.08,5.08,0,0,0,0,7.16l8.73,8.73a5.08,5.08,0,0,0,7.16,0l8.73-8.73a5.07,5.07,0,0,0,0-7.16L19.58,3.69A5.06,5.06,0,0,0,16,2.21Z" transform="translate(0 0)"/><polygon class="cls-3" points="12.79 23.93 18.07 13.83 14.11 11.76 8.83 21.86 11.99 20.63 12.79 23.93"/><polygon class="cls-3" points="19.21 23.93 13.93 13.83 17.89 11.76 23.17 21.86 20.01 20.63 19.21 23.93"/><circle class="cls-4" cx="16" cy="12.21" r="5.99"/><circle class="cls-3" cx="16" cy="12.21" r="4.03"/></svg>