<svg id="Layer_1" data-name="Layer 1" xmlns="http://www.w3.org/2000/svg" xmlns:xlink="http://www.w3.org/1999/xlink" viewBox="0 0 32 32"><defs><style>.cls-1{fill:url(#linear-gradient);}.cls-2{fill:#fff;}.cls-3{fill:#05e88b;}</style><linearGradient id="linear-gradient" x1="103.77" y1="-128.9" x2="126.4" y2="-106.28" gradientTransform="translate(-101.59 -99.08) rotate(90)" gradientUnits="userSpaceOnUse"><stop offset="0" stop-color="#58595b"/><stop offset="0.2" stop-color="#464547"/><stop offset="0.48" stop-color="#333031"/><stop offset="0.75" stop-color="#272324"/><stop offset="1" stop-color="#231f20"/></linearGradient></defs><rect class="cls-1" x="2.67" y="2.67" width="26.65" height="26.65" rx="6.87" transform="translate(-6.63 16) rotate(-45)"/><path class="cls-2" d="M24.72,11.78a3.18,3.18,0,0,0-1.29-1.23,4,4,0,0,0-1.92-.42l-2.46,0H16.86l-1.66,0a.26.26,0,0,0-.2.11l-1.88,3.31a.23.23,0,0,1-.39,0l-2-3.27a.26.26,0,0,0-.2-.11l-1.78,0a.22.22,0,0,0-.19.34l3.16,5.19a.24.24,0,0,1,0,.23L8.61,21.53a.23.23,0,0,0,.2.34l1.78,0a.21.21,0,0,0,.19-.11l2-3.54a.23.23,0,0,1,.39,0l2.12,3.5a.22.22,0,0,0,.2.1H19a.24.24,0,0,0,.22-.23l-.05-4.05a.23.23,0,0,1,.23-.23l2.23,0a4.14,4.14,0,0,0,1.91-.46,3.06,3.06,0,0,0,1.26-1.26,3.67,3.67,0,0,0,.44-1.87A3.78,3.78,0,0,0,24.72,11.78Zm-8.81,7.08-1.63-2.67a.6.6,0,0,1,0-.58l1.57-2.75a.57.57,0,0,1,1.06.28v.13h0l-1.32,2.31a.57.57,0,0,0,0,.58l1.29,2.11a.6.6,0,0,1,.08.29A.57.57,0,0,1,15.91,18.86Zm6.86-4.44a1.2,1.2,0,0,1-.46.51,1.26,1.26,0,0,1-.68.19l-2.3,0a.23.23,0,0,1-.23-.23l0-2.43a.23.23,0,0,1,.23-.23l2.29,0a1.42,1.42,0,0,1,.7.17,1.22,1.22,0,0,1,.47.51,1.67,1.67,0,0,1,.17.76A1.53,1.53,0,0,1,22.77,14.42Z"/><path class="cls-2" d="M8.81,22a.3.3,0,0,1-.26-.15.29.29,0,0,1,0-.3L11.68,16a.16.16,0,0,0,0-.15L8.52,10.66a.31.31,0,0,1,0-.31.3.3,0,0,1,.26-.15l1.78,0a.29.29,0,0,1,.26.14l2,3.27a.16.16,0,0,0,.13.07.13.13,0,0,0,.12-.08l1.89-3.3a.31.31,0,0,1,.26-.16l6.31-.07a4.09,4.09,0,0,1,1.95.43,3.23,3.23,0,0,1,1.33,1.26h0a3.83,3.83,0,0,1,.48,1.9,3.82,3.82,0,0,1-.44,1.91,3.18,3.18,0,0,1-1.29,1.28,4.07,4.07,0,0,1-1.95.47l-2.23,0a.14.14,0,0,0-.15.15l.05,4.05a.31.31,0,0,1-.3.3l-3.45,0a.27.27,0,0,1-.26-.14l-2.13-3.5a.16.16,0,0,0-.12-.07.14.14,0,0,0-.13.08l-2,3.54a.3.3,0,0,1-.26.15L8.81,22Zm1.75-11.62h0l-1.78,0a.13.13,0,0,0-.12.08.14.14,0,0,0,0,.15l3.16,5.19a.31.31,0,0,1,0,.31L8.68,21.57a.14.14,0,0,0,0,.15.18.18,0,0,0,.13.08l1.78,0a.15.15,0,0,0,.13-.07l2-3.54A.32.32,0,0,1,13,18a.31.31,0,0,1,.27.14l2.12,3.5a.17.17,0,0,0,.13.07l3.45,0a.14.14,0,0,0,.1-.05.12.12,0,0,0,0-.1l0-4.05a.26.26,0,0,1,.08-.21.3.3,0,0,1,.21-.1l2.24,0a4,4,0,0,0,1.87-.45,3.06,3.06,0,0,0,1.24-1.23,3.61,3.61,0,0,0,.42-1.83,3.69,3.69,0,0,0-.46-1.82h0a3.12,3.12,0,0,0-1.27-1.2,3.92,3.92,0,0,0-1.88-.41l-6.31.07a.17.17,0,0,0-.13.07l-1.88,3.31a.31.31,0,0,1-.52,0l-2-3.27A.14.14,0,0,0,10.56,10.33Zm5.83,8.88a.62.62,0,0,1-.54-.31l-1.63-2.67a.63.63,0,0,1,0-.65l1.56-2.76a.65.65,0,0,1,.72-.3.63.63,0,0,1,.48.62v.16l-1.32,2.32a.5.5,0,0,0,0,.5l1.29,2.11a.67.67,0,0,1,.1.33.64.64,0,0,1-.47.63ZM16,18.82a.49.49,0,0,0,.83-.51L15.52,16.2a.66.66,0,0,1,0-.65l1.31-2.3v-.11a.47.47,0,0,0-.37-.47.48.48,0,0,0-.54.23l-1.57,2.75a.5.5,0,0,0,0,.5Zm3.35-3.6a.3.3,0,0,1-.21-.08.29.29,0,0,1-.09-.22l0-2.43a.3.3,0,0,1,.3-.31l2.29,0a1.31,1.31,0,0,1,1.24.71,1.89,1.89,0,0,1,0,1.59h0a1.28,1.28,0,0,1-.49.54,1.41,1.41,0,0,1-.72.2l-2.3,0Zm2.28-2.91h0l-2.29,0a.15.15,0,0,0-.15.15l0,2.43a.14.14,0,0,0,.15.15l2.3,0a1.22,1.22,0,0,0,.64-.17,1.17,1.17,0,0,0,.43-.48h0a1.53,1.53,0,0,0,.16-.72,1.71,1.71,0,0,0-.17-.73,1.11,1.11,0,0,0-.44-.47A1.22,1.22,0,0,0,21.61,12.31Z"/><path class="cls-3" d="M16,30.33a5.6,5.6,0,0,1-4-1.67L3.26,19.94a5.67,5.67,0,0,1,0-8L12,3.18a5.68,5.68,0,0,1,8,0l8.73,8.73a5.67,5.67,0,0,1,0,8L20,28.66A5.6,5.6,0,0,1,16,30.33ZM16,2.14a5,5,0,0,0-3.58,1.48L3.69,12.34a5.08,5.08,0,0,0,0,7.16l8.73,8.73a5.07,5.07,0,0,0,7.16,0l8.73-8.73a5.08,5.08,0,0,0,0-7.16L19.58,3.62A5,5,0,0,0,16,2.14Z"/></svg>