<svg xmlns="http://www.w3.org/2000/svg" width="32" height="32" viewBox="0 0 32 32">
  <g id="Zeal-32px-01" transform="translate(-0.001 0)">
    <rect id="Rectangle_3183" data-name="Rectangle 3183" width="32" height="32" rx="5" transform="translate(0.001 0)" fill="#2e1954"/>
    <rect id="Rectangle_3184" data-name="Rectangle 3184" width="24" height="24" rx="5" transform="translate(4.001 4)" fill="none" stroke="#05e88b" stroke-width="1"/>
    <path id="Path_2909" data-name="Path 2909" d="M24.72,11.78a3.18,3.18,0,0,0-1.29-1.23,4,4,0,0,0-1.92-.42H15.2a.26.26,0,0,0-.2.11l-1.88,3.31a.23.23,0,0,1-.39,0l-2-3.27a.26.26,0,0,0-.2-.11H8.75a.22.22,0,0,0-.19.34l3.16,5.19a.24.24,0,0,1,0,.23l-3.11,5.6a.23.23,0,0,0,.2.34h1.78a.21.21,0,0,0,.19-.11l2-3.54a.23.23,0,0,1,.39,0l2.12,3.5a.22.22,0,0,0,.2.1H19a.24.24,0,0,0,.22-.23l-.05-4.05a.23.23,0,0,1,.23-.23h2.23a4.14,4.14,0,0,0,1.91-.46,3.06,3.06,0,0,0,1.26-1.26,3.67,3.67,0,0,0,.44-1.87A3.78,3.78,0,0,0,24.72,11.78Zm-8.81,7.08-1.63-2.67a.6.6,0,0,1,0-.58l1.57-2.75a.57.57,0,0,1,1.06.28v.13h0l-1.32,2.31a.57.57,0,0,0,0,.58l1.29,2.11a.6.6,0,0,1,.08.29.57.57,0,0,1-1.05.3Zm6.86-4.44a1.2,1.2,0,0,1-.46.51,1.26,1.26,0,0,1-.68.19h-2.3a.23.23,0,0,1-.23-.23V12.46a.23.23,0,0,1,.23-.23h2.29a1.42,1.42,0,0,1,.7.17,1.22,1.22,0,0,1,.47.51,1.67,1.67,0,0,1,.17.76,1.53,1.53,0,0,1-.19.75Z" transform="translate(-0.881 0.001)" fill="#fff"/>
  </g>
</svg>
