<svg xmlns="http://www.w3.org/2000/svg" width="32" height="32" viewBox="0 0 32 32">
  <g id="Zeal-32px-01" transform="translate(0 0)">
    <rect id="Rectangle_3183" data-name="Rectangle 3183" width="32" height="32" rx="5" transform="translate(0 0)" fill="#2e1954"/>
    <rect id="Rectangle_3184" data-name="Rectangle 3184" width="24" height="24" rx="5" transform="translate(4 4)" fill="none" stroke="#05e88b" stroke-width="1"/>
    <path id="Path_2827" data-name="Path 2827" d="M19.289,11.525a3.445,3.445,0,0,1-1.452,2.614c-.065-3.719-3.593-7.7-3.593-7.7-.114,5.279-4.055,5.768-4.055,10.212C10.247,23.365,23.238,23.441,19.289,11.525Zm-5.328,7.522c-.811-.919-1.452-2.665.811-5.338,0,0,1.792,1.9,1.452,3.652,0,0,.5.059,1.152-.9A3.481,3.481,0,0,1,16.029,19.3,1.577,1.577,0,0,1,13.961,19.047Z" transform="translate(0.886 2.176)" fill="#fff"/>
  </g>
</svg>
