<svg id="Layer_1" data-name="Layer 1" xmlns="http://www.w3.org/2000/svg" xmlns:xlink="http://www.w3.org/1999/xlink" viewBox="0 0 32 32"><defs><style>.cls-1{fill:url(#linear-gradient);}.cls-2{fill:#05e88b;}.cls-3{fill:#fff;}</style><linearGradient id="linear-gradient" x1="-26.09" y1="-73.3" x2="-3.46" y2="-50.67" gradientTransform="translate(-45.99 30.77) rotate(90)" gradientUnits="userSpaceOnUse"><stop offset="0" stop-color="#58595b"/><stop offset="0.2" stop-color="#464547"/><stop offset="0.48" stop-color="#333031"/><stop offset="0.75" stop-color="#272324"/><stop offset="1" stop-color="#231f20"/></linearGradient></defs><rect class="cls-1" x="2.67" y="2.67" width="26.65" height="26.65" rx="6.87" transform="translate(-6.63 16) rotate(-45)"/><path class="cls-2" d="M16,30.4a5.63,5.63,0,0,1-4-1.66L3.26,20a5.69,5.69,0,0,1,0-8L12,3.26a5.66,5.66,0,0,1,8,0L28.74,12a5.69,5.69,0,0,1,0,8L20,28.74A5.63,5.63,0,0,1,16,30.4ZM16,2.21a5.08,5.08,0,0,0-3.58,1.48L3.69,12.42a5.08,5.08,0,0,0,0,7.16l8.73,8.73a5.07,5.07,0,0,0,7.16,0l8.73-8.73a5.08,5.08,0,0,0,0-7.16L19.58,3.69A5.08,5.08,0,0,0,16,2.21Z"/><path class="cls-3" d="M21.41,12.47a4.05,4.05,0,0,1-1.79,3.1c-.08-4.41-4.43-9.13-4.43-9.13-.14,6.26-5,6.84-5,12.11C10.26,26.51,26.28,26.6,21.41,12.47Zm-6.57,8.92c-1-1.09-1.79-3.16,1-6.33,0,0,2.21,2.25,1.79,4.33,0,0,.62.07,1.42-1.07a4.07,4.07,0,0,1-1.66,3.37A2,2,0,0,1,14.84,21.39Z"/></svg>