<svg xmlns="http://www.w3.org/2000/svg" width="103" height="48" viewBox="0 0 103 48">
  <g id="EngalandLogo-01" transform="translate(-276.5 -230.78)">
    <g id="Group_214" data-name="Group 214" transform="translate(276.5 230.78)">
      <g id="Group_211" data-name="Group 211">
        <path id="Path_2662" data-name="Path 2662" d="M282.975,260.276v-9.712H276.5V240.492h6.475V230.78H306v1.8a8.284,8.284,0,0,1-5.845,7.914H306v19.784Z" transform="translate(-276.5 -230.78)"/>
        <path id="Path_2663" data-name="Path 2663" d="M294.45,245.492H307.4v6.475H294.45V255.2H307.4v6.475H287.975v-9.712H281.5v-6.475h6.475V235.78H307.4a6.472,6.472,0,0,1-6.475,6.475H294.45Z" transform="translate(-279.701 -233.981)"/>
        <path id="Path_2664" data-name="Path 2664" d="M371.126,260.276,370.45,259h0l-2.878-5.432v6.709H357.5v-29.5h9.4l.676,1.273,2.878,5.432v-6.7h10.072v29.5h-9.4Z" transform="translate(-328.708 -230.78)"/>
        <path id="Path_2665" data-name="Path 2665" d="M381.924,235.761v25.9H375.45v-.011l-.036.018-6.439-12.151V261.66H362.5v-25.9h6.475v.007l.036-.018L375.45,247.9V235.761Z" transform="translate(-331.915 -233.962)"/>
        <path id="Path_2666" data-name="Path 2666" d="M456.111,260.276v-9.712h-2.878v9.712H420.5v-29.5h45.683v9.712h6.475v10.072h-6.475v9.712Zm-12.95-19.784v-5.486a8.3,8.3,0,0,1-5.486,5.489h5.486Z" transform="translate(-369.658 -230.78)"/>
        <path id="Path_2667" data-name="Path 2667" d="M467.586,245.492V235.78H448.162v9.712h-12.95v6.475h3.237V255.2h-6.475v-12.95h6.475a6.472,6.472,0,0,0,6.475-6.475H425.5v25.9h19.424v-9.712h3.237v9.712h6.475v-9.712h6.475v9.712h6.475v-9.712h6.475v-6.475Zm-6.475,0h-6.475v-3.237h6.475Z" transform="translate(-372.859 -233.981)"/>
      </g>
      <g id="Group_212" data-name="Group 212" transform="translate(1.799 1.788)">
        <path id="Path_2668" data-name="Path 2668" d="M294.45,245.492H307.4v6.475H294.45V255.2H307.4v6.475H287.975v-9.712H281.5v-6.475h6.475V235.78H307.4a6.472,6.472,0,0,1-6.475,6.475H294.45Z" transform="translate(-281.5 -235.769)" fill="#fff"/>
        <path id="Path_2669" data-name="Path 2669" d="M381.924,235.761v25.9H375.45v-.011l-.036.018-6.439-12.151V261.66H362.5v-25.9h6.475v.007l.036-.018L375.45,247.9V235.761Z" transform="translate(-333.708 -235.75)" fill="#fff"/>
        <path id="Path_2670" data-name="Path 2670" d="M467.586,245.492V235.78H448.162v9.712h-12.95v6.475h3.237V255.2h-6.475v-12.95h6.475a6.472,6.472,0,0,0,6.475-6.475H425.5v25.9h19.424v-9.712h3.237v9.712h6.475v-9.712h6.475v9.712h6.475v-9.712h6.475v-6.475Zm-6.475,0h-6.475v-3.237h6.475Z" transform="translate(-374.658 -235.769)" fill="#fff"/>
      </g>
      <g id="Group_213" data-name="Group 213" transform="translate(27.094 31.068)">
        <rect id="Rectangle_102" data-name="Rectangle 102" width="3.115" height="6.234" transform="translate(38.985 5.345)" fill="#00da86"/>
        <rect id="Rectangle_103" data-name="Rectangle 103" width="3.119" height="1.554" transform="translate(17.162 5.345)" fill="#00da86"/>
        <path id="Path_2671" data-name="Path 2671" d="M353.14,317.15v16.932H401.5V317.15Zm12.486,14.7h-9.352V319.377h3.119v9.352h6.234Zm10.91,0H373.42v-4.68H370.3v4.68h-3.119V319.377h9.352Zm10.914,0h-3.119v-.007l-.018.011-3.1-5.852v5.849H378.1V319.38h3.115v.007l.018-.011,3.1,5.852V319.38h3.119Zm10.91-3.122a3.118,3.118,0,0,1-3.119,3.119h-3.115v0h-3.119V319.38h3.119v0h3.115a3.12,3.12,0,0,1,3.119,3.119Z" transform="translate(-353.14 -317.15)" fill="#00da86"/>
      </g>
    </g>
  </g>
</svg>
