<svg xmlns="http://www.w3.org/2000/svg" width="24" height="24" viewBox="0 0 24 24">
  <g id="archive" transform="translate(-492 -444)">
    <path id="Vector" d="M7,20h6c5,0,7-2,7-7V7c0-5-2-7-7-7H7C2,0,0,2,0,7v6C0,18,2,20,7,20Z" transform="translate(494 446)" fill="none" stroke="#292d32" stroke-linecap="round" stroke-linejoin="round" stroke-width="1.5"/>
    <g id="Group">
      <path id="Vector-2" data-name="Vector" d="M12,2V8.75a2.006,2.006,0,0,0-2-2H2a2.006,2.006,0,0,0-2,2V2A2.006,2.006,0,0,1,2,0h8A2.006,2.006,0,0,1,12,2Z" transform="translate(498 449.75)" fill="none" stroke="#292d32" stroke-linecap="round" stroke-linejoin="round" stroke-width="1.5"/>
      <path id="Vector-3" data-name="Vector" d="M1,0H0" transform="translate(510 459.75)" fill="none" stroke="#292d32" stroke-linecap="round" stroke-linejoin="round" stroke-width="1.5"/>
      <path id="Vector-4" data-name="Vector" d="M1,0H0" transform="translate(497 459.75)" fill="none" stroke="#292d32" stroke-linecap="round" stroke-linejoin="round" stroke-width="1.5"/>
    </g>
    <path id="Vector-5" data-name="Vector" d="M12,5V2a2.006,2.006,0,0,0-2-2H2A2.006,2.006,0,0,0,0,2V5" transform="translate(498 453)" fill="none" stroke="#292d32" stroke-linecap="round" stroke-linejoin="round" stroke-width="1.5"/>
    <path id="Vector-6" data-name="Vector" d="M12,2V3.25H8.5a2.5,2.5,0,0,1-5,0H0V2A2.006,2.006,0,0,1,2,0h8A2.006,2.006,0,0,1,12,2Z" transform="translate(498 456.5)" fill="none" stroke="#292d32" stroke-linecap="round" stroke-linejoin="round" stroke-width="1.5"/>
    <path id="Vector-7" data-name="Vector" d="M0,0H24V24H0Z" transform="translate(492 444)" fill="none" opacity="0"/>
  </g>
</svg>
