<svg xmlns="http://www.w3.org/2000/svg" width="26" height="26" viewBox="0 0 26 26">
  <g id="Layer_2" data-name="Layer 2" transform="translate(-0.396 -0.711)">
    <path id="Subtraction_6" data-name="Subtraction 6" d="M13,26A13,13,0,0,1,0,13,13,13,0,0,1,13,0,13,13,0,0,1,26,13,13,13,0,0,1,13,26Zm6.851-15.289-9.151,9.2,2.267,2.267,9.145-9.147ZM16.406,7.268l-9.143,9.2,2.265,2.267,9.147-9.153ZM6.088,10.711,3.821,13.026l2.267,2.267,2.267-2.267Zm6.878-6.88-5.7,5.752L9.529,11.85l5.7-5.7Z" transform="translate(0.396 0.711)" fill="#948f9f"/>
  </g>
</svg>
