<svg xmlns="http://www.w3.org/2000/svg" width="365.458" height="365.458" viewBox="0 0 365.458 365.458">
  <g id="Layer_x0020_1" transform="translate(-34.297 -39.454)">
    <path id="Path_1" data-name="Path 1" d="M182.729,0a182.729,182.729,0,0,1,0,365.458C81.818,365.458,0,283.649,0,182.729S81.818,0,182.729,0Z" transform="translate(34.297 39.454)" fill="#f5ac37" fill-rule="evenodd"/>
    <path id="Path_2" data-name="Path 2" d="M229.085,236.67h83.688c1.784,0,2.626,0,2.755-2.339a159.975,159.975,0,0,0,0-25.6c0-1.655-.823-2.339-2.616-2.339H146.359c-2.061,0-2.616.684-2.616,2.616v24.5c0,3.162,0,3.162,3.3,3.162h82.043Zm77.1-58.911a2.68,2.68,0,0,0,0-1.923,54.433,54.433,0,0,0-4.975-8.672,70.222,70.222,0,0,0-10.188-12.8,33.771,33.771,0,0,0-6.333-6.194,98.944,98.944,0,0,0-41.3-20.922,102.66,102.66,0,0,0-23.4-2.478H146.071c-2.061,0-2.339.823-2.339,2.616v48.861c0,2.061,0,2.617,2.616,2.617H305.192s1.378-.278,1.655-1.1h-.674Zm0,87.543a32.123,32.123,0,0,0-7.037,0H146.5c-2.061,0-2.755,0-2.755,2.755v47.771c0,2.2,0,2.755,2.755,2.755h70.477a35.2,35.2,0,0,0,10.04-.684,104.915,104.915,0,0,0,29.881-6.611,54.69,54.69,0,0,0,10.04-4.678h.961a89.426,89.426,0,0,0,38.4-38.663s.961-2.081-.119-2.626Zm-190.1,78.049V267.235c0-1.794,0-2.061-2.2-2.061H84.009c-1.655,0-2.339,0-2.339-2.2V236.818H113.6c1.784,0,2.478,0,2.478-2.339V208.6c0-1.655,0-2.061-2.2-2.061H84.009c-1.655,0-2.339,0-2.339-2.2V180.118c0-1.516,0-1.923,2.2-1.923h29.594c2.061,0,2.616,0,2.616-2.616V101.385c0-2.2,0-2.755,2.755-2.755H222.068a157.289,157.289,0,0,1,22.3,2.478,134.549,134.549,0,0,1,43.083,15.967A121.415,121.415,0,0,1,311.673,135.8,132.641,132.641,0,0,1,326.4,154.1a110.4,110.4,0,0,1,10.753,21.061,3.584,3.584,0,0,0,4.113,2.894h24.639c3.162,0,3.162,0,3.3,3.033v22.577c0,2.2-.823,2.755-3.033,2.755h-19c-1.923,0-2.478,0-2.339,2.478a140.615,140.615,0,0,1,0,25.184c0,2.339,0,2.617,2.626,2.617H369.2c.961,1.239,0,2.478,0,3.727a27.8,27.8,0,0,1,0,4.807v16.66c0,2.339-.684,3.033-2.755,3.033H340.425a3.444,3.444,0,0,0-3.994,2.617,110.071,110.071,0,0,1-28.91,42.121A165.8,165.8,0,0,1,292.793,321.5c-5.51,3.172-10.872,6.472-16.522,9.088A148.827,148.827,0,0,1,243.783,340.9a169.371,169.371,0,0,1-32.211,2.617H116.041v-.139Z" transform="translate(0.38 1.1)" fill-rule="evenodd"/>
  </g>
</svg>
