<svg xmlns="http://www.w3.org/2000/svg" width="48.001" height="48.001" viewBox="0 0 48.001 48.001">
  <g id="shop" transform="translate(-172 -252)">
    <path id="Vector" d="M41.58,14.04,41,8.5C40.16,2.46,37.42,0,31.56,0H10.039c-5.88,0-8.6,2.46-9.46,8.56l-.54,5.5a8.221,8.221,0,0,0,1.64,5.84A8.02,8.02,0,0,0,8.139,23a8.186,8.186,0,0,0,6.46-3.28,7.629,7.629,0,0,0,12.48.08,8.2,8.2,0,0,0,6.4,3.2,7.964,7.964,0,0,0,6.56-3.26A8.145,8.145,0,0,0,41.58,14.04Z" transform="translate(175.141 254.5)" fill="#fff"/>
    <path id="Vector-2" data-name="Vector" d="M4.46.07A4.99,4.99,0,0,0,0,5.051v5.48a.982.982,0,0,0,.98.98h9.54a.982.982,0,0,0,.98-.98V5.751C11.52,1.571,9.06-.41,4.46.07Z" transform="translate(190.24 285.25)" fill="#fff"/>
    <path id="Vector-3" data-name="Vector" d="M37.481,3.64V9.6a10,10,0,0,1-10,10,.982.982,0,0,1-.98-.98V13.84a7.58,7.58,0,0,0-2.3-5.92,7.762,7.762,0,0,0-5.42-1.82,13.709,13.709,0,0,0-1.54.08,6.971,6.971,0,0,0-6.26,6.96v5.48a.982.982,0,0,1-.98.98A10,10,0,0,1,0,9.6V3.68A2,2,0,0,1,2.68,1.8a9.342,9.342,0,0,0,1.64.4,4.651,4.651,0,0,0,.74.08,7.733,7.733,0,0,0,.96.06A10.162,10.162,0,0,0,12.42,0a9.7,9.7,0,0,0,6.32,2.34,9.577,9.577,0,0,0,6.3-2.3,10.1,10.1,0,0,0,6.32,2.3,9.156,9.156,0,0,0,1.06-.06c.24-.02.46-.04.68-.08a9.636,9.636,0,0,0,1.74-.44A1.993,1.993,0,0,1,37.481,3.64Z" transform="translate(177.26 277.161)" fill="#fff"/>
    <path id="Vector-4" data-name="Vector" d="M0,0H48V48H0Z" transform="translate(220.001 300.001) rotate(180)" fill="none" opacity="0"/>
  </g>
</svg>
