<svg xmlns="http://www.w3.org/2000/svg" xmlns:xlink="http://www.w3.org/1999/xlink" width="48.004" height="51"
  viewBox="0 0 48.004 51">
  <defs>
    <clipPath id="clip-path">
      <circle id="Ellipse_1" data-name="Ellipse 1" cx="12" cy="12" r="12" transform="translate(-0.492 -0.492)"
        fill="#948f9f" />
    </clipPath>
  </defs>
  <g id="convert-card" transform="translate(0.003 2)">
    <path id="Vector" d="M0,0H48V48H0Z" transform="translate(0 0)" fill="none" opacity="0" />
    <path id="Vector-2" data-name="Vector" d="M14,0A13.99,13.99,0,0,1,0,14l2.1-3.5" transform="translate(30 30.001)"
      fill="none" stroke="#948f9f" stroke-linecap="round" stroke-linejoin="round" stroke-width="1.5" />
    <path id="Vector-3" data-name="Vector" d="M0,14A13.99,13.99,0,0,1,14,0L11.9,3.5" transform="translate(4 4)"
      fill="none" stroke="#948f9f" stroke-linecap="round" stroke-linejoin="round" stroke-width="1.5" />
    <g id="Layer_2" data-name="Layer 2" transform="translate(-0.696 24.29)">
      <path id="Subtraction_6" data-name="Subtraction 6"
        d="M19258.7,23622.709a12,12,0,1,1,8.488-3.514A11.914,11.914,0,0,1,19258.7,23622.709Zm6.324-14.113-8.447,8.488,2.092,2.092,8.443-8.441Zm-3.178-3.178-8.441,8.494,2.092,2.092,8.443-8.447Zm-9.527,3.178-2.092,2.139,2.092,2.092,2.094-2.092Zm6.35-6.35-5.264,5.311,2.092,2.092,5.266-5.264Z"
        transform="translate(-19246.004 -23597.998)" fill="#948f9f" />
    </g>
    <g id="Group_6" data-name="Group 6" transform="translate(-99.084 -215.082)">
      <g id="Group_1" data-name="Group 1" transform="translate(123.572 213.572)">
        <path id="Path_1" data-name="Path 1"
          d="M207.52,299.543l1.368,1.368,5.472-5.472,2.736,2.736-8.207,8.207-4.1-4.1-4.274,4.274a11.507,11.507,0,0,0,16.043-16.043Z"
          transform="translate(-195.656 -285.656)" fill="#948f9f" />
        <path id="Path_2" data-name="Path 2"
          d="M129.964,227.459l-4.1-4.1,8.207-8.207a3.867,3.867,0,0,1,0,5.472l-2.736,2.736,1.368,1.368,9.033-9.033a11.507,11.507,0,0,0-16.043,16.043Z"
          transform="translate(-123.572 -213.572)" fill="#948f9f" />
      </g>
    </g>
  </g>
</svg>