<svg xmlns="http://www.w3.org/2000/svg" width="48" height="48" viewBox="0 0 48 48">
  <g id="discount-shape" transform="translate(-364 -316)">
    <path id="Vector" d="M0,0H48V48H0Z" transform="translate(364 316)" fill="none" opacity="0"/>
    <path id="Vector-2" data-name="Vector" d="M39.05,17.73l-3.04-3.04a3.69,3.69,0,0,1-.94-2.26V8.11a3.209,3.209,0,0,0-3.2-3.2h-4.3a3.69,3.69,0,0,1-2.26-.94L22.27.93a3.211,3.211,0,0,0-4.52,0L14.67,3.97a3.6,3.6,0,0,1-2.26.94H8.11a3.209,3.209,0,0,0-3.2,3.2v4.3a3.69,3.69,0,0,1-.94,2.26L.93,17.71a3.211,3.211,0,0,0,0,4.52l3.04,3.04a3.69,3.69,0,0,1,.94,2.26v4.3a3.209,3.209,0,0,0,3.2,3.2h4.3a3.69,3.69,0,0,1,2.26.94l3.04,3.04a3.211,3.211,0,0,0,4.52,0l3.04-3.04a3.69,3.69,0,0,1,2.26-.94h4.3a3.209,3.209,0,0,0,3.2-3.2v-4.3a3.69,3.69,0,0,1,.94-2.26l3.04-3.04A3.117,3.117,0,0,0,39.05,17.73ZM11.99,13.99a2,2,0,1,1,2,2A2.006,2.006,0,0,1,11.99,13.99Zm3.06,13.06a1.5,1.5,0,0,1-2.12,0,1.509,1.509,0,0,1,0-2.12l12-12a1.5,1.5,0,0,1,2.12,2.12Zm10.94.94a2,2,0,1,1,1.98-2A1.989,1.989,0,0,1,25.99,27.99Z" transform="translate(368.01 320.01)" fill="#fff"/>
  </g>
</svg>
