<svg xmlns="http://www.w3.org/2000/svg" width="48.001" height="48.001" viewBox="0 0 48.001 48.001">
  <g id="ticket" transform="translate(-492 -572)">
    <path id="Vector" d="M41.5,15A1.511,1.511,0,0,0,43,13.5v-2C43,2.68,40.321,0,31.5,0H19V4.5a1.5,1.5,0,1,1-3,0V0H11.5C2.68,0,0,2.68,0,11.5v1A1.511,1.511,0,0,0,1.5,14a3.5,3.5,0,0,1,0,7A1.511,1.511,0,0,0,0,22.5v1C0,32.321,2.68,35,11.5,35H16V30.5a1.5,1.5,0,1,1,3,0V35H31.5c8.82,0,11.5-2.68,11.5-11.5A1.511,1.511,0,0,0,41.5,22a3.5,3.5,0,1,1,0-7ZM19,21.841a1.5,1.5,0,0,1-3,0V13.16a1.5,1.5,0,1,1,3,0Z" transform="translate(494.5 578.5)" fill="#fff"/>
    <path id="Vector-2" data-name="Vector" d="M0,0H48V48H0Z" transform="translate(492 572)" fill="none" opacity="0"/>
  </g>
</svg>
