<svg xmlns="http://www.w3.org/2000/svg" width="48.001" height="48.001" viewBox="0 0 48.001 48.001">
  <g id="people" transform="translate(-620 -252)">
    <path id="Vector" d="M0,0H48V48H0Z" transform="translate(620 252)" fill="none" opacity="0"/>
    <path id="Vector-2" data-name="Vector" d="M5.98,11.54a1.477,1.477,0,0,0-.42,0,5.79,5.79,0,1,1,.42,0Z" transform="translate(649.081 256)" fill="#fff"/>
    <path id="Vector-3" data-name="Vector" d="M8.38,9.385A12.419,12.419,0,0,1,.1,11.065a13.062,13.062,0,0,0,1.18-5.38A12.289,12.289,0,0,0,0,.125a12.474,12.474,0,0,1,8.36,1.66C11.52,3.865,11.52,7.285,8.38,9.385Z" transform="translate(653.201 272.015)" fill="#fff"/>
    <path id="Vector-4" data-name="Vector" d="M5.56,11.54a1.477,1.477,0,0,1,.42,0,5.77,5.77,0,1,0-.42,0Z" transform="translate(627.32 256)" fill="#fff"/>
    <path id="Vector-5" data-name="Vector" d="M9.11,5.686a13.025,13.025,0,0,0,1.18,5.44,12.358,12.358,0,0,1-7.92-1.72c-3.16-2.1-3.16-5.52,0-7.62a12.283,12.283,0,0,1,8-1.7A12.716,12.716,0,0,0,9.11,5.686Z" transform="translate(623.99 272.015)" fill="#fff"/>
    <path id="Vector-6" data-name="Vector" d="M7.14,13.74a2.259,2.259,0,0,0-.52,0,6.9,6.9,0,1,1,.52,0Z" transform="translate(637.1 270.001)" fill="#fff"/>
    <path id="Vector-7" data-name="Vector" d="M2.265,1.725c-3.02,2.02-3.02,5.34,0,7.34a12.222,12.222,0,0,0,12.52,0c3.02-2.02,3.02-5.34,0-7.34A12.222,12.222,0,0,0,2.265,1.725Z" transform="translate(635.475 286.156)" fill="#fff"/>
  </g>
</svg>
