<svg xmlns="http://www.w3.org/2000/svg" width="21.998" height="21.998" viewBox="0 0 21.998 21.998">
  <g id="category-2" transform="translate(-172 -188)">
    <path id="Vector" d="M2.75,7.333H4.583a2.43,2.43,0,0,0,2.75-2.75V2.75A2.43,2.43,0,0,0,4.583,0H2.75A2.43,2.43,0,0,0,0,2.75V4.583A2.43,2.43,0,0,0,2.75,7.333Z" transform="translate(184.832 189.833)" fill="none" stroke="#948f9f" stroke-linecap="round" stroke-linejoin="round" stroke-width="1.5"/>
    <path id="Vector-2" data-name="Vector" d="M2.75,7.333H4.583a2.43,2.43,0,0,0,2.75-2.75V2.75A2.43,2.43,0,0,0,4.583,0H2.75A2.43,2.43,0,0,0,0,2.75V4.583A2.43,2.43,0,0,0,2.75,7.333Z" transform="translate(173.833 200.832)" fill="none" stroke="#948f9f" stroke-linecap="round" stroke-linejoin="round" stroke-width="1.5"/>
    <path id="Vector-3" data-name="Vector" d="M7.333,3.666A3.666,3.666,0,1,1,3.666,0,3.666,3.666,0,0,1,7.333,3.666Z" transform="translate(173.833 189.833)" fill="none" stroke="#948f9f" stroke-linecap="round" stroke-linejoin="round" stroke-width="1.5"/>
    <path id="Vector-4" data-name="Vector" d="M7.333,3.666A3.666,3.666,0,1,1,3.666,0,3.666,3.666,0,0,1,7.333,3.666Z" transform="translate(184.832 200.832)" fill="none" stroke="#948f9f" stroke-linecap="round" stroke-linejoin="round" stroke-width="1.5"/>
    <path id="Vector-5" data-name="Vector" d="M0,0H22V22H0Z" transform="translate(172 188)" fill="none" opacity="0"/>
  </g>
</svg>
