<svg id="money-change" xmlns="http://www.w3.org/2000/svg" width="48.002" height="48.002" viewBox="0 0 48.002 48.002">
  <path id="Vector" d="M30,0H10C4,0,0,3,0,10v7.12a1,1,0,0,0,1.42.9,11.075,11.075,0,0,1,6.6-.82A11.126,11.126,0,0,1,17,28.361a10.154,10.154,0,0,1-.36,2.46.98.98,0,0,0,.98,1.2H30c6,0,10-3,10-10V10C40,3,36,0,30,0ZM20,21a5,5,0,1,1,5-5A5,5,0,0,1,20,21Zm14.5-1a1.5,1.5,0,1,1-3,0V12a1.5,1.5,0,1,1,3,0Z" transform="translate(4 8)" fill="#fff"/>
  <path id="Vector-2" data-name="Vector" d="M0,0H48V48H0Z" transform="translate(0 0)" fill="none" opacity="0"/>
  <path id="Vector-3" data-name="Vector" d="M8,0A8.037,8.037,0,0,0,1.78,2.98,7.921,7.921,0,0,0,0,8a8,8,0,0,0,15.541,2.66A7.742,7.742,0,0,0,16,8,8.011,8.011,0,0,0,8,0Zm4.72,11.48a.871.871,0,0,1-.2.32l-1.44,1.42a.877.877,0,0,1-.68.28.92.92,0,0,1-.7-.28.942.942,0,0,1-.16-1.14H5.52A2.326,2.326,0,0,1,3.2,9.74v-.2a.98.98,0,1,1,1.96,0v.2a.385.385,0,0,0,.38.4H9.56a.972.972,0,0,1,.16-1.16.954.954,0,0,1,1.36,0l1.44,1.44a1.289,1.289,0,0,1,.22.32A1.051,1.051,0,0,1,12.721,11.48Zm.08-5.02a.98.98,0,0,1-1.96,0v-.2a.385.385,0,0,0-.38-.4h-4A.965.965,0,0,1,5.6,7.3a.988.988,0,0,1-.68-.28L3.48,5.58a1.289,1.289,0,0,1-.22-.32,1.171,1.171,0,0,1,0-.74,1.143,1.143,0,0,1,.22-.32L4.92,2.78a.921.921,0,0,1,1.36,0,.942.942,0,0,1,.16,1.14h4.02a2.326,2.326,0,0,1,2.32,2.34v.2Z" transform="translate(2 28.001)" fill="#fff"/>
</svg>
