<svg xmlns="http://www.w3.org/2000/svg" width="27.558" height="21" viewBox="0 0 27.558 21">
  <path id="Path_1" data-name="Path 1" d="M23.329,2.153A22.729,22.729,0,0,0,17.72.413a.085.085,0,0,0-.09.043,15.825,15.825,0,0,0-.7,1.434,20.985,20.985,0,0,0-6.3,0A14.514,14.514,0,0,0,9.921.456a.088.088,0,0,0-.09-.043A22.666,22.666,0,0,0,4.222,2.153a.08.08,0,0,0-.037.032A23.248,23.248,0,0,0,.114,17.866a.1.1,0,0,0,.036.064,22.855,22.855,0,0,0,6.881,3.478.089.089,0,0,0,.1-.032,16.329,16.329,0,0,0,1.408-2.289.087.087,0,0,0-.048-.121,15.051,15.051,0,0,1-2.15-1.024.088.088,0,0,1-.009-.147c.144-.108.289-.221.427-.335a.085.085,0,0,1,.089-.012,16.3,16.3,0,0,0,13.849,0,.085.085,0,0,1,.09.011c.138.114.282.227.428.336a.088.088,0,0,1-.008.147,14.123,14.123,0,0,1-2.151,1.023.088.088,0,0,0-.047.122,18.334,18.334,0,0,0,1.407,2.288.087.087,0,0,0,.1.033A22.779,22.779,0,0,0,27.4,17.93a.088.088,0,0,0,.036-.063A23.1,23.1,0,0,0,23.365,2.185.07.07,0,0,0,23.329,2.153ZM9.209,14.736a2.648,2.648,0,0,1-2.477-2.777A2.634,2.634,0,0,1,9.209,9.182a2.619,2.619,0,0,1,2.477,2.777A2.634,2.634,0,0,1,9.209,14.736Zm9.157,0a2.648,2.648,0,0,1-2.477-2.777,2.634,2.634,0,0,1,2.477-2.777,2.619,2.619,0,0,1,2.477,2.777A2.627,2.627,0,0,1,18.366,14.736Z" transform="translate(0 -0.412)" fill="#948f9f"/>
</svg>
