<svg xmlns="http://www.w3.org/2000/svg" width="20" height="20.999" viewBox="0 0 20 20.999">
  <path id="Forma_1" data-name="Forma 1" d="M221.25,2401a6.411,6.411,0,0,1-6.25-6.562v-7.875a6.412,6.412,0,0,1,6.25-6.562h7.5a6.413,6.413,0,0,1,6.25,6.562v7.875a6.412,6.412,0,0,1-6.25,6.562Zm-4.375-14.437v7.875a4.494,4.494,0,0,0,4.375,4.595h7.5a4.494,4.494,0,0,0,4.375-4.595v-7.875a4.5,4.5,0,0,0-4.375-4.594h-7.5A4.5,4.5,0,0,0,216.874,2386.561ZM220,2390.5a5.006,5.006,0,1,1,5,5.251A5.129,5.129,0,0,1,220,2390.5Zm1.874,0a3.129,3.129,0,1,0,3.126-3.281A3.21,3.21,0,0,0,221.874,2390.5Zm7.83-5.648a.667.667,0,1,1,.667.7A.684.684,0,0,1,229.7,2384.85Z" transform="translate(-215 -2379.999)" fill="#948f9f"/>
</svg>
