<svg xmlns="http://www.w3.org/2000/svg" width="664" height="178.5" viewBox="0 0 664 178.5">
  <g id="Group_92" data-name="Group 92" transform="translate(-1201 -434.5)">
    <g id="Styles" transform="translate(1201 431)">
      <g id="Frame_2" data-name="Frame 2">
        <line id="Line_1" data-name="Line 1" x2="21" transform="translate(260 3.5) rotate(90)" fill="none" stroke="#e6eaee" stroke-width="1"/>
      </g>
    </g>
    <g id="vuesax_linear_briefcase" data-name="vuesax/linear/briefcase" transform="translate(1093 337)">
      <g id="briefcase">
        <path id="Vector" d="M5.751,16h8c4.02,0,4.74-1.61,4.95-3.57l.75-8c.27-2.44-.43-4.43-4.7-4.43h-10C.481,0-.219,1.99.051,4.43l.75,8C1.011,14.39,1.731,16,5.751,16Z" transform="translate(110.249 194)" fill="none" stroke="#292d32" stroke-linecap="round" stroke-linejoin="round" stroke-width="1.5"/>
        <path id="Vector-2" data-name="Vector" d="M0,4V3.2C0,1.43,0,0,3.2,0H4.8C8,0,8,1.43,8,3.2V4" transform="translate(116 190)" fill="none" stroke="#292d32" stroke-linecap="round" stroke-linejoin="round" stroke-width="1.5"/>
        <path id="Vector-3" data-name="Vector" d="M4,1V2.02C4,3.11,3.99,4,2,4S0,3.12,0,2.03V1C0,0,0,0,1,0H3C4,0,4,0,4,1Z" transform="translate(118 200)" fill="none" stroke="#292d32" stroke-linecap="round" stroke-linejoin="round" stroke-width="1.5"/>
        <path id="Vector-4" data-name="Vector" d="M7.65,0A16.484,16.484,0,0,1,0,3.02" transform="translate(122 199)" fill="none" stroke="#292d32" stroke-linecap="round" stroke-linejoin="round" stroke-width="1.5"/>
        <path id="Vector-5" data-name="Vector" d="M0,0A16.283,16.283,0,0,0,7.38,2.76" transform="translate(110.62 199.27)" fill="none" stroke="#292d32" stroke-linecap="round" stroke-linejoin="round" stroke-width="1.5"/>
        <path id="Vector-6" data-name="Vector" d="M0,0H24V24H0Z" transform="translate(132 212) rotate(180)" fill="none" opacity="0"/>
      </g>
    </g>
    <g id="vuesax_linear_brifecase-timer" data-name="vuesax/linear/brifecase-timer" transform="translate(1093 337)">
      <g id="brifecase-timer">
        <path id="Vector-7" data-name="Vector" d="M8,4A4,4,0,1,1,4,0,4,4,0,0,1,8,4Z" transform="translate(180 198.2)" fill="none" stroke="#292d32" stroke-linecap="round" stroke-linejoin="round" stroke-width="1.5"/>
        <path id="Vector-8" data-name="Vector" d="M1.25,0V.93a.99.99,0,0,1-.49.86L0,2.25" transform="translate(183 200.95)" fill="none" stroke="#292d32" stroke-linecap="round" stroke-linejoin="round" stroke-width="1.5"/>
        <path id="Vector-9" data-name="Vector" d="M5.751,16h8c4.02,0,4.74-1.61,4.95-3.57l.75-8c.27-2.44-.43-4.43-4.7-4.43h-10C.481,0-.219,1.99.051,4.43l.75,8C1.011,14.39,1.731,16,5.751,16Z" transform="translate(174.249 194)" fill="none" stroke="#292d32" stroke-linecap="round" stroke-linejoin="round" stroke-width="1.5"/>
        <path id="Vector-10" data-name="Vector" d="M0,4V3.2C0,1.43,0,0,3.2,0H4.8C8,0,8,1.43,8,3.2V4" transform="translate(180 190)" fill="none" stroke="#292d32" stroke-linecap="round" stroke-linejoin="round" stroke-width="1.5"/>
        <path id="Vector-11" data-name="Vector" d="M5.64,0A16.335,16.335,0,0,1,0,2.64" transform="translate(188.01 199)" fill="none" stroke="#292d32" stroke-linecap="round" stroke-linejoin="round" stroke-width="1.5"/>
        <path id="Vector-12" data-name="Vector" d="M0,0A16.435,16.435,0,0,0,5.38,2.41" transform="translate(174.62 199.27)" fill="none" stroke="#292d32" stroke-linecap="round" stroke-linejoin="round" stroke-width="1.5"/>
        <path id="Vector-13" data-name="Vector" d="M0,0H24V24H0Z" transform="translate(196 212) rotate(180)" fill="none" opacity="0"/>
      </g>
    </g>
    <g id="vuesax_linear_brifecase-tick" data-name="vuesax/linear/brifecase-tick" transform="translate(1093 337)">
      <g id="brifecase-tick">
        <path id="Vector-14" data-name="Vector" d="M8,4A4,4,0,1,1,4,0,4,4,0,0,1,8,4Z" transform="translate(244 198.2)" fill="none" stroke="#292d32" stroke-linecap="round" stroke-linejoin="round" stroke-width="1.5"/>
        <path id="Vector-15" data-name="Vector" d="M0,.98l.65.65a.5.5,0,0,0,.69.01L3.12,0" transform="translate(246.44 201.32)" fill="none" stroke="#292d32" stroke-linecap="round" stroke-linejoin="round" stroke-width="1.5"/>
        <path id="Vector-16" data-name="Vector" d="M5.751,16h8c4.02,0,4.74-1.61,4.95-3.57l.75-8c.27-2.44-.43-4.43-4.7-4.43h-10C.481,0-.219,1.99.051,4.43l.75,8C1.011,14.39,1.731,16,5.751,16Z" transform="translate(238.249 194)" fill="none" stroke="#292d32" stroke-linecap="round" stroke-linejoin="round" stroke-width="1.5"/>
        <path id="Vector-17" data-name="Vector" d="M0,4V3.2C0,1.43,0,0,3.2,0H4.8C8,0,8,1.43,8,3.2V4" transform="translate(244 190)" fill="none" stroke="#292d32" stroke-linecap="round" stroke-linejoin="round" stroke-width="1.5"/>
        <path id="Vector-18" data-name="Vector" d="M5.64,0A16.335,16.335,0,0,1,0,2.64" transform="translate(252.01 199)" fill="none" stroke="#292d32" stroke-linecap="round" stroke-linejoin="round" stroke-width="1.5"/>
        <path id="Vector-19" data-name="Vector" d="M0,0A16.435,16.435,0,0,0,5.38,2.41" transform="translate(238.62 199.27)" fill="none" stroke="#292d32" stroke-linecap="round" stroke-linejoin="round" stroke-width="1.5"/>
        <path id="Vector-20" data-name="Vector" d="M0,0H24V24H0Z" transform="translate(260 212) rotate(180)" fill="none" opacity="0"/>
      </g>
    </g>
    <g id="vuesax_linear_brifecase-cross" data-name="vuesax/linear/brifecase-cross" transform="translate(1093 337)">
      <g id="brifecase-cross">
        <path id="Vector-21" data-name="Vector" d="M8,4A4,4,0,1,1,4,0,4,4,0,0,1,8,4Z" transform="translate(308 198.2)" fill="none" stroke="#292d32" stroke-linecap="round" stroke-linejoin="round" stroke-width="1.5"/>
        <path id="Vector-22" data-name="Vector" d="M2.12,2.11,0,0" transform="translate(310.95 201.2)" fill="none" stroke="#292d32" stroke-linecap="round" stroke-linejoin="round" stroke-width="1.5"/>
        <path id="Vector-23" data-name="Vector" d="M2.12,0,0,2.12" transform="translate(310.93 201.22)" fill="none" stroke="#292d32" stroke-linecap="round" stroke-linejoin="round" stroke-width="1.5"/>
        <path id="Vector-24" data-name="Vector" d="M5.751,16h8c4.02,0,4.74-1.61,4.95-3.57l.75-8c.27-2.44-.43-4.43-4.7-4.43h-10C.481,0-.219,1.99.051,4.43l.75,8C1.011,14.39,1.731,16,5.751,16Z" transform="translate(302.249 194)" fill="none" stroke="#292d32" stroke-linecap="round" stroke-linejoin="round" stroke-width="1.5"/>
        <path id="Vector-25" data-name="Vector" d="M0,4V3.2C0,1.43,0,0,3.2,0H4.8C8,0,8,1.43,8,3.2V4" transform="translate(308 190)" fill="none" stroke="#292d32" stroke-linecap="round" stroke-linejoin="round" stroke-width="1.5"/>
        <path id="Vector-26" data-name="Vector" d="M5.64,0A16.335,16.335,0,0,1,0,2.64" transform="translate(316.01 199)" fill="none" stroke="#292d32" stroke-linecap="round" stroke-linejoin="round" stroke-width="1.5"/>
        <path id="Vector-27" data-name="Vector" d="M0,0A16.435,16.435,0,0,0,5.38,2.41" transform="translate(302.62 199.27)" fill="none" stroke="#292d32" stroke-linecap="round" stroke-linejoin="round" stroke-width="1.5"/>
        <path id="Vector-28" data-name="Vector" d="M0,0H24V24H0Z" transform="translate(324 212) rotate(180)" fill="none" opacity="0"/>
      </g>
    </g>
    <g id="vuesax_linear_bookmark" data-name="vuesax/linear/bookmark" transform="translate(1093 337)">
      <g id="bookmark">
        <path id="Vector-29" data-name="Vector" d="M7,20h6c5,0,7-2,7-7V7c0-5-2-7-7-7H7C2,0,0,2,0,7v6C0,18,2,20,7,20Z" transform="translate(366 190)" fill="none" stroke="#292d32" stroke-linecap="round" stroke-linejoin="round" stroke-width="1.5"/>
        <path id="Vector-30" data-name="Vector" d="M10,0V9.98c0,1.97-1.41,2.74-3.14,1.7l-1.32-.79a1.147,1.147,0,0,0-1.08,0l-1.32.79C1.41,12.71,0,11.95,0,9.98V0" transform="translate(371 190.44)" fill="none" stroke="#292d32" stroke-linecap="round" stroke-linejoin="round" stroke-width="1.5"/>
        <path id="Vector-31" data-name="Vector" d="M7,20h6c5,0,7-2,7-7V7c0-5-2-7-7-7H7C2,0,0,2,0,7v6C0,18,2,20,7,20Z" transform="translate(366 190)" fill="none" stroke="#292d32" stroke-linecap="round" stroke-linejoin="round" stroke-width="1.5"/>
        <path id="Vector-32" data-name="Vector" d="M10,0V9.98c0,1.97-1.41,2.74-3.14,1.7l-1.32-.79a1.147,1.147,0,0,0-1.08,0l-1.32.79C1.41,12.71,0,11.95,0,9.98V0" transform="translate(371 190.44)" fill="none" stroke="#292d32" stroke-linecap="round" stroke-linejoin="round" stroke-width="1.5"/>
        <path id="Vector-33" data-name="Vector" d="M0,0H24V24H0Z" transform="translate(388 212) rotate(180)" fill="none" opacity="0"/>
      </g>
    </g>
    <g id="vuesax_linear_book" data-name="vuesax/linear/book" transform="translate(1093 337)">
      <g id="book">
        <path id="Vector-34" data-name="Vector" d="M0,16V5C0,1,1,0,5,0h7c4,0,5,1,5,5V15c0,.14,0,.28-.01.42" transform="translate(495.5 190)" fill="none" stroke="#292d32" stroke-linecap="round" stroke-linejoin="round" stroke-width="1.5"/>
        <path id="Vector-35" data-name="Vector" d="M2.85,0H17V3.5A3.5,3.5,0,0,1,13.5,7H3.5A3.5,3.5,0,0,1,0,3.5V2.85A2.855,2.855,0,0,1,2.85,0Z" transform="translate(495.5 203)" fill="none" stroke="#292d32" stroke-linecap="round" stroke-linejoin="round" stroke-width="1.5"/>
        <path id="Vector-36" data-name="Vector" d="M0,0H8" transform="translate(500 195)" fill="none" stroke="#292d32" stroke-linecap="round" stroke-linejoin="round" stroke-width="1.5"/>
        <path id="Vector-37" data-name="Vector" d="M0,0H5" transform="translate(500 198.5)" fill="none" stroke="#292d32" stroke-linecap="round" stroke-linejoin="round" stroke-width="1.5"/>
        <path id="Vector-38" data-name="Vector" d="M0,0H24V24H0Z" transform="translate(516 212) rotate(180)" fill="none" opacity="0"/>
      </g>
    </g>
    <g id="vuesax_linear_clipboard" data-name="vuesax/linear/clipboard" transform="translate(1093 337)">
      <g id="clipboard">
        <path id="Vector-39" data-name="Vector" d="M16.653,5.152a9.574,9.574,0,0,1-.13,2.07l-.73,4.69c-.62,3.91-2.43,5.23-6.34,4.62l-4.69-.74a7.352,7.352,0,0,1-3.15-1.11c-1.45-1.01-1.87-2.67-1.47-5.23l.74-4.69C1.5.852,3.313-.468,7.223.142l4.69.74C15.053,1.372,16.523,2.652,16.653,5.152Z" transform="translate(685.977 189.998)" fill="none" stroke="#292d32" stroke-linecap="round" stroke-linejoin="round" stroke-width="1.5"/>
        <path id="Vector-40" data-name="Vector" d="M16.91,6.32l-1.5,4.51c-1.25,3.76-3.25,4.76-7.01,3.51l-4.51-1.5C1.62,12.09.36,11.05,0,9.53a7.352,7.352,0,0,0,3.15,1.11l4.69.74c3.91.61,5.72-.71,6.34-4.62l.73-4.69A9.574,9.574,0,0,0,15.04,0C17.43,1.27,17.95,3.19,16.91,6.32Z" transform="translate(687.59 195.15)" fill="none" stroke="#292d32" stroke-linecap="round" stroke-linejoin="round" stroke-width="1.5"/>
        <path id="Vector-41" data-name="Vector" d="M3.48,1.74A1.74,1.74,0,1,1,1.74,0,1.74,1.74,0,0,1,3.48,1.74Z" transform="translate(690.5 193.5)" fill="none" stroke="#292d32" stroke-linecap="round" stroke-linejoin="round" stroke-width="1.5"/>
        <path id="Vector-42" data-name="Vector" d="M0,0H24V24H0Z" transform="translate(708 212) rotate(180)" fill="none" opacity="0"/>
      </g>
    </g>
    <g id="vuesax_linear_bookmark-2" data-name="vuesax/linear/bookmark-2" transform="translate(1093 337)">
      <g id="bookmark-2">
        <path id="Vector-43" data-name="Vector" d="M7,0q3,0,3,3.03v7.05c0,1.99-1.41,2.76-3.14,1.72L5.54,11a1.147,1.147,0,0,0-1.08,0l-1.32.8C1.41,12.84,0,12.07,0,10.08V3.03Q0,0,3,0Z" transform="translate(627 190)" fill="none" stroke="#292d32" stroke-linecap="round" stroke-linejoin="round" stroke-width="1.5"/>
        <path id="Vector-44" data-name="Vector" d="M4.82.03C1.41.6,0,2.7,0,6.94V9.97c0,5.05,2,7.07,7,7.07h6c5,0,7-2.02,7-7.07V6.94C20,2.63,18.54.52,15,0" transform="translate(622 192.96)" fill="none" stroke="#292d32" stroke-linecap="round" stroke-linejoin="round" stroke-width="1.5"/>
        <path id="Vector-45" data-name="Vector" d="M0,0H24V24H0Z" transform="translate(644 212) rotate(180)" fill="none" opacity="0"/>
      </g>
    </g>
    <g id="vuesax_linear_note-2" data-name="vuesax/linear/note-2" transform="translate(1093 337)">
      <g id="note-2">
        <path id="Vector-46" data-name="Vector" d="M14.691,7.939l-.98,4.18c-.84,3.61-2.5,5.07-5.62,4.77a10.514,10.514,0,0,1-1.62-.27l-1.68-.4c-4.17-.99-5.46-3.05-4.48-7.23l.98-4.19a10.474,10.474,0,0,1,.74-2.2C3.2.179,5.191-.471,8.531.319l1.67.39C14.391,1.689,15.671,3.759,14.691,7.939Z" transform="translate(114.969 254.501)" fill="none" stroke="#292d32" stroke-linecap="round" stroke-linejoin="round" stroke-width="1.5"/>
        <path id="Vector-47" data-name="Vector" d="M13.074,14.29a9.372,9.372,0,0,1-2.35,1.08l-1.58.52c-3.97,1.28-6.06.21-7.35-3.76L.514,8.18C-.766,4.21.294,2.11,4.264.83L5.844.31A10.224,10.224,0,0,1,7.014,0a10.474,10.474,0,0,0-.74,2.2l-.98,4.19c-.98,4.18.31,6.24,4.48,7.23l1.68.4A10.513,10.513,0,0,0,13.074,14.29Z" transform="translate(109.986 257.1)" fill="none" stroke="#292d32" stroke-linecap="round" stroke-linejoin="round" stroke-width="1.5"/>
        <path id="Vector-48" data-name="Vector" d="M0,0,4.85,1.23" transform="translate(120.64 260.53)" fill="none" stroke="#292d32" stroke-linecap="round" stroke-linejoin="round" stroke-width="1.5"/>
        <path id="Vector-49" data-name="Vector" d="M0,0,2.9.74" transform="translate(119.66 264.4)" fill="none" stroke="#292d32" stroke-linecap="round" stroke-linejoin="round" stroke-width="1.5"/>
        <path id="Vector-50" data-name="Vector" d="M0,0H24V24H0Z" transform="translate(132 276) rotate(180)" fill="none" opacity="0"/>
      </g>
    </g>
    <g id="vuesax_linear_award" data-name="vuesax/linear/award" transform="translate(1093 337)">
      <g id="award">
        <path id="Vector-51" data-name="Vector" d="M0,6.018v4.97c0,1.82,0,1.82,1.72,2.98L6.45,16.7a2.86,2.86,0,0,0,2.58,0l4.73-2.73c1.72-1.16,1.72-1.16,1.72-2.98V6.018c0-1.82,0-1.82-1.72-2.98L9.03.308a2.86,2.86,0,0,0-2.58,0L1.72,3.037C0,4.2,0,4.2,0,6.018Z" transform="translate(432.26 193.003)" fill="none" stroke="#292d32" stroke-linecap="round" stroke-linejoin="round" stroke-width="1.5"/>
        <path id="Vector-52" data-name="Vector" d="M11,5.63V3A2.652,2.652,0,0,0,8,0H3A2.652,2.652,0,0,0,0,3V5.56" transform="translate(434.5 190)" fill="none" stroke="#292d32" stroke-linecap="round" stroke-linejoin="round" stroke-width="1.5"/>
        <path id="Vector-53" data-name="Vector" d="M3.913.405l.57.89a.871.871,0,0,0,.44.32l1.02.26a.69.69,0,0,1,.39,1.2l-.67.81a.9.9,0,0,0-.17.52l.06,1.05a.688.688,0,0,1-1.02.74l-.98-.39A.863.863,0,0,0,3,5.8l-.98.39A.69.69,0,0,1,1,5.455l.06-1.05a.875.875,0,0,0-.17-.52l-.67-.81a.69.69,0,0,1,.39-1.2l1.02-.26a.846.846,0,0,0,.44-.32l.57-.89A.7.7,0,0,1,3.913.405Z" transform="translate(436.717 198.585)" fill="none" stroke="#292d32" stroke-linecap="round" stroke-linejoin="round" stroke-width="1.5"/>
        <path id="Vector-54" data-name="Vector" d="M0,0H24V24H0Z" transform="translate(452 212) rotate(180)" fill="none" opacity="0"/>
      </g>
    </g>
    <g id="vuesax_linear_teacher" data-name="vuesax/linear/teacher" transform="translate(1093 337)">
      <g id="teacher">
        <path id="Vector-55" data-name="Vector" d="M7.467.531l-6.02,3.93a3.186,3.186,0,0,0,0,5.34l6.02,3.93a3.91,3.91,0,0,0,3.94,0L17.4,9.8a3.186,3.186,0,0,0,0-5.33L11.407.541A3.887,3.887,0,0,0,7.467.531Z" transform="translate(174.583 253.999)" fill="none" stroke="#292d32" stroke-linecap="round" stroke-linejoin="round" stroke-width="1.5"/>
        <path id="Vector-56" data-name="Vector" d="M.01,0,0,4.69A3.411,3.411,0,0,0,2.18,7.72L5.37,8.78a3.846,3.846,0,0,0,2.02,0l3.19-1.06a3.411,3.411,0,0,0,2.18-3.03V.05" transform="translate(177.62 265.08)" fill="none" stroke="#292d32" stroke-linecap="round" stroke-linejoin="round" stroke-width="1.5"/>
        <path id="Vector-57" data-name="Vector" d="M0,6V0" transform="translate(193.4 261)" fill="none" stroke="#292d32" stroke-linecap="round" stroke-linejoin="round" stroke-width="1.5"/>
        <path id="Vector-58" data-name="Vector" d="M0,0H24V24H0Z" transform="translate(196 276) rotate(180)" fill="none" opacity="0"/>
      </g>
    </g>
    <g id="vuesax_linear_note" data-name="vuesax/linear/note" transform="translate(1093 337)">
      <g id="note">
        <path id="Vector-59" data-name="Vector" d="M14.691,7.939l-.98,4.18c-.84,3.61-2.5,5.07-5.62,4.77a10.514,10.514,0,0,1-1.62-.27l-1.68-.4c-4.17-.99-5.46-3.05-4.48-7.23l.98-4.19a10.474,10.474,0,0,1,.74-2.2C3.2.179,5.191-.471,8.531.319l1.67.39C14.391,1.689,15.671,3.759,14.691,7.939Z" transform="translate(754.969 190.501)" fill="none" stroke="#292d32" stroke-linecap="round" stroke-linejoin="round" stroke-width="1.5"/>
        <path id="Vector-60" data-name="Vector" d="M13.074,14.29a9.372,9.372,0,0,1-2.35,1.08l-1.58.52c-3.97,1.28-6.06.21-7.35-3.76L.514,8.18C-.766,4.21.294,2.11,4.264.83L5.844.31A10.224,10.224,0,0,1,7.014,0a10.474,10.474,0,0,0-.74,2.2l-.98,4.19c-.98,4.18.31,6.24,4.48,7.23l1.68.4A10.513,10.513,0,0,0,13.074,14.29Z" transform="translate(749.986 193.1)" fill="none" stroke="#292d32" stroke-linecap="round" stroke-linejoin="round" stroke-width="1.5"/>
        <path id="Vector-61" data-name="Vector" d="M0,0H24V24H0Z" transform="translate(772 212) rotate(180)" fill="none" opacity="0"/>
      </g>
    </g>
    <g id="vuesax_linear_gift" data-name="vuesax/linear/gift" transform="translate(1093 337)">
      <g id="gift">
        <path id="Vector-62" data-name="Vector" d="M16,0H0V8c0,3,1,4,4,4h8c3,0,4-1,4-4Z" transform="translate(239.97 262)" fill="none" stroke="#292d32" stroke-linecap="round" stroke-linejoin="round" stroke-width="1.5"/>
        <path id="Vector-63" data-name="Vector" d="M19,2V3a1.8,1.8,0,0,1-2,2H2A1.777,1.777,0,0,1,0,3V2A1.777,1.777,0,0,1,2,0H17A1.8,1.8,0,0,1,19,2Z" transform="translate(238.5 257)" fill="none" stroke="#292d32" stroke-linecap="round" stroke-linejoin="round" stroke-width="1.5"/>
        <path id="Vector-64" data-name="Vector" d="M5.768,3H.248a.936.936,0,0,1,.03-1.3L1.7.278a.96.96,0,0,1,1.35,0Z" transform="translate(241.872 254.003)" fill="none" stroke="#292d32" stroke-linecap="round" stroke-linejoin="round" stroke-width="1.5"/>
        <path id="Vector-65" data-name="Vector" d="M5.52,3H0L2.72.278a.96.96,0,0,1,1.35,0L5.49,1.7A.936.936,0,0,1,5.52,3Z" transform="translate(248.35 254.003)" fill="none" stroke="#292d32" stroke-linecap="round" stroke-linejoin="round" stroke-width="1.5"/>
        <path id="Vector-66" data-name="Vector" d="M0,0V5.14a1,1,0,0,0,1.55.84l.94-.62a1,1,0,0,1,1.1,0l.89.6a1,1,0,0,0,1.55-.83V0Z" transform="translate(244.94 262)" fill="none" stroke="#292d32" stroke-linecap="round" stroke-linejoin="round" stroke-width="1.5"/>
        <path id="Vector-67" data-name="Vector" d="M0,0H24V24H0Z" transform="translate(260 276) rotate(180)" fill="none" opacity="0"/>
      </g>
    </g>
    <g id="vuesax_linear_book-2" data-name="vuesax/linear/book" transform="translate(1093 337)">
      <g id="book-2" data-name="book">
        <path id="Vector-68" data-name="Vector" d="M20,14.078V2.008A1.97,1.97,0,0,0,17.83.018h-.06a18.851,18.851,0,0,0-7.07,2.37l-.17.11a1.108,1.108,0,0,1-1.06,0l-.25-.15A18.757,18.757,0,0,0,2.16.008,1.967,1.967,0,0,0,0,2v12.08a2.055,2.055,0,0,0,1.74,1.98l.29.04a25.693,25.693,0,0,1,7.44,2.44l.04.02a1.08,1.08,0,0,0,.96,0,25.461,25.461,0,0,1,7.46-2.46l.33-.04A2.055,2.055,0,0,0,20,14.078Z" transform="translate(558 190.662)" fill="none" stroke="#292d32" stroke-linecap="round" stroke-linejoin="round" stroke-width="1.5"/>
        <path id="Vector-69" data-name="Vector" d="M0,0V15" transform="translate(568 193.49)" fill="none" stroke="#292d32" stroke-linecap="round" stroke-linejoin="round" stroke-width="1.5"/>
        <path id="Vector-70" data-name="Vector" d="M2.25,0H0" transform="translate(561.5 196.49)" fill="none" stroke="#292d32" stroke-linecap="round" stroke-linejoin="round" stroke-width="1.5"/>
        <path id="Vector-71" data-name="Vector" d="M3,0H0" transform="translate(561.5 199.49)" fill="none" stroke="#292d32" stroke-linecap="round" stroke-linejoin="round" stroke-width="1.5"/>
        <path id="Vector-72" data-name="Vector" d="M0,0H24V24H0Z" transform="translate(580 212) rotate(180)" fill="none" opacity="0"/>
      </g>
    </g>
    <g id="vuesax_linear_calculator" data-name="vuesax/linear/calculator" transform="translate(1093 337)">
      <g id="calculator">
        <path id="Vector-73" data-name="Vector" d="M7,20h4c5,0,7-2,7-7V7c0-5-2-7-7-7H7C2,0,0,2,0,7v6C0,18,2,20,7,20Z" transform="translate(303 254)" fill="none" stroke="#292d32" stroke-linecap="round" stroke-linejoin="round" stroke-width="1.5"/>
        <path id="Vector-74" data-name="Vector" d="M9,1.5v1A1.5,1.5,0,0,1,7.5,4h-6A1.5,1.5,0,0,1,0,2.5v-1A1.5,1.5,0,0,1,1.5,0h6A1.5,1.5,0,0,1,9,1.5Z" transform="translate(307.5 258.08)" fill="none" stroke="#292d32" stroke-linecap="round" stroke-linejoin="round" stroke-width="1.5"/>
        <path id="Vector-75" data-name="Vector" d="M.636.5H.648" transform="translate(307.5 265.5)" fill="none" stroke="#292d32" stroke-linecap="round" stroke-linejoin="round" stroke-width="2"/>
        <path id="Vector-76" data-name="Vector" d="M.636.5H.648" transform="translate(311.359 265.5)" fill="none" stroke="#292d32" stroke-linecap="round" stroke-linejoin="round" stroke-width="2"/>
        <path id="Vector-77" data-name="Vector" d="M.636.5H.648" transform="translate(315.218 265.5)" fill="none" stroke="#292d32" stroke-linecap="round" stroke-linejoin="round" stroke-width="2"/>
        <path id="Vector-78" data-name="Vector" d="M.636.5H.648" transform="translate(307.5 269)" fill="none" stroke="#292d32" stroke-linecap="round" stroke-linejoin="round" stroke-width="2"/>
        <path id="Vector-79" data-name="Vector" d="M.636.5H.648" transform="translate(311.359 269)" fill="none" stroke="#292d32" stroke-linecap="round" stroke-linejoin="round" stroke-width="2"/>
        <path id="Vector-80" data-name="Vector" d="M.636.5H.648" transform="translate(315.218 269)" fill="none" stroke="#292d32" stroke-linecap="round" stroke-linejoin="round" stroke-width="2"/>
        <path id="Vector-81" data-name="Vector" d="M0,0H24V24H0Z" transform="translate(324 276) rotate(180)" fill="none" opacity="0"/>
      </g>
    </g>
  </g>
</svg>
