<svg xmlns="http://www.w3.org/2000/svg" width="25.496" height="25.496" viewBox="0 0 25.496 25.496">
  <g id="marketplace-consumable" transform="translate(-365.22 -317.25)">
    <path id="Vector" d="M16.8,8.4a8.392,8.392,0,0,1-8.4,8.4,6.783,6.783,0,0,1-1.116-.084,8.393,8.393,0,1,1,9.43-9.43A6.783,6.783,0,0,1,16.8,8.4Z" transform="translate(365.97 318)" fill="none" stroke="#948f9f" stroke-linecap="round" stroke-linejoin="round" stroke-width="1.5"/>
    <path id="Vector-2" data-name="Vector" d="M16.713,8.314A8.393,8.393,0,0,1,0,9.43a6.783,6.783,0,0,0,1.116.084,8.392,8.392,0,0,0,8.4-8.4A6.783,6.783,0,0,0,9.43,0,8.382,8.382,0,0,1,16.713,8.314Z" transform="translate(373.253 325.283)" fill="none" stroke="#948f9f" stroke-linecap="round" stroke-linejoin="round" stroke-width="1.5"/>
    <path id="Vector-3" data-name="Vector" d="M0,0,1.572,1.548" transform="translate(380.547 332.541)" fill="none" stroke="#948f9f" stroke-linecap="round" stroke-linejoin="round" stroke-width="1.5"/>
    <path id="Vector-4" data-name="Vector" d="M1.2,1.2,0,0" transform="translate(382.767 328.798)" fill="none" stroke="#948f9f" stroke-linecap="round" stroke-linejoin="round" stroke-width="1.5"/>
    <path id="Vector-5" data-name="Vector" d="M1.2,1.2,0,0" transform="translate(376.768 334.797)" fill="none" stroke="#948f9f" stroke-linecap="round" stroke-linejoin="round" stroke-width="1.5"/>
  </g>
</svg>
