<svg xmlns="http://www.w3.org/2000/svg" width="30" height="30" viewBox="0 0 30 30">
  <g id="marketplace-opifexOff" transform="translate(-108 -252)">
    <path id="Vector" d="M10.65,18.75H6.25a14.937,14.937,0,0,1-2.075-.113C.888,18.275,0,16.725,0,12.5V6.25C0,2.025.888.475,4.175.113A14.937,14.937,0,0,1,6.25,0h4.325" transform="translate(111.125 257.625)" fill="none" stroke="#948f9f" stroke-linecap="round" stroke-linejoin="round" stroke-width="1.5"/>
    <path id="Vector-2" data-name="Vector" d="M-6,0H4.03A14.937,14.937,0,0,1,6.105.113C9.393.475,10.28,2.025,10.28,6.25V12.5c0,4.225-.887,5.775-4.175,6.137a14.937,14.937,0,0,1-2.075.113H-6" transform="translate(124.595 257.625)" fill="none" stroke="#948f9f" stroke-linecap="round" stroke-linejoin="round" stroke-width="1.5"/>
    <path id="Vector-3" data-name="Vector" d="M0,0V8.75" transform="translate(118 262.625)" fill="none" stroke="#948f9f" stroke-linecap="round" stroke-linejoin="round" stroke-width="1.5"/>
    <path id="Vector-4" data-name="Vector" d="M0,0H30V30H0Z" transform="translate(138 282) rotate(180)" fill="none" opacity="0"/>
  </g>
</svg>
