<svg xmlns="http://www.w3.org/2000/svg" width="30" height="30" viewBox="0 0 30 30">
  <g id="marketplace-cosmetics" transform="translate(-234 -190)">
    <path id="Vector" d="M19.425,2.413A42.158,42.158,0,0,1,8.638,16.975L6.175,18.95a4.485,4.485,0,0,1-.975.563,4.66,4.66,0,0,0-.05-.713A4.895,4.895,0,0,0,3.7,15.938,5.1,5.1,0,0,0,.75,14.45,5.009,5.009,0,0,0,0,14.438a3.267,3.267,0,0,1,.613-1.05l1.95-2.463A42.036,42.036,0,0,1,17.125.125a1.749,1.749,0,0,1,1.9.388A1.7,1.7,0,0,1,19.425,2.413Z" transform="translate(241.838 192.512)" fill="none" stroke="#948f9f" stroke-linecap="round" stroke-linejoin="round" stroke-width="1.5"/>
    <path id="Vector-2" data-name="Vector" d="M10.556,5.08A5.212,5.212,0,0,1,9.044,8.768a5.194,5.194,0,0,1-3.038,1.45l-3.075.338A2.643,2.643,0,0,1,.019,7.618L.356,4.543A5.1,5.1,0,0,1,5.369.005a7.445,7.445,0,0,1,.75.012,5.032,5.032,0,0,1,2.95,1.488,4.895,4.895,0,0,1,1.45,2.862C10.531,4.605,10.556,4.843,10.556,5.08Z" transform="translate(236.481 206.945)" fill="none" stroke="#948f9f" stroke-linecap="round" stroke-linejoin="round" stroke-width="1.5"/>
    <path id="Vector-3" data-name="Vector" d="M5.912,5.913A5.916,5.916,0,0,0,0,0" transform="translate(245.887 202.175)" fill="none" stroke="#948f9f" stroke-linecap="round" stroke-linejoin="round" stroke-width="1.5"/>
    <path id="Vector-4" data-name="Vector" d="M0,0H30V30H0Z" transform="translate(234 190)" fill="none" opacity="0"/>
  </g>
</svg>
