<svg xmlns="http://www.w3.org/2000/svg" width="21.998" height="21.998" viewBox="0 0 21.998 21.998">
  <g id="colors-square" transform="translate(-428 -380)">
    <g id="Group" transform="translate(433.499 385.499)">
      <path id="Vector" d="M6.6,3.18A3.284,3.284,0,0,1,5.5,5.637a3.255,3.255,0,0,1-2.2.843A3.3,3.3,0,0,1,2.429,0a3.31,3.31,0,0,0,2.2,1.971A3.385,3.385,0,0,0,5.5,2.09a3.028,3.028,0,0,0,.871-.119A3.267,3.267,0,0,1,6.6,3.18Z" transform="translate(0 4.519)" fill="none" stroke="#948f9f" stroke-linecap="round" stroke-linejoin="round" stroke-width="1.5"/>
      <path id="Vector-2" data-name="Vector" d="M6.6,3.3A3.352,3.352,0,0,1,6.37,4.519a3.31,3.31,0,0,1-2.2,1.971,3.385,3.385,0,0,1-.871.119,3.028,3.028,0,0,1-.871-.119,3.288,3.288,0,0,1-2.2-1.971A3.352,3.352,0,0,1,0,3.3a3.3,3.3,0,1,1,6.6,0Z" transform="translate(2.2)" fill="none" stroke="#948f9f" stroke-linecap="round" stroke-linejoin="round" stroke-width="1.5"/>
      <path id="Vector-3" data-name="Vector" d="M5.5,3.19A3.3,3.3,0,0,1,0,5.646,3.254,3.254,0,0,0,1.1,3.19,3.352,3.352,0,0,0,.871,1.971,3.288,3.288,0,0,0,3.07,0,3.318,3.318,0,0,1,5.5,3.19Z" transform="translate(5.499 4.509)" fill="none" stroke="#948f9f" stroke-linecap="round" stroke-linejoin="round" stroke-width="1.5"/>
    </g>
    <path id="Vector-4" data-name="Vector" d="M6.416,18.331h5.5c4.583,0,6.416-1.833,6.416-6.416v-5.5C18.331,1.833,16.5,0,11.915,0h-5.5C1.833,0,0,1.833,0,6.416v5.5C0,16.5,1.833,18.331,6.416,18.331Z" transform="translate(429.833 381.833)" fill="none" stroke="#948f9f" stroke-linecap="round" stroke-linejoin="round" stroke-width="1.5"/>
    <path id="Vector-5" data-name="Vector" d="M0,0H22V22H0Z" transform="translate(428 380)" fill="none" opacity="0"/>
  </g>
</svg>
