<svg xmlns="http://www.w3.org/2000/svg" width="30" height="30" viewBox="0 0 30 30">
  <g id="marketplace-tickets" transform="translate(-492 -572)">
    <path id="Vector" d="M21.875,10.625A3.126,3.126,0,0,1,25,7.5V6.25C25,1.25,23.75,0,18.75,0H6.25C1.25,0,0,1.25,0,6.25v.625A3.126,3.126,0,0,1,3.125,10,3.126,3.126,0,0,1,0,13.125v.625C0,18.75,1.25,20,6.25,20h12.5c5,0,6.25-1.25,6.25-6.25A3.126,3.126,0,0,1,21.875,10.625Z" transform="translate(494.5 577)" fill="none" stroke="#948f9f" stroke-linecap="round" stroke-linejoin="round" stroke-width="1.5"/>
    <path id="Vector-2" data-name="Vector" d="M0,0V20" transform="translate(504.5 577)" fill="none" stroke="#948f9f" stroke-linecap="round" stroke-linejoin="round" stroke-width="1.5" stroke-dasharray="5 5"/>
    <path id="Vector-3" data-name="Vector" d="M0,0H30V30H0Z" transform="translate(492 572)" fill="none" opacity="0"/>
  </g>
</svg>
