<svg xmlns="http://www.w3.org/2000/svg" width="24" height="24" viewBox="0 0 24 24">
  <g id="money-forbidden" transform="translate(-300 -380)">
    <path id="Vector" d="M0,11.2V5C0,1.5,2,0,5,0H15c3,0,5,1.5,5,5v6c0,3.5-2,5-5,5H6.5" transform="translate(302 384)" fill="none" stroke="#292d32" stroke-linecap="round" stroke-linejoin="round" stroke-width="1.5"/>
    <path id="Vector-2" data-name="Vector" d="M5,2.5A2.5,2.5,0,1,1,2.5,0,2.5,2.5,0,0,1,5,2.5Z" transform="translate(309.5 389.5)" fill="none" stroke="#292d32" stroke-linecap="round" stroke-linejoin="round" stroke-width="1.5"/>
    <path id="Vector-3" data-name="Vector" d="M0,0V5" transform="translate(318.5 389.5)" fill="none" stroke="#292d32" stroke-linecap="round" stroke-linejoin="round" stroke-width="1.5"/>
    <path id="Vector-4" data-name="Vector" d="M8,4a3.921,3.921,0,0,1-.58,2.06,3.985,3.985,0,0,1-6.84,0A3.921,3.921,0,0,1,0,4,4,4,0,0,1,8,4Z" transform="translate(301 394)" fill="none" stroke="#292d32" stroke-linecap="round" stroke-linejoin="round" stroke-width="1.5"/>
    <path id="Vector-5" data-name="Vector" d="M5.5,0,0,5.5" transform="translate(302.25 395.25)" fill="none" stroke="#292d32" stroke-linecap="round" stroke-linejoin="round" stroke-width="1.5"/>
    <path id="Vector-6" data-name="Vector" d="M0,0H24V24H0Z" transform="translate(300 380)" fill="none" opacity="0"/>
  </g>
</svg>
