<svg xmlns="http://www.w3.org/2000/svg" width="24" height="24" viewBox="0 0 24 24">
  <g id="receipt-search" transform="translate(-428 -316)">
    <path id="Vector" d="M17,9.3V5.04C17,1.01,16.06,0,12.28,0H4.72C.94,0,0,1.01,0,5.04V16.3c0,2.66,1.46,3.29,3.23,1.39l.01-.01a1.759,1.759,0,0,1,2.78.15l1.01,1.35" transform="translate(431.5 318)" fill="none" stroke="#292d32" stroke-linecap="round" stroke-linejoin="round" stroke-width="1.5"/>
    <g id="Group">
      <path id="Vector-2" data-name="Vector" d="M6.4,3.2A3.2,3.2,0,1,1,3.2,0,3.2,3.2,0,0,1,6.4,3.2Z" transform="translate(443 331)" fill="none" stroke="#292d32" stroke-linecap="round" stroke-linejoin="round" stroke-width="1.5"/>
      <path id="Vector-3" data-name="Vector" d="M1,1,0,0" transform="translate(449 337)" fill="none" stroke="#292d32" stroke-linecap="round" stroke-linejoin="round" stroke-width="1.5"/>
    </g>
    <path id="Vector-4" data-name="Vector" d="M0,0H8" transform="translate(436 323)" fill="none" stroke="#292d32" stroke-linecap="round" stroke-linejoin="round" stroke-width="1.5"/>
    <path id="Vector-5" data-name="Vector" d="M0,0H6" transform="translate(437 327)" fill="none" stroke="#292d32" stroke-linecap="round" stroke-linejoin="round" stroke-width="1.5"/>
    <path id="Vector-6" data-name="Vector" d="M0,0H24V24H0Z" transform="translate(428 316)" fill="none" opacity="0"/>
  </g>
</svg>
