<svg xmlns="http://www.w3.org/2000/svg" width="24" height="24" viewBox="0 0 24 24">
  <g id="strongbox" transform="translate(-172 -444)">
    <path id="Vector" d="M7,20h6c5,0,7-2,7-7V7c0-5-2-7-7-7H7C2,0,0,2,0,7v6C0,18,2,20,7,20Z" transform="translate(174 446)" fill="none" stroke="#292d32" stroke-linecap="round" stroke-linejoin="round" stroke-width="1.5"/>
    <path id="Vector-2" data-name="Vector" d="M4.73,2.716a2.357,2.357,0,0,1-1.1,1.67v1.98a1.25,1.25,0,0,1-2.5,0V4.386a2.357,2.357,0,0,1-1.1-1.67A1.983,1.983,0,0,1,0,2.366,2.377,2.377,0,0,1,3.02.086a2.358,2.358,0,0,1,1.66,1.66A2.291,2.291,0,0,1,4.73,2.716Z" transform="translate(181.621 452.194)" fill="none" stroke="#292d32" stroke-width="1.5"/>
    <path id="Vector-3" data-name="Vector" d="M7.65,0H0" transform="translate(186.352 454.91)" fill="none" stroke="#292d32" stroke-width="1.5"/>
    <path id="Vector-4" data-name="Vector" d="M7.65,0H0" transform="translate(174 454.91)" fill="none" stroke="#292d32" stroke-width="1.5"/>
    <path id="Vector-5" data-name="Vector" d="M0,0H24V24H0Z" transform="translate(172 444)" fill="none" opacity="0"/>
  </g>
</svg>
