<svg xmlns="http://www.w3.org/2000/svg" width="24" height="24" viewBox="0 0 24 24">
  <g id="strongbox-2" transform="translate(-684 -188)">
    <path id="Vector" d="M7,20h6c5,0,7-2,7-7V7c0-5-2-7-7-7H7C2,0,0,2,0,7v6C0,18,2,20,7,20Z" transform="translate(686 190)" fill="none" stroke="#292d32" stroke-linecap="round" stroke-linejoin="round" stroke-width="1.5"/>
    <path id="Vector-2" data-name="Vector" d="M3,14h8a2.652,2.652,0,0,0,3-3V3a2.652,2.652,0,0,0-3-3H3A2.652,2.652,0,0,0,0,3v8A2.652,2.652,0,0,0,3,14Z" transform="translate(689 193)" fill="none" stroke="#292d32" stroke-linecap="round" stroke-linejoin="round" stroke-width="1.5"/>
    <path id="Vector-3" data-name="Vector" d="M0,0H2.48a2.5,2.5,0,0,1,0,5H0" transform="translate(689 197.5)" fill="none" stroke="#292d32" stroke-linecap="round" stroke-linejoin="round" stroke-width="1.5"/>
    <path id="Vector-4" data-name="Vector" d="M3,0H0" transform="translate(700 197.99)" fill="none" stroke="#292d32" stroke-linecap="round" stroke-linejoin="round" stroke-width="1.5"/>
    <path id="Vector-5" data-name="Vector" d="M3,0H0" transform="translate(700 202)" fill="none" stroke="#292d32" stroke-linecap="round" stroke-linejoin="round" stroke-width="1.5"/>
    <path id="Vector-6" data-name="Vector" d="M0,0H24V24H0Z" transform="translate(684 188)" fill="none" opacity="0"/>
    <path id="Vector-7" data-name="Vector" d="M0,0H.1" transform="translate(691.2 200)" fill="none" stroke="#292d32" stroke-linecap="round" stroke-linejoin="round" stroke-width="2"/>
  </g>
</svg>
