<svg xmlns="http://www.w3.org/2000/svg" width="24" height="24" viewBox="0 0 24 24">
  <g id="vuesax_linear_huobi-token-_ht_" data-name="vuesax/linear/huobi-token-(ht)" transform="translate(-864 -213)">
    <g id="huobi-token-_ht_" data-name="huobi-token-(ht)">
      <path id="BG_1" data-name="BG 1" d="M0,0H24V24H0Z" transform="translate(864 213)" fill="none"/>
      <path id="Vector" d="M4.213,0s-.2,1-3.2,5c-2.9,3.8,1.3,6.6,1.8,7h.1C3.513,11.5,11.113,6.7,4.213,0Z" transform="translate(875.987 223)" fill="none" stroke="#17191c" stroke-linecap="round" stroke-linejoin="round" stroke-width="1.5"/>
      <path id="Vector-2" data-name="Vector" d="M8.8,5.774A9.8,9.8,0,0,0,7,.174a.526.526,0,0,0-.9.2,25.75,25.75,0,0,1-4.5,8.5,6.945,6.945,0,0,0,3.2,11c1.9.5-.5-1-.8-4.1C3.7,11.874,8.8,8.974,8.8,5.774Z" transform="translate(868.997 215.026)" fill="none" stroke="#17191c" stroke-linecap="round" stroke-linejoin="round" stroke-width="1.5"/>
      <path id="Vector-3" data-name="Vector" d="M0,0H24V24H0Z" transform="translate(864 213)" fill="none" opacity="0"/>
    </g>
  </g>
</svg>
