<svg xmlns="http://www.w3.org/2000/svg" width="24" height="24" viewBox="0 0 24 24">
  <g id="vuesax_linear_card-slash" data-name="vuesax/linear/card-slash" transform="translate(-364 -508)">
    <g id="card-slash">
      <path id="Vector" d="M0,0H13.24" transform="translate(366 516.5)" fill="none" stroke="#292d32" stroke-linecap="round" stroke-linejoin="round" stroke-width="1.5"/>
      <path id="Vector-2" data-name="Vector" d="M0,0H1.29" transform="translate(370 524.5)" fill="none" stroke="#292d32" stroke-linecap="round" stroke-linejoin="round" stroke-width="1.5"/>
      <path id="Vector-3" data-name="Vector" d="M0,0H3.5" transform="translate(375 524.5)" fill="none" stroke="#292d32" stroke-linecap="round" stroke-linejoin="round" stroke-width="1.5"/>
      <path id="Vector-4" data-name="Vector" d="M0,13.61H9.58c3.56,0,4.44-.88,4.44-4.39V0" transform="translate(371.98 514.89)" fill="none" stroke="#292d32" stroke-linecap="round" stroke-linejoin="round" stroke-width="1.5"/>
      <path id="Vector-5" data-name="Vector" d="M17.99.25A9.009,9.009,0,0,0,15.56,0H4.44C.89,0,0,.88,0,4.39V12.6c0,2.34.39,3.51,1.71,4.03" transform="translate(366 511.5)" fill="none" stroke="#292d32" stroke-linecap="round" stroke-linejoin="round" stroke-width="1.5"/>
      <path id="Vector-6" data-name="Vector" d="M20,0,0,20" transform="translate(366 510)" fill="none" stroke="#292d32" stroke-linecap="round" stroke-linejoin="round" stroke-width="1.5"/>
      <path id="Vector-7" data-name="Vector" d="M0,0H24V24H0Z" transform="translate(364 508)" fill="none" opacity="0"/>
    </g>
  </g>
</svg>
