<svg xmlns="http://www.w3.org/2000/svg" width="24" height="24" viewBox="0 0 24 24">
  <g id="vuesax_linear_printer-slash" data-name="vuesax/linear/printer-slash" transform="translate(-364 -188)">
    <g id="printer-slash">
      <path id="Vector" d="M0,5H9.5V3c0-2-.75-3-3-3H3C.75,0,0,1,0,3Z" transform="translate(371.25 190)" fill="none" stroke="#292d32" stroke-linecap="round" stroke-linejoin="round" stroke-width="1.5"/>
      <path id="Vector-2" data-name="Vector" d="M4.9,0H7.93V4a2.652,2.652,0,0,1-3,3h-2C1.24,7,.26,6.29,0,4.86" transform="translate(372.07 203)" fill="none" stroke="#292d32" stroke-linecap="round" stroke-linejoin="round" stroke-width="1.5"/>
      <path id="Vector-3" data-name="Vector" d="M3,11A2.652,2.652,0,0,1,0,8V3A2.652,2.652,0,0,1,3,0H13.59" transform="translate(367 195)" fill="none" stroke="#292d32" stroke-linecap="round" stroke-linejoin="round" stroke-width="1.5"/>
      <path id="Vector-4" data-name="Vector" d="M6.97,0A2.809,2.809,0,0,1,8,2.48v5a2.652,2.652,0,0,1-3,3H3v-3H0" transform="translate(377 195.52)" fill="none" stroke="#292d32" stroke-linecap="round" stroke-linejoin="round" stroke-width="1.5"/>
      <path id="Vector-5" data-name="Vector" d="M1.21,0H0" transform="translate(379.79 203)" fill="none" stroke="#292d32" stroke-linecap="round" stroke-linejoin="round" stroke-width="1.5"/>
      <path id="Vector-6" data-name="Vector" d="M0,0H2" transform="translate(371 199)" fill="none" stroke="#292d32" stroke-linecap="round" stroke-linejoin="round" stroke-width="1.5"/>
      <path id="Vector-7" data-name="Vector" d="M20,0,0,20" transform="translate(366 190)" fill="none" stroke="#292d32" stroke-linecap="round" stroke-linejoin="round" stroke-width="1.5"/>
      <path id="Vector-8" data-name="Vector" d="M0,0H24V24H0Z" transform="translate(364 188)" fill="none" opacity="0"/>
    </g>
  </g>
</svg>
