<svg xmlns="http://www.w3.org/2000/svg" width="24" height="24" viewBox="0 0 24 24">
  <g id="vuesax_linear_quote-down-circle" data-name="vuesax/linear/quote-down-circle" transform="translate(-428 -316)">
    <g id="quote-down-circle">
      <g id="Group">
        <g id="Group-2" data-name="Group">
          <path id="Vector" d="M0,0H2.68A1.162,1.162,0,0,1,3.87,1.19V2.68A1.162,1.162,0,0,1,2.68,3.87H1.19A1.2,1.2,0,0,1,0,2.68Z" transform="translate(435 328.16)" fill="none" stroke="#292d32" stroke-linecap="round" stroke-linejoin="round" stroke-width="1.5"/>
          <path id="Vector-2" data-name="Vector" d="M0,4.19C0,1.4.52.93,2.09,0" transform="translate(435 323.97)" fill="none" stroke="#292d32" stroke-linecap="round" stroke-linejoin="round" stroke-width="1.5"/>
        </g>
        <g id="Group-3" data-name="Group">
          <path id="Vector-3" data-name="Vector" d="M0,0H2.68A1.162,1.162,0,0,1,3.87,1.19V2.68A1.162,1.162,0,0,1,2.68,3.87H1.19A1.2,1.2,0,0,1,0,2.68Z" transform="translate(441.14 328.16)" fill="none" stroke="#292d32" stroke-linecap="round" stroke-linejoin="round" stroke-width="1.5"/>
          <path id="Vector-4" data-name="Vector" d="M0,4.19C0,1.4.52.93,2.09,0" transform="translate(441.14 323.97)" fill="none" stroke="#292d32" stroke-linecap="round" stroke-linejoin="round" stroke-width="1.5"/>
        </g>
      </g>
      <path id="Vector-5" data-name="Vector" d="M20,10A10,10,0,1,1,10,0,10,10,0,0,1,20,10Z" transform="translate(430 318)" fill="none" stroke="#292d32" stroke-linecap="round" stroke-linejoin="round" stroke-width="1.5"/>
      <path id="Vector-6" data-name="Vector" d="M0,0H24V24H0Z" transform="translate(452 340) rotate(180)" fill="none" opacity="0"/>
    </g>
  </g>
</svg>
