<svg xmlns="http://www.w3.org/2000/svg" width="24" height="24" viewBox="0 0 24 24">
  <g id="vuesax_linear_candle" data-name="vuesax/linear/candle" transform="translate(-300 -252)">
    <g id="candle">
      <path id="Vector" d="M0,7V0" transform="translate(306.5 267)" fill="none" stroke="#292d32" stroke-linecap="round" stroke-linejoin="round" stroke-width="1.5"/>
      <path id="Vector-2" data-name="Vector" d="M0,3V0" transform="translate(306.5 254)" fill="none" stroke="#292d32" stroke-linecap="round" stroke-linejoin="round" stroke-width="1.5"/>
      <path id="Vector-3" data-name="Vector" d="M0,3V0" transform="translate(317.5 271)" fill="none" stroke="#292d32" stroke-linecap="round" stroke-linejoin="round" stroke-width="1.5"/>
      <path id="Vector-4" data-name="Vector" d="M0,7V0" transform="translate(317.5 254)" fill="none" stroke="#292d32" stroke-linecap="round" stroke-linejoin="round" stroke-width="1.5"/>
      <path id="Vector-5" data-name="Vector" d="M6,2V8a1.79,1.79,0,0,1-2,2H2A1.79,1.79,0,0,1,0,8V2A1.79,1.79,0,0,1,2,0H4A1.79,1.79,0,0,1,6,2Z" transform="translate(303.5 257)" fill="none" stroke="#292d32" stroke-linecap="round" stroke-linejoin="round" stroke-width="1.5"/>
      <path id="Vector-6" data-name="Vector" d="M6,2V8a1.79,1.79,0,0,1-2,2H2A1.79,1.79,0,0,1,0,8V2A1.79,1.79,0,0,1,2,0H4A1.79,1.79,0,0,1,6,2Z" transform="translate(314.5 261)" fill="none" stroke="#292d32" stroke-linecap="round" stroke-linejoin="round" stroke-width="1.5"/>
      <path id="Vector-7" data-name="Vector" d="M0,0H24V24H0Z" transform="translate(300 252)" fill="none" opacity="0"/>
    </g>
  </g>
</svg>
