<svg xmlns="http://www.w3.org/2000/svg" width="24" height="24" viewBox="0 0 24 24">
  <g id="vuesax_linear_shield-search" data-name="vuesax/linear/shield-search" transform="translate(-620 -188)">
    <g id="shield-search">
      <path id="Vector" d="M17.18,8.552V5.122A3.472,3.472,0,0,0,15.09,2.1L10.1.233a5.02,5.02,0,0,0-3.02,0L2.09,2.113A3.47,3.47,0,0,0,0,5.122v7.43a4.862,4.862,0,0,0,1.73,3.44l4.3,3.21a4.214,4.214,0,0,0,2.56.8" transform="translate(623.41 189.997)" fill="none" stroke="#292d32" stroke-linecap="round" stroke-linejoin="round" stroke-width="1.5"/>
      <path id="Vector-2" data-name="Vector" d="M8,4A4,4,0,1,1,4,0,4,4,0,0,1,8,4Z" transform="translate(632 200)" fill="none" stroke="#292d32" stroke-linecap="round" stroke-linejoin="round" stroke-width="1.5"/>
      <path id="Vector-3" data-name="Vector" d="M0,0H24V24H0Z" transform="translate(644 212) rotate(180)" fill="none" opacity="0"/>
      <path id="Vector-4" data-name="Vector" d="M.5.5H.5" transform="translate(640.5 208.5)" fill="none" stroke="#292d32" stroke-linecap="round" stroke-linejoin="round" stroke-width="2"/>
    </g>
  </g>
</svg>
