<svg xmlns="http://www.w3.org/2000/svg" width="24" height="24" viewBox="0 0 24 24">
  <g id="vuesax_linear_lock-circle" data-name="vuesax/linear/lock-circle" transform="translate(-172 -316)">
    <g id="lock-circle">
      <path id="Vector" d="M0,4V3C0,1.34.5,0,3,0S6,1.34,6,3V4" transform="translate(181 323)" fill="none" stroke="#292d32" stroke-linecap="round" stroke-linejoin="round" stroke-width="1.5"/>
      <path id="Vector-2" data-name="Vector" d="M1.2.6A.6.6,0,1,1,.6,0,.6.6,0,0,1,1.2.6Z" transform="translate(183.4 329.4)" fill="none" stroke="#292d32" stroke-linecap="round" stroke-linejoin="round" stroke-width="1.5"/>
      <path id="Vector-3" data-name="Vector" d="M7.5,6h-5C.5,6,0,5.5,0,3.5v-1C0,.5.5,0,2.5,0h5c2,0,2.5.5,2.5,2.5v1C10,5.5,9.5,6,7.5,6Z" transform="translate(179 327)" fill="none" stroke="#292d32" stroke-linecap="round" stroke-linejoin="round" stroke-width="1.5"/>
      <path id="Vector-4" data-name="Vector" d="M20,10A10,10,0,1,1,10,0,10,10,0,0,1,20,10Z" transform="translate(174 318)" fill="none" stroke="#292d32" stroke-linecap="round" stroke-linejoin="round" stroke-width="1.5"/>
      <path id="Vector-5" data-name="Vector" d="M0,0H24V24H0Z" transform="translate(172 316)" fill="none" opacity="0"/>
    </g>
  </g>
</svg>
