<svg xmlns="http://www.w3.org/2000/svg" width="24" height="24" viewBox="0 0 24 24">
  <g id="vuesax_linear_24-support" data-name="vuesax/linear/24-support" transform="translate(-492 -252)">
    <g id="_24-support" data-name="24-support">
      <path id="Vector" d="M15,16.85h-.76a2.988,2.988,0,0,0-2.12.87l-1.71,1.69a2.022,2.022,0,0,1-2.83,0L5.87,17.72a3,3,0,0,0-2.12-.87H3a2.983,2.983,0,0,1-3-2.97V2.97A2.983,2.983,0,0,1,3,0H15a2.983,2.983,0,0,1,3,2.97V13.88A2.99,2.99,0,0,1,15,16.85Z" transform="translate(495 254.01)" fill="none" stroke="#292d32" stroke-linecap="round" stroke-linejoin="round" stroke-width="1.5"/>
      <g id="Group">
        <path id="Vector-2" data-name="Vector" d="M0,1.69a1.69,1.69,0,1,1,3.38,0C3.38,3.57.71,3.77.12,5.56A.586.586,0,0,0,.7,6.3H3.38" transform="translate(499 259.47)" fill="none" stroke="#292d32" stroke-linecap="round" stroke-linejoin="round" stroke-width="1.5"/>
        <path id="Vector-3" data-name="Vector" d="M3.342,6.292V.582a.579.579,0,0,0-.42-.56.593.593,0,0,0-.66.25c-.72,1.16-1.5,2.48-2.18,3.64a.643.643,0,0,0,0,.63.634.634,0,0,0,.55.31H4.3" transform="translate(504.698 259.468)" fill="none" stroke="#292d32" stroke-linecap="round" stroke-linejoin="round" stroke-width="1.5"/>
      </g>
      <path id="Vector-4" data-name="Vector" d="M0,0H24V24H0Z" transform="translate(492 252)" fill="none" opacity="0"/>
    </g>
  </g>
</svg>
