<svg xmlns="http://www.w3.org/2000/svg" width="24" height="24" viewBox="0 0 24 24">
  <g id="vuesax_linear_dollar-square" data-name="vuesax/linear/dollar-square" transform="translate(-172 -572)">
    <g id="dollar-square">
      <path id="Vector" d="M0,6.99A2.272,2.272,0,0,0,2.22,9.32H4.73A1.988,1.988,0,0,0,6.67,7.29,1.75,1.75,0,0,0,5.35,5.36L1.32,3.96A1.75,1.75,0,0,1,0,2.03,1.988,1.988,0,0,1,1.94,0H4.45A2.272,2.272,0,0,1,6.67,2.33" transform="translate(180.672 579.34)" fill="none" stroke="#292d32" stroke-linecap="round" stroke-linejoin="round" stroke-width="1.5"/>
      <path id="Vector-2" data-name="Vector" d="M0,0V12" transform="translate(184 578)" fill="none" stroke="#292d32" stroke-linecap="round" stroke-linejoin="round" stroke-width="1.5"/>
      <path id="Vector-3" data-name="Vector" d="M13,20H7c-5,0-7-2-7-7V7C0,2,2,0,7,0h6c5,0,7,2,7,7v6C20,18,18,20,13,20Z" transform="translate(174 574)" fill="none" stroke="#292d32" stroke-linecap="round" stroke-linejoin="round" stroke-width="1.5"/>
      <path id="Vector-4" data-name="Vector" d="M0,0H24V24H0Z" transform="translate(172 572)" fill="none" opacity="0"/>
    </g>
  </g>
</svg>
