<svg xmlns="http://www.w3.org/2000/svg" width="24" height="24" viewBox="0 0 24 24">
  <g id="vuesax_linear_snapchat" data-name="vuesax/linear/snapchat" transform="translate(-352 -469)">
    <g id="snapchat">
      <path id="BG_1" data-name="BG 1" d="M0,0H24V24H0Z" transform="translate(352 469)" fill="none" opacity="0.58"/>
      <path id="Vector" d="M10.758,8.6a3.63,3.63,0,0,1-.7.3.52.52,0,0,0-.4.2c-.2,0-.2.2-.2.3a.367.367,0,0,1-.1.3.749.749,0,0,1-.5.1,2.344,2.344,0,0,0-1.1.2l-.6.3a2.348,2.348,0,0,1-1.6.5,3.017,3.017,0,0,1-1.6-.5c-.2-.1-.4-.3-.6-.3a5.16,5.16,0,0,0-1.1-.2.749.749,0,0,1-.5-.1c-.3-.1-.3-.2-.3-.3s0-.3-.2-.3c-.1-.1-.3-.1-.4-.2a3.63,3.63,0,0,1-.7-.3c-.3-.2-.1-.3,0-.4a3.634,3.634,0,0,0,2.2-2.5.367.367,0,0,0-.1-.3,2.146,2.146,0,0,0-.7-.4c-.1-.1-.2-.1-.3-.2q-.45-.3-.3-.6c.1-.2.2-.2.4-.2h.2a.764.764,0,0,1,.5.2c.1,0,.2.1.3.1h.1c.1,0,.1,0,.1-.2V4a7.444,7.444,0,0,1,0-1.5,2.187,2.187,0,0,1,.7-1.6,3.075,3.075,0,0,1,2.3-.9,3.543,3.543,0,0,1,2.3.9,2.981,2.981,0,0,1,.7,1.6,8.477,8.477,0,0,1,0,1.6c0,.1,0,.2.1.2h.1c.1,0,.2-.1.3-.1.2-.1.3-.1.5-.2h.2a.52.52,0,0,1,.4.2q.15.3-.3.6c-.1,0-.2.1-.3.2a1.719,1.719,0,0,1-.7.4.367.367,0,0,0-.1.3,3.829,3.829,0,0,0,2.2,2.5C10.958,8.3,11.158,8.4,10.758,8.6Z" transform="translate(358.542 475.7)" fill="none" stroke="#17191c" stroke-linejoin="round" stroke-width="1.5"/>
      <path id="Vector-2" data-name="Vector" d="M20,10A10,10,0,1,1,10,0,10,10,0,0,1,20,10Z" transform="translate(354 471)" fill="none" stroke="#17191c" stroke-linejoin="round" stroke-width="1.5"/>
      <path id="Vector-3" data-name="Vector" d="M0,0H24V24H0Z" transform="translate(352 469)" fill="none" opacity="0"/>
    </g>
  </g>
</svg>
