<svg xmlns="http://www.w3.org/2000/svg" width="24" height="24" viewBox="0 0 24 24">
  <g id="vuesax_linear_courthouse" data-name="vuesax/linear/courthouse" transform="translate(-172 -188)">
    <g id="courthouse">
      <path id="Vector" d="M0,0H20" transform="translate(174 210)" fill="none" stroke="#292d32" stroke-linecap="round" stroke-linejoin="round" stroke-width="1.5"/>
      <path id="Vector-2" data-name="Vector" d="M0,0A6.75,6.75,0,0,0,5,0V3A6.75,6.75,0,0,1,0,3Z" transform="translate(184 190)" fill="none" stroke="#292d32" stroke-linecap="round" stroke-linejoin="round" stroke-width="1.5"/>
      <path id="Vector-3" data-name="Vector" d="M0,0V3" transform="translate(184 193)" fill="none" stroke="#292d32" stroke-linecap="round" stroke-linejoin="round" stroke-width="1.5"/>
      <path id="Vector-4" data-name="Vector" d="M13,0H3A2.652,2.652,0,0,0,0,3V14H16V3A2.652,2.652,0,0,0,13,0Z" transform="translate(176 196)" fill="none" stroke="#292d32" stroke-linecap="round" stroke-linejoin="round" stroke-width="1.5"/>
      <path id="Vector-5" data-name="Vector" d="M0,0H14.84" transform="translate(176.58 200)" fill="none" stroke="#292d32" stroke-linecap="round" stroke-linejoin="round" stroke-width="1.5"/>
      <path id="Vector-6" data-name="Vector" d="M0,0V10" transform="translate(179.99 200)" fill="none" stroke="#292d32" stroke-linejoin="round" stroke-width="1.5"/>
      <path id="Vector-7" data-name="Vector" d="M0,0V10" transform="translate(183.99 200)" fill="none" stroke="#292d32" stroke-linejoin="round" stroke-width="1.5"/>
      <path id="Vector-8" data-name="Vector" d="M0,0V10" transform="translate(187.99 200)" fill="none" stroke="#292d32" stroke-linejoin="round" stroke-width="1.5"/>
      <path id="Vector-9" data-name="Vector" d="M0,0H24V24H0Z" transform="translate(172 188)" fill="none" opacity="0"/>
    </g>
  </g>
</svg>
