<svg xmlns="http://www.w3.org/2000/svg" width="24" height="24" viewBox="0 0 24 24">
  <g id="vuesax_linear_search-favorite" data-name="vuesax/linear/search-favorite" transform="translate(-300 -188)">
    <g id="search-favorite">
      <path id="Vector" d="M18,9A9,9,0,1,1,9,0" transform="translate(302 190)" fill="none" stroke="#292d32" stroke-linecap="round" stroke-linejoin="round" stroke-width="1.5"/>
      <path id="Vector-2" data-name="Vector" d="M.121,2.92A2.214,2.214,0,0,1,1.341.08a1.6,1.6,0,0,1,1.79.56A1.564,1.564,0,0,1,4.911.08a2.214,2.214,0,0,1,1.22,2.84,4.2,4.2,0,0,1-3,2.66A4.181,4.181,0,0,1,.121,2.92Z" transform="translate(313.379 191.21)" fill="none" stroke="#292d32" stroke-linecap="round" stroke-linejoin="round" stroke-width="1.5"/>
      <path id="Vector-3" data-name="Vector" d="M.1,1.97c.53,1.6,1.74,1.76,2.67.36C3.62,1.05,3.06,0,1.52,0A1.406,1.406,0,0,0,.1,1.97Z" transform="translate(318.83 206.72)" fill="none" stroke="#292d32" stroke-linecap="round" stroke-linejoin="round" stroke-width="1.5"/>
      <path id="Vector-4" data-name="Vector" d="M0,0H24V24H0Z" transform="translate(300 188)" fill="none" opacity="0"/>
    </g>
  </g>
</svg>
