<svg xmlns="http://www.w3.org/2000/svg" width="24" height="24" viewBox="0 0 24 24">
  <g id="vuesax_linear_sms-search" data-name="vuesax/linear/sms-search" transform="translate(-172 -314)">
    <g id="sms-search">
      <path id="Vector" d="M10,17H5c-3,0-5-1.5-5-5V5C0,1.5,2,0,5,0H15c3,0,5,1.5,5,5V8" transform="translate(174 317.5)" fill="none" stroke="#292d32" stroke-linecap="round" stroke-linejoin="round" stroke-width="1.5"/>
      <path id="Vector-2" data-name="Vector" d="M10,0,6.87,2.5a3.166,3.166,0,0,1-3.75,0L0,0" transform="translate(179 323)" fill="none" stroke="#292d32" stroke-linecap="round" stroke-linejoin="round" stroke-width="1.5"/>
      <g id="Group">
        <path id="Vector-3" data-name="Vector" d="M6.4,3.2A3.2,3.2,0,1,1,3.2,0,3.2,3.2,0,0,1,6.4,3.2Z" transform="translate(187 329)" fill="none" stroke="#292d32" stroke-linecap="round" stroke-linejoin="round" stroke-width="1.5"/>
        <path id="Vector-4" data-name="Vector" d="M1,1,0,0" transform="translate(193 335)" fill="none" stroke="#292d32" stroke-linecap="round" stroke-linejoin="round" stroke-width="1.5"/>
      </g>
      <path id="Vector-5" data-name="Vector" d="M0,0H24V24H0Z" transform="translate(172 314)" fill="none" opacity="0"/>
    </g>
  </g>
</svg>
