<svg xmlns="http://www.w3.org/2000/svg" width="24" height="24" viewBox="0 0 24 24">
  <g id="vuesax_linear_thorchain-_rune_" data-name="vuesax/linear/thorchain-(rune)" transform="translate(-928 -213)">
    <g id="thorchain-_rune_" data-name="thorchain-(rune)">
      <path id="BG_1" data-name="BG 1" d="M0,0H24V24H0Z" transform="translate(928 213)" fill="none"/>
      <path id="Vector" d="M1.506,19.879l10.3-4.3a1.148,1.148,0,0,0,.4-1.8l-4.1-4.1-7.8,8.5A1.059,1.059,0,0,0,1.506,19.879Zm2.5-14.3,4.1,4.1,6.5-7.9a1.1,1.1,0,0,0-1.3-1.7l-8.9,3.7A1.16,1.16,0,0,0,4.006,5.579Z" transform="translate(932.594 215.021)" fill="none" stroke="#17191c" stroke-width="1.5"/>
      <path id="Vector-2" data-name="Vector" d="M0,0H24V24H0Z" transform="translate(928 213)" fill="none" opacity="0"/>
    </g>
  </g>
</svg>
