<svg xmlns="http://www.w3.org/2000/svg" width="24" height="24" viewBox="0 0 24 24">
  <g id="vuesax_linear_emoji-normal" data-name="vuesax/linear/emoji-normal" transform="translate(-492 -380)">
    <g id="emoji-normal">
      <path id="Vector" d="M7,20h6c5,0,7-2,7-7V7c0-5-2-7-7-7H7C2,0,0,2,0,7v6C0,18,2,20,7,20Z" transform="translate(494 382)" fill="none" stroke="#292d32" stroke-linecap="round" stroke-linejoin="round" stroke-width="1.5"/>
      <path id="Vector-2" data-name="Vector" d="M0,0A2.583,2.583,0,0,0,3.64,0" transform="translate(499 388.25)" fill="none" stroke="#292d32" stroke-linecap="round" stroke-linejoin="round" stroke-width="1.5"/>
      <path id="Vector-3" data-name="Vector" d="M0,0A2.583,2.583,0,0,0,3.64,0" transform="translate(505.36 388.25)" fill="none" stroke="#292d32" stroke-linecap="round" stroke-linejoin="round" stroke-width="1.5"/>
      <path id="Vector-4" data-name="Vector" d="M.9,0H8.1A.9.9,0,0,1,9,.9a4.5,4.5,0,0,1-9,0A.9.9,0,0,1,.9,0Z" transform="translate(499.5 393)" fill="none" stroke="#292d32" stroke-linecap="round" stroke-linejoin="round" stroke-width="1.5"/>
      <path id="Vector-5" data-name="Vector" d="M0,0H24V24H0Z" transform="translate(492 380)" fill="none" opacity="0"/>
    </g>
  </g>
</svg>
