<svg xmlns="http://www.w3.org/2000/svg" width="24" height="24" viewBox="0 0 24 24">
  <g id="vuesax_linear_document-filter" data-name="vuesax/linear/document-filter" transform="translate(-620 -316)">
    <g id="document-filter">
      <g id="Group">
        <path id="Vector" d="M1.34,0h8.9a1.357,1.357,0,0,1,1.35,1.35V2.83a2.557,2.557,0,0,1-.67,1.55L8.02,6.94a2.212,2.212,0,0,0-.67,1.55v2.9a1.524,1.524,0,0,1-.61,1.15l-.94.61A1.375,1.375,0,0,1,3.71,12V8.43a2.632,2.632,0,0,0-.54-1.42L.61,4.31A2.221,2.221,0,0,1,0,2.96V1.41A1.357,1.357,0,0,1,1.34,0Z" transform="translate(622.01 318)" fill="none" stroke="#292d32" stroke-linecap="round" stroke-linejoin="round" stroke-width="1.5"/>
      </g>
      <path id="Vector-2" data-name="Vector" d="M0,9.76v3c0,5,2,7,7,7h6c5,0,7-2,7-7v-6c0-3.12-.78-5.08-2.59-6.1A8.8,8.8,0,0,0,14.95,0" transform="translate(622 318.24)" fill="none" stroke="#292d32" stroke-linecap="round" stroke-linejoin="round" stroke-width="1.5"/>
      <path id="Vector-3" data-name="Vector" d="M0,0H5" transform="translate(633 329)" fill="none" stroke="#292d32" stroke-linecap="round" stroke-linejoin="round" stroke-width="1.5"/>
      <path id="Vector-4" data-name="Vector" d="M0,0H7" transform="translate(631 333)" fill="none" stroke="#292d32" stroke-linecap="round" stroke-linejoin="round" stroke-width="1.5"/>
      <path id="Vector-5" data-name="Vector" d="M0,0H24V24H0Z" transform="translate(644 340) rotate(180)" fill="none" opacity="0"/>
    </g>
  </g>
</svg>
