<svg xmlns="http://www.w3.org/2000/svg" width="24" height="24" viewBox="0 0 24 24">
  <g id="vuesax_linear_card-receive" data-name="vuesax/linear/card-receive" transform="translate(-556 -508)">
    <g id="card-receive">
      <path id="Vector" d="M0,0H12.5" transform="translate(558 516.5)" fill="none" stroke="#292d32" stroke-linecap="round" stroke-linejoin="round" stroke-width="1.5"/>
      <path id="Vector-2" data-name="Vector" d="M0,0H2" transform="translate(562 524.5)" fill="none" stroke="#292d32" stroke-linecap="round" stroke-linejoin="round" stroke-width="1.5"/>
      <path id="Vector-3" data-name="Vector" d="M0,0H4" transform="translate(566.5 524.5)" fill="none" stroke="#292d32" stroke-linecap="round" stroke-linejoin="round" stroke-width="1.5"/>
      <path id="Vector-4" data-name="Vector" d="M20,10.53v2.08c0,3.51-.89,4.39-4.44,4.39H4.44C.89,17,0,16.12,0,12.61V4.39C0,.88.89,0,4.44,0H12.5" transform="translate(558 511.5)" fill="none" stroke="#292d32" stroke-linecap="round" stroke-linejoin="round" stroke-width="1.5"/>
      <path id="Vector-5" data-name="Vector" d="M0,0V6L2,4" transform="translate(576 511.5)" fill="none" stroke="#292d32" stroke-linecap="round" stroke-linejoin="round" stroke-width="1.5"/>
      <path id="Vector-6" data-name="Vector" d="M2,2,0,0" transform="translate(574 515.5)" fill="none" stroke="#292d32" stroke-linecap="round" stroke-linejoin="round" stroke-width="1.5"/>
      <path id="Vector-7" data-name="Vector" d="M0,0H24V24H0Z" transform="translate(556 508)" fill="none" opacity="0"/>
    </g>
  </g>
</svg>
