<svg xmlns="http://www.w3.org/2000/svg" width="24" height="24" viewBox="0 0 24 24">
  <g id="vuesax_linear_lamp-slash" data-name="vuesax/linear/lamp-slash" transform="translate(-612 -188)">
    <g id="lamp-slash">
      <path id="Vector" d="M15.85,0,0,15.85" transform="translate(616.18 190.48)" fill="none" stroke="#292d32" stroke-linecap="round" stroke-linejoin="round" stroke-width="1.5"/>
      <path id="Vector-2" data-name="Vector" d="M.67,11A7.811,7.811,0,0,1,0,7.9C0,2.993,4.22-.877,9.02.173a7.256,7.256,0,0,1,3.76,2.18" transform="translate(616.58 189.997)" fill="none" stroke="#292d32" stroke-linecap="round" stroke-linejoin="round" stroke-width="1.5"/>
      <path id="Vector-3" data-name="Vector" d="M11.9,0A8.567,8.567,0,0,1,8.36,9.57v1.16c0,.29.1.96-.9.96H2.26c-1.03,0-.9-.43-.9-.96V9.57A7.718,7.718,0,0,1,0,8.47" transform="translate(619.16 195.3)" fill="none" stroke="#292d32" stroke-linecap="round" stroke-linejoin="round" stroke-width="1.5"/>
      <path id="Vector-4" data-name="Vector" d="M0,.487a12.808,12.808,0,0,1,7,0" transform="translate(620.5 209.512)" fill="none" stroke="#292d32" stroke-linecap="round" stroke-linejoin="round" stroke-width="1.5"/>
      <path id="Vector-5" data-name="Vector" d="M0,0H24V24H0Z" transform="translate(612 188)" fill="none" opacity="0"/>
    </g>
  </g>
</svg>
