<svg xmlns="http://www.w3.org/2000/svg" width="24" height="24" viewBox="0 0 24 24">
  <g id="vuesax_linear_frame" data-name="vuesax/linear/frame" transform="translate(-172 -188)">
    <g id="frame">
      <path id="Vector" d="M0,3.54,3.54,0" transform="translate(189.23 205.23)" fill="none" stroke="#292d32" stroke-linecap="round" stroke-linejoin="round" stroke-width="1.5"/>
      <path id="Vector-2" data-name="Vector" d="M3.54,3.54,0,0" transform="translate(189.23 205.23)" fill="none" stroke="#292d32" stroke-linecap="round" stroke-linejoin="round" stroke-width="1.5"/>
      <path id="Vector-3" data-name="Vector" d="M0,0V3" transform="translate(179 198.5)" fill="none" stroke="#292d32" stroke-linecap="round" stroke-linejoin="round" stroke-width="1.5"/>
      <path id="Vector-4" data-name="Vector" d="M0,0V3" transform="translate(184 198.5)" fill="none" stroke="#292d32" stroke-linecap="round" stroke-linejoin="round" stroke-width="1.5"/>
      <path id="Vector-5" data-name="Vector" d="M0,0V3" transform="translate(189 198.5)" fill="none" stroke="#292d32" stroke-linecap="round" stroke-linejoin="round" stroke-width="1.5"/>
      <path id="Vector-6" data-name="Vector" d="M20,11V7c0-5-2-7-7-7H7C2,0,0,2,0,7v6c0,5,2,7,7,7h4" transform="translate(174 190)" fill="none" stroke="#292d32" stroke-linecap="round" stroke-linejoin="round" stroke-width="1.5"/>
      <path id="Vector-7" data-name="Vector" d="M0,0H24V24H0Z" transform="translate(172 188)" fill="none" opacity="0"/>
    </g>
  </g>
</svg>
