<svg xmlns="http://www.w3.org/2000/svg" width="24" height="24" viewBox="0 0 24 24">
  <g id="vuesax_linear_arrange-square" data-name="vuesax/linear/arrange-square" transform="translate(-300 -380)">
    <g id="arrange-square">
      <path id="Vector" d="M7,20h6c5,0,7-2,7-7V7c0-5-2-7-7-7H7C2,0,0,2,0,7v6C0,18,2,20,7,20Z" transform="translate(302 382)" fill="none" stroke="#292d32" stroke-linecap="round" stroke-linejoin="round" stroke-width="1.5"/>
      <g id="Group">
        <path id="Vector-2" data-name="Vector" d="M3.04,0,0,3.04" transform="translate(314.11 393.82)" fill="none" stroke="#292d32" stroke-linecap="round" stroke-linejoin="round" stroke-width="1.5"/>
        <path id="Vector-3" data-name="Vector" d="M0,0H10.3" transform="translate(306.85 393.82)" fill="none" stroke="#292d32" stroke-linecap="round" stroke-linejoin="round" stroke-width="1.5"/>
      </g>
      <g id="Group-2" data-name="Group">
        <path id="Vector-4" data-name="Vector" d="M0,3.04,3.04,0" transform="translate(306.85 387.14)" fill="none" stroke="#292d32" stroke-linecap="round" stroke-linejoin="round" stroke-width="1.5"/>
        <path id="Vector-5" data-name="Vector" d="M10.3,0H0" transform="translate(306.85 390.18)" fill="none" stroke="#292d32" stroke-linecap="round" stroke-linejoin="round" stroke-width="1.5"/>
      </g>
      <path id="Vector-6" data-name="Vector" d="M0,0H24V24H0Z" transform="translate(300 380)" fill="none" opacity="0"/>
    </g>
  </g>
</svg>
