<svg xmlns="http://www.w3.org/2000/svg" width="24" height="24" viewBox="0 0 24 24">
  <g id="vuesax_linear_row-horizontal" data-name="vuesax/linear/row-horizontal" transform="translate(-300 -188)">
    <g id="row-horizontal">
      <path id="Vector" d="M8.5,17.9V2.1C8.5.6,7.86,0,6.27,0H2.23C.64,0,0,.6,0,2.1V17.9C0,19.4.64,20,2.23,20H6.27C7.86,20,8.5,19.4,8.5,17.9Z" transform="translate(302 190)" fill="none" stroke="#292d32" stroke-linecap="round" stroke-linejoin="round" stroke-width="1.5"/>
      <path id="Vector-2" data-name="Vector" d="M8.5,17.9V2.1C8.5.6,7.86,0,6.27,0H2.23C.64,0,0,.6,0,2.1V17.9C0,19.4.64,20,2.23,20H6.27C7.86,20,8.5,19.4,8.5,17.9Z" transform="translate(313.5 190)" fill="none" stroke="#292d32" stroke-linecap="round" stroke-linejoin="round" stroke-width="1.5"/>
      <path id="Vector-3" data-name="Vector" d="M0,0H24V24H0Z" transform="translate(300 188)" fill="none" opacity="0"/>
    </g>
  </g>
</svg>
