<svg xmlns="http://www.w3.org/2000/svg" width="24" height="24" viewBox="0 0 24 24">
  <g id="vuesax_linear_cloud-sunny" data-name="vuesax/linear/cloud-sunny" transform="translate(-492 -188)">
    <g id="cloud-sunny">
      <path id="Vector" d="M18.236,14.725a5.317,5.317,0,0,1-3.64,1.4H3.506a3.748,3.748,0,0,1,0-7.48h.05c-2.7-7.54,6.53-11.26,10.41-6.57v.01a7.249,7.249,0,0,1,1.47,3.45,4.9,4.9,0,0,1,3.18,1.74A5.359,5.359,0,0,1,18.236,14.725Z" transform="translate(494.034 191.955)" fill="none" stroke="#292d32" stroke-linecap="round" stroke-linejoin="round" stroke-width="1.5"/>
      <path id="Vector-2" data-name="Vector" d="M1.67.41A3.882,3.882,0,0,0,0,0" transform="translate(497.59 200.6)" fill="none" stroke="#292d32" stroke-linecap="round" stroke-linejoin="round" stroke-width="1.5"/>
      <path id="Vector-3" data-name="Vector" d="M0,.41A3.882,3.882,0,0,1,1.67,0" transform="translate(507.85 197.51)" fill="none" stroke="#292d32" stroke-linecap="round" stroke-linejoin="round" stroke-width="1.5"/>
      <path id="Vector-4" data-name="Vector" d="M5.97,3.5A3.471,3.471,0,0,1,4.65,6.23,4.9,4.9,0,0,0,1.47,4.49,7.249,7.249,0,0,0,0,1.04V1.03A3.46,3.46,0,0,1,2.47,0,3.5,3.5,0,0,1,5.97,3.5Z" transform="translate(508 193)" fill="none" stroke="#292d32" stroke-linecap="round" stroke-linejoin="round" stroke-width="1.5"/>
      <path id="Vector-5" data-name="Vector" d="M0,0H24V24H0Z" transform="translate(516 212) rotate(180)" fill="none" opacity="0"/>
    </g>
  </g>
</svg>
