<svg xmlns="http://www.w3.org/2000/svg" width="24" height="24" viewBox="0 0 24 24">
  <g id="vuesax_linear_hospital" data-name="vuesax/linear/hospital" transform="translate(-748 -188)">
    <g id="hospital">
      <path id="Vector" d="M0,0H20" transform="translate(750 210)" fill="#292d32" stroke="#292d32" stroke-linecap="round" stroke-linejoin="round" stroke-width="1.5"/>
      <path id="Vector-2" data-name="Vector" d="M14,0H4C1,0,0,1.79,0,4V20H18V4C18,1.79,17,0,14,0Z" transform="translate(751 190)" fill="none" stroke="#292d32" stroke-linecap="round" stroke-linejoin="round" stroke-width="1.5"/>
      <path id="Vector-3" data-name="Vector" d="M5.07,0H.94A.945.945,0,0,0,0,.94V7H6V.94A.924.924,0,0,0,5.07,0Z" transform="translate(756.99 203)" fill="none" stroke="#292d32" stroke-linecap="round" stroke-linejoin="round" stroke-width="1.5"/>
      <g id="Group">
        <path id="Vector-4" data-name="Vector" d="M0,0V5" transform="translate(760 194)" fill="none" stroke="#292d32" stroke-linecap="round" stroke-linejoin="round" stroke-width="1.5"/>
        <path id="Vector-5" data-name="Vector" d="M0,0H5" transform="translate(757.5 196.5)" fill="none" stroke="#292d32" stroke-linecap="round" stroke-linejoin="round" stroke-width="1.5"/>
      </g>
      <path id="Vector-6" data-name="Vector" d="M0,0H24V24H0Z" transform="translate(748 188)" fill="none" opacity="0"/>
    </g>
  </g>
</svg>
