<svg xmlns="http://www.w3.org/2000/svg" width="24" height="24" viewBox="0 0 24 24">
  <g id="vuesax_linear_align-vertically" data-name="vuesax/linear/align-vertically" transform="translate(-236 -316)">
    <g id="align-vertically">
      <path id="Vector" d="M12.9,5.5H2.1C.6,5.5,0,4.86,0,3.27V2.23C0,.64.6,0,2.1,0H12.9C14.4,0,15,.64,15,2.23V3.27C15,4.86,14.4,5.5,12.9,5.5Z" transform="translate(240.5 329.75)" fill="none" stroke="#292d32" stroke-linecap="round" stroke-linejoin="round" stroke-width="1.5"/>
      <path id="Vector-2" data-name="Vector" d="M8.9,5.5H2.1C.6,5.5,0,4.86,0,3.27V2.23C0,.64.6,0,2.1,0H8.9C10.4,0,11,.64,11,2.23V3.27C11,4.86,10.4,5.5,8.9,5.5Z" transform="translate(242.5 321.25)" fill="none" stroke="#292d32" stroke-linecap="round" stroke-linejoin="round" stroke-width="1.5"/>
      <path id="Vector-3" data-name="Vector" d="M0,2.4V0" transform="translate(248 335.6)" fill="none" stroke="#292d32" stroke-linecap="round" stroke-linejoin="round" stroke-width="1.5"/>
      <path id="Vector-4" data-name="Vector" d="M0,2V0" transform="translate(248 327)" fill="none" stroke="#292d32" stroke-linecap="round" stroke-linejoin="round" stroke-width="1.5"/>
      <path id="Vector-5" data-name="Vector" d="M0,0V2.69" transform="translate(248 318)" fill="none" stroke="#292d32" stroke-linecap="round" stroke-linejoin="round" stroke-width="1.5"/>
      <path id="Vector-6" data-name="Vector" d="M0,0H24V24H0Z" transform="translate(236 316)" fill="none" opacity="0"/>
    </g>
  </g>
</svg>
