<svg xmlns="http://www.w3.org/2000/svg" width="24" height="24" viewBox="0 0 24 24">
  <g id="vuesax_linear_document-like" data-name="vuesax/linear/document-like" transform="translate(-556 -252)">
    <g id="document-like">
      <path id="Vector" d="M18,5V15c0,3-1.5,5-5,5H5c-3.5,0-5-2-5-5V5C0,2,1.5,0,5,0h8C16.5,0,18,2,18,5Z" transform="translate(559 254)" fill="none" stroke="#292d32" stroke-linecap="round" stroke-linejoin="round" stroke-width="1.5"/>
      <path id="Vector-2" data-name="Vector" d="M0,0V2A2.006,2.006,0,0,0,2,4H4" transform="translate(570.5 256.5)" fill="none" stroke="#292d32" stroke-linecap="round" stroke-linejoin="round" stroke-width="1.5"/>
      <path id="Vector-3" data-name="Vector" d="M.114,2.725A2.071,2.071,0,0,1,1.244.075,1.484,1.484,0,0,1,2.9.6a1.45,1.45,0,0,1,1.66-.52A2.075,2.075,0,0,1,5.7,2.725a3.909,3.909,0,0,1-2.8,2.48A3.948,3.948,0,0,1,.114,2.725Z" transform="translate(563.366 264.765)" fill="none" stroke="#292d32" stroke-linecap="round" stroke-linejoin="round" stroke-width="1.5"/>
      <path id="Vector-4" data-name="Vector" d="M0,0H24V24H0Z" transform="translate(556 252)" fill="none" opacity="0"/>
    </g>
  </g>
</svg>
