<svg xmlns="http://www.w3.org/2000/svg" width="24" height="24" viewBox="0 0 24 24">
  <g id="vuesax_linear_routing-2" data-name="vuesax/linear/routing-2" transform="translate(-108 -316)">
    <g id="routing-2">
      <path id="Vector" d="M7,3.5A3.5,3.5,0,1,1,3.5,0,3.5,3.5,0,0,1,7,3.5Z" transform="translate(109.97 318)" fill="none" stroke="#292d32" stroke-width="1.5"/>
      <path id="Vector-2" data-name="Vector" d="M2,0H5A2.006,2.006,0,0,1,7,2V5A2.006,2.006,0,0,1,5,7H2A2.006,2.006,0,0,1,0,5V2A2.006,2.006,0,0,1,2,0Z" transform="translate(122.97 331)" fill="none" stroke="#292d32" stroke-width="1.5"/>
      <path id="Vector-3" data-name="Vector" d="M4.677,0h2.68a2,2,0,0,1,1.32,3.51L.687,10.5A2,2,0,0,0,2,14h2.68" transform="translate(115.323 321)" fill="none" stroke="#292d32" stroke-linecap="round" stroke-linejoin="round" stroke-width="1.5"/>
      <path id="Vector-4" data-name="Vector" d="M.636.5H.648" transform="translate(112.85 321)" fill="none" stroke="#292d32" stroke-linecap="round" stroke-linejoin="round" stroke-width="2"/>
      <path id="Vector-5" data-name="Vector" d="M.636.5H.648" transform="translate(125.85 334)" fill="none" stroke="#292d32" stroke-linecap="round" stroke-linejoin="round" stroke-width="2"/>
      <path id="Vector-6" data-name="Vector" d="M0,0H24V24H0Z" transform="translate(132 340) rotate(180)" fill="none" opacity="0"/>
    </g>
  </g>
</svg>
