<svg xmlns="http://www.w3.org/2000/svg" width="24" height="24" viewBox="0 0 24 24">
  <g id="vuesax_linear_ui8" data-name="vuesax/linear/ui8" transform="translate(-224 -469)">
    <g id="ui8">
      <path id="BG_1" data-name="BG 1" d="M0,0H24V24H0Z" transform="translate(224 469)" fill="none" opacity="0.58"/>
      <path id="Vector" d="M16.9,5.65v6.9a1.889,1.889,0,0,1-1.1,1.8l-6.5,3.1a2.483,2.483,0,0,1-1.7,0l-6.5-3.1A1.889,1.889,0,0,1,0,12.55V5.05a1.889,1.889,0,0,1,1.1-1.8L7.6.15a2.483,2.483,0,0,1,1.7,0l2.6,1.3v.3a4.012,4.012,0,0,0,4,4A3.083,3.083,0,0,0,16.9,5.65Z" transform="translate(226.1 473.25)" fill="none" stroke="#17191c" stroke-linejoin="round" stroke-width="1.5"/>
      <g id="Group">
        <path id="Vector-2" data-name="Vector" d="M0,0V3A2,2,0,0,0,4,3V0" transform="translate(231 479.5)" fill="none" stroke="#17191c" stroke-linecap="round" stroke-width="1.5"/>
        <path id="Vector-3" data-name="Vector" d="M0,0V4.9" transform="translate(238 479.5)" fill="none" stroke="#17191c" stroke-linecap="round" stroke-width="1.5"/>
      </g>
      <path id="Vector-4" data-name="Vector" d="M8,4A4.079,4.079,0,0,1,5,7.9,3.083,3.083,0,0,1,4,8,4.012,4.012,0,0,1,0,4V3.7A4.1,4.1,0,0,1,4,0,4.012,4.012,0,0,1,8,4Z" transform="translate(238 471)" fill="none" stroke="#17191c" stroke-width="1.5"/>
      <path id="Vector-5" data-name="Vector" d="M2.7,2.1a1.234,1.234,0,0,0,.4-.8A1.321,1.321,0,0,0,1.6,0,1.321,1.321,0,0,0,.1,1.3a.909.909,0,0,0,.4.8,1.231,1.231,0,0,0-.5,1c0,.8.6,1.3,1.6,1.3s1.6-.5,1.6-1.3A1.231,1.231,0,0,0,2.7,2.1ZM1.6,1.7c-.3,0-.4-.1-.4-.4A.366.366,0,0,1,1.6.9a.366.366,0,0,1,.4.4C2,1.6,1.9,1.7,1.6,1.7Zm0,.8c.3,0,.6.1.6.5,0,.3-.2.5-.6.5S1,3.3,1,3C1,2.6,1.5,2.5,1.6,2.5Z" transform="translate(240.4 472.8)" fill="#17191c"/>
      <path id="Vector-6" data-name="Vector" d="M0,0H24V24H0Z" transform="translate(224 469)" fill="none" opacity="0"/>
    </g>
  </g>
</svg>
