<svg width="24" height="24" viewBox="0 0 24 24" fill="none" xmlns="http://www.w3.org/2000/svg">
<path fill-rule="evenodd" clip-rule="evenodd" d="M22.0001 16.7399V4.66993C22.0087 4.10741 21.7764 3.56805 21.3618 3.18781C20.9471 2.80758 20.3897 2.62275 19.8301 2.67993H19.7701C17.2791 2.9913 14.8754 3.79706 12.7001 5.04993L12.5301 5.15993C12.1996 5.33991 11.8005 5.33991 11.4701 5.15993L11.2201 5.00993C9.04652 3.76649 6.646 2.97085 4.16006 2.66993C3.60145 2.61477 3.04589 2.80089 2.63325 3.18143C2.22061 3.56198 1.99021 4.10069 2.00006 4.66193V16.7419C2.02465 17.736 2.75741 18.5698 3.74006 18.7219L4.03006 18.7619C6.62015 19.1904 9.12928 20.0133 11.4701 21.2019L11.5101 21.2219C11.8125 21.372 12.1676 21.372 12.4701 21.2219C14.8145 20.021 17.3311 19.1911 19.9301 18.7619L20.2601 18.7219C21.2434 18.5697 21.9764 17.7347 22.0001 16.7399Z" stroke="#CCCCCC" stroke-width="1.5" stroke-linecap="round" stroke-linejoin="round"/>
<path d="M12 5.48999V20.49" stroke="#CCCCCC" stroke-width="1.5" stroke-linecap="round" stroke-linejoin="round"/>
<path d="M7.75 8.48999H5.5" stroke="#CCCCCC" stroke-width="1.5" stroke-linecap="round" stroke-linejoin="round"/>
<path d="M8.5 11.49H5.5" stroke="#CCCCCC" stroke-width="1.5" stroke-linecap="round" stroke-linejoin="round"/>
</svg>
