<svg xmlns="http://www.w3.org/2000/svg" width="24" height="24" viewBox="0 0 24 24">
  <g id="vuesax_linear_computing" data-name="vuesax/linear/computing" transform="translate(-684 -444)">
    <g id="computing">
      <path id="Vector" d="M20,13V7c0-5-2-7-7-7H7C2,0,0,2,0,7v6c0,5,2,7,7,7h6C18,20,20,18,20,13Z" transform="translate(685.97 446)" fill="none" stroke="#292d32" stroke-linecap="round" stroke-linejoin="round" stroke-width="1.5"/>
      <path id="Vector-2" data-name="Vector" d="M16.45,0,0,16.45" transform="translate(687.27 447.25)" fill="none" stroke="#292d32" stroke-linecap="round" stroke-linejoin="round" stroke-width="1.5"/>
      <path id="Vector-3" data-name="Vector" d="M0,5V0" transform="translate(700.06 457)" fill="none" stroke="#292d32" stroke-linecap="round" stroke-linejoin="round" stroke-width="1.5"/>
      <path id="Vector-4" data-name="Vector" d="M5,0H0" transform="translate(697.5 459.5)" fill="none" stroke="#292d32" stroke-linecap="round" stroke-linejoin="round" stroke-width="1.5"/>
      <path id="Vector-5" data-name="Vector" d="M5,0H0" transform="translate(689.5 451.5)" fill="none" stroke="#292d32" stroke-linecap="round" stroke-linejoin="round" stroke-width="1.5"/>
      <path id="Vector-6" data-name="Vector" d="M0,0H24V24H0Z" transform="translate(684 444)" fill="none" opacity="0"/>
    </g>
  </g>
</svg>
