<svg xmlns="http://www.w3.org/2000/svg" width="24" height="24" viewBox="0 0 24 24">
  <g id="vuesax_linear_backward-10-seconds" data-name="vuesax/linear/backward-10-seconds" transform="translate(-684 -450)">
    <g id="backward-10-seconds">
      <path id="Vector" d="M1.5,5.34V0L0,1.67" transform="translate(692.04 460.58)" fill="none" stroke="#292d32" stroke-linecap="round" stroke-linejoin="round" stroke-width="1.5"/>
      <path id="Vector-2" data-name="Vector" d="M0,2.47,1.98,0" transform="translate(694.02 452)" fill="none" stroke="#292d32" stroke-linecap="round" stroke-linejoin="round" stroke-width="1.5"/>
      <path id="Vector-3" data-name="Vector" d="M1.8,3.58A8.863,8.863,0,1,0,8.89,0,8.654,8.654,0,0,0,6.91.24" transform="translate(687.11 454.22)" fill="none" stroke="#292d32" stroke-linecap="round" stroke-linejoin="round" stroke-width="1.5"/>
      <path id="Vector-4" data-name="Vector" d="M2,0A2.006,2.006,0,0,1,4,2V3.35a2,2,0,0,1-4,0V2A2,2,0,0,1,2,0Z" transform="translate(696 460.58)" fill="none" stroke="#292d32" stroke-linecap="round" stroke-linejoin="round" stroke-width="1.5"/>
      <path id="Vector-5" data-name="Vector" d="M0,0H24V24H0Z" transform="translate(684 450)" fill="none" opacity="0"/>
    </g>
  </g>
</svg>
