<svg xmlns="http://www.w3.org/2000/svg" width="24" height="24" viewBox="0 0 24 24">
  <g id="vuesax_linear_bag-tick-2" data-name="vuesax/linear/bag-tick-2" transform="translate(-428 -188)">
    <g id="bag-tick-2">
      <path id="Vector" d="M8,4A4,4,0,1,1,4,0,4,4,0,0,1,8,4Z" transform="translate(436 199)" fill="none" stroke="#292d32" stroke-linecap="round" stroke-linejoin="round" stroke-width="1.5"/>
      <path id="Vector-2" data-name="Vector" d="M0,.98l.65.65a.489.489,0,0,0,.69.01L3.12,0" transform="translate(438.44 202.02)" fill="none" stroke="#292d32" stroke-linecap="round" stroke-linejoin="round" stroke-width="1.5"/>
      <path id="Vector-3" data-name="Vector" d="M5.751,14h6c4.02,0,4.74-1.61,4.95-3.57l.75-6c.27-2.44-.43-4.43-4.7-4.43h-8C.481,0-.219,1.99.051,4.43l.75,6C1.011,12.39,1.731,14,5.751,14Z" transform="translate(431.249 196)" fill="none" stroke="#292d32" stroke-linecap="round" stroke-linejoin="round" stroke-width="1.5"/>
      <path id="Vector-4" data-name="Vector" d="M0,5.662v-.97A4.773,4.773,0,0,1,4.06.022,4.5,4.5,0,0,1,9,4.5v1.38" transform="translate(435.5 190.008)" fill="none" stroke="#292d32" stroke-linecap="round" stroke-linejoin="round" stroke-width="1.5"/>
      <path id="Vector-5" data-name="Vector" d="M0,0H24V24H0Z" transform="translate(428 188)" fill="none" opacity="0"/>
    </g>
  </g>
</svg>
