<svg xmlns="http://www.w3.org/2000/svg" width="24" height="24" viewBox="0 0 24 24">
  <g id="vuesax_linear_ankr-_ankr_" data-name="vuesax/linear/ankr-(ankr)" transform="translate(-1056 -341)">
    <g id="ankr-_ankr_" data-name="ankr-(ankr)">
      <path id="BG_1" data-name="BG 1" d="M0,0H24V24H0Z" transform="translate(1056 341)" fill="none" opacity="0.58"/>
      <path id="Vector" d="M0,7.8V4.4L8.9,0l8.9,4.4V7.8" transform="translate(1059.1 343)" fill="none" stroke="#17191c" stroke-linecap="round" stroke-linejoin="round" stroke-width="1.5"/>
      <path id="Vector-2" data-name="Vector" d="M0,0V3.4L8.9,7.8l8.9-4.4V0" transform="translate(1059.1 355.2)" fill="none" stroke="#17191c" stroke-linecap="round" stroke-linejoin="round" stroke-width="1.5"/>
      <path id="Vector-3" data-name="Vector" d="M0,5.6V0" transform="translate(1068 357.4)" fill="none" stroke="#17191c" stroke-linecap="round" stroke-linejoin="round" stroke-width="1.5"/>
      <path id="Vector-4" data-name="Vector" d="M8.8,4.4A4.4,4.4,0,1,1,4.4,0,4.4,4.4,0,0,1,8.8,4.4Z" transform="translate(1063.6 348.6)" fill="none" stroke="#17191c" stroke-width="1.5"/>
      <path id="Vector-5" data-name="Vector" d="M0,0H24V24H0Z" transform="translate(1056 341)" fill="none" opacity="0"/>
    </g>
  </g>
</svg>
