<svg xmlns="http://www.w3.org/2000/svg" width="24" height="24" viewBox="0 0 24 24">
  <g id="vuesax_linear_airpod" data-name="vuesax/linear/airpod" transform="translate(-684 -188)">
    <g id="airpod">
      <path id="Vector" d="M0,13.75V6.25A16.172,16.172,0,0,1,.11,4.18C.48.89,2.03,0,6.26,0h6.25c4.22,0,5.78.89,6.14,4.18a14.534,14.534,0,0,1,.11,2.07v7.5a16.441,16.441,0,0,1-.11,2.08C18.28,19.11,16.73,20,12.5,20H6.26C2.04,20,.48,19.11.12,15.83A14.67,14.67,0,0,1,0,13.75Z" transform="translate(686.62 190)" fill="none" stroke="#292d32" stroke-linecap="round" stroke-linejoin="round" stroke-width="1.5"/>
      <path id="Vector-2" data-name="Vector" d="M4.1,0H0" transform="translate(701.13 196.92)" fill="none" stroke="#292d32" stroke-linecap="round" stroke-linejoin="round" stroke-width="1.5"/>
      <path id="Vector-3" data-name="Vector" d="M4.1,0H0" transform="translate(686.77 196.92)" fill="none" stroke="#292d32" stroke-linecap="round" stroke-linejoin="round" stroke-width="1.5"/>
      <path id="Vector-4" data-name="Vector" d="M10.26,2.05A2.053,2.053,0,0,1,8.21,4.1H2.05A2.025,2.025,0,0,1,.6,3.49,2,2,0,0,1,0,2.05,2.053,2.053,0,0,1,2.05,0H8.2A2.025,2.025,0,0,1,9.65.61,2,2,0,0,1,10.26,2.05Z" transform="translate(690.87 194.87)" fill="none" stroke="#292d32" stroke-linecap="round" stroke-linejoin="round" stroke-width="1.5"/>
      <path id="Vector-5" data-name="Vector" d="M0,0H24V24H0Z" transform="translate(684 188)" fill="none" opacity="0"/>
    </g>
  </g>
</svg>
