<svg xmlns="http://www.w3.org/2000/svg" width="24" height="24" viewBox="0 0 24 24">
  <g id="vuesax_linear_document-download" data-name="vuesax/linear/document-download" transform="translate(-300 -188)">
    <g id="document-download">
      <path id="Vector" d="M0,0V6L2,4" transform="translate(309 199)" fill="none" stroke="#292d32" stroke-linecap="round" stroke-linejoin="round" stroke-width="1.5"/>
      <path id="Vector-2" data-name="Vector" d="M2,2,0,0" transform="translate(307 203)" fill="none" stroke="#292d32" stroke-linecap="round" stroke-linejoin="round" stroke-width="1.5"/>
      <path id="Vector-3" data-name="Vector" d="M20,8v5c0,5-2,7-7,7H7c-5,0-7-2-7-7V7C0,2,2,0,7,0h5" transform="translate(302 190)" fill="none" stroke="#292d32" stroke-linecap="round" stroke-linejoin="round" stroke-width="1.5"/>
      <path id="Vector-4" data-name="Vector" d="M8,8H4C1,8,0,7,0,4V0Z" transform="translate(314 190)" fill="none" stroke="#292d32" stroke-linecap="round" stroke-linejoin="round" stroke-width="1.5"/>
      <path id="Vector-5" data-name="Vector" d="M0,0H24V24H0Z" transform="translate(300 188)" fill="none" opacity="0"/>
    </g>
  </g>
</svg>
