<svg xmlns="http://www.w3.org/2000/svg" width="24" height="24" viewBox="0 0 24 24">
  <g id="vuesax_linear_broom" data-name="vuesax/linear/broom" transform="translate(-236 -700)">
    <g id="broom">
      <path id="Vector" d="M5.269,3.519,1.849,5.6.289,3.039A2,2,0,0,1,3.709.959Z" transform="translate(240.601 702.151)" fill="none" stroke="#292d32" stroke-linecap="round" stroke-linejoin="round" stroke-width="1.5"/>
      <path id="Vector-2" data-name="Vector" d="M5.085.591l-3.16,1.92a3.978,3.978,0,0,0-1.51,5.18l2.05,4.18A2.451,2.451,0,0,0,6,12.9l6.43-3.91a2.458,2.458,0,0,0,.71-3.62l-2.77-3.74A3.972,3.972,0,0,0,5.085.591Z" transform="translate(242.735 708.569)" fill="none" stroke="#292d32" stroke-linecap="round" stroke-linejoin="round" stroke-width="1.5"/>
      <path id="Vector-3" data-name="Vector" d="M0,0H6V4H0Z" transform="translate(241.632 708.219) rotate(-31.339)" fill="none" stroke="#292d32" stroke-linecap="round" stroke-linejoin="round" stroke-width="1.5"/>
      <path id="Vector-4" data-name="Vector" d="M0,0,1.65,2.71" transform="translate(250.31 716.81)" fill="none" stroke="#292d32" stroke-linecap="round" stroke-linejoin="round" stroke-width="1.5"/>
      <path id="Vector-5" data-name="Vector" d="M0,0,1.65,2.71" transform="translate(247.75 718.37)" fill="none" stroke="#292d32" stroke-linecap="round" stroke-linejoin="round" stroke-width="1.5"/>
      <path id="Vector-6" data-name="Vector" d="M0,0,1.65,2.71" transform="translate(252.87 715.25)" fill="none" stroke="#292d32" stroke-linecap="round" stroke-linejoin="round" stroke-width="1.5"/>
      <path id="Vector-7" data-name="Vector" d="M0,0H24V24H0Z" transform="translate(236 700)" fill="none" opacity="0"/>
    </g>
  </g>
</svg>
