<svg xmlns="http://www.w3.org/2000/svg" width="24" height="24" viewBox="0 0 24 24">
  <g id="vuesax_linear_harmony-_one_" data-name="vuesax/linear/harmony-(one)" transform="translate(-864 -341)">
    <g id="harmony-_one_" data-name="harmony-(one)">
      <path id="BG_1" data-name="BG 1" d="M0,0H24V24H0Z" transform="translate(864 341)" fill="none" opacity="0.58"/>
      <path id="Vector" d="M8,3.7A4.815,4.815,0,0,1,5.7,7.9,14.047,14.047,0,0,1,0,9.8V3.7A3.757,3.757,0,0,1,3.7,0h.5A3.778,3.778,0,0,1,8,3.7Z" transform="translate(878 343)" fill="none" stroke="#17191c" stroke-width="1.5"/>
      <path id="Vector-2" data-name="Vector" d="M7.9,0V10.3A3.691,3.691,0,0,1,4.2,14H3.7A3.691,3.691,0,0,1,0,10.3V3.9C5.5,3.2,7.9,0,7.9,0Z" transform="translate(878.1 349)" fill="none" stroke="#17191c" stroke-width="1.5"/>
      <path id="Vector-3" data-name="Vector" d="M0,6.1A4.815,4.815,0,0,1,2.3,1.9,14.047,14.047,0,0,1,8,0V6.1A3.691,3.691,0,0,1,4.3,9.8H3.7A3.757,3.757,0,0,1,0,6.1Z" transform="translate(866 353.2)" fill="none" stroke="#17191c" stroke-width="1.5"/>
      <path id="Vector-4" data-name="Vector" d="M0,14V3.7A3.757,3.757,0,0,1,3.7,0h.5A3.778,3.778,0,0,1,8,3.7v6.4C2.4,10.8,0,14,0,14Z" transform="translate(866 343)" fill="none" stroke="#17191c" stroke-width="1.5"/>
      <path id="Vector-5" data-name="Vector" d="M0,.2A12.75,12.75,0,0,1,2,.1,12.75,12.75,0,0,0,4,0" transform="translate(874 352.9)" fill="none" stroke="#17191c" stroke-width="1.5"/>
      <path id="Vector-6" data-name="Vector" d="M0,0H24V24H0Z" transform="translate(864 341)" fill="none" opacity="0"/>
    </g>
  </g>
</svg>
