<svg xmlns="http://www.w3.org/2000/svg" width="24" height="24" viewBox="0 0 24 24">
  <g id="vuesax_linear_heart-search" data-name="vuesax/linear/heart-search" transform="translate(-748 -188)">
    <g id="heart-search">
      <g id="Group">
        <path id="Vector" d="M19.49,8.9A10.983,10.983,0,0,0,20,5.59,5.574,5.574,0,0,0,14.44,0,5.515,5.515,0,0,0,10,2.24,5.547,5.547,0,0,0,0,5.59c0,7,6.48,11.13,9.38,12.13a1.93,1.93,0,0,0,.62.09" transform="translate(750 191.1)" fill="none" stroke="#292d32" stroke-linecap="round" stroke-linejoin="round" stroke-width="1.5"/>
      </g>
      <g id="Group-2" data-name="Group">
        <path id="Vector-2" data-name="Vector" d="M6.4,3.2A3.2,3.2,0,1,1,3.2,0,3.2,3.2,0,0,1,6.4,3.2Z" transform="translate(762.54 202.6)" fill="none" stroke="#292d32" stroke-linecap="round" stroke-linejoin="round" stroke-width="1.5"/>
        <path id="Vector-3" data-name="Vector" d="M1,1,0,0" transform="translate(768.54 208.6)" fill="none" stroke="#292d32" stroke-linecap="round" stroke-linejoin="round" stroke-width="1.5"/>
      </g>
      <path id="Vector-4" data-name="Vector" d="M0,0H24V24H0Z" transform="translate(772 212) rotate(180)" fill="none" opacity="0"/>
    </g>
  </g>
</svg>
