<svg xmlns="http://www.w3.org/2000/svg" width="24" height="24" viewBox="0 0 24 24">
  <g id="vuesax_linear_filter-remove" data-name="vuesax/linear/filter-remove" transform="translate(-364 -700)">
    <g id="filter-remove">
      <g id="Group">
        <path id="Vector" d="M10.1,18.78l-1.41.91a2.058,2.058,0,0,1-3.13-1.72V12.62a3.834,3.834,0,0,0-.81-2.12L.91,6.46A3.323,3.323,0,0,1,0,4.44V2.12A2.051,2.051,0,0,1,2.02,0H15.36a2.027,2.027,0,0,1,2.02,2.02V4.24a3.773,3.773,0,0,1-1.01,2.32" transform="translate(367.31 702.01)" fill="none" stroke="#292d32" stroke-linecap="round" stroke-linejoin="round" stroke-width="1.5"/>
      </g>
      <path id="Vector-2" data-name="Vector" d="M9.5,4.75A4.686,4.686,0,0,1,8.81,7.2a4.733,4.733,0,0,1-8.12,0A4.66,4.66,0,0,1,0,4.75a4.75,4.75,0,1,1,9.5,0Z" transform="translate(376.13 710)" fill="none" stroke="#292d32" stroke-linecap="round" stroke-linejoin="round" stroke-width="1.5"/>
      <g id="Group-2" data-name="Group">
        <path id="Vector-3" data-name="Vector" d="M2.51,2.51,0,0" transform="translate(379.64 713.48)" fill="none" stroke="#292d32" stroke-linecap="round" stroke-linejoin="round" stroke-width="1.5"/>
        <path id="Vector-4" data-name="Vector" d="M2.51,0,0,2.51" transform="translate(379.62 713.51)" fill="none" stroke="#292d32" stroke-linecap="round" stroke-linejoin="round" stroke-width="1.5"/>
      </g>
      <path id="Vector-5" data-name="Vector" d="M0,0H24V24H0Z" transform="translate(388 724) rotate(180)" fill="none" opacity="0"/>
      <g id="Group-3" data-name="Group">
        <path id="Vector-6" data-name="Vector" d="M17.38,2.02V4.24a3.825,3.825,0,0,1-1.01,2.33L14.61,8.12A4.421,4.421,0,0,0,13.57,8a4.754,4.754,0,0,0-4.75,4.75,4.686,4.686,0,0,0,.69,2.45,4.481,4.481,0,0,0,1.5,1.53v.34a2.23,2.23,0,0,1-.91,1.72l-1.41.91a2.058,2.058,0,0,1-3.13-1.72V12.63a3.91,3.91,0,0,0-.81-2.12L.91,6.47A3.407,3.407,0,0,1,0,4.45V2.12A2.051,2.051,0,0,1,2.02,0H15.36A2.027,2.027,0,0,1,17.38,2.02Z" transform="translate(367.31 702)" fill="none" stroke="#292d32" stroke-linecap="round" stroke-linejoin="round" stroke-width="1.5"/>
      </g>
    </g>
  </g>
</svg>
