<svg xmlns="http://www.w3.org/2000/svg" width="24" height="24" viewBox="0 0 24 24">
  <g id="vuesax_linear_mask" data-name="vuesax/linear/mask" transform="translate(-490 -382)">
    <g id="mask">
      <path id="Vector" d="M19.94,9.97a9.89,9.89,0,0,1-3.32,7.41,9.836,9.836,0,0,1-6.65,2.56A9.97,9.97,0,1,1,9.97,0a9.836,9.836,0,0,1,6.65,2.56A9.89,9.89,0,0,1,19.94,9.97Z" transform="translate(492.03 384.03)" fill="none" stroke="#292d32" stroke-linecap="round" stroke-linejoin="round" stroke-width="1.5"/>
      <path id="Vector-2" data-name="Vector" d="M6.44,10.556a1.6,1.6,0,0,1-2.4,1.59,6.453,6.453,0,0,1,0-11.97,1.607,1.607,0,0,1,2.4,1.59Z" transform="translate(495.53 387.834)" fill="none" stroke="#292d32" stroke-linecap="round" stroke-linejoin="round" stroke-width="1.5"/>
      <path id="Vector-3" data-name="Vector" d="M0,0H24V24H0Z" transform="translate(490 382)" fill="none" opacity="0"/>
    </g>
  </g>
</svg>
