<svg xmlns="http://www.w3.org/2000/svg" width="24" height="24" viewBox="0 0 24 24">
  <g id="vuesax_linear_pen-tool-2" data-name="vuesax/linear/pen-tool-2" transform="translate(-172 -252)">
    <g id="pen-tool-2">
      <g id="Group">
        <g id="Group-2" data-name="Group">
          <path id="Vector" d="M1.429,3.32h2.52a1.27,1.27,0,0,0,1.4-1.51L4.939,0H.439L.029,1.81A1.314,1.314,0,0,0,1.429,3.32Z" transform="translate(181.321 271.18)" fill="none" stroke="#292d32" stroke-linecap="round" stroke-linejoin="round" stroke-width="1.5"/>
          <path id="Vector-2" data-name="Vector" d="M7.011,8.448l1.73-1.54c.97-.86,1.01-1.46.24-2.43L5.931.608a1.421,1.421,0,0,0-2.33,0L.551,4.477c-.77.97-.77,1.6.24,2.43l1.73,1.54" transform="translate(179.249 262.723)" fill="none" stroke="#292d32" stroke-linecap="round" stroke-linejoin="round" stroke-width="1.5"/>
          <path id="Vector-3" data-name="Vector" d="M0,0V2.53" transform="translate(184.01 263.12)" fill="none" stroke="#292d32" stroke-linecap="round" stroke-linejoin="round" stroke-width="1.5"/>
        </g>
      </g>
      <g id="Group-3" data-name="Group">
        <path id="Vector-4" data-name="Vector" d="M2,3H1A1,1,0,0,1,0,2V1A1,1,0,0,1,1,0H2A1,1,0,0,1,3,1V2A1,1,0,0,1,2,3Z" transform="translate(182.52 254)" fill="none" stroke="#292d32" stroke-linecap="round" stroke-linejoin="round" stroke-width="1.5"/>
        <path id="Vector-5" data-name="Vector" d="M1,3H2A1,1,0,0,0,3,2V1A1,1,0,0,0,2,0H1A1,1,0,0,0,0,1V2A1,1,0,0,0,1,3Z" transform="translate(174.27 263.17)" fill="none" stroke="#292d32" stroke-linecap="round" stroke-linejoin="round" stroke-width="1.5"/>
        <path id="Vector-6" data-name="Vector" d="M2,3H1A1,1,0,0,1,0,2V1A1,1,0,0,1,1,0H2A1,1,0,0,1,3,1V2A1,1,0,0,1,2,3Z" transform="translate(190.73 263.17)" fill="none" stroke="#292d32" stroke-linecap="round" stroke-linejoin="round" stroke-width="1.5"/>
        <path id="Vector-7" data-name="Vector" d="M6.77,0A7.67,7.67,0,0,0,0,7.61" transform="translate(175.75 255.56)" fill="none" stroke="#292d32" stroke-linecap="round" stroke-linejoin="round" stroke-width="1.5"/>
        <path id="Vector-8" data-name="Vector" d="M6.73,7.61A7.674,7.674,0,0,0,0,0" transform="translate(185.52 255.56)" fill="none" stroke="#292d32" stroke-linecap="round" stroke-linejoin="round" stroke-width="1.5"/>
      </g>
      <path id="Vector-9" data-name="Vector" d="M0,0H24V24H0Z" transform="translate(172 252)" fill="none" opacity="0"/>
    </g>
  </g>
</svg>
