<svg xmlns="http://www.w3.org/2000/svg" width="24" height="24" viewBox="0 0 24 24">
  <g id="vuesax_linear_wind-2" data-name="vuesax/linear/wind-2" transform="translate(-300 -252)">
    <g id="wind-2">
      <path id="Vector" d="M0,2.19,2.5.69a4.874,4.874,0,0,1,5,0,4.874,4.874,0,0,0,5,0,4.874,4.874,0,0,1,5,0L20,2.19" transform="translate(302 262.91)" fill="none" stroke="#292d32" stroke-linecap="round" stroke-linejoin="round" stroke-width="1.5"/>
      <path id="Vector-2" data-name="Vector" d="M0,0,2.5,1.5a4.874,4.874,0,0,0,5,0,4.874,4.874,0,0,1,5,0,4.874,4.874,0,0,0,5,0L20,0" transform="translate(302 255.9)" fill="none" stroke="#292d32" stroke-linecap="round" stroke-linejoin="round" stroke-width="1.5"/>
      <path id="Vector-3" data-name="Vector" d="M0,2.19,2.5.69a4.874,4.874,0,0,1,5,0,4.874,4.874,0,0,0,5,0,4.874,4.874,0,0,1,5,0L20,2.19" transform="translate(302 269.91)" fill="none" stroke="#292d32" stroke-linecap="round" stroke-linejoin="round" stroke-width="1.5"/>
      <path id="Vector-4" data-name="Vector" d="M0,0H24V24H0Z" transform="translate(300 252)" fill="none" opacity="0"/>
    </g>
  </g>
</svg>
