<svg xmlns="http://www.w3.org/2000/svg" width="24" height="24" viewBox="0 0 24 24">
  <g id="vuesax_linear_filter-search" data-name="vuesax/linear/filter-search" transform="translate(-492 -700)">
    <g id="filter-search">
      <g id="Group">
        <path id="Vector" d="M11.01,17.06a2.246,2.246,0,0,1-.91,1.72l-1.41.91a2.058,2.058,0,0,1-3.13-1.72V12.62a3.834,3.834,0,0,0-.81-2.12L.91,6.46A3.323,3.323,0,0,1,0,4.44V2.12A2.051,2.051,0,0,1,2.02,0H15.36a2.027,2.027,0,0,1,2.02,2.02V4.24a3.773,3.773,0,0,1-1.01,2.32" transform="translate(495.31 702.01)" fill="none" stroke="#292d32" stroke-linecap="round" stroke-linejoin="round" stroke-width="1.5"/>
      </g>
      <g id="Group-2" data-name="Group">
        <path id="Vector-2" data-name="Vector" d="M6.4,3.2A3.2,3.2,0,1,1,3.2,0,3.2,3.2,0,0,1,6.4,3.2Z" transform="translate(504.87 710.12)" fill="none" stroke="#292d32" stroke-linecap="round" stroke-linejoin="round" stroke-width="1.5"/>
        <path id="Vector-3" data-name="Vector" d="M1,1,0,0" transform="translate(510.87 716.12)" fill="none" stroke="#292d32" stroke-linecap="round" stroke-linejoin="round" stroke-width="1.5"/>
      </g>
      <path id="Vector-4" data-name="Vector" d="M0,0H24V24H0Z" transform="translate(516 724) rotate(180)" fill="none" opacity="0"/>
    </g>
  </g>
</svg>
