<svg xmlns="http://www.w3.org/2000/svg" width="24" height="24" viewBox="0 0 24 24">
  <g id="vuesax_linear_ticket-star" data-name="vuesax/linear/ticket-star" transform="translate(-556 -572)">
    <g id="ticket-star">
      <path id="Vector" d="M14.99,0h-10C1.16,0,.09.92,0,4.5A3.5,3.5,0,0,1,3.49,8,3.5,3.5,0,0,1,0,11.5C.09,15.08,1.16,16,4.99,16h10c4,0,5-1,5-5V5C19.99,1,18.99,0,14.99,0Z" transform="translate(558.005 576)" fill="none" stroke="#292d32" stroke-linecap="round" stroke-linejoin="round" stroke-width="1.5"/>
      <path id="Vector-2" data-name="Vector" d="M0,0V3.5" transform="translate(564.993 576)" fill="none" stroke="#292d32" stroke-linecap="round" stroke-linejoin="round" stroke-width="1.5"/>
      <path id="Vector-3" data-name="Vector" d="M0,0V3.5" transform="translate(564.993 588.5)" fill="none" stroke="#292d32" stroke-linecap="round" stroke-linejoin="round" stroke-width="1.5"/>
      <path id="Vector-4" data-name="Vector" d="M3.387.233l.62,1.25a.43.43,0,0,0,.31.23l1.38.2a.416.416,0,0,1,.23.71l-1,.97a.413.413,0,0,0-.12.37l.24,1.37a.415.415,0,0,1-.6.44l-1.23-.65a.445.445,0,0,0-.39,0l-1.23.65a.413.413,0,0,1-.6-.44l.24-1.37a.422.422,0,0,0-.12-.37l-.99-.97a.416.416,0,0,1,.23-.71l1.38-.2a.391.391,0,0,0,.31-.23l.61-1.25A.4.4,0,0,1,3.387.233Z" transform="translate(567.638 581.097)" fill="none" stroke="#292d32" stroke-linecap="round" stroke-linejoin="round" stroke-width="1.5"/>
      <path id="Vector-5" data-name="Vector" d="M0,0H24V24H0Z" transform="translate(556 572)" fill="none" opacity="0"/>
    </g>
  </g>
</svg>
