<svg xmlns="http://www.w3.org/2000/svg" width="24" height="24" viewBox="0 0 24 24">
  <g id="vuesax_linear_external-drive" data-name="vuesax/linear/external-drive" transform="translate(-428 -252)">
    <g id="external-drive">
      <path id="Vector" d="M12,20H5a4.724,4.724,0,0,1-5-5V5A4.724,4.724,0,0,1,5,0h7a4.724,4.724,0,0,1,5,5V15A4.724,4.724,0,0,1,12,20Z" transform="translate(432 254)" fill="none" stroke="#292d32" stroke-linecap="round" stroke-linejoin="round" stroke-width="1.5"/>
      <path id="Vector-2" data-name="Vector" d="M0,0H17" transform="translate(432 267)" fill="none" stroke="#292d32" stroke-linecap="round" stroke-linejoin="round" stroke-width="1.5"/>
      <path id="Vector-3" data-name="Vector" d="M0,0H1" transform="translate(435 264)" fill="none" stroke="#292d32" stroke-linecap="round" stroke-linejoin="round" stroke-width="1.5"/>
      <path id="Vector-4" data-name="Vector" d="M0,0H1" transform="translate(435 261.5)" fill="none" stroke="#292d32" stroke-linecap="round" stroke-linejoin="round" stroke-width="1.5"/>
      <path id="Vector-5" data-name="Vector" d="M0,0H1" transform="translate(435 259)" fill="none" stroke="#292d32" stroke-linecap="round" stroke-linejoin="round" stroke-width="1.5"/>
      <path id="Vector-6" data-name="Vector" d="M0,0H24V24H0Z" transform="translate(428 252)" fill="none" opacity="0"/>
      <path id="Vector-7" data-name="Vector" d="M.495.5H.5" transform="translate(444 269.75)" fill="none" stroke="#292d32" stroke-linecap="round" stroke-linejoin="round" stroke-width="2"/>
    </g>
  </g>
</svg>
