<svg xmlns="http://www.w3.org/2000/svg" width="24" height="24" viewBox="0 0 24 24">
  <g id="vuesax_linear_command" data-name="vuesax/linear/command" transform="translate(-108 -188)">
    <g id="command">
      <path id="Vector" d="M0,0H8V8H0Z" transform="translate(116 196)" fill="none" stroke="#292d32" stroke-linecap="round" stroke-linejoin="round" stroke-width="1.5"/>
      <path id="Vector-2" data-name="Vector" d="M3,6A3.009,3.009,0,0,0,6,3V0H3A3,3,0,0,0,3,6Z" transform="translate(110 204)" fill="none" stroke="#292d32" stroke-linecap="round" stroke-linejoin="round" stroke-width="1.5"/>
      <path id="Vector-3" data-name="Vector" d="M3,6H6V3A3,3,0,1,0,3,6Z" transform="translate(110 190)" fill="none" stroke="#292d32" stroke-linecap="round" stroke-linejoin="round" stroke-width="1.5"/>
      <path id="Vector-4" data-name="Vector" d="M0,6H3A3,3,0,1,0,0,3Z" transform="translate(124 190)" fill="none" stroke="#292d32" stroke-linecap="round" stroke-linejoin="round" stroke-width="1.5"/>
      <path id="Vector-5" data-name="Vector" d="M3,6A3,3,0,0,0,3,0H0V3A3.009,3.009,0,0,0,3,6Z" transform="translate(124 204)" fill="none" stroke="#292d32" stroke-linecap="round" stroke-linejoin="round" stroke-width="1.5"/>
      <path id="Vector-6" data-name="Vector" d="M0,0H24V24H0Z" transform="translate(108 188)" fill="none" opacity="0"/>
    </g>
  </g>
</svg>
