<svg xmlns="http://www.w3.org/2000/svg" width="24" height="24" viewBox="0 0 24 24">
  <g id="vuesax_linear_video-octagon" data-name="vuesax/linear/video-octagon" transform="translate(-108 -642)">
    <g id="video-octagon">
      <path id="Vector" d="M18.17,6.58v6.84a3.174,3.174,0,0,1-1.57,2.73l-5.94,3.43a3.163,3.163,0,0,1-3.15,0L1.57,16.15A3.15,3.15,0,0,1,0,13.42V6.58A3.174,3.174,0,0,1,1.57,3.85L7.51.42a3.163,3.163,0,0,1,3.15,0L16.6,3.85A3.162,3.162,0,0,1,18.17,6.58Z" transform="translate(110.91 644)" fill="none" stroke="#292d32" stroke-linecap="round" stroke-linejoin="round" stroke-width="1.5"/>
      <path id="Vector-2" data-name="Vector" d="M0,2.929v-1.2C0,.189,1.09-.441,2.42.329l1.04.6,1.04.6c1.33.77,1.33,2.03,0,2.8l-1.04.6-1.04.6C1.09,6.3,0,5.669,0,4.129Z" transform="translate(117.75 651.071)" fill="none" stroke="#292d32" stroke-linecap="round" stroke-linejoin="round" stroke-width="1.5"/>
      <path id="Vector-3" data-name="Vector" d="M0,0H24V24H0Z" transform="translate(108 642)" fill="none" opacity="0"/>
    </g>
  </g>
</svg>
