<svg xmlns="http://www.w3.org/2000/svg" width="24" height="24" viewBox="0 0 24 24">
  <g id="vuesax_linear_sms-tracking" data-name="vuesax/linear/sms-tracking" transform="translate(-620 -250)">
    <g id="sms-tracking">
      <path id="Vector" d="M0,5C0,1.5,2,0,5,0H15c3,0,5,1.5,5,5v7c0,3.5-2,5-5,5H5" transform="translate(622 253.5)" fill="none" stroke="#292d32" stroke-linecap="round" stroke-linejoin="round" stroke-width="1.5"/>
      <path id="Vector-2" data-name="Vector" d="M10,0,6.87,2.5a3.166,3.166,0,0,1-3.75,0L0,0" transform="translate(627 259)" fill="none" stroke="#292d32" stroke-linecap="round" stroke-linejoin="round" stroke-width="1.5"/>
      <path id="Vector-3" data-name="Vector" d="M0,0H6" transform="translate(622 266.5)" fill="none" stroke="#292d32" stroke-linecap="round" stroke-linejoin="round" stroke-width="1.5"/>
      <path id="Vector-4" data-name="Vector" d="M0,0H3" transform="translate(622 262.5)" fill="none" stroke="#292d32" stroke-linecap="round" stroke-linejoin="round" stroke-width="1.5"/>
      <path id="Vector-5" data-name="Vector" d="M0,0H24V24H0Z" transform="translate(620 250)" fill="none" opacity="0"/>
    </g>
  </g>
</svg>
