<svg xmlns="http://www.w3.org/2000/svg" width="24" height="24" viewBox="0 0 24 24">
  <g id="vuesax_linear_cpu-setting" data-name="vuesax/linear/cpu-setting" transform="translate(-236 -188)">
    <g id="cpu-setting">
      <path id="Vector" d="M16,5.6c0-4-1.6-5.6-5.6-5.6H5.6C1.6,0,0,1.6,0,5.6v4.8c0,4,1.6,5.6,5.6,5.6" transform="translate(240 192)" fill="none" stroke="#292d32" stroke-linecap="round" stroke-linejoin="round" stroke-width="1.5"/>
      <path id="Vector-2" data-name="Vector" d="M9.35,1A3.372,3.372,0,0,0,6.5,0h-3C1,0,0,1,0,3.5v3A3.4,3.4,0,0,0,.99,9.35" transform="translate(243 195)" fill="none" stroke="#292d32" stroke-linecap="round" stroke-linejoin="round" stroke-width="1.5"/>
      <path id="Vector-3" data-name="Vector" d="M0,2V0" transform="translate(244.01 190)" fill="none" stroke="#292d32" stroke-linecap="round" stroke-linejoin="round" stroke-width="1.5"/>
      <path id="Vector-4" data-name="Vector" d="M0,2V0" transform="translate(248 190)" fill="none" stroke="#292d32" stroke-linecap="round" stroke-linejoin="round" stroke-width="1.5"/>
      <path id="Vector-5" data-name="Vector" d="M0,2V0" transform="translate(252 190)" fill="none" stroke="#292d32" stroke-linecap="round" stroke-linejoin="round" stroke-width="1.5"/>
      <path id="Vector-6" data-name="Vector" d="M0,0H2" transform="translate(256 196)" fill="none" stroke="#292d32" stroke-linecap="round" stroke-linejoin="round" stroke-width="1.5"/>
      <path id="Vector-7" data-name="Vector" d="M0,0V2" transform="translate(244.01 208)" fill="none" stroke="#292d32" stroke-linecap="round" stroke-linejoin="round" stroke-width="1.5"/>
      <path id="Vector-8" data-name="Vector" d="M0,0H2" transform="translate(238 196)" fill="none" stroke="#292d32" stroke-linecap="round" stroke-linejoin="round" stroke-width="1.5"/>
      <path id="Vector-9" data-name="Vector" d="M0,0H2" transform="translate(238 200)" fill="none" stroke="#292d32" stroke-linecap="round" stroke-linejoin="round" stroke-width="1.5"/>
      <path id="Vector-10" data-name="Vector" d="M0,0H2" transform="translate(238 204)" fill="none" stroke="#292d32" stroke-linecap="round" stroke-linejoin="round" stroke-width="1.5"/>
      <path id="Vector-11" data-name="Vector" d="M3.18,1.59A1.59,1.59,0,1,1,1.59,0,1.59,1.59,0,0,1,3.18,1.59Z" transform="translate(251.12 203.41)" fill="none" stroke="#292d32" stroke-linecap="round" stroke-linejoin="round" stroke-width="1.5"/>
      <path id="Vector-12" data-name="Vector" d="M0,5.461v-.93a1,1,0,0,1,1-1c.96,0,1.35-.68.87-1.51A1,1,0,0,1,2.24.651l.91-.53a.885.885,0,0,1,1.21.32l.06.1a.919.919,0,0,0,1.74,0l.06-.1A.894.894,0,0,1,7.43.121l.91.53a1,1,0,0,1,.37,1.37c-.48.83-.09,1.51.87,1.51a1,1,0,0,1,1,1v.93a1,1,0,0,1-1,1c-.96,0-1.35.68-.87,1.51a1,1,0,0,1-.37,1.37l-.91.53a.885.885,0,0,1-1.21-.32l-.06-.1a.919.919,0,0,0-1.74,0l-.06.1a.894.894,0,0,1-1.21.32l-.91-.53a1,1,0,0,1-.37-1.37c.48-.83.09-1.51-.87-1.51A.99.99,0,0,1,0,5.461Z" transform="translate(247.41 199.999)" fill="none" stroke="#292d32" stroke-linecap="round" stroke-linejoin="round" stroke-width="1.5"/>
      <path id="Vector-13" data-name="Vector" d="M0,0H24V24H0Z" transform="translate(236 188)" fill="none" opacity="0"/>
    </g>
  </g>
</svg>
