<svg xmlns="http://www.w3.org/2000/svg" width="24" height="24" viewBox="0 0 24 24">
  <g id="vuesax_linear_quote-down-square" data-name="vuesax/linear/quote-down-square" transform="translate(-364 -316)">
    <g id="quote-down-square">
      <path id="Vector" d="M7,20h6c5,0,7-2,7-7V7c0-5-2-7-7-7H7C2,0,0,2,0,7v6C0,18,2,20,7,20Z" transform="translate(366 318)" fill="none" stroke="#292d32" stroke-linecap="round" stroke-linejoin="round" stroke-width="1.5"/>
      <g id="Group">
        <g id="Group-2" data-name="Group">
          <path id="Vector-2" data-name="Vector" d="M0,0H2.68A1.162,1.162,0,0,1,3.87,1.19V2.68A1.162,1.162,0,0,1,2.68,3.87H1.19A1.2,1.2,0,0,1,0,2.68Z" transform="translate(371 328.16)" fill="none" stroke="#292d32" stroke-linecap="round" stroke-linejoin="round" stroke-width="1.5"/>
          <path id="Vector-3" data-name="Vector" d="M0,4.19C0,1.4.52.93,2.09,0" transform="translate(371 323.97)" fill="none" stroke="#292d32" stroke-linecap="round" stroke-linejoin="round" stroke-width="1.5"/>
        </g>
        <g id="Group-3" data-name="Group">
          <path id="Vector-4" data-name="Vector" d="M0,0H2.68A1.162,1.162,0,0,1,3.87,1.19V2.68A1.162,1.162,0,0,1,2.68,3.87H1.19A1.2,1.2,0,0,1,0,2.68Z" transform="translate(377.14 328.16)" fill="none" stroke="#292d32" stroke-linecap="round" stroke-linejoin="round" stroke-width="1.5"/>
          <path id="Vector-5" data-name="Vector" d="M0,4.19C0,1.4.52.93,2.09,0" transform="translate(377.14 323.97)" fill="none" stroke="#292d32" stroke-linecap="round" stroke-linejoin="round" stroke-width="1.5"/>
        </g>
      </g>
      <path id="Vector-6" data-name="Vector" d="M0,0H24V24H0Z" transform="translate(388 340) rotate(180)" fill="none" opacity="0"/>
    </g>
  </g>
</svg>
