<svg xmlns="http://www.w3.org/2000/svg" width="24" height="24" viewBox="0 0 24 24">
  <g id="vuesax_linear_cloud-minus" data-name="vuesax/linear/cloud-minus" transform="translate(-364 -188)">
    <g id="cloud-minus">
      <path id="Vector" d="M4,0H0" transform="translate(372.97 208)" fill="none" stroke="#292d32" stroke-linecap="round" stroke-linejoin="round" stroke-width="1.5"/>
      <path id="Vector-2" data-name="Vector" d="M11.477,16.042a5.294,5.294,0,0,0,.83-10.53C10.767-3.828-2.7-.288.487,8.6" transform="translate(369.133 191.958)" fill="none" stroke="#292d32" stroke-linecap="round" stroke-linejoin="round" stroke-width="1.5"/>
      <path id="Vector-3" data-name="Vector" d="M5.2.4A3.644,3.644,0,0,0,3.491,0a3.727,3.727,0,0,0,0,7.44" transform="translate(366.079 200.57)" fill="none" stroke="#292d32" stroke-linecap="round" stroke-linejoin="round" stroke-width="1.5"/>
      <path id="Vector-4" data-name="Vector" d="M0,.41A3.839,3.839,0,0,1,1.66,0" transform="translate(379.82 197.48)" fill="none" stroke="#292d32" stroke-linecap="round" stroke-linejoin="round" stroke-width="1.5"/>
      <path id="Vector-5" data-name="Vector" d="M0,0H24V24H0Z" transform="translate(388 212) rotate(180)" fill="none" opacity="0"/>
    </g>
  </g>
</svg>
