<svg xmlns="http://www.w3.org/2000/svg" width="24" height="24" viewBox="0 0 24 24">
  <g id="vuesax_linear_stacks-_stx_" data-name="vuesax/linear/stacks-(stx)" transform="translate(-544 -341)">
    <g id="stacks-_stx_" data-name="stacks-(stx)">
      <path id="BG_1" data-name="BG 1" d="M0,0H24V24H0Z" transform="translate(544 341)" fill="none" opacity="0.58"/>
      <path id="Vector" d="M0,0H9" transform="translate(551.5 351.5)" fill="none" stroke="#17191c" stroke-linecap="round" stroke-linejoin="round" stroke-width="1.5"/>
      <path id="Vector-2" data-name="Vector" d="M0,0,2.8,4" transform="translate(553 347.5)" fill="none" stroke="#17191c" stroke-linecap="round" stroke-linejoin="round" stroke-width="1.5"/>
      <path id="Vector-3" data-name="Vector" d="M2.8,0,0,4" transform="translate(556 347.5)" fill="none" stroke="#17191c" stroke-linecap="round" stroke-linejoin="round" stroke-width="1.5"/>
      <path id="Vector-4" data-name="Vector" d="M0,0H9" transform="translate(551.5 354.5)" fill="none" stroke="#17191c" stroke-linecap="round" stroke-linejoin="round" stroke-width="1.5"/>
      <path id="Vector-5" data-name="Vector" d="M0,4,2.8,0" transform="translate(553 354.5)" fill="none" stroke="#17191c" stroke-linecap="round" stroke-linejoin="round" stroke-width="1.5"/>
      <path id="Vector-6" data-name="Vector" d="M2.8,4,0,0" transform="translate(556 354.5)" fill="none" stroke="#17191c" stroke-linecap="round" stroke-linejoin="round" stroke-width="1.5"/>
      <path id="Vector-7" data-name="Vector" d="M20,10A10,10,0,1,1,10,0,10,10,0,0,1,20,10Z" transform="translate(546 343)" fill="none" stroke="#17191c" stroke-width="1.5"/>
      <path id="Vector-8" data-name="Vector" d="M0,0H24V24H0Z" transform="translate(544 341)" fill="none" opacity="0"/>
    </g>
  </g>
</svg>
