<svg xmlns="http://www.w3.org/2000/svg" width="24" height="24" viewBox="0 0 24 24">
  <g id="vuesax_linear_cloud-add" data-name="vuesax/linear/cloud-add" transform="translate(-300 -252)">
    <g id="cloud-add">
      <g id="Group">
        <path id="Vector" d="M3.51,0a3.742,3.742,0,0,0,0,7.47H5.43" transform="translate(302.03 263.12)" fill="none" stroke="#292d32" stroke-linecap="round" stroke-linejoin="round" stroke-width="1.5"/>
        <path id="Vector-2" data-name="Vector" d="M.49,8.65C-2.72-.28,10.82-3.85,12.37,5.53a5.325,5.325,0,0,1-.84,10.59h-.09" transform="translate(305.1 254.47)" fill="none" stroke="#292d32" stroke-linecap="round" stroke-linejoin="round" stroke-width="1.5"/>
      </g>
      <path id="Vector-3" data-name="Vector" d="M10,5a4.715,4.715,0,0,1-.46,2.06,4.11,4.11,0,0,1-.27.51,4.967,4.967,0,0,1-8.54,0,4.111,4.111,0,0,1-.27-.51A4.715,4.715,0,0,1,0,5,5,5,0,0,1,10,5Z" transform="translate(307 263.53)" fill="none" stroke="#292d32" stroke-linecap="round" stroke-linejoin="round" stroke-width="1.5"/>
      <path id="Vector-4" data-name="Vector" d="M0,.98l.99.99L3.12,0" transform="translate(310.44 267.55)" fill="none" stroke="#292d32" stroke-linecap="round" stroke-linejoin="round" stroke-width="1.5"/>
      <path id="Vector-5" data-name="Vector" d="M0,0H24V24H0Z" transform="translate(300 252)" fill="none" opacity="0"/>
    </g>
  </g>
</svg>
