<svg xmlns="http://www.w3.org/2000/svg" width="24" height="24" viewBox="0 0 24 24">
  <g id="vuesax_linear_bucket-square" data-name="vuesax/linear/bucket-square" transform="translate(-684 -252)">
    <g id="bucket-square">
      <g id="Group">
        <path id="Vector" d="M3.535,10.38.7,7.55a1.772,1.772,0,0,1,0-2.83L5.425,0l5.19,5.19a.664.664,0,0,1,0,.94l-4.25,4.25A1.773,1.773,0,0,1,3.535,10.38Z" transform="translate(689.405 258.55)" fill="none" stroke="#292d32" stroke-linecap="round" stroke-linejoin="round" stroke-width="1.5"/>
        <path id="Vector-2" data-name="Vector" d="M0,0,.95.94" transform="translate(693.88 257.6)" fill="none" stroke="#292d32" stroke-linecap="round" stroke-linejoin="round" stroke-width="1.5"/>
        <path id="Vector-3" data-name="Vector" d="M0,.47,10.69,0" transform="translate(689.44 264.17)" fill="none" stroke="#292d32" stroke-linecap="round" stroke-linejoin="round" stroke-width="1.5"/>
        <path id="Vector-4" data-name="Vector" d="M1.31,0S0,1.42,0,2.29a1.31,1.31,0,1,0,2.62,0C2.61,1.42,1.31,0,1.31,0Z" transform="translate(699.99 266.81)" fill="none" stroke="#292d32" stroke-linecap="round" stroke-linejoin="round" stroke-width="1.5"/>
      </g>
      <path id="Vector-5" data-name="Vector" d="M20,13V7c0-5-2-7-7-7H7C2,0,0,2,0,7v6c0,5,2,7,7,7h6C18,20,20,18,20,13Z" transform="translate(686 254)" fill="none" stroke="#292d32" stroke-linecap="round" stroke-linejoin="round" stroke-width="1.5"/>
      <path id="Vector-6" data-name="Vector" d="M0,0H24V24H0Z" transform="translate(684 252)" fill="none" opacity="0"/>
    </g>
  </g>
</svg>
