<svg xmlns="http://www.w3.org/2000/svg" width="24" height="24" viewBox="0 0 24 24">
  <g id="vuesax_linear_icon-_icx_" data-name="vuesax/linear/icon-(icx)" transform="translate(-480 -341)">
    <g id="icon-_icx_" data-name="icon-(icx)">
      <path id="BG_1" data-name="BG 1" d="M0,0H24V24H0Z" transform="translate(480 341)" fill="none" opacity="0.58"/>
      <path id="Vector" d="M0,0H.1" transform="translate(500.2 344.8)" fill="none" stroke="#17191c" stroke-linecap="round" stroke-linejoin="round" stroke-width="3"/>
      <path id="Vector-2" data-name="Vector" d="M0,0H.1" transform="translate(483.7 361.2)" fill="none" stroke="#17191c" stroke-linecap="round" stroke-linejoin="round" stroke-width="3"/>
      <path id="Vector-3" data-name="Vector" d="M10.6,1A7.485,7.485,0,0,0,7,0,6.957,6.957,0,0,0,0,7a7.873,7.873,0,0,0,1,3.7" transform="translate(485 346)" fill="none" stroke="#17191c" stroke-linecap="round" stroke-linejoin="round" stroke-width="1.5"/>
      <path id="Vector-4" data-name="Vector" d="M0,9.7a6.633,6.633,0,0,0,3.7,1,6.957,6.957,0,0,0,7-7A7.873,7.873,0,0,0,9.7,0" transform="translate(488.3 349.3)" fill="none" stroke="#17191c" stroke-linecap="round" stroke-linejoin="round" stroke-width="1.5"/>
      <path id="Vector-5" data-name="Vector" d="M0,0H24V24H0Z" transform="translate(480 341)" fill="none" opacity="0"/>
    </g>
  </g>
</svg>
