<svg xmlns="http://www.w3.org/2000/svg" width="24" height="24" viewBox="0 0 24 24">
  <g id="vuesax_linear_gas-station" data-name="vuesax/linear/gas-station" transform="translate(-563 -188)">
    <g id="gas-station">
      <path id="Vector" d="M0,20V3A2.8,2.8,0,0,1,3,0h8a2.8,2.8,0,0,1,3,3V20Z" transform="translate(566.5 190)" fill="none" stroke="#292d32" stroke-linecap="round" stroke-linejoin="round" stroke-width="1.5"/>
      <path id="Vector-2" data-name="Vector" d="M0,0H17" transform="translate(565 210)" fill="none" stroke="#292d32" stroke-linecap="round" stroke-linejoin="round" stroke-width="1.5"/>
      <path id="Vector-3" data-name="Vector" d="M1.89,5.01H6.12A1.7,1.7,0,0,0,8.01,3.12V1.89A1.7,1.7,0,0,0,6.12,0H1.89A1.7,1.7,0,0,0,0,1.89V3.12A1.7,1.7,0,0,0,1.89,5.01Z" transform="translate(569.5 192.99)" fill="none" stroke="#292d32" stroke-linecap="round" stroke-linejoin="round" stroke-width="1.5"/>
      <path id="Vector-4" data-name="Vector" d="M0,0H3" transform="translate(569.5 201)" fill="none" stroke="#292d32" stroke-linecap="round" stroke-linejoin="round" stroke-width="1.5"/>
      <path id="Vector-5" data-name="Vector" d="M0,7.01,4.5,7V1l-2-1" transform="translate(580.5 197)" fill="none" stroke="#292d32" stroke-linecap="round" stroke-linejoin="round" stroke-width="1.5"/>
      <path id="Vector-6" data-name="Vector" d="M0,0H24V24H0Z" transform="translate(563 188)" fill="none" opacity="0"/>
    </g>
  </g>
</svg>
