<svg xmlns="http://www.w3.org/2000/svg" width="24" height="24" viewBox="0 0 24 24">
  <g id="vuesax_linear_dribbble" data-name="vuesax/linear/dribbble" transform="translate(-930 -533)">
    <g id="dribbble">
      <path id="Vector" d="M16,0A13.386,13.386,0,0,1,3.17,6.69L0,6.4" transform="translate(932.5 537.79)" fill="none" stroke="#000" stroke-linecap="round" stroke-linejoin="round" stroke-width="1.5"/>
      <path id="Vector-2" data-name="Vector" d="M0,6.744A13.386,13.386,0,0,1,12.83.054L16,.344" transform="translate(935.5 545.626)" fill="none" stroke="#000" stroke-linecap="round" stroke-linejoin="round" stroke-width="1.5"/>
      <path id="Vector-3" data-name="Vector" d="M20,10A10,10,0,1,1,10,0,10,10,0,0,1,20,10Z" transform="translate(932 535)" fill="none" stroke="#000" stroke-linecap="round" stroke-linejoin="round" stroke-width="1.5"/>
      <path id="Vector-4" data-name="Vector" d="M0,0,3.18,3.95a22.956,22.956,0,0,1,4.44,9l1.21,4.99" transform="translate(937.63 536)" fill="none" stroke="#000" stroke-linecap="round" stroke-linejoin="round" stroke-width="1.5"/>
      <path id="Vector-5" data-name="Vector" d="M0,0H24V24H0Z" transform="translate(930 533)" fill="none" opacity="0"/>
    </g>
  </g>
</svg>
