<svg xmlns="http://www.w3.org/2000/svg" width="24" height="24" viewBox="0 0 24 24">
  <g id="vuesax_linear_message-square" data-name="vuesax/linear/message-square" transform="translate(-684 -314)">
    <g id="message-square">
      <path id="Vector" d="M12.53,3.75V6.89a5.683,5.683,0,0,1-.03.59c-.18,2.12-1.43,3.18-3.73,3.18H8.46a.6.6,0,0,0-.5.25l-.94,1.26a.889.889,0,0,1-1.51,0l-.94-1.26a.733.733,0,0,0-.5-.25H3.76C1.25,10.66,0,10.04,0,6.9V3.76C0,1.46,1.06.21,3.18.03A5.683,5.683,0,0,1,3.77,0H8.8C11.27-.01,12.53,1.25,12.53,3.75Z" transform="translate(689.75 320.01)" fill="none" stroke="#292d32" stroke-linecap="round" stroke-linejoin="round" stroke-width="1.5"/>
      <path id="Vector-2" data-name="Vector" d="M7,20h6c5,0,7-2,7-7V7c0-5-2-7-7-7H7C2,0,0,2,0,7v6C0,18,2,20,7,20Z" transform="translate(686 316)" fill="none" stroke="#292d32" stroke-linecap="round" stroke-linejoin="round" stroke-width="1.5"/>
      <path id="Vector-3" data-name="Vector" d="M0,0H24V24H0Z" transform="translate(684 314)" fill="none" opacity="0"/>
    </g>
  </g>
</svg>
