<svg xmlns="http://www.w3.org/2000/svg" width="24" height="24" viewBox="0 0 24 24">
  <g id="vuesax_linear_discover" data-name="vuesax/linear/discover" transform="translate(-364 -188)">
    <g id="discover">
      <path id="Vector" d="M10,20A10,10,0,1,0,0,10,10.029,10.029,0,0,0,10,20Z" transform="translate(366 190)" fill="none" stroke="#292d32" stroke-width="1.5"/>
      <path id="Vector-2" data-name="Vector" d="M5.5,0A5.516,5.516,0,0,0,0,5.5,2.507,2.507,0,0,0,2.5,8,5.523,5.523,0,0,0,8,2.5,2.514,2.514,0,0,0,5.5,0Z" transform="translate(372 196)" fill="none" stroke="#292d32" stroke-linecap="round" stroke-linejoin="round" stroke-width="1.5"/>
      <path id="Vector-3" data-name="Vector" d="M0,0H24V24H0Z" transform="translate(388 212) rotate(180)" fill="none" opacity="0"/>
    </g>
  </g>
</svg>
