<svg xmlns="http://www.w3.org/2000/svg" width="24" height="24" viewBox="0 0 24 24">
  <g id="vuesax_linear_brush" data-name="vuesax/linear/brush" transform="translate(-234 -254)">
    <g id="brush" transform="translate(234 254)">
      <path id="Vector" d="M9,0H7C2,0,0,2,0,7v6c0,5,2,7,7,7h6c5,0,7-2,7-7V11" transform="translate(1.97 2)" fill="none" stroke="#292d32" stroke-linecap="round" stroke-linejoin="round" stroke-width="1.5"/>
      <path id="Vector-2" data-name="Vector" d="M12.44,1.56a27,27,0,0,1-6.9,9.32L3.96,12.14a2.633,2.633,0,0,1-.63.36,3.671,3.671,0,0,0-.03-.46,3.108,3.108,0,0,0-.93-1.83A3.263,3.263,0,0,0,.48,9.26,3.846,3.846,0,0,0,0,9.25a2.035,2.035,0,0,1,.39-.67L1.65,7A27.144,27.144,0,0,1,10.97.08a1.132,1.132,0,0,1,1.22.25A1.117,1.117,0,0,1,12.44,1.56Z" transform="translate(9.44 2)" fill="none" stroke="#292d32" stroke-linecap="round" stroke-linejoin="round" stroke-width="1.5"/>
      <path id="Vector-3" data-name="Vector" d="M6.761,3.254a3.346,3.346,0,0,1-.97,2.36,3.292,3.292,0,0,1-1.94.93l-1.97.21a1.7,1.7,0,0,1-1.87-1.88L.221,2.9A3.253,3.253,0,0,1,3.431,0a3.846,3.846,0,0,1,.48.01A3.263,3.263,0,0,1,5.8.964a3.136,3.136,0,0,1,.93,1.83A3.8,3.8,0,0,1,6.761,3.254Z" transform="translate(6.019 11.236)" fill="none" stroke="#292d32" stroke-linecap="round" stroke-linejoin="round" stroke-width="1.5"/>
      <path id="Vector-4" data-name="Vector" d="M3.79,3.79A3.788,3.788,0,0,0,0,0" transform="translate(12.03 8.19)" fill="none" stroke="#292d32" stroke-linecap="round" stroke-linejoin="round" stroke-width="1.5"/>
      <path id="Vector-5" data-name="Vector" d="M0,0H24V24H0Z" fill="none" opacity="0"/>
    </g>
  </g>
</svg>
