<svg xmlns="http://www.w3.org/2000/svg" width="24" height="24" viewBox="0 0 24 24">
  <g id="vuesax_linear_receipt-square" data-name="vuesax/linear/receipt-square" transform="translate(-428 -188)">
    <g id="receipt-square">
      <path id="Vector" d="M7,20h6c5,0,7-2,7-7V7c0-5-2-7-7-7H7C2,0,0,2,0,7v6C0,18,2,20,7,20Z" transform="translate(430 190)" fill="none" stroke="#292d32" stroke-linecap="round" stroke-linejoin="round" stroke-width="1.5"/>
      <path id="Vector-2" data-name="Vector" d="M1.91,10.4a1.028,1.028,0,0,1,1.64.09l.6.8a1.019,1.019,0,0,0,1.72,0l.59-.79a1.04,1.04,0,0,1,1.64-.09c1.05,1.12,1.9.75,1.9-.82V2.96C10,.59,9.44,0,7.22,0H2.78C.56,0,0,.59,0,2.96V9.59C.01,11.14.87,11.51,1.91,10.4Z" transform="translate(434.99 194.13)" fill="none" stroke="#292d32" stroke-linecap="round" stroke-linejoin="round" stroke-width="1.5"/>
      <path id="Vector-3" data-name="Vector" d="M0,0H24V24H0Z" transform="translate(428 188)" fill="none" opacity="0"/>
    </g>
  </g>
</svg>
