<svg xmlns="http://www.w3.org/2000/svg" width="24" height="24" viewBox="0 0 24 24">
  <g id="vuesax_linear_omega-circle" data-name="vuesax/linear/omega-circle" transform="translate(-492 -316)">
    <g id="omega-circle">
      <path id="Vector" d="M20,10A10,10,0,1,1,10,0,10,10,0,0,1,20,10Z" transform="translate(494 318)" fill="none" stroke="#292d32" stroke-linecap="round" stroke-linejoin="round" stroke-width="1.5"/>
      <path id="Vector-2" data-name="Vector" d="M10,9.5H6.9L8.52,7.71A4.762,4.762,0,0,0,9.76,4.53a4.424,4.424,0,0,0-1.39-3.2,4.934,4.934,0,0,0-6.74,0A4.424,4.424,0,0,0,.24,4.53,4.724,4.724,0,0,0,1.48,7.71L3.1,9.5H0" transform="translate(499 323)" fill="none" stroke="#292d32" stroke-linecap="round" stroke-linejoin="round" stroke-width="1.5"/>
      <path id="Vector-3" data-name="Vector" d="M0,0H24V24H0Z" transform="translate(492 316)" fill="none" opacity="0"/>
    </g>
  </g>
</svg>
