<svg xmlns="http://www.w3.org/2000/svg" width="24" height="24" viewBox="0 0 24 24">
  <g id="vuesax_linear_html-5" data-name="vuesax/linear/html-5" transform="translate(-992 -405)">
    <g id="html-5">
      <path id="BG_1" data-name="BG 1" d="M0,0H24V24H0Z" transform="translate(992 405)" fill="none" opacity="0.58"/>
      <path id="Vector" d="M1,0H16.8a.972.972,0,0,1,1,1.1L16,17.3a1.068,1.068,0,0,1-.7.9L9.2,19.9a.446.446,0,0,1-.5,0L2.6,18.2a.876.876,0,0,1-.7-.9L0,1.1A1.028,1.028,0,0,1,1,0Z" transform="translate(995.1 407)" fill="none" stroke="#17191c" stroke-linecap="round" stroke-linejoin="round" stroke-width="1.5"/>
      <path id="Vector-2" data-name="Vector" d="M8.4,0H0L.4,4.4H8l-.6,5L4,10.4.4,9.4v-2" transform="translate(999.8 411.8)" fill="none" stroke="#17191c" stroke-linecap="round" stroke-linejoin="round" stroke-width="1.5"/>
      <path id="Vector-3" data-name="Vector" d="M0,0H24V24H0Z" transform="translate(992 405)" fill="none" opacity="0"/>
    </g>
  </g>
</svg>
