<svg xmlns="http://www.w3.org/2000/svg" width="24" height="24" viewBox="0 0 24 24">
  <g id="vuesax_linear_bluetooth-2" data-name="vuesax/linear/bluetooth-2" transform="translate(-110 -444)">
    <g id="bluetooth-2">
      <path id="Vector" d="M0,16.64,12.35,5.319a1.083,1.083,0,0,0-.04-1.67L8.46.439c-1-.83-1.82-.45-1.82.85v17.42c0,1.3.82,1.68,1.82.85l3.85-3.21a1.083,1.083,0,0,0,.04-1.67L0,3.359" transform="translate(114.64 446.001)" fill="none" stroke="#292d32" stroke-linecap="round" stroke-linejoin="round" stroke-width="1.5"/>
      <path id="Vector-2" data-name="Vector" d="M2,1A1,1,0,1,1,1,0,1,1,0,0,1,2,1Z" transform="translate(114 455)" fill="none" stroke="#292d32" stroke-linecap="round" stroke-linejoin="round" stroke-width="1.5"/>
      <path id="Vector-3" data-name="Vector" d="M2,1A1,1,0,1,1,1,0,1,1,0,0,1,2,1Z" transform="translate(128 455)" fill="none" stroke="#292d32" stroke-linecap="round" stroke-linejoin="round" stroke-width="1.5"/>
      <path id="Vector-4" data-name="Vector" d="M0,0H24V24H0Z" transform="translate(110 444)" fill="none" opacity="0"/>
    </g>
  </g>
</svg>
