<svg xmlns="http://www.w3.org/2000/svg" width="24" height="24" viewBox="0 0 24 24">
  <g id="vuesax_linear_truck-tick" data-name="vuesax/linear/truck-tick" transform="translate(-108 -252)">
    <g id="truck-tick">
      <path id="Vector" d="M13,0V10a2.006,2.006,0,0,1-2,2H0V5.62A3.9,3.9,0,0,0,3.09,7a3.843,3.843,0,0,0,2.6-1.06,3.386,3.386,0,0,0,.77-.95A3.9,3.9,0,0,0,7,2.91,3.983,3.983,0,0,0,5.64,0Z" transform="translate(110 254)" fill="none" stroke="#292d32" stroke-linecap="round" stroke-linejoin="round" stroke-width="1.5"/>
      <path id="Vector-2" data-name="Vector" d="M20,9v3a3,3,0,0,1-3,3H16a2,2,0,0,0-4,0H8a2,2,0,0,0-4,0H3a3,3,0,0,1-3-3V9H11a2.006,2.006,0,0,0,2-2V0h1.84a2.016,2.016,0,0,1,1.74,1.01L18.29,4H17a1,1,0,0,0-1,1V8a1,1,0,0,0,1,1Z" transform="translate(110 257)" fill="none" stroke="#292d32" stroke-linecap="round" stroke-linejoin="round" stroke-width="1.5"/>
      <path id="Vector-3" data-name="Vector" d="M4,2A2,2,0,1,1,2,0,2,2,0,0,1,4,2Z" transform="translate(114 270)" fill="none" stroke="#292d32" stroke-linecap="round" stroke-linejoin="round" stroke-width="1.5"/>
      <path id="Vector-4" data-name="Vector" d="M4,2A2,2,0,1,1,2,0,2,2,0,0,1,4,2Z" transform="translate(122 270)" fill="none" stroke="#292d32" stroke-linecap="round" stroke-linejoin="round" stroke-width="1.5"/>
      <path id="Vector-5" data-name="Vector" d="M4,3V5H1A1,1,0,0,1,0,4V1A1,1,0,0,1,1,0H2.29Z" transform="translate(126 261)" fill="none" stroke="#292d32" stroke-linecap="round" stroke-linejoin="round" stroke-width="1.5"/>
      <g id="Group">
        <path id="Vector-6" data-name="Vector" d="M8,3.911a3.9,3.9,0,0,1-.54,2.08,3.386,3.386,0,0,1-.77.95A3.843,3.843,0,0,1,4.091,8,3.9,3.9,0,0,1,1,6.621a3.5,3.5,0,0,1-.37-.49A3.866,3.866,0,0,1,0,4.091a4,4,0,0,1,8-.18Z" transform="translate(108.999 252.999)" fill="none" stroke="#292d32" stroke-linecap="round" stroke-linejoin="round" stroke-width="1.5"/>
        <path id="Vector-7" data-name="Vector" d="M0,1.06l1.01.96L3.1,0" transform="translate(111.44 255.97)" fill="none" stroke="#292d32" stroke-linecap="round" stroke-linejoin="round" stroke-width="1.5"/>
      </g>
      <path id="Vector-8" data-name="Vector" d="M0,0H24V24H0Z" transform="translate(108 252)" fill="none" opacity="0"/>
    </g>
  </g>
</svg>
