<svg xmlns="http://www.w3.org/2000/svg" width="24" height="24" viewBox="0 0 24 24">
  <g id="vuesax_linear_trello" data-name="vuesax/linear/trello" transform="translate(-992 -469)">
    <g id="trello">
      <path id="Vector" d="M13,20H7c-5,0-7-2-7-7V7C0,2,2,0,7,0h6c5,0,7,2,7,7v6C20,18,18,20,13,20Z" transform="translate(994 471)" fill="none" stroke="#000" stroke-linecap="round" stroke-linejoin="round" stroke-width="1.5"/>
      <g id="Group">
        <path id="Vector-2" data-name="Vector" d="M3.67,11.43H1.22A1.225,1.225,0,0,1,0,10.21V1.22A1.225,1.225,0,0,1,1.22,0H3.67A1.225,1.225,0,0,1,4.89,1.22V10.2A1.227,1.227,0,0,1,3.67,11.43Z" transform="translate(997.88 475.29)" fill="none" stroke="#000" stroke-width="1.5"/>
        <path id="Vector-3" data-name="Vector" d="M3.92,7.34H.98A.982.982,0,0,1,0,6.36V.98A.982.982,0,0,1,.98,0H3.92A.982.982,0,0,1,4.9.98V6.37A.973.973,0,0,1,3.92,7.34Z" transform="translate(1005.22 475.29)" fill="none" stroke="#000" stroke-width="1.5"/>
      </g>
      <path id="Vector-4" data-name="Vector" d="M0,0H24V24H0Z" transform="translate(992 469)" fill="none" opacity="0"/>
    </g>
  </g>
</svg>
