<svg xmlns="http://www.w3.org/2000/svg" width="24" height="24" viewBox="0 0 24 24">
  <g id="vuesax_linear_hierarchy-2" data-name="vuesax/linear/hierarchy-2" transform="translate(-300 -188)">
    <g id="hierarchy-2">
      <path id="Vector" d="M0,7V0" transform="translate(305 196)" fill="none" stroke="#292d32" stroke-linecap="round" stroke-linejoin="round" stroke-width="1.5"/>
      <path id="Vector-2" data-name="Vector" d="M6.5,3.25A3.25,3.25,0,1,1,3.25,0,3.25,3.25,0,0,1,6.5,3.25Z" transform="translate(302 203.5)" fill="none" stroke="#292d32" stroke-linecap="round" stroke-linejoin="round" stroke-width="1.5"/>
      <path id="Vector-3" data-name="Vector" d="M6,3A3,3,0,1,1,3,0,3,3,0,0,1,6,3Z" transform="translate(302 190)" fill="none" stroke="#292d32" stroke-linecap="round" stroke-linejoin="round" stroke-width="1.5"/>
      <path id="Vector-4" data-name="Vector" d="M6,3A3,3,0,1,1,3,0,3,3,0,0,1,6,3Z" transform="translate(316 190)" fill="none" stroke="#292d32" stroke-linecap="round" stroke-linejoin="round" stroke-width="1.5"/>
      <path id="Vector-5" data-name="Vector" d="M0,7.04A4.058,4.058,0,0,1,3.94,4l3.43.01A5.989,5.989,0,0,0,13.04,0" transform="translate(305.13 195.96)" fill="none" stroke="#292d32" stroke-linecap="round" stroke-linejoin="round" stroke-width="1.5"/>
      <path id="Vector-6" data-name="Vector" d="M0,0H24V24H0Z" transform="translate(300 188)" fill="none" opacity="0"/>
    </g>
  </g>
</svg>
