<svg xmlns="http://www.w3.org/2000/svg" width="24" height="24" viewBox="0 0 24 24">
  <g id="vuesax_linear_music-square-search" data-name="vuesax/linear/music-square-search" transform="translate(-620 -514)">
    <g id="music-square-search">
      <path id="Vector" d="M10.35,19H6.65C1.9,19,0,17.1,0,12.35V6.65C0,1.9,1.9,0,6.65,0h5.7C17.1,0,19,1.9,19,6.65v3.7" transform="translate(622 516)" fill="none" stroke="#292d32" stroke-linecap="round" stroke-linejoin="round" stroke-width="1.5"/>
      <g id="Group">
        <path id="Vector-2" data-name="Vector" d="M2.9,1.45A1.45,1.45,0,1,1,1.45,0,1.45,1.45,0,0,1,2.9,1.45Z" transform="translate(625.27 525.52)" fill="none" stroke="#292d32" stroke-linecap="round" stroke-linejoin="round" stroke-width="1.5"/>
        <path id="Vector-3" data-name="Vector" d="M5.3,6.9V1.238c0-1.21-.76-1.37-1.52-1.16L.89.868A1.158,1.158,0,0,0,0,2.028v5.84" transform="translate(628.18 519.102)" fill="none" stroke="#292d32" stroke-linecap="round" stroke-linejoin="round" stroke-width="1.5"/>
        <path id="Vector-4" data-name="Vector" d="M2.9,1.45A1.45,1.45,0,1,1,1.45,0,1.45,1.45,0,0,1,2.9,1.45Z" transform="translate(630.58 524.55)" fill="none" stroke="#292d32" stroke-linecap="round" stroke-linejoin="round" stroke-width="1.5"/>
        <path id="Vector-5" data-name="Vector" d="M0,1.45,5.31,0" transform="translate(628.17 521.38)" fill="none" stroke="#292d32" stroke-linecap="round" stroke-linejoin="round" stroke-width="1.5"/>
      </g>
      <g id="Group-2" data-name="Group">
        <path id="Vector-6" data-name="Vector" d="M6.4,3.2A3.2,3.2,0,1,1,3.2,0,3.2,3.2,0,0,1,6.4,3.2Z" transform="translate(634.74 528.88)" fill="none" stroke="#292d32" stroke-linecap="round" stroke-linejoin="round" stroke-width="1.5"/>
        <path id="Vector-7" data-name="Vector" d="M1,1,0,0" transform="translate(640.74 534.88)" fill="none" stroke="#292d32" stroke-linecap="round" stroke-linejoin="round" stroke-width="1.5"/>
      </g>
      <path id="Vector-8" data-name="Vector" d="M0,0H24V24H0Z" transform="translate(620 514)" fill="none" opacity="0"/>
    </g>
  </g>
</svg>
