<svg xmlns="http://www.w3.org/2000/svg" width="24" height="24" viewBox="0 0 24 24">
  <g id="vuesax_linear_music-play" data-name="vuesax/linear/music-play" transform="translate(-556 -252)">
    <g id="music-play">
      <path id="Vector" d="M3.462,16.44V13.52a1.84,1.84,0,1,1,3.68,0v2.81a3.6,3.6,0,0,1-3.57,3.57A3.6,3.6,0,0,1,0,16.33V10.17A9.912,9.912,0,0,1,9.952,0,10.04,10.04,0,0,1,20,10.06v6.16a3.57,3.57,0,1,1-7.14,0V13.41a1.84,1.84,0,1,1,3.68,0v3.03" transform="translate(558.018 254.05)" fill="none" stroke="#292d32" stroke-linecap="round" stroke-linejoin="round" stroke-width="1.5"/>
      <path id="Vector-2" data-name="Vector" d="M7.07,2.013H6.26a.611.611,0,0,0-.53.32l-.75,1.5a.3.3,0,0,1-.53,0L2.61.163a.293.293,0,0,0-.52-.01L1.25,1.7a.586.586,0,0,1-.52.31H0" transform="translate(564.46 259.107)" fill="none" stroke="#292d32" stroke-linecap="round" stroke-linejoin="round" stroke-width="1.5"/>
      <path id="Vector-3" data-name="Vector" d="M0,0H24V24H0Z" transform="translate(556 252)" fill="none" opacity="0"/>
    </g>
  </g>
</svg>
