<svg xmlns="http://www.w3.org/2000/svg" width="21.5" height="21.5" viewBox="0 0 21.5 21.5">
  <g id="vuesax_linear_recovery-convert" data-name="vuesax/linear/recovery-convert" transform="translate(-109.25 -445.25)">
    <g id="recovery-convert">
      <path id="Vector" d="M9.1,3.18V5.91c0,2.28-.91,3.19-3.19,3.19H3.19C.92,9.1,0,8.19,0,5.91V3.18C0,.91.91,0,3.19,0H5.92C8.19,0,9.1.91,9.1,3.18Z" transform="translate(113.5 453.4)" fill="none" stroke="#292d32" stroke-linecap="round" stroke-linejoin="round" stroke-width="1.5"/>
      <path id="Vector-2" data-name="Vector" d="M9.1,3.18V5.91c0,2.28-.91,3.19-3.19,3.19H5.2V7.08c0-2.27-.91-3.18-3.19-3.18H0V3.18C0,.9.91,0,3.19,0H5.92C8.19,0,9.1.91,9.1,3.18Z" transform="translate(117.4 449.5)" fill="none" stroke="#292d32" stroke-linecap="round" stroke-linejoin="round" stroke-width="1.5"/>
      <path id="Vector-3" data-name="Vector" d="M7,0A7,7,0,0,1,0,7L1.05,5.25" transform="translate(123 459)" fill="none" stroke="#292d32" stroke-linecap="round" stroke-linejoin="round" stroke-width="1.5"/>
      <path id="Vector-4" data-name="Vector" d="M0,7A7,7,0,0,1,7,0L5.95,1.75" transform="translate(110 446)" fill="none" stroke="#292d32" stroke-linecap="round" stroke-linejoin="round" stroke-width="1.5"/>
    </g>
  </g>
</svg>
