<svg xmlns="http://www.w3.org/2000/svg" width="24" height="24" viewBox="0 0 24 24">
  <g id="vuesax_linear_bezier" data-name="vuesax/linear/bezier" transform="translate(-108 -188)">
    <g id="bezier">
      <g id="Group">
        <path id="Vector" d="M4,2A2,2,0,1,1,2,0,2,2,0,0,1,4,2Z" transform="translate(109 193)" fill="none" stroke="#292d32" stroke-linecap="round" stroke-linejoin="round" stroke-width="1.5"/>
        <path id="Vector-2" data-name="Vector" d="M4,2A2,2,0,1,1,2,0,2,2,0,0,1,4,2Z" transform="translate(127 193)" fill="none" stroke="#292d32" stroke-linecap="round" stroke-linejoin="round" stroke-width="1.5"/>
        <path id="Vector-3" data-name="Vector" d="M4,0H0" transform="translate(123 195)" fill="none" stroke="#292d32" stroke-linecap="round" stroke-linejoin="round" stroke-width="1.5"/>
        <path id="Vector-4" data-name="Vector" d="M4,0H0" transform="translate(113 195)" fill="none" stroke="#292d32" stroke-linecap="round" stroke-linejoin="round" stroke-width="1.5"/>
        <path id="Vector-5" data-name="Vector" d="M5,1.5v2a1.479,1.479,0,0,1-.89,1.36A1.4,1.4,0,0,1,3.5,5h-2A1.5,1.5,0,0,1,0,3.5v-2A1.5,1.5,0,0,1,1.5,0h2A1.5,1.5,0,0,1,5,1.5Z" transform="translate(110.5 203)" fill="none" stroke="#292d32" stroke-linecap="round" stroke-linejoin="round" stroke-width="1.5"/>
        <path id="Vector-6" data-name="Vector" d="M5,1.5v2A1.5,1.5,0,0,1,3.5,5h-2a1.4,1.4,0,0,1-.61-.14A1.479,1.479,0,0,1,0,3.5v-2A1.5,1.5,0,0,1,1.5,0h2A1.5,1.5,0,0,1,5,1.5Z" transform="translate(124.5 203)" fill="none" stroke="#292d32" stroke-linecap="round" stroke-linejoin="round" stroke-width="1.5"/>
        <path id="Vector-7" data-name="Vector" d="M6,1.5v3A1.511,1.511,0,0,1,4.5,6h-3A1.511,1.511,0,0,1,0,4.5v-3A1.511,1.511,0,0,1,1.5,0h3A1.511,1.511,0,0,1,6,1.5Z" transform="translate(117 192)" fill="none" stroke="#292d32" stroke-linecap="round" stroke-linejoin="round" stroke-width="1.5"/>
        <path id="Vector-8" data-name="Vector" d="M0,0A7.532,7.532,0,0,1,4,6.77a4.193,4.193,0,0,1-.03.5" transform="translate(123 195.73)" fill="none" stroke="#292d32" stroke-linecap="round" stroke-linejoin="round" stroke-width="1.5"/>
        <path id="Vector-9" data-name="Vector" d="M.03,7.27A4.193,4.193,0,0,1,0,6.77,7.532,7.532,0,0,1,4,0" transform="translate(113 195.73)" fill="none" stroke="#292d32" stroke-linecap="round" stroke-linejoin="round" stroke-width="1.5"/>
      </g>
      <path id="Vector-10" data-name="Vector" d="M0,0H24V24H0Z" transform="translate(108 188)" fill="none" opacity="0"/>
    </g>
  </g>
</svg>
