<svg xmlns="http://www.w3.org/2000/svg" width="24" height="24" viewBox="0 0 24 24">
  <g id="vuesax_linear_volume-low" data-name="vuesax/linear/volume-low" transform="translate(-556 -188)">
    <g id="volume-low">
      <path id="Vector" d="M0,5.963v4.08Q0,13.1,3.06,13.1H4.52a2.055,2.055,0,0,1,1.08.31l2.98,1.86c2.58,1.61,4.68.44,4.68-2.6V3.323c0-3.04-2.11-4.21-4.68-2.6L5.6,2.593a2.081,2.081,0,0,1-1.08.31H3.06Q0,2.9,0,5.963Z" transform="translate(558 191.997)" fill="none" stroke="#292d32" stroke-width="1.5"/>
      <path id="Vector-2" data-name="Vector" d="M0,0H4" transform="translate(574 200)" fill="none" stroke="#292d32" stroke-linecap="round" stroke-linejoin="round" stroke-width="1.5"/>
      <path id="Vector-3" data-name="Vector" d="M0,0H24V24H0Z" transform="translate(556 188)" fill="none" opacity="0"/>
    </g>
  </g>
</svg>
