<svg xmlns="http://www.w3.org/2000/svg" width="24" height="24" viewBox="0 0 24 24">
  <g id="vuesax_linear_location-slash" data-name="vuesax/linear/location-slash" transform="translate(-300 -188)">
    <g id="location-slash">
      <path id="Vector" d="M1.54,5.81A3.118,3.118,0,1,1,5.81,1.55" transform="translate(308.88 195.19)" fill="none" stroke="#292d32" stroke-linecap="round" stroke-linejoin="round" stroke-width="1.5"/>
      <path id="Vector-2" data-name="Vector" d="M2.606,15.811a11.349,11.349,0,0,1-2.36-9.32c1.65-7.26,10.94-8.43,15.05-3.51" transform="translate(303.384 189.999)" fill="none" stroke="#292d32" stroke-linecap="round" stroke-linejoin="round" stroke-width="1.5"/>
      <path id="Vector-3" data-name="Vector" d="M11.99,0c1.15,5.08-2.01,9.38-4.78,12.04a5.193,5.193,0,0,1-7.21,0" transform="translate(308.39 196.5)" fill="none" stroke="#292d32" stroke-linecap="round" stroke-linejoin="round" stroke-width="1.5"/>
      <path id="Vector-4" data-name="Vector" d="M20,0,0,20" transform="translate(302 190)" fill="none" stroke="#292d32" stroke-linecap="round" stroke-linejoin="round" stroke-width="1.5"/>
      <path id="Vector-5" data-name="Vector" d="M0,0H24V24H0Z" transform="translate(324 212) rotate(180)" fill="none" opacity="0"/>
    </g>
  </g>
</svg>
