<svg xmlns="http://www.w3.org/2000/svg" width="24" height="24" viewBox="0 0 24 24">
  <g id="vuesax_linear_play-remove" data-name="vuesax/linear/play-remove" transform="translate(-492 -450)">
    <g id="play-remove">
      <g id="Group">
        <path id="Vector" d="M20,10a9.82,9.82,0,0,1-.72,3.72A4,4,0,0,0,13,17a3.921,3.921,0,0,0,.58,2.06,1.366,1.366,0,0,0,.15.21A9.84,9.84,0,0,1,10,20,10,10,0,1,1,20,10Z" transform="translate(494 452)" fill="none" stroke="#292d32" stroke-linecap="round" stroke-linejoin="round" stroke-width="1.5"/>
        <path id="Vector-2" data-name="Vector" d="M0,3.326V1.936C0,.216,1.22-.494,2.71.366l1.2.69,1.2.69c1.49.86,1.49,2.27,0,3.13l-1.2.69-1.2.69C1.22,7.116,0,6.416,0,4.686Z" transform="translate(501.38 458.674)" fill="none" stroke="#292d32" stroke-linecap="round" stroke-linejoin="round" stroke-width="1.5"/>
      </g>
      <path id="Vector-3" data-name="Vector" d="M8,4a3.921,3.921,0,0,1-.58,2.06A3.593,3.593,0,0,1,6.63,7a3.957,3.957,0,0,1-5.9-.73,1.366,1.366,0,0,1-.15-.21A3.921,3.921,0,0,1,0,4,3.993,3.993,0,0,1,6.28.72,3.981,3.981,0,0,1,8,4Z" transform="translate(507 465)" fill="none" stroke="#292d32" stroke-linecap="round" stroke-linejoin="round" stroke-width="1.5"/>
      <g id="Group-2" data-name="Group">
        <path id="Vector-4" data-name="Vector" d="M2.12,2.11,0,0" transform="translate(509.95 467.93)" fill="none" stroke="#292d32" stroke-linecap="round" stroke-linejoin="round" stroke-width="1.5"/>
        <path id="Vector-5" data-name="Vector" d="M2.12,0,0,2.11" transform="translate(509.93 467.96)" fill="none" stroke="#292d32" stroke-linecap="round" stroke-linejoin="round" stroke-width="1.5"/>
      </g>
      <path id="Vector-6" data-name="Vector" d="M0,0H24V24H0Z" transform="translate(492 450)" fill="none" opacity="0"/>
    </g>
  </g>
</svg>
