<svg xmlns="http://www.w3.org/2000/svg" width="24" height="24" viewBox="0 0 24 24">
  <g id="vuesax_linear_filter-tick" data-name="vuesax/linear/filter-tick" transform="translate(-620 -700)">
    <g id="filter-tick">
      <path id="Vector" d="M9.5,4.75A4.678,4.678,0,0,1,8.82,7.2,4.735,4.735,0,0,1,4.75,9.5a4.62,4.62,0,0,1-2.56-.77A4.481,4.481,0,0,1,.69,7.2,4.686,4.686,0,0,1,0,4.75,4.754,4.754,0,0,1,4.75,0,4.421,4.421,0,0,1,5.79.12,4.74,4.74,0,0,1,9.5,4.75Z" transform="translate(632.13 710)" fill="none" stroke="#292d32" stroke-linecap="round" stroke-linejoin="round" stroke-width="1.5"/>
      <path id="Vector-2" data-name="Vector" d="M0,1.17,1.17,2.34,3.7,0" transform="translate(635.03 713.58)" fill="none" stroke="#292d32" stroke-linecap="round" stroke-linejoin="round" stroke-width="1.5"/>
      <path id="Vector-3" data-name="Vector" d="M0,0H24V24H0Z" transform="translate(644 724) rotate(180)" fill="none" opacity="0"/>
      <g id="Group">
        <path id="Vector-4" data-name="Vector" d="M17.38,2.02V4.24a3.825,3.825,0,0,1-1.01,2.33L14.61,8.12A4.421,4.421,0,0,0,13.57,8a4.754,4.754,0,0,0-4.75,4.75,4.686,4.686,0,0,0,.69,2.45,4.481,4.481,0,0,0,1.5,1.53v.34a2.23,2.23,0,0,1-.91,1.72l-1.41.91a2.058,2.058,0,0,1-3.13-1.72V12.63a3.91,3.91,0,0,0-.81-2.12L.91,6.47A3.407,3.407,0,0,1,0,4.45V2.12A2.051,2.051,0,0,1,2.02,0H15.36A2.027,2.027,0,0,1,17.38,2.02Z" transform="translate(623.31 702)" fill="none" stroke="#292d32" stroke-linecap="round" stroke-linejoin="round" stroke-width="1.5"/>
      </g>
    </g>
  </g>
</svg>
