<svg xmlns="http://www.w3.org/2000/svg" width="24" height="24" viewBox="0 0 24 24">
  <g id="vuesax_linear_convertshape-2" data-name="vuesax/linear/convertshape-2" transform="translate(-620 -380)">
    <g id="convertshape-2">
      <path id="Vector" d="M9,3.15v2.7C9,8.1,8.1,9,5.85,9H3.15C.9,9,0,8.1,0,5.85V3.15C0,.9.9,0,3.15,0h2.7C8.1,0,9,.9,9,3.15Z" transform="translate(622 393)" fill="none" stroke="#292d32" stroke-linecap="round" stroke-linejoin="round" stroke-width="1.5"/>
      <path id="Vector-2" data-name="Vector" d="M7,0A7,7,0,0,1,0,7L1.05,5.25" transform="translate(635 395)" fill="none" stroke="#292d32" stroke-linecap="round" stroke-linejoin="round" stroke-width="1.5"/>
      <path id="Vector-3" data-name="Vector" d="M0,7A7,7,0,0,1,7,0L5.95,1.75" transform="translate(622 382)" fill="none" stroke="#292d32" stroke-linecap="round" stroke-linejoin="round" stroke-width="1.5"/>
      <path id="Vector-4" data-name="Vector" d="M9,4.5A4.5,4.5,0,1,1,4.5,0,4.5,4.5,0,0,1,9,4.5Z" transform="translate(633 382)" fill="none" stroke="#292d32" stroke-linecap="round" stroke-linejoin="round" stroke-width="1.5"/>
      <path id="Vector-5" data-name="Vector" d="M0,0H24V24H0Z" transform="translate(620 380)" fill="none" opacity="0"/>
    </g>
  </g>
</svg>
