<svg xmlns="http://www.w3.org/2000/svg" width="24" height="24" viewBox="0 0 24 24">
  <g id="vuesax_linear_google-play" data-name="vuesax/linear/google-play" transform="translate(-98 -597)">
    <g id="google-play">
      <path id="BG_1" data-name="BG 1" d="M0,0H24V24H0Z" transform="translate(98 597)" fill="none" opacity="0.58"/>
      <path id="Vector" d="M7.7,4.1,3.2,6.4,0,3.2,3.2,0,7.7,2.2A1.052,1.052,0,0,1,7.7,4.1Z" transform="translate(111.7 605.8)" fill="none" stroke="#17191c" stroke-linecap="round" stroke-linejoin="round" stroke-width="1.5"/>
      <path id="Vector-2" data-name="Vector" d="M14.9,6.788l-3.2,3.2-9.6,9.6-.6.3a1.041,1.041,0,0,1-1.5-1V1.088a1.075,1.075,0,0,1,1.5-1Z" transform="translate(100 599.012)" fill="none" stroke="#17191c" stroke-linecap="round" stroke-linejoin="round" stroke-width="1.5"/>
      <path id="Vector-3" data-name="Vector" d="M12.8,3.2,0,9.6,9.6,0Z" transform="translate(102.1 609)" fill="none" stroke="#17191c" stroke-linecap="round" stroke-linejoin="round" stroke-width="1.5"/>
      <path id="Vector-4" data-name="Vector" d="M9.6,9.6,0,0" transform="translate(102.1 599.4)" fill="none" stroke="#17191c" stroke-linecap="round" stroke-linejoin="round" stroke-width="1.5"/>
      <path id="Vector-5" data-name="Vector" d="M0,0H24V24H0Z" transform="translate(98 597)" fill="none" opacity="0"/>
    </g>
  </g>
</svg>
