<svg xmlns="http://www.w3.org/2000/svg" width="24" height="24" viewBox="0 0 24 24">
  <g id="vuesax_linear_heart-slash" data-name="vuesax/linear/heart-slash" transform="translate(-108 -252)">
    <g id="heart-slash">
      <g id="Group">
        <path id="Vector" d="M4.11,14.41A12.032,12.032,0,0,1,0,5.59,5.574,5.574,0,0,1,5.56,0,5.515,5.515,0,0,1,10,2.24,5.519,5.519,0,0,1,17.55.96" transform="translate(110 255.09)" fill="none" stroke="#292d32" stroke-linecap="round" stroke-linejoin="round" stroke-width="1.5"/>
        <path id="Vector-2" data-name="Vector" d="M12.72,0a5.534,5.534,0,0,1,.26,1.69c0,7-6.48,11.13-9.38,12.13a2.181,2.181,0,0,1-1.24,0A12.873,12.873,0,0,1,0,12.69" transform="translate(117.02 259)" fill="none" stroke="#292d32" stroke-linecap="round" stroke-linejoin="round" stroke-width="1.5"/>
      </g>
      <path id="Vector-3" data-name="Vector" d="M20,0,0,20" transform="translate(110 254)" fill="none" stroke="#292d32" stroke-linecap="round" stroke-linejoin="round" stroke-width="1.5"/>
      <path id="Vector-4" data-name="Vector" d="M0,0H24V24H0Z" transform="translate(132 276) rotate(180)" fill="none" opacity="0"/>
    </g>
  </g>
</svg>
