<svg xmlns="http://www.w3.org/2000/svg" width="24" height="24" viewBox="0 0 24 24">
  <g id="vuesax_linear_figma" data-name="vuesax/linear/figma" transform="translate(-1058 -533)">
    <g id="figma">
      <path id="BG_1" data-name="BG 1" d="M0,0H24V24H0Z" transform="translate(1058 533)" fill="none" opacity="0.58"/>
      <path id="Vector" d="M4,0H2A2,2,0,0,0,2,4H4Z" transform="translate(1066 539)" fill="none" stroke="#17191c" stroke-width="1.5"/>
      <path id="Vector-2" data-name="Vector" d="M4,0H2A2,2,0,0,0,2,4H4Z" transform="translate(1066 543)" fill="none" stroke="#17191c" stroke-width="1.5"/>
      <path id="Vector-3" data-name="Vector" d="M4,0H2A2,2,0,1,0,4,2Z" transform="translate(1066 547)" fill="none" stroke="#17191c" stroke-width="1.5"/>
      <path id="Vector-4" data-name="Vector" d="M0,0H2A2,2,0,0,1,2,4H0Z" transform="translate(1070 539)" fill="none" stroke="#17191c" stroke-width="1.5"/>
      <path id="Vector-5" data-name="Vector" d="M2,0A2,2,0,1,1,0,2,2.006,2.006,0,0,1,2,0Z" transform="translate(1070 543)" fill="none" stroke="#17191c" stroke-width="1.5"/>
      <path id="Vector-6" data-name="Vector" d="M20,10A10,10,0,1,1,10,0,10,10,0,0,1,20,10Z" transform="translate(1060 535)" fill="none" stroke="#17191c" stroke-width="1.5"/>
      <path id="Vector-7" data-name="Vector" d="M0,0H24V24H0Z" transform="translate(1058 533)" fill="none" opacity="0"/>
    </g>
  </g>
</svg>
