<svg xmlns="http://www.w3.org/2000/svg" width="24" height="24" viewBox="0 0 24 24">
  <g id="vuesax_linear_folder-favorite" data-name="vuesax/linear/folder-favorite" transform="translate(-364 -188)">
    <g id="folder-favorite">
      <path id="Vector" d="M.568,2.913l2.58,2.26a.321.321,0,0,0,.43,0l2.58-2.26A1.661,1.661,0,0,0,4.068.333l-.7.54-.71-.53a1.658,1.658,0,0,0-2.09,2.57Z" transform="translate(372.632 199.867)" fill="none" stroke="#292d32" stroke-linecap="round" stroke-linejoin="round" stroke-width="1.5"/>
      <path id="Vector-2" data-name="Vector" d="M20,9v6c0,4-1,5-5,5H5c-4,0-5-1-5-5V5C0,1,1,0,5,0H6.5A2.362,2.362,0,0,1,8.9,1.2l1.5,2A1.585,1.585,0,0,0,12,4h3C19,4,20,5,20,9Z" transform="translate(366 190)" fill="none" stroke="#292d32" stroke-width="1.5"/>
      <path id="Vector-3" data-name="Vector" d="M0,0H24V24H0Z" transform="translate(388 212) rotate(180)" fill="none" opacity="0"/>
    </g>
  </g>
</svg>
