<svg xmlns="http://www.w3.org/2000/svg" width="24" height="24" viewBox="0 0 24 24">
  <g id="vuesax_linear_direct" data-name="vuesax/linear/direct" transform="translate(-428 -186)">
    <g id="direct">
      <path id="Vector" d="M7,20h6c5,0,7-2,7-7V7c0-5-2-7-7-7H7C2,0,0,2,0,7v6C0,18,2,20,7,20Z" transform="translate(430 188)" fill="none" stroke="#292d32" stroke-linecap="round" stroke-linejoin="round" stroke-width="1.5"/>
      <path id="Vector-2" data-name="Vector" d="M0,.01H3.76A2,2,0,0,1,5.55,1.12l.89,1.79a1.919,1.919,0,0,0,1.8,1.1h3.53A2,2,0,0,0,13.56,2.9l.89-1.79A2,2,0,0,1,16.24,0h3.74" transform="translate(430 198.99)" fill="none" stroke="#292d32" stroke-linecap="round" stroke-linejoin="round" stroke-width="1.5"/>
      <path id="Vector-3" data-name="Vector" d="M0,0H3.33" transform="translate(438.34 193)" fill="none" stroke="#292d32" stroke-linecap="round" stroke-linejoin="round" stroke-width="1.5"/>
      <path id="Vector-4" data-name="Vector" d="M0,0H5" transform="translate(437.5 196)" fill="none" stroke="#292d32" stroke-linecap="round" stroke-linejoin="round" stroke-width="1.5"/>
      <path id="Vector-5" data-name="Vector" d="M0,0H24V24H0Z" transform="translate(428 186)" fill="none" opacity="0"/>
    </g>
  </g>
</svg>
