<svg xmlns="http://www.w3.org/2000/svg" width="24" height="24" viewBox="0 0 24 24">
  <g id="vuesax_linear_wifi-square" data-name="vuesax/linear/wifi-square" transform="translate(-236 -572)">
    <g id="wifi-square">
      <g id="Group">
        <path id="Vector" d="M0,2.108a9.6,9.6,0,0,1,12,0" transform="translate(242 579.853)" fill="none" stroke="#292d32" stroke-linecap="round" stroke-linejoin="round" stroke-width="1.5"/>
        <path id="Vector-2" data-name="Vector" d="M0,1.545a7.052,7.052,0,0,1,8.81,0" transform="translate(243.6 583.505)" fill="none" stroke="#292d32" stroke-linecap="round" stroke-linejoin="round" stroke-width="1.5"/>
        <path id="Vector-3" data-name="Vector" d="M0,.772a3.519,3.519,0,0,1,4.4,0" transform="translate(245.8 587.367)" fill="none" stroke="#292d32" stroke-linecap="round" stroke-linejoin="round" stroke-width="1.5"/>
      </g>
      <path id="Vector-4" data-name="Vector" d="M7,20h6c5,0,7-2,7-7V7c0-5-2-7-7-7H7C2,0,0,2,0,7v6C0,18,2,20,7,20Z" transform="translate(238 574)" fill="none" stroke="#292d32" stroke-linecap="round" stroke-linejoin="round" stroke-width="1.5"/>
      <path id="Vector-5" data-name="Vector" d="M0,0H24V24H0Z" transform="translate(236 572)" fill="none" opacity="0"/>
    </g>
  </g>
</svg>
