<svg xmlns="http://www.w3.org/2000/svg" width="24" height="24" viewBox="0 0 24 24">
  <g id="vuesax_linear_mini-music-sqaure" data-name="vuesax/linear/mini-music-sqaure" transform="translate(-490 -578)">
    <g id="mini-music-sqaure">
      <path id="Vector" d="M20,8V7c0-5-2-7-7-7H7C2,0,0,2,0,7v6c0,5,2,7,7,7H9" transform="translate(492 580)" fill="none" stroke="#292d32" stroke-linecap="round" stroke-linejoin="round" stroke-width="1.5"/>
      <g id="Group">
        <path id="Vector-2" data-name="Vector" d="M2.88,1.44A1.44,1.44,0,1,1,1.44,0,1.44,1.44,0,0,1,2.88,1.44Z" transform="translate(503.83 597.12)" fill="none" stroke="#292d32" stroke-linecap="round" stroke-linejoin="round" stroke-width="1.5"/>
        <path id="Vector-3" data-name="Vector" d="M5.3,6.877V1.237c0-1.2-.75-1.37-1.52-1.16L.89.867A1.158,1.158,0,0,0,0,2.027v5.82" transform="translate(506.7 590.723)" fill="none" stroke="#292d32" stroke-linecap="round" stroke-linejoin="round" stroke-width="1.5"/>
        <path id="Vector-4" data-name="Vector" d="M2.88,1.44A1.44,1.44,0,1,1,1.44,0,1.44,1.44,0,0,1,2.88,1.44Z" transform="translate(509.12 596.16)" fill="none" stroke="#292d32" stroke-linecap="round" stroke-linejoin="round" stroke-width="1.5"/>
        <path id="Vector-5" data-name="Vector" d="M0,1.44,5.29,0" transform="translate(506.71 592.99)" fill="none" stroke="#292d32" stroke-linecap="round" stroke-linejoin="round" stroke-width="1.5"/>
      </g>
      <path id="Vector-6" data-name="Vector" d="M0,0H24V24H0Z" transform="translate(490 578)" fill="none" opacity="0"/>
    </g>
  </g>
</svg>
