<svg xmlns="http://www.w3.org/2000/svg" width="24" height="24" viewBox="0 0 24 24">
  <g id="vuesax_linear_music-circle" data-name="vuesax/linear/music-circle" transform="translate(-364 -450)">
    <g id="music-circle">
      <g id="Group">
        <path id="Vector" d="M0,4.44A9.993,9.993,0,0,1,3.14,0" transform="translate(366.58 454.23)" fill="none" stroke="#292d32" stroke-linecap="round" stroke-linejoin="round" stroke-width="1.5"/>
        <path id="Vector-2" data-name="Vector" d="M0,0A9.916,9.916,0,0,0,.58,3.33" transform="translate(366 462)" fill="none" stroke="#292d32" stroke-linecap="round" stroke-linejoin="round" stroke-width="1.5"/>
        <path id="Vector-3" data-name="Vector" d="M0,11.33A10.008,10.008,0,0,0,12.91,1.76,10.2,10.2,0,0,0,12.75,0" transform="translate(373.09 460.24)" fill="none" stroke="#292d32" stroke-linecap="round" stroke-linejoin="round" stroke-width="1.5"/>
        <path id="Vector-4" data-name="Vector" d="M1.32,1.26A10.472,10.472,0,0,1,0,0" transform="translate(368.4 468.49)" fill="none" stroke="#292d32" stroke-linecap="round" stroke-linejoin="round" stroke-width="1.5"/>
        <path id="Vector-5" data-name="Vector" d="M11.15,4.34A10.007,10.007,0,0,0,0,.43" transform="translate(373.09 452)" fill="none" stroke="#292d32" stroke-linecap="round" stroke-linejoin="round" stroke-width="1.5"/>
      </g>
      <g id="Group-2" data-name="Group">
        <path id="Vector-6" data-name="Vector" d="M3.18,1.59A1.59,1.59,0,1,1,1.59,0,1.59,1.59,0,0,1,3.18,1.59Z" transform="translate(371 463.93)" fill="none" stroke="#292d32" stroke-linecap="round" stroke-linejoin="round" stroke-width="1.5"/>
        <path id="Vector-7" data-name="Vector" d="M5.83,7.573V1.363C5.83.043,5-.147,4.16.083L.98.953A1.268,1.268,0,0,0,0,2.233v6.4" transform="translate(374.17 456.887)" fill="none" stroke="#292d32" stroke-linecap="round" stroke-linejoin="round" stroke-width="1.5"/>
        <path id="Vector-8" data-name="Vector" d="M3.18,1.59A1.59,1.59,0,1,1,1.59,0,1.59,1.59,0,0,1,3.18,1.59Z" transform="translate(376.82 462.87)" fill="none" stroke="#292d32" stroke-linecap="round" stroke-linejoin="round" stroke-width="1.5"/>
        <path id="Vector-9" data-name="Vector" d="M0,1.59,5.82,0" transform="translate(374.18 459.17)" fill="none" stroke="#292d32" stroke-linecap="round" stroke-linejoin="round" stroke-width="1.5"/>
      </g>
      <path id="Vector-10" data-name="Vector" d="M0,0H24V24H0Z" transform="translate(364 450)" fill="none" opacity="0"/>
    </g>
  </g>
</svg>
