<svg xmlns="http://www.w3.org/2000/svg" width="24" height="24" viewBox="0 0 24 24">
  <g id="vuesax_linear_save-add" data-name="vuesax/linear/save-add" transform="translate(-620 -188)">
    <g id="save-add">
      <path id="Vector" d="M14,3.11V14.47c0,1.45-1.04,2.06-2.31,1.36L7.76,13.64a1.76,1.76,0,0,0-1.52,0L2.31,15.83c-1.27.7-2.31.09-2.31-1.36V3.11A3.12,3.12,0,0,1,3.11,0h7.78A3.12,3.12,0,0,1,14,3.11Z" transform="translate(622 193.88)" fill="none" stroke="#292d32" stroke-linecap="round" stroke-linejoin="round" stroke-width="1.5"/>
      <path id="Vector-2" data-name="Vector" d="M14,3.11V14.47c0,1.45-1.04,2.06-2.31,1.36L8,13.77V6.99A3.12,3.12,0,0,0,4.89,3.88H0V3.11A3.12,3.12,0,0,1,3.11,0h7.78A3.12,3.12,0,0,1,14,3.11Z" transform="translate(628 190)" fill="none" stroke="#292d32" stroke-linecap="round" stroke-linejoin="round" stroke-width="1.5"/>
      <path id="Vector-3" data-name="Vector" d="M0,0H4" transform="translate(627 200)" fill="none" stroke="#292d32" stroke-linecap="round" stroke-linejoin="round" stroke-width="1.5"/>
      <path id="Vector-4" data-name="Vector" d="M0,4V0" transform="translate(629 198)" fill="none" stroke="#292d32" stroke-linecap="round" stroke-linejoin="round" stroke-width="1.5"/>
      <path id="Vector-5" data-name="Vector" d="M0,0H24V24H0Z" transform="translate(620 188)" fill="none" opacity="0"/>
    </g>
  </g>
</svg>
