<svg xmlns="http://www.w3.org/2000/svg" width="24" height="24" viewBox="0 0 24 24">
  <g id="vuesax_linear_note-square" data-name="vuesax/linear/note-square" transform="translate(-428 -578)">
    <g id="note-square">
      <path id="Vector" d="M20,8V7c0-5-2-7-7-7H7C2,0,0,2,0,7v6c0,5,2,7,7,7H9" transform="translate(430 580)" fill="none" stroke="#292d32" stroke-linecap="round" stroke-linejoin="round" stroke-width="1.5"/>
      <g id="Group">
        <path id="Vector-2" data-name="Vector" d="M4,2A2,2,0,1,1,2,0,2,2,0,0,1,4,2Z" transform="translate(441.51 596)" fill="none" stroke="#292d32" stroke-linecap="round" stroke-linejoin="round" stroke-width="1.5"/>
        <path id="Vector-3" data-name="Vector" d="M0,6.99V0" transform="translate(445.51 591.01)" fill="none" stroke="#292d32" stroke-linecap="round" stroke-linejoin="round" stroke-width="1.5"/>
        <path id="Vector-4" data-name="Vector" d="M1.31.067l2.21.74a1.523,1.523,0,0,1,.97,1.35v.59a.939.939,0,0,1-1.31.95L.97,2.957A1.523,1.523,0,0,1,0,1.607v-.59A.936.936,0,0,1,1.31.067Z" transform="translate(445.51 590.003)" fill="none" stroke="#292d32" stroke-linecap="round" stroke-linejoin="round" stroke-width="1.5"/>
      </g>
      <path id="Vector-5" data-name="Vector" d="M0,0H24V24H0Z" transform="translate(428 578)" fill="none" opacity="0"/>
    </g>
  </g>
</svg>
