<svg xmlns="http://www.w3.org/2000/svg" width="24" height="24" viewBox="0 0 24 24">
  <g id="vuesax_linear_ghost" data-name="vuesax/linear/ghost" transform="translate(-364 -636)">
    <g id="ghost">
      <path id="Vector" d="M20,18.07V10.18A10.12,10.12,0,0,0,10,0,10.12,10.12,0,0,0,0,10.18v7.89c0,1.26.75,1.6,1.67.76l1-.91a1.008,1.008,0,0,1,1.34,0l2,1.83a1.008,1.008,0,0,0,1.34,0l2-1.83a1.008,1.008,0,0,1,1.34,0l2,1.83a1.008,1.008,0,0,0,1.34,0l2-1.83a1.008,1.008,0,0,1,1.34,0l1,.91C19.25,19.67,20,19.33,20,18.07Z" transform="translate(366 638)" fill="none" stroke="#292d32" stroke-linecap="round" stroke-linejoin="round" stroke-width="1.5"/>
      <path id="Vector-2" data-name="Vector" d="M0,0A6.66,6.66,0,0,0,8,0" transform="translate(372 650)" fill="none" stroke="#292d32" stroke-linecap="round" stroke-linejoin="round" stroke-width="1.5"/>
      <path id="Vector-3" data-name="Vector" d="M4,2A2,2,0,1,1,2,0,2,2,0,0,1,4,2Z" transform="translate(374 643)" fill="none" stroke="#292d32" stroke-linecap="round" stroke-linejoin="round" stroke-width="1.5"/>
      <path id="Vector-4" data-name="Vector" d="M0,0H24V24H0Z" transform="translate(364 636)" fill="none" opacity="0"/>
    </g>
  </g>
</svg>
