<svg xmlns="http://www.w3.org/2000/svg" width="24" height="24" viewBox="0 0 24 24">
  <g id="vuesax_linear_usd-coin-_usdc_" data-name="vuesax/linear/usd-coin-(usdc)" transform="translate(-544 -277)">
    <g id="usd-coin-_usdc_" data-name="usd-coin-(usdc)">
      <path id="BG_1" data-name="BG 1" d="M0,0H24V24H0Z" transform="translate(544 277)" fill="none"/>
      <path id="Vector" d="M0,9.9A7.062,7.062,0,0,0,0,0" transform="translate(560.9 284)" fill="none" stroke="#17191c" stroke-linecap="round" stroke-linejoin="round" stroke-width="1.5"/>
      <path id="Vector-2" data-name="Vector" d="M2.025,0a7.062,7.062,0,0,0,0,9.9" transform="translate(549.075 284.1)" fill="none" stroke="#17191c" stroke-linecap="round" stroke-linejoin="round" stroke-width="1.5"/>
      <g id="Group">
        <path id="Vector-3" data-name="Vector" d="M0,4.8A1.58,1.58,0,0,0,1.6,6.4H3.3A1.43,1.43,0,0,0,4.7,5a1.287,1.287,0,0,0-.9-1.4L1,2.6c-.7-.1-1-.4-1-1.2A1.367,1.367,0,0,1,1.4,0H3.2A1.58,1.58,0,0,1,4.8,1.6" transform="translate(553.7 285.8)" fill="none" stroke="#17191c" stroke-linecap="round" stroke-linejoin="round" stroke-width="1.5"/>
        <path id="Vector-4" data-name="Vector" d="M0,0V8.4" transform="translate(556 284.8)" fill="none" stroke="#17191c" stroke-linecap="round" stroke-linejoin="round" stroke-width="1.5"/>
      </g>
      <path id="Vector-5" data-name="Vector" d="M20,10A10,10,0,1,1,10,0,10,10,0,0,1,20,10Z" transform="translate(546 279)" fill="none" stroke="#17191c" stroke-linecap="round" stroke-linejoin="round" stroke-width="1.5"/>
      <path id="Vector-6" data-name="Vector" d="M0,0H24V24H0Z" transform="translate(544 277)" fill="none" opacity="0"/>
    </g>
  </g>
</svg>
