<svg xmlns="http://www.w3.org/2000/svg" width="24" height="24" viewBox="0 0 24 24">
  <g id="vuesax_linear_music-square" data-name="vuesax/linear/music-square" transform="translate(-300 -578)">
    <g id="music-square">
      <path id="Vector" d="M20,13V7c0-5-2-7-7-7H7C2,0,0,2,0,7v6c0,5,2,7,7,7h6C18,20,20,18,20,13Z" transform="translate(302 580)" fill="none" stroke="#292d32" stroke-linecap="round" stroke-linejoin="round" stroke-width="1.5"/>
      <g id="Group">
        <path id="Vector-2" data-name="Vector" d="M3.14,1.57A1.57,1.57,0,1,1,1.57,0,1.57,1.57,0,0,1,3.14,1.57Z" transform="translate(306.85 591.97)" fill="none" stroke="#292d32" stroke-linecap="round" stroke-linejoin="round" stroke-width="1.5"/>
        <path id="Vector-3" data-name="Vector" d="M5.75,7.485V1.345c0-1.31-.82-1.49-1.65-1.26L.96.945A1.255,1.255,0,0,0,0,2.2v6.34" transform="translate(310 585.005)" fill="none" stroke="#292d32" stroke-linecap="round" stroke-linejoin="round" stroke-width="1.5"/>
        <path id="Vector-4" data-name="Vector" d="M3.14,1.57A1.57,1.57,0,1,1,1.57,0,1.57,1.57,0,0,1,3.14,1.57Z" transform="translate(312.61 590.92)" fill="none" stroke="#292d32" stroke-linecap="round" stroke-linejoin="round" stroke-width="1.5"/>
        <path id="Vector-5" data-name="Vector" d="M0,1.57,5.76,0" transform="translate(309.99 587.47)" fill="none" stroke="#292d32" stroke-linecap="round" stroke-linejoin="round" stroke-width="1.5"/>
      </g>
      <path id="Vector-6" data-name="Vector" d="M0,0H24V24H0Z" transform="translate(300 578)" fill="none" opacity="0"/>
    </g>
  </g>
</svg>
