<svg xmlns="http://www.w3.org/2000/svg" width="24" height="24" viewBox="0 0 24 24">
  <g id="vuesax_linear_smart-home" data-name="vuesax/linear/smart-home" transform="translate(-748 -700)">
    <g id="smart-home">
      <path id="Vector" d="M9.4,19.626h6.2a3.209,3.209,0,0,0,3.04-2.57l1.33-7.96a3.429,3.429,0,0,0-1.11-2.91L11.933.646a3.225,3.225,0,0,0-3.86-.01l-6.93,5.55A3.373,3.373,0,0,0,.033,9.1l.28,1.68" transform="translate(749.997 702.184)" fill="none" stroke="#292d32" stroke-linecap="round" stroke-linejoin="round" stroke-width="1.5"/>
      <path id="Vector-2" data-name="Vector" d="M0,0A2.923,2.923,0,0,1,3,3" transform="translate(750 719)" fill="none" stroke="#292d32" stroke-linecap="round" stroke-linejoin="round" stroke-width="1.5"/>
      <path id="Vector-3" data-name="Vector" d="M6,6a6.592,6.592,0,0,0-.37-2.12A5.688,5.688,0,0,0,2.12.37,6.592,6.592,0,0,0,0,0" transform="translate(750 716)" fill="none" stroke="#292d32" stroke-linecap="round" stroke-linejoin="round" stroke-width="1.5"/>
      <path id="Vector-4" data-name="Vector" d="M0,0H24V24H0Z" transform="translate(748 700)" fill="none" opacity="0"/>
      <path id="Vector-5" data-name="Vector" d="M.5.5H.5" transform="translate(749.5 721.5)" fill="none" stroke="#292d32" stroke-linecap="round" stroke-linejoin="round" stroke-width="2"/>
    </g>
  </g>
</svg>
