<svg xmlns="http://www.w3.org/2000/svg" width="24" height="24" viewBox="0 0 24 24">
  <g id="vuesax_linear_enjin-coin-_enj_" data-name="vuesax/linear/enjin-coin-(enj)" transform="translate(-224 -341)">
    <g id="enjin-coin-_enj_" data-name="enjin-coin-(enj)">
      <path id="BG_1" data-name="BG 1" d="M0,0H24V24H0Z" transform="translate(224 341)" fill="none"/>
      <path id="Vector" d="M20,10A10,10,0,1,1,10,0,10,10,0,0,1,20,10Z" transform="translate(226 343)" fill="none" stroke="#17191c" stroke-linecap="round" stroke-linejoin="round" stroke-width="1.5"/>
      <g id="Group">
        <path id="Vector-2" data-name="Vector" d="M8,0H3A3.076,3.076,0,0,0,0,3V5A3.076,3.076,0,0,0,3,8H8" transform="translate(231.8 349)" fill="none" stroke="#17191c" stroke-linecap="round" stroke-linejoin="round" stroke-width="1.5"/>
        <path id="Vector-3" data-name="Vector" d="M8,0H0" transform="translate(231.8 353)" fill="none" stroke="#17191c" stroke-linecap="round" stroke-linejoin="round" stroke-width="1.5"/>
      </g>
      <path id="Vector-4" data-name="Vector" d="M0,0H24V24H0Z" transform="translate(224 341)" fill="none" opacity="0"/>
    </g>
  </g>
</svg>
