<svg xmlns="http://www.w3.org/2000/svg" width="24" height="24" viewBox="0 0 24 24">
  <g id="vuesax_linear_weight" data-name="vuesax/linear/weight" transform="translate(-236 -316)">
    <g id="weight">
      <path id="Vector" d="M7,20h4c5,0,7-2,7-7V7c0-5-2-7-7-7H7C2,0,0,2,0,7v6C0,18,2,20,7,20Z" transform="translate(239 318)" fill="none" stroke="#292d32" stroke-linecap="round" stroke-linejoin="round" stroke-width="1.5"/>
      <path id="Vector-2" data-name="Vector" d="M10.5,2A7.905,7.905,0,0,0,0,2l2.18,3.5a4.613,4.613,0,0,1,6.14,0Z" transform="translate(242.75 322.295)" fill="none" stroke="#292d32" stroke-linecap="round" stroke-linejoin="round" stroke-width="1.5"/>
      <path id="Vector-3" data-name="Vector" d="M0,0H24V24H0Z" transform="translate(236 316)" fill="none" opacity="0"/>
    </g>
  </g>
</svg>
