<svg xmlns="http://www.w3.org/2000/svg" width="24" height="24" viewBox="0 0 24 24">
  <g id="vuesax_linear_battery-empty" data-name="vuesax/linear/battery-empty" transform="translate(-172 -188)">
    <g id="battery-empty">
      <path id="Vector" d="M11,14H5c-4,0-5-1-5-5V5C0,1,1,0,5,0h6c4,0,5,1,5,5V9C16,13,15,14,11,14Z" transform="translate(174 193)" fill="none" stroke="#292d32" stroke-linecap="round" stroke-linejoin="round" stroke-width="1.5"/>
      <path id="Vector-2" data-name="Vector" d="M0,0C1.5,0,1.5.5,1.5,1.5v2C1.5,4.5,1.5,5,0,5" transform="translate(192.5 197.5)" fill="none" stroke="#292d32" stroke-linecap="round" stroke-linejoin="round" stroke-width="1.5"/>
      <path id="Vector-3" data-name="Vector" d="M0,0H24V24H0Z" transform="translate(172 188)" fill="none" opacity="0"/>
    </g>
  </g>
</svg>
