<svg xmlns="http://www.w3.org/2000/svg" width="24" height="24" viewBox="0 0 24 24">
  <g id="vuesax_linear_stellar-_xlm_" data-name="vuesax/linear/stellar-(xlm)" transform="translate(-608 -277)">
    <g id="stellar-_xlm_" data-name="stellar-(xlm)">
      <path id="BG_1" data-name="BG 1" d="M0,0H24V24H0Z" transform="translate(608 277)" fill="none"/>
      <g id="Group">
        <path id="Vector" d="M12.6,1.2A8.308,8.308,0,0,0,8.2,0,8.173,8.173,0,0,0,0,8.2a7.8,7.8,0,0,0,.3,2.2" transform="translate(611.8 280.8)" fill="none" stroke="#17191c" stroke-linecap="round" stroke-linejoin="round" stroke-width="1.5"/>
        <path id="Vector-2" data-name="Vector" d="M0,9.3a8.392,8.392,0,0,0,4.4,1.3,8.173,8.173,0,0,0,8.2-8.2A9.863,9.863,0,0,0,12.3,0" transform="translate(615.6 286.7)" fill="none" stroke="#17191c" stroke-linecap="round" stroke-linejoin="round" stroke-width="1.5"/>
        <path id="Vector-3" data-name="Vector" d="M0,11,20,0" transform="translate(610 282)" fill="none" stroke="#17191c" stroke-linecap="round" stroke-linejoin="round" stroke-width="1.5"/>
        <path id="Vector-4" data-name="Vector" d="M20,0,0,11" transform="translate(610 285.5)" fill="none" stroke="#17191c" stroke-linecap="round" stroke-linejoin="round" stroke-width="1.5"/>
      </g>
      <path id="Vector-5" data-name="Vector" d="M0,0H24V24H0Z" transform="translate(608 277)" fill="none" opacity="0"/>
    </g>
  </g>
</svg>
