<svg xmlns="http://www.w3.org/2000/svg" width="24" height="24" viewBox="0 0 24 24">
  <g id="vuesax_linear_paypal" data-name="vuesax/linear/paypal" transform="translate(-418 -533)">
    <g id="paypal">
      <path id="BG_1" data-name="BG 1" d="M0,0H24V24H0Z" transform="translate(418 533)" fill="none" opacity="0.58"/>
      <path id="Vector" d="M14.813,5v.5a5.829,5.829,0,0,1-1.7,3.7,6.043,6.043,0,0,1-4.3,1.8h-3.1a1.063,1.063,0,0,0-1,.9l-.8,5.3a.969.969,0,0,1-.7.8h-2.2a1.009,1.009,0,0,1-1-1.2l2.4-14.3A3,3,0,0,1,5.313,0h4.5A4.951,4.951,0,0,1,14.813,5Z" transform="translate(422.187 535)" fill="none" stroke="#17191c" stroke-width="1.5"/>
      <path id="Vector-2" data-name="Vector" d="M13.813,3.5a4.909,4.909,0,0,1-1.5,3.5,4.909,4.909,0,0,1-3.5,1.5h-2.1a.974.974,0,0,0-1,.8l-.7,4.3a.974.974,0,0,1-1,.8h-3a1.055,1.055,0,0,1-1-1.2l.2-.7a.849.849,0,0,0,.7-.8l.8-5.3a1.063,1.063,0,0,1,1-.9h3.1a5.644,5.644,0,0,0,4.2-1.8,5.8,5.8,0,0,0,1.7-3.7A3.924,3.924,0,0,1,13.813,3.5Z" transform="translate(425.187 540.5)" fill="none" stroke="#17191c" stroke-width="1.5"/>
      <path id="Vector-3" data-name="Vector" d="M0,0H24V24H0Z" transform="translate(418 533)" fill="none" opacity="0"/>
    </g>
  </g>
</svg>
