<svg xmlns="http://www.w3.org/2000/svg" width="24" height="24" viewBox="0 0 24 24">
  <g id="vuesax_linear_cloud-cross" data-name="vuesax/linear/cloud-cross" transform="translate(-428 -188)">
    <g id="cloud-cross">
      <path id="Vector" d="M11.477,16.042a5.294,5.294,0,0,0,.83-10.53C10.767-3.828-2.7-.288.487,8.6" transform="translate(433.133 191.958)" fill="none" stroke="#292d32" stroke-linecap="round" stroke-linejoin="round" stroke-width="1.5"/>
      <path id="Vector-2" data-name="Vector" d="M5.2.4A3.644,3.644,0,0,0,3.491,0a3.727,3.727,0,0,0,0,7.44" transform="translate(430.079 200.57)" fill="none" stroke="#292d32" stroke-linecap="round" stroke-linejoin="round" stroke-width="1.5"/>
      <path id="Vector-3" data-name="Vector" d="M0,.41A3.839,3.839,0,0,1,1.66,0" transform="translate(443.82 197.48)" fill="none" stroke="#292d32" stroke-linecap="round" stroke-linejoin="round" stroke-width="1.5"/>
      <path id="Vector-4" data-name="Vector" d="M2.83,0,0,2.82" transform="translate(437.56 206.59)" fill="none" stroke="#292d32" stroke-linecap="round" stroke-linejoin="round" stroke-width="1.5"/>
      <path id="Vector-5" data-name="Vector" d="M2.83,2.82,0,0" transform="translate(437.56 206.59)" fill="none" stroke="#292d32" stroke-linecap="round" stroke-linejoin="round" stroke-width="1.5"/>
      <path id="Vector-6" data-name="Vector" d="M0,0H24V24H0Z" transform="translate(452 212) rotate(180)" fill="none" opacity="0"/>
    </g>
  </g>
</svg>
