<svg xmlns="http://www.w3.org/2000/svg" width="24" height="24" viewBox="0 0 24 24">
  <g id="vuesax_linear_heart-edit" data-name="vuesax/linear/heart-edit" transform="translate(-620 -188)">
    <g id="heart-edit">
      <g id="Group">
        <path id="Vector" d="M19.49,8.9A10.983,10.983,0,0,0,20,5.59,5.574,5.574,0,0,0,14.44,0,5.515,5.515,0,0,0,10,2.24,5.547,5.547,0,0,0,0,5.59c0,7,6.48,11.13,9.38,12.13a1.93,1.93,0,0,0,.62.09" transform="translate(622 191.1)" fill="none" stroke="#292d32" stroke-linecap="round" stroke-linejoin="round" stroke-width="1.5"/>
      </g>
      <g id="Group-2" data-name="Group">
        <path id="Vector-2" data-name="Vector" d="M4.039.573.5,4.113a1.232,1.232,0,0,0-.3.59l-.19,1.35a.635.635,0,0,0,.76.76l1.35-.19a1.189,1.189,0,0,0,.59-.3l3.54-3.54a1.365,1.365,0,0,0,0-2.22A1.36,1.36,0,0,0,4.039.573Z" transform="translate(635.171 203.167)" fill="none" stroke="#292d32" stroke-linecap="round" stroke-linejoin="round" stroke-width="1.5"/>
        <path id="Vector-3" data-name="Vector" d="M0,0A3.185,3.185,0,0,0,2.22,2.22" transform="translate(638.7 204.25)" fill="none" stroke="#292d32" stroke-linecap="round" stroke-linejoin="round" stroke-width="1.5"/>
      </g>
      <path id="Vector-4" data-name="Vector" d="M0,0H24V24H0Z" transform="translate(644 212) rotate(180)" fill="none" opacity="0"/>
    </g>
  </g>
</svg>
