<svg xmlns="http://www.w3.org/2000/svg" width="24" height="24" viewBox="0 0 24 24">
  <g id="vuesax_linear_folder-2" data-name="vuesax/linear/folder-2" transform="translate(-428 -188)">
    <g id="folder-2">
      <path id="Vector" d="M20,9v6c0,4-1,5-5,5H5c-4,0-5-1-5-5V5C0,1,1,0,5,0H6.5A2.362,2.362,0,0,1,8.9,1.2l1.5,2A1.585,1.585,0,0,0,12,4h3C19,4,20,5,20,9Z" transform="translate(430 190)" fill="none" stroke="#292d32" stroke-width="1.5"/>
      <path id="Vector-2" data-name="Vector" d="M0,0H9a2.652,2.652,0,0,1,3,3V4.38" transform="translate(436 190)" fill="none" stroke="#292d32" stroke-linecap="round" stroke-linejoin="round" stroke-width="1.5"/>
      <path id="Vector-3" data-name="Vector" d="M0,0H24V24H0Z" transform="translate(452 212) rotate(180)" fill="none" opacity="0"/>
    </g>
  </g>
</svg>
