<svg xmlns="http://www.w3.org/2000/svg" width="24" height="24" viewBox="0 0 24 24">
  <g id="vuesax_linear_spotify" data-name="vuesax/linear/spotify" transform="translate(-290 -533)">
    <g id="spotify">
      <path id="BG_1" data-name="BG 1" d="M0,0H24V24H0Z" transform="translate(290 533)" fill="none" opacity="0.58"/>
      <path id="Vector" d="M20,10A10,10,0,1,1,10,0,10,10,0,0,1,20,10Z" transform="translate(292 535)" fill="none" stroke="#17191c" stroke-linecap="round" stroke-linejoin="round" stroke-width="1.5"/>
      <path id="Vector-2" data-name="Vector" d="M0,.784a11.769,11.769,0,0,1,10.9,1.3" transform="translate(296.6 541.516)" fill="none" stroke="#17191c" stroke-linecap="round" stroke-linejoin="round" stroke-width="1.5"/>
      <path id="Vector-3" data-name="Vector" d="M0,.571a8.452,8.452,0,0,1,8,1" transform="translate(297.9 544.829)" fill="none" stroke="#17191c" stroke-linecap="round" stroke-linejoin="round" stroke-width="1.5"/>
      <path id="Vector-4" data-name="Vector" d="M0,.446a6.429,6.429,0,0,1,6,.7" transform="translate(298.8 547.953)" fill="none" stroke="#17191c" stroke-linecap="round" stroke-linejoin="round" stroke-width="1.5"/>
      <path id="Vector-5" data-name="Vector" d="M0,0H24V24H0Z" transform="translate(290 533)" fill="none" opacity="0"/>
    </g>
  </g>
</svg>
