<svg xmlns="http://www.w3.org/2000/svg" width="24" height="24" viewBox="0 0 24 24">
  <g id="vuesax_linear_the-graph-_grt_" data-name="vuesax/linear/the-graph-(grt)" transform="translate(-288 -277)">
    <g id="the-graph-_grt_" data-name="the-graph-(grt)">
      <path id="BG_1" data-name="BG 1" d="M0,0H24V24H0Z" transform="translate(288 277)" fill="none"/>
      <path id="Vector" d="M6.8,3.4A3.4,3.4,0,1,1,3.4,0,3.4,3.4,0,0,1,6.8,3.4Z" transform="translate(295.9 284.2)" fill="none" stroke="#17191c" stroke-width="1.5"/>
      <path id="Vector-2" data-name="Vector" d="M3,0,0,3" transform="translate(300.1 291.8)" fill="none" stroke="#17191c" stroke-linecap="round" stroke-linejoin="round" stroke-width="1.5"/>
      <path id="Vector-3" data-name="Vector" d="M20,10A10,10,0,1,1,10,0,10,10,0,0,1,20,10Z" transform="translate(290 279)" fill="none" stroke="#17191c" stroke-linecap="round" stroke-linejoin="round" stroke-width="1.5"/>
      <path id="Vector_1" data-name="Vector 1" d="M0,0H0" transform="translate(304.5 284.313) rotate(-90)" fill="none" stroke="#17191c" stroke-linecap="round" stroke-linejoin="round" stroke-width="2"/>
      <path id="Vector-4" data-name="Vector" d="M0,0H24V24H0Z" transform="translate(288 277)" fill="none" opacity="0"/>
    </g>
  </g>
</svg>
