<svg xmlns="http://www.w3.org/2000/svg" width="24" height="24" viewBox="0 0 24 24">
  <g id="vuesax_linear_milk" data-name="vuesax/linear/milk" transform="translate(-428 -636)">
    <g id="milk">
      <path id="Vector" d="M12,1.02v4a3.009,3.009,0,0,1-3,3H3a3.009,3.009,0,0,1-3-3V0L3.89.02A4.711,4.711,0,0,1,6,.52a4.721,4.721,0,0,0,2.12.5Z" transform="translate(434 649.98)" fill="none" stroke="#292d32" stroke-linecap="round" stroke-linejoin="round" stroke-width="1.5"/>
      <path id="Vector-2" data-name="Vector" d="M12,5.83V10H8.12A4.721,4.721,0,0,1,6,9.5,4.711,4.711,0,0,0,3.89,9L0,8.98V5.83A2.289,2.289,0,0,1,.59,4.41L2.71,2.29A1.009,1.009,0,0,0,3,1.59V0H9V1.59a1.009,1.009,0,0,0,.29.7l2.12,2.12A2.289,2.289,0,0,1,12,5.83Z" transform="translate(434 641)" fill="none" stroke="#292d32" stroke-linecap="round" stroke-linejoin="round" stroke-width="1.5"/>
      <path id="Vector-3" data-name="Vector" d="M0,1V0" transform="translate(446 651)" fill="none" stroke="#292d32" stroke-linecap="round" stroke-linejoin="round" stroke-width="1.5"/>
      <path id="Vector-4" data-name="Vector" d="M0,1V0" transform="translate(434 649.98)" fill="none" stroke="#292d32" stroke-linecap="round" stroke-linejoin="round" stroke-width="1.5"/>
      <path id="Vector-5" data-name="Vector" d="M6.5,3h-5a1.5,1.5,0,0,1,0-3h5a1.5,1.5,0,0,1,0,3Z" transform="translate(436 638)" fill="none" stroke="#292d32" stroke-linecap="round" stroke-linejoin="round" stroke-width="1.5"/>
      <path id="Vector-6" data-name="Vector" d="M0,0H24V24H0Z" transform="translate(428 636)" fill="none" opacity="0"/>
    </g>
  </g>
</svg>
