<svg xmlns="http://www.w3.org/2000/svg" width="24" height="24" viewBox="0 0 24 24">
  <g id="vuesax_linear_send-sqaure-2" data-name="vuesax/linear/send-sqaure-2" transform="translate(-172 -444)">
    <g id="send-sqaure-2">
      <path id="Vector" d="M7,20h6c5,0,7-2,7-7V7c0-5-2-7-7-7H7C2,0,0,2,0,7v6C0,18,2,20,7,20Z" transform="translate(174 446)" fill="none" stroke="#292d32" stroke-linecap="round" stroke-linejoin="round" stroke-width="1.5"/>
      <g id="Group">
        <path id="Vector-2" data-name="Vector" d="M0,0H4.24V4.25" transform="translate(182.59 451.68)" fill="none" stroke="#292d32" stroke-linecap="round" stroke-linejoin="round" stroke-width="1.5"/>
        <path id="Vector-3" data-name="Vector" d="M5.66,0,0,5.66" transform="translate(181.17 451.68)" fill="none" stroke="#292d32" stroke-linecap="round" stroke-linejoin="round" stroke-width="1.5"/>
      </g>
      <path id="Vector-4" data-name="Vector" d="M0,0A18.949,18.949,0,0,0,12,0" transform="translate(178 460.51)" fill="none" stroke="#292d32" stroke-linecap="round" stroke-linejoin="round" stroke-width="1.5"/>
      <path id="Vector-5" data-name="Vector" d="M0,0H24V24H0Z" transform="translate(172 444)" fill="none" opacity="0"/>
    </g>
  </g>
</svg>
