<svg xmlns="http://www.w3.org/2000/svg" width="24" height="24" viewBox="0 0 24 24">
  <g id="vuesax_linear_check" data-name="vuesax/linear/check" transform="translate(-108 -252)">
    <g id="check">
      <path id="Vector" d="M8.52,15H5a11.95,11.95,0,0,1-1.66-.09C.71,14.62,0,13.38,0,10V5C0,1.62.71.38,3.34.09A11.95,11.95,0,0,1,5,0H8.46" transform="translate(110.5 256.5)" fill="none" stroke="#292d32" stroke-linecap="round" stroke-linejoin="round" stroke-width="1.5"/>
      <path id="Vector-2" data-name="Vector" d="M0,0H1.48A11.95,11.95,0,0,1,3.14.09C5.77.38,6.48,1.62,6.48,5v5c0,3.38-.71,4.62-3.34,4.91A11.95,11.95,0,0,1,1.48,15H0" transform="translate(123.02 256.5)" fill="none" stroke="#292d32" stroke-linecap="round" stroke-linejoin="round" stroke-width="1.5"/>
      <path id="Vector-3" data-name="Vector" d="M0,0V20" transform="translate(123 254)" fill="none" stroke="#292d32" stroke-linecap="round" stroke-linejoin="round" stroke-width="1.5"/>
      <path id="Vector-4" data-name="Vector" d="M0,0V7" transform="translate(116 260.5)" fill="none" stroke="#292d32" stroke-linecap="round" stroke-linejoin="round" stroke-width="1.5"/>
      <path id="Vector-5" data-name="Vector" d="M0,0H24V24H0Z" transform="translate(132 276) rotate(180)" fill="none" opacity="0"/>
    </g>
  </g>
</svg>
