<svg xmlns="http://www.w3.org/2000/svg" width="24" height="24" viewBox="0 0 24 24">
  <g id="vuesax_linear_apple" data-name="vuesax/linear/apple" transform="translate(-160 -469)">
    <g id="apple">
      <path id="BG_1" data-name="BG 1" d="M0,0H24V24H0Z" transform="translate(160 469)" fill="none" opacity="0.58"/>
      <path id="Vector" d="M11.215,0a4,4,0,0,1-.9,3,3.368,3.368,0,0,1-2.8,1.4,3.763,3.763,0,0,1,.9-2.9A4.574,4.574,0,0,1,11.215,0Zm3.2,17.4a15.452,15.452,0,0,0,1.2-2.2,3.96,3.96,0,0,1-.5-7.2,4.36,4.36,0,0,0-3.5-1.8,6.03,6.03,0,0,0-2.1.4,3.529,3.529,0,0,1-1.4.3,4.707,4.707,0,0,1-1.6-.4,5.847,5.847,0,0,0-1.9-.4,4.541,4.541,0,0,0-3.8,2.3c-1.3,2-1.1,5.9,1,9.1.9,1.2,1.9,2.5,3.2,2.5a4.154,4.154,0,0,0,1.3-.3,4.359,4.359,0,0,1,1.8-.4,3.994,3.994,0,0,1,1.8.4,2.5,2.5,0,0,0,1.3.3C12.615,20,13.615,18.5,14.415,17.4Z" transform="translate(164.185 471)" fill="none" stroke="#17191c" stroke-linecap="round" stroke-linejoin="round" stroke-width="1.5"/>
      <path id="Vector-2" data-name="Vector" d="M0,0H24V24H0Z" transform="translate(160 469)" fill="none" opacity="0"/>
    </g>
  </g>
</svg>
