<svg xmlns="http://www.w3.org/2000/svg" width="24" height="24" viewBox="0 0 24 24">
  <g id="vuesax_linear_path-2" data-name="vuesax/linear/path-2" transform="translate(-554 -254)">
    <g id="path-2" transform="translate(554 254)">
      <path id="Vector" d="M2.411,5.65H6.7a2.153,2.153,0,0,0,2.37-2.57L8.381,0H.741L.051,3.08A2.219,2.219,0,0,0,2.411,5.65Z" transform="translate(7.459 16.35)" fill="none" stroke="#292d32" stroke-linecap="round" stroke-linejoin="round" stroke-width="1.5"/>
      <path id="Vector-2" data-name="Vector" d="M11.919,14.355l2.94-2.61c1.64-1.46,1.71-2.48.41-4.13l-5.19-6.58a2.421,2.421,0,0,0-3.97,0L.929,7.615c-1.3,1.65-1.3,2.72.41,4.13l2.94,2.61" transform="translate(3.911 1.995)" fill="none" stroke="#292d32" stroke-linecap="round" stroke-linejoin="round" stroke-width="1.5"/>
      <path id="Vector-3" data-name="Vector" d="M0,0V4.3" transform="translate(12.01 2.67)" fill="none" stroke="#292d32" stroke-linecap="round" stroke-linejoin="round" stroke-width="1.5"/>
      <path id="Vector-4" data-name="Vector" d="M0,0H24V24H0Z" fill="none" opacity="0"/>
    </g>
  </g>
</svg>
