<svg xmlns="http://www.w3.org/2000/svg" width="24" height="24" viewBox="0 0 24 24">
  <g id="vuesax_linear_binance-coin-_bnb_" data-name="vuesax/linear/binance-coin-(bnb)" transform="translate(-224 -213)">
    <g id="binance-coin-_bnb_" data-name="binance-coin-(bnb)">
      <path id="BG_1" data-name="BG 1" d="M0,0H24V24H0Z" transform="translate(224 213)" fill="none"/>
      <path id="Vector" d="M6,0,0,6,2,8,6,4l4,4,2-2Z" transform="translate(230 215)" fill="none" stroke="#17191c" stroke-linecap="round" stroke-linejoin="round" stroke-width="1.5"/>
      <path id="Vector-2" data-name="Vector" d="M6,8,0,2,2,0,6,4l4-4,2,2Z" transform="translate(230 227)" fill="none" stroke="#17191c" stroke-linecap="round" stroke-linejoin="round" stroke-width="1.5"/>
      <path id="Vector-3" data-name="Vector" d="M0,0H3.2V3.2H0Z" transform="translate(241.522 224.965) rotate(-45)" fill="none" stroke="#17191c" stroke-linecap="round" stroke-linejoin="round" stroke-width="1.5"/>
      <path id="Vector-4" data-name="Vector" d="M0,0H3.2V3.2H0Z" transform="translate(226.023 224.965) rotate(-45)" fill="none" stroke="#17191c" stroke-linecap="round" stroke-linejoin="round" stroke-width="1.5"/>
      <path id="Vector-5" data-name="Vector" d="M0,0H3.5V3.5H0Z" transform="translate(233.454 225) rotate(-45)" fill="none" stroke="#17191c" stroke-linecap="round" stroke-linejoin="round" stroke-width="1.5"/>
      <path id="Vector-6" data-name="Vector" d="M0,0H24V24H0Z" transform="translate(224 213)" fill="none" opacity="0"/>
    </g>
  </g>
</svg>
