<svg xmlns="http://www.w3.org/2000/svg" width="24" height="24" viewBox="0 0 24 24">
  <g id="vuesax_linear_convertshape" data-name="vuesax/linear/convertshape" transform="translate(-556 -380)">
    <g id="convertshape">
      <path id="Vector" d="M9,3.15v3.7C9,9.1,8.1,10,5.85,10H3.15C.9,10,0,9.1,0,6.85V3.15C0,.9.9,0,3.15,0h2.7C8.1,0,9,.9,9,3.15Z" transform="translate(569 382)" fill="none" stroke="#292d32" stroke-linecap="round" stroke-linejoin="round" stroke-width="1.5"/>
      <path id="Vector-2" data-name="Vector" d="M9,3.15v3.7C9,9.1,8.1,10,5.85,10H3.15C.9,10,0,9.1,0,6.85V3.15C0,.9.9,0,3.15,0h2.7C8.1,0,9,.9,9,3.15Z" transform="translate(558 392)" fill="none" stroke="#292d32" stroke-linecap="round" stroke-linejoin="round" stroke-width="1.5"/>
      <path id="Vector-3" data-name="Vector" d="M7,0A7,7,0,0,1,0,7L1.05,5.25" transform="translate(571 395)" fill="none" stroke="#292d32" stroke-linecap="round" stroke-linejoin="round" stroke-width="1.5"/>
      <path id="Vector-4" data-name="Vector" d="M0,7A7,7,0,0,1,7,0L5.95,1.75" transform="translate(558 382)" fill="none" stroke="#292d32" stroke-linecap="round" stroke-linejoin="round" stroke-width="1.5"/>
      <path id="Vector-5" data-name="Vector" d="M0,0H24V24H0Z" transform="translate(556 380)" fill="none" opacity="0"/>
    </g>
  </g>
</svg>
