<svg xmlns="http://www.w3.org/2000/svg" width="24" height="24" viewBox="0 0 24 24">
  <g id="vuesax_linear_blogger" data-name="vuesax/linear/blogger" transform="translate(-482 -533)">
    <g id="blogger">
      <path id="BG_1" data-name="BG 1" d="M0,0H24V24H0Z" transform="translate(482 533)" fill="none" opacity="0.58"/>
      <path id="Vector" d="M0,3V9a2.652,2.652,0,0,0,3,3H9a2.652,2.652,0,0,0,3-3V6a.945.945,0,0,0-1-1,.945.945,0,0,1-1-1V3A2.652,2.652,0,0,0,7,0H3A2.652,2.652,0,0,0,0,3Z" transform="translate(488 539)" fill="none" stroke="#17191c" stroke-width="1.5"/>
      <path id="Vector-2" data-name="Vector" d="M0,0H2" transform="translate(492 543)" fill="none" stroke="#17191c" stroke-linecap="round" stroke-linejoin="round" stroke-width="1.5"/>
      <path id="Vector-3" data-name="Vector" d="M0,0H4" transform="translate(492 547)" fill="none" stroke="#17191c" stroke-linecap="round" stroke-linejoin="round" stroke-width="1.5"/>
      <path id="Vector-4" data-name="Vector" d="M13,20H7c-5,0-7-2-7-7V7C0,2,2,0,7,0h6c5,0,7,2,7,7v6C20,18,18,20,13,20Z" transform="translate(484 535)" fill="none" stroke="#17191c" stroke-linecap="round" stroke-linejoin="round" stroke-width="1.5"/>
      <path id="Vector-5" data-name="Vector" d="M0,0H24V24H0Z" transform="translate(482 533)" fill="none" opacity="0"/>
    </g>
  </g>
</svg>
