<svg xmlns="http://www.w3.org/2000/svg" width="24" height="24" viewBox="0 0 24 24">
  <g id="vuesax_linear_speedometer" data-name="vuesax/linear/speedometer" transform="translate(-492 -572)">
    <g id="speedometer">
      <path id="Vector" d="M17.14,17a9.995,9.995,0,1,0-14.3-.01" transform="translate(494 574.5)" fill="none" stroke="#292d32" stroke-linecap="round" stroke-linejoin="round" stroke-width="1.5"/>
      <path id="Vector-2" data-name="Vector" d="M6.76,3.38A3.38,3.38,0,1,1,3.38,0,3.38,3.38,0,0,1,6.76,3.38Z" transform="translate(500.62 586.74)" fill="none" stroke="#292d32" stroke-linecap="round" stroke-linejoin="round" stroke-width="1.5"/>
      <path id="Vector-3" data-name="Vector" d="M.75,3H1.5A1.5,1.5,0,0,0,3,1.5,1.511,1.511,0,0,0,1.5,0,1.5,1.5,0,0,0,0,1.5v.75A.755.755,0,0,0,.75,3Z" transform="translate(506.5 581)" fill="none" stroke="#292d32" stroke-linecap="round" stroke-linejoin="round" stroke-width="1.5"/>
      <path id="Vector-4" data-name="Vector" d="M0,0H24V24H0Z" transform="translate(492 572)" fill="none" opacity="0"/>
    </g>
  </g>
</svg>
