<svg xmlns="http://www.w3.org/2000/svg" width="24" height="24" viewBox="0 0 24 24">
  <g id="vuesax_linear_message-circle" data-name="vuesax/linear/message-circle" transform="translate(-620 -314)">
    <g id="message-circle">
      <path id="Vector" d="M10.5,3.16V5.79a3.908,3.908,0,0,1-.03.49c-.15,1.77-1.2,2.65-3.12,2.65H7.09a.54.54,0,0,0-.42.21l-.79,1.05a.739.739,0,0,1-1.26,0L3.83,9.14a.631.631,0,0,0-.42-.21H3.15C1.05,8.93,0,8.41,0,5.78V3.15C0,1.23.89.18,2.65.03A3.908,3.908,0,0,1,3.14,0h4.2Q10.5.03,10.5,3.16Z" transform="translate(626.75 321.02)" fill="none" stroke="#292d32" stroke-linecap="round" stroke-linejoin="round" stroke-width="1.5"/>
      <path id="Vector-2" data-name="Vector" d="M20,10A10,10,0,1,1,10,0,10,10,0,0,1,20,10Z" transform="translate(622 316)" fill="none" stroke="#292d32" stroke-linecap="round" stroke-linejoin="round" stroke-width="1.5"/>
      <path id="Vector-3" data-name="Vector" d="M0,0H24V24H0Z" transform="translate(620 314)" fill="none" opacity="0"/>
    </g>
  </g>
</svg>
