<svg xmlns="http://www.w3.org/2000/svg" width="24" height="24" viewBox="0 0 24 24">
  <g id="vuesax_linear_wanchain-_wan_" data-name="vuesax/linear/wanchain-(wan)" transform="translate(-352 -405)">
    <g id="wanchain-_wan_" data-name="wanchain-(wan)">
      <path id="BG_1" data-name="BG 1" d="M0,0H24V24H0Z" transform="translate(352 405)" fill="none" opacity="0.58"/>
      <path id="Vector" d="M14.575,0h-6.8a.547.547,0,0,0-.5.8l3.1,5.2h-6.2c-.2,0-.4.1-.4.2l-3.7,5.5a.638.638,0,0,0,0,.6l3.4,5.1c.2.3.7.3.8,0l2.5-4.2a.468.468,0,0,1,.8,0l3.1,4.7a.52.52,0,0,0,.4.2h6.5a.52.52,0,0,0,.4-.2l3.7-5.5a.446.446,0,0,0,0-.5L14.975.2C14.975.1,14.775,0,14.575,0Zm-7.2,12,3.2-5.6,2.8,4.8a.523.523,0,0,1-.4.8Z" transform="translate(353.125 408)" fill="none" stroke="#17191c" stroke-linecap="round" stroke-width="1.5"/>
      <path id="Vector-2" data-name="Vector" d="M0,0H24V24H0Z" transform="translate(352 405)" fill="none" opacity="0"/>
    </g>
  </g>
</svg>
