<svg xmlns="http://www.w3.org/2000/svg" width="24" height="24" viewBox="0 0 24 24">
  <g id="vuesax_linear_video-remove" data-name="vuesax/linear/video-remove" transform="translate(-618 -578)">
    <g id="video-remove">
      <path id="Vector" d="M20,7v6c0,.23,0,.45-.02.67a1.151,1.151,0,0,0-.14-.17A4.408,4.408,0,0,0,16.5,12a4.492,4.492,0,0,0-3.85,6.82,4.2,4.2,0,0,0,.86,1.02c.05.05.1.09.16.14-.21.02-.44.02-.67.02H7c-5,0-7-2-7-7V7C0,2,2,0,7,0h6C18,0,20,2,20,7Z" transform="translate(620 580)" fill="none" stroke="#292d32" stroke-linecap="round" stroke-linejoin="round" stroke-width="1.5"/>
      <path id="Vector-2" data-name="Vector" d="M0,0H18.96" transform="translate(620.52 585.11)" fill="none" stroke="#292d32" stroke-linecap="round" stroke-linejoin="round" stroke-width="1.5"/>
      <g id="Group">
        <path id="Vector-3" data-name="Vector" d="M0,0V4.86" transform="translate(626.52 580.11)" fill="none" stroke="#292d32" stroke-linecap="round" stroke-linejoin="round" stroke-width="1.5"/>
        <path id="Vector-4" data-name="Vector" d="M0,0V4.41" transform="translate(633.48 580.11)" fill="none" stroke="#292d32" stroke-linecap="round" stroke-linejoin="round" stroke-width="1.5"/>
      </g>
      <g id="Group-2" data-name="Group">
        <path id="Vector-5" data-name="Vector" d="M9,4.5a4.083,4.083,0,0,1-.13,1.05,4.717,4.717,0,0,1-.52,1.27A4.487,4.487,0,0,1,4.5,9,4.349,4.349,0,0,1,1.68,7.98H1.67c-.06-.05-.11-.09-.16-.14A4.2,4.2,0,0,1,.65,6.82,4.491,4.491,0,0,1,4.5,0,4.408,4.408,0,0,1,7.84,1.5a1.151,1.151,0,0,1,.14.17A4.417,4.417,0,0,1,9,4.5Z" transform="translate(632 592)" fill="none" stroke="#292d32" stroke-linecap="round" stroke-linejoin="round" stroke-width="1.5"/>
        <g id="Group-3" data-name="Group">
          <path id="Vector-6" data-name="Vector" d="M2.38,2.38,0,0" transform="translate(635.32 595.3)" fill="none" stroke="#292d32" stroke-linecap="round" stroke-linejoin="round" stroke-width="1.5"/>
          <path id="Vector-7" data-name="Vector" d="M2.38,0,0,2.38" transform="translate(635.3 595.32)" fill="none" stroke="#292d32" stroke-linecap="round" stroke-linejoin="round" stroke-width="1.5"/>
        </g>
      </g>
      <path id="Vector-8" data-name="Vector" d="M0,0H24V24H0Z" transform="translate(618 578)" fill="none" opacity="0"/>
    </g>
  </g>
</svg>
