<svg xmlns="http://www.w3.org/2000/svg" width="24" height="24" viewBox="0 0 24 24">
  <g id="vuesax_linear_photoshop" data-name="vuesax/linear/photoshop" transform="translate(-162 -533)">
    <g id="photoshop">
      <path id="BG_1" data-name="BG 1" d="M0,0H24V24H0Z" transform="translate(162 533)" fill="none" opacity="0.58"/>
      <path id="Vector" d="M13,20H7c-5,0-7-2-7-7V7C0,2,2,0,7,0h6c5,0,7,2,7,7v6C20,18,18,20,13,20Z" transform="translate(164 535)" fill="none" stroke="#17191c" stroke-linecap="round" stroke-linejoin="round" stroke-width="1.5"/>
      <path id="Vector-2" data-name="Vector" d="M0,8V0H2A2,2,0,0,1,2,4H0" transform="translate(169.5 541)" fill="none" stroke="#17191c" stroke-linecap="round" stroke-linejoin="round" stroke-width="1.5"/>
      <path id="Vector-3" data-name="Vector" d="M2.5,0H1.2A1.216,1.216,0,0,0,0,1.2,1.216,1.216,0,0,0,1.2,2.4a1.2,1.2,0,0,1,0,2.4H0" transform="translate(176 544)" fill="none" stroke="#17191c" stroke-linecap="round" stroke-linejoin="round" stroke-width="1.5"/>
      <path id="Vector-4" data-name="Vector" d="M0,0H24V24H0Z" transform="translate(162 533)" fill="none" opacity="0"/>
    </g>
  </g>
</svg>
