<svg xmlns="http://www.w3.org/2000/svg" width="24" height="24" viewBox="0 0 24 24">
  <g id="vuesax_linear_flash" data-name="vuesax/linear/flash" transform="translate(-108 -252)">
    <g id="flash">
      <path id="Vector" d="M1.156,10.914h3.09v7.2a1.154,1.154,0,0,0,2.02.76l7.57-8.6a1.155,1.155,0,0,0-.87-1.92H9.876v-7.2a1.154,1.154,0,0,0-2.02-.76l-7.57,8.6A1.159,1.159,0,0,0,1.156,10.914Z" transform="translate(116.164 254.366)" fill="none" stroke="#292d32" stroke-linecap="round" stroke-linejoin="round" stroke-width="1.5"/>
      <path id="Vector-2" data-name="Vector" d="M7,0H0" transform="translate(109.5 256)" fill="none" stroke="#292d32" stroke-linecap="round" stroke-linejoin="round" stroke-width="1.5"/>
      <path id="Vector-3" data-name="Vector" d="M6,0H0" transform="translate(109.5 272)" fill="none" stroke="#292d32" stroke-linecap="round" stroke-linejoin="round" stroke-width="1.5"/>
      <path id="Vector-4" data-name="Vector" d="M3,0H0" transform="translate(109.5 264)" fill="none" stroke="#292d32" stroke-linecap="round" stroke-linejoin="round" stroke-width="1.5"/>
      <path id="Vector-5" data-name="Vector" d="M0,0H24V24H0Z" transform="translate(108 252)" fill="none" opacity="0"/>
    </g>
  </g>
</svg>
