<svg xmlns="http://www.w3.org/2000/svg" width="24" height="24" viewBox="0 0 24 24">
  <g id="vuesax_linear_hierarchy-square-2" data-name="vuesax/linear/hierarchy-square-2" transform="translate(-492 -188)">
    <g id="hierarchy-square-2">
      <path id="Vector" d="M0,0V4.2" transform="translate(499.8 198.2)" fill="none" stroke="#292d32" stroke-linecap="round" stroke-linejoin="round" stroke-width="1.5"/>
      <path id="Vector-2" data-name="Vector" d="M3.9,1.95A1.95,1.95,0,1,1,1.95,0,1.95,1.95,0,0,1,3.9,1.95Z" transform="translate(498 194)" fill="none" stroke="#292d32" stroke-linecap="round" stroke-linejoin="round" stroke-width="1.5"/>
      <path id="Vector-3" data-name="Vector" d="M3.6,1.8A1.8,1.8,0,1,1,1.8,0,1.8,1.8,0,0,1,3.6,1.8Z" transform="translate(498 202.4)" fill="none" stroke="#292d32" stroke-linecap="round" stroke-linejoin="round" stroke-width="1.5"/>
      <path id="Vector-4" data-name="Vector" d="M3.6,1.8A1.8,1.8,0,1,1,1.8,0,1.8,1.8,0,0,1,3.6,1.8Z" transform="translate(506.4 202.4)" fill="none" stroke="#292d32" stroke-linecap="round" stroke-linejoin="round" stroke-width="1.5"/>
      <path id="Vector-5" data-name="Vector" d="M0,0A2.425,2.425,0,0,0,2.36,1.82l2.06-.01a3.581,3.581,0,0,1,3.4,2.41" transform="translate(499.88 198.2)" fill="none" stroke="#292d32" stroke-linecap="round" stroke-linejoin="round" stroke-width="1.5"/>
      <path id="Vector-6" data-name="Vector" d="M7,20h6c5,0,7-2,7-7V7c0-5-2-7-7-7H7C2,0,0,2,0,7v6C0,18,2,20,7,20Z" transform="translate(494 190)" fill="none" stroke="#292d32" stroke-linecap="round" stroke-linejoin="round" stroke-width="1.5"/>
      <path id="Vector-7" data-name="Vector" d="M0,0H24V24H0Z" transform="translate(492 188)" fill="none" opacity="0"/>
    </g>
  </g>
</svg>
