<svg xmlns="http://www.w3.org/2000/svg" width="24" height="24" viewBox="0 0 24 24">
  <g id="vuesax_linear_bill" data-name="vuesax/linear/bill" transform="translate(-556 -316)">
    <g id="bill">
      <path id="Vector" d="M0,0V11.97a3.121,3.121,0,0,0,1.25,2.5l5.21,3.9a3.135,3.135,0,0,0,3.75,0l5.21-3.9a3.121,3.121,0,0,0,1.25-2.5V0Z" transform="translate(559.67 318.5)" fill="none" stroke="#292d32" stroke-width="1.5"/>
      <path id="Vector-2" data-name="Vector" d="M0,0H20" transform="translate(558 318.5)" fill="none" stroke="#292d32" stroke-linecap="round" stroke-width="1.5"/>
      <path id="Vector-3" data-name="Vector" d="M0,0H8" transform="translate(564 324)" fill="none" stroke="#292d32" stroke-linecap="round" stroke-linejoin="round" stroke-width="1.5"/>
      <path id="Vector-4" data-name="Vector" d="M0,0H8" transform="translate(564 329)" fill="none" stroke="#292d32" stroke-linecap="round" stroke-linejoin="round" stroke-width="1.5"/>
      <path id="Vector-5" data-name="Vector" d="M0,0H24V24H0Z" transform="translate(556 316)" fill="none" opacity="0"/>
      <path id="Vector-6" data-name="Vector" d="M0,0H24V24H0Z" transform="translate(556 316)" fill="none" opacity="0"/>
    </g>
  </g>
</svg>
