<svg xmlns="http://www.w3.org/2000/svg" width="24" height="24" viewBox="0 0 24 24">
  <g id="vuesax_linear_direct-notification" data-name="vuesax/linear/direct-notification" transform="translate(-492 -186)">
    <g id="direct-notification">
      <path id="Vector" d="M0,.01H3.79A2,2,0,0,1,5.58,1.12l.89,1.79a1.9,1.9,0,0,0,1.79,1.1h3.53A2,2,0,0,0,13.58,2.9l.89-1.79A2,2,0,0,1,16.26,0H20" transform="translate(493.98 198.99)" fill="none" stroke="#292d32" stroke-linecap="round" stroke-linejoin="round" stroke-width="1.5"/>
      <path id="Vector-2" data-name="Vector" d="M6,3A3,3,0,1,1,3,0,3,3,0,0,1,6,3Z" transform="translate(508 188)" fill="none" stroke="#292d32" stroke-linecap="round" stroke-linejoin="round" stroke-width="1.5"/>
      <path id="Vector-3" data-name="Vector" d="M12,0H7C2,0,0,2,0,7v6c0,5,2,7,7,7h6c5,0,7-2,7-7V8" transform="translate(494 188)" fill="none" stroke="#292d32" stroke-linecap="round" stroke-linejoin="round" stroke-width="1.5"/>
      <path id="Vector-4" data-name="Vector" d="M0,0H24V24H0Z" transform="translate(492 186)" fill="none" opacity="0"/>
    </g>
  </g>
</svg>
