<svg xmlns="http://www.w3.org/2000/svg" width="24" height="24" viewBox="0 0 24 24">
  <g id="vuesax_linear_safe-home" data-name="vuesax/linear/safe-home" transform="translate(-172 -764)">
    <g id="safe-home">
      <path id="Vector" d="M8.91,2.368v2.19a5.779,5.779,0,0,1-4.2,5.41,1.1,1.1,0,0,1-.51,0A5.681,5.681,0,0,1,1.25,8,5.506,5.506,0,0,1,0,4.558V2.368a1.214,1.214,0,0,1,.69-1.04L3.47.188a2.655,2.655,0,0,1,1.96,0l1,.41,1.79.73A1.214,1.214,0,0,1,8.91,2.368Z" transform="translate(186.09 777.002)" fill="none" stroke="#292d32" stroke-linecap="round" stroke-linejoin="round" stroke-width="1.5"/>
      <path id="Vector-2" data-name="Vector" d="M18.951,8.636l-.43,2.59-1-.41a2.655,2.655,0,0,0-1.96,0l-2.78,1.14a1.214,1.214,0,0,0-.69,1.04v2.19a5.506,5.506,0,0,0,1.25,3.44H4.181a3.03,3.03,0,0,1-2.89-2.44L.031,8.636a3.221,3.221,0,0,1,1.05-2.77L7.661.606a3.045,3.045,0,0,1,3.66.01l6.58,5.25A3.249,3.249,0,0,1,18.951,8.636Z" transform="translate(173.999 766.374)" fill="none" stroke="#292d32" stroke-linecap="round" stroke-linejoin="round" stroke-width="1.5"/>
      <path id="Vector-3" data-name="Vector" d="M0,0H24V24H0Z" transform="translate(172 764)" fill="none" opacity="0"/>
    </g>
  </g>
</svg>
