<svg xmlns="http://www.w3.org/2000/svg" width="24" height="24" viewBox="0 0 24 24">
  <g id="vuesax_linear_eraser" data-name="vuesax/linear/eraser" transform="translate(-108 -380)">
    <g id="eraser">
      <path id="Vector" d="M0,0H12" transform="translate(117 402)" fill="none" stroke="#292d32" stroke-linecap="round" stroke-linejoin="round" stroke-width="1.5"/>
      <path id="Vector-2" data-name="Vector" d="M.877,15.547l3.51,3.51a3,3,0,0,0,4.24,0l10.43-10.43a3,3,0,0,0,0-4.24L15.548.877a3,3,0,0,0-4.24,0L.877,11.307A3,3,0,0,0,.877,15.547Z" transform="translate(110.032 382.033)" fill="none" stroke="#292d32" stroke-linecap="round" stroke-linejoin="round" stroke-width="1.5"/>
      <path id="Vector-3" data-name="Vector" d="M0,0,7.75,7.75" transform="translate(115.12 389.13)" fill="none" stroke="#292d32" stroke-linecap="round" stroke-linejoin="round" stroke-width="1.5"/>
      <path id="Vector-4" data-name="Vector" d="M0,5.66,5.65,0" transform="translate(111.52 392)" fill="none" stroke="#292d32" stroke-linecap="round" stroke-linejoin="round" stroke-width="1.5"/>
      <path id="Vector-5" data-name="Vector" d="M0,5.66,5.66,0" transform="translate(114.34 394.83)" fill="none" stroke="#292d32" stroke-linecap="round" stroke-linejoin="round" stroke-width="1.5"/>
      <path id="Vector-6" data-name="Vector" d="M0,0H24V24H0Z" transform="translate(108 380)" fill="none" opacity="0"/>
    </g>
  </g>
</svg>
