<svg xmlns="http://www.w3.org/2000/svg" width="24" height="24" viewBox="0 0 24 24">
  <g id="vuesax_linear_bag-timer" data-name="vuesax/linear/bag-timer" transform="translate(-364 -188)">
    <g id="bag-timer">
      <path id="Vector" d="M8,4A4,4,0,1,1,4,0,4,4,0,0,1,8,4Z" transform="translate(372 199)" fill="none" stroke="#292d32" stroke-linecap="round" stroke-linejoin="round" stroke-width="1.5"/>
      <path id="Vector-2" data-name="Vector" d="M1.25,0V.93a.99.99,0,0,1-.49.86L0,2.25" transform="translate(375 201.75)" fill="none" stroke="#292d32" stroke-linecap="round" stroke-linejoin="round" stroke-width="1.5"/>
      <path id="Vector-3" data-name="Vector" d="M5.751,14h6c4.02,0,4.74-1.61,4.95-3.57l.75-6c.27-2.44-.43-4.43-4.7-4.43h-8C.481,0-.219,1.99.051,4.43l.75,6C1.011,12.39,1.731,14,5.751,14Z" transform="translate(367.249 196)" fill="none" stroke="#292d32" stroke-linecap="round" stroke-linejoin="round" stroke-width="1.5"/>
      <path id="Vector-4" data-name="Vector" d="M0,5.662v-.97A4.773,4.773,0,0,1,4.06.022,4.5,4.5,0,0,1,9,4.5v1.38" transform="translate(371.5 190.008)" fill="none" stroke="#292d32" stroke-linecap="round" stroke-linejoin="round" stroke-width="1.5"/>
      <path id="Vector-5" data-name="Vector" d="M0,0H24V24H0Z" transform="translate(364 188)" fill="none" opacity="0"/>
    </g>
  </g>
</svg>
