<svg xmlns="http://www.w3.org/2000/svg" width="24" height="24" viewBox="0 0 24 24">
  <g id="vuesax_linear_radar" data-name="vuesax/linear/radar" transform="translate(-300 -316)">
    <g id="radar">
      <path id="Vector" d="M4,2A2,2,0,1,1,2,0,2,2,0,0,1,4,2Z" transform="translate(310 326)" fill="none" stroke="#292d32" stroke-linecap="round" stroke-linejoin="round" stroke-width="1.5"/>
      <path id="Vector-2" data-name="Vector" d="M0,12A9.926,9.926,0,0,0,2,6,9.926,9.926,0,0,0,0,0" transform="translate(320 322)" fill="none" stroke="#292d32" stroke-linecap="round" stroke-linejoin="round" stroke-width="1.5"/>
      <path id="Vector-3" data-name="Vector" d="M2,0A10,10,0,0,0,2,12" transform="translate(302 322)" fill="none" stroke="#292d32" stroke-linecap="round" stroke-linejoin="round" stroke-width="1.5"/>
      <path id="Vector-4" data-name="Vector" d="M0,7.2A5.99,5.99,0,0,0,1.2,3.6,5.99,5.99,0,0,0,0,0" transform="translate(316.8 324.4)" fill="none" stroke="#292d32" stroke-linecap="round" stroke-linejoin="round" stroke-width="1.5"/>
      <path id="Vector-5" data-name="Vector" d="M1.2,0a6,6,0,0,0,0,7.2" transform="translate(306 324.4)" fill="none" stroke="#292d32" stroke-linecap="round" stroke-linejoin="round" stroke-width="1.5"/>
      <path id="Vector-6" data-name="Vector" d="M0,0H24V24H0Z" transform="translate(300 316)" fill="none" opacity="0"/>
    </g>
  </g>
</svg>
