<svg xmlns="http://www.w3.org/2000/svg" width="24" height="24" viewBox="0 0 24 24">
  <g id="vuesax_linear_magic-star" data-name="vuesax/linear/magic-star" transform="translate(-556 -188)">
    <g id="magic-star">
      <g id="Group">
        <g id="Group-2" data-name="Group">
          <path id="Vector" d="M15.189,2.137l-.07,3.79a2.081,2.081,0,0,0,.74,1.52l2.48,1.88c1.59,1.2,1.33,2.67-.57,3.27l-3.23,1.01a2.084,2.084,0,0,0-1.25,1.31l-.77,2.94c-.61,2.32-2.13,2.55-3.39.51l-1.76-2.85a2.058,2.058,0,0,0-1.68-.88l-3.34.17c-2.39.12-3.07-1.26-1.51-3.08l1.98-2.3a2.081,2.081,0,0,0,.37-1.77l-1.01-3.23c-.59-1.9.47-2.95,2.36-2.33l2.95.97a2.087,2.087,0,0,0,1.67-.26l3.08-2.22C13.9-.613,15.229.087,15.189,2.137Z" transform="translate(558.101 190.003)" fill="none" stroke="#292d32" stroke-linecap="round" stroke-linejoin="round" stroke-width="1.5"/>
        </g>
        <path id="Vector-2" data-name="Vector" d="M3.03,3.03,0,0" transform="translate(574.88 206.97)" fill="none" stroke="#292d32" stroke-linecap="round" stroke-linejoin="round" stroke-width="1.5"/>
      </g>
      <path id="Vector-3" data-name="Vector" d="M0,0H24V24H0Z" transform="translate(556 188)" fill="none" opacity="0"/>
    </g>
  </g>
</svg>
