<svg xmlns="http://www.w3.org/2000/svg" width="24" height="24" viewBox="0 0 24 24">
  <g id="vuesax_linear_document-favorite" data-name="vuesax/linear/document-favorite" transform="translate(-236 -188)">
    <g id="document-favorite">
      <path id="Vector" d="M20,8v5c0,5-2,7-7,7H7c-5,0-7-2-7-7V7C0,2,2,0,7,0h5" transform="translate(238 190)" fill="none" stroke="#292d32" stroke-linecap="round" stroke-linejoin="round" stroke-width="1.5"/>
      <path id="Vector-2" data-name="Vector" d="M8,8H4C1,8,0,7,0,4V0Z" transform="translate(250 190)" fill="none" stroke="#292d32" stroke-linecap="round" stroke-linejoin="round" stroke-width="1.5"/>
      <path id="Vector-3" data-name="Vector" d="M.114,2.725A2.071,2.071,0,0,1,1.244.075,1.484,1.484,0,0,1,2.9.6a1.45,1.45,0,0,1,1.66-.52A2.075,2.075,0,0,1,5.7,2.725a3.909,3.909,0,0,1-2.8,2.48A3.948,3.948,0,0,1,.114,2.725Z" transform="translate(242.506 201.005)" fill="none" stroke="#292d32" stroke-linecap="round" stroke-linejoin="round" stroke-width="1.5"/>
      <path id="Vector-4" data-name="Vector" d="M0,0H24V24H0Z" transform="translate(236 188)" fill="none" opacity="0"/>
    </g>
  </g>
</svg>
