<svg xmlns="http://www.w3.org/2000/svg" width="24" height="24" viewBox="0 0 24 24">
  <g id="vuesax_linear_volume-mute" data-name="vuesax/linear/volume-mute" transform="translate(-748 -188)">
    <g id="volume-mute">
      <path id="Vector" d="M0,5.842v4a2.652,2.652,0,0,0,3,3H4.43a2.1,2.1,0,0,1,1.06.3l2.92,1.83c2.52,1.58,4.59.43,4.59-2.54V3.252c0-2.98-2.07-4.12-4.59-2.54L5.49,2.542a2.1,2.1,0,0,1-1.06.3H3A2.652,2.652,0,0,0,0,5.842Z" transform="translate(753.5 192.158)" fill="none" stroke="#292d32" stroke-width="1.5"/>
      <path id="Vector-2" data-name="Vector" d="M0,0H24V24H0Z" transform="translate(748 188)" fill="none" opacity="0"/>
    </g>
  </g>
</svg>
