<svg xmlns="http://www.w3.org/2000/svg" width="24" height="24" viewBox="0 0 24 24">
  <g id="vuesax_linear_instagram" data-name="vuesax/linear/instagram" transform="translate(-300 -444)">
    <g id="instagram">
      <path id="Vector" d="M7,20h6c5,0,7-2,7-7V7c0-5-2-7-7-7H7C2,0,0,2,0,7v6C0,18,2,20,7,20Z" transform="translate(302 446)" fill="none" stroke="#292d32" stroke-linecap="round" stroke-linejoin="round" stroke-width="1.5"/>
      <path id="Vector-2" data-name="Vector" d="M0,0H24V24H0Z" transform="translate(300 444)" fill="none" opacity="0"/>
      <path id="Vector-3" data-name="Vector" d="M7,3.5A3.5,3.5,0,1,1,3.5,0,3.5,3.5,0,0,1,7,3.5Z" transform="translate(308.5 452.5)" fill="none" stroke="#292d32" stroke-linecap="round" stroke-linejoin="round" stroke-width="1.5"/>
      <path id="Vector-4" data-name="Vector" d="M.636.5H.648" transform="translate(317 450.5)" fill="none" stroke="#292d32" stroke-linecap="round" stroke-linejoin="round" stroke-width="2"/>
    </g>
  </g>
</svg>
