<svg xmlns="http://www.w3.org/2000/svg" width="24" height="24" viewBox="0 0 24 24">
  <g id="vuesax_linear_ocean-protocol-_ocean_" data-name="vuesax/linear/ocean-protocol-(ocean)" transform="translate(-800 -341)">
    <g id="ocean-protocol-_ocean_" data-name="ocean-protocol-(ocean)">
      <path id="BG_1" data-name="BG 1" d="M0,0H24V24H0Z" transform="translate(800 341)" fill="none" opacity="0.58"/>
      <path id="Vector" d="M0,0V.01" transform="translate(812 344.2)" fill="none" stroke="#17191c" stroke-linecap="round" stroke-linejoin="round" stroke-width="3"/>
      <path id="Vector-2" data-name="Vector" d="M0,0V.01" transform="translate(812 348.7)" fill="none" stroke="#17191c" stroke-linecap="round" stroke-linejoin="round" stroke-width="3"/>
      <path id="Vector-3" data-name="Vector" d="M0,0V.01" transform="translate(812 352.7)" fill="none" stroke="#17191c" stroke-linecap="round" stroke-linejoin="round" stroke-width="3"/>
      <path id="Vector-4" data-name="Vector" d="M0,0V.01" transform="translate(812 356.7)" fill="none" stroke="#17191c" stroke-linecap="round" stroke-linejoin="round" stroke-width="2"/>
      <path id="Vector-5" data-name="Vector" d="M0,0V.01" transform="translate(812 360.2)" fill="none" stroke="#17191c" stroke-linecap="round" stroke-linejoin="round" stroke-width="1.5"/>
      <path id="Vector-6" data-name="Vector" d="M0,0V.01" transform="translate(812 363.2)" fill="none" stroke="#17191c" stroke-linecap="round" stroke-linejoin="round" stroke-width="1"/>
      <path id="Vector-7" data-name="Vector" d="M0,0V.01" transform="translate(803.5 348.7)" fill="none" stroke="#17191c" stroke-linecap="round" stroke-linejoin="round" stroke-width="3"/>
      <path id="Vector-8" data-name="Vector" d="M0,0V.01" transform="translate(820.5 348.7)" fill="none" stroke="#17191c" stroke-linecap="round" stroke-linejoin="round" stroke-width="3"/>
      <path id="Vector-9" data-name="Vector" d="M0,0V.01" transform="translate(820.5 352.7)" fill="none" stroke="#17191c" stroke-linecap="round" stroke-linejoin="round" stroke-width="2"/>
      <path id="Vector-10" data-name="Vector" d="M0,0V.01" transform="translate(803.5 352.7)" fill="none" stroke="#17191c" stroke-linecap="round" stroke-linejoin="round" stroke-width="2"/>
      <path id="Vector-11" data-name="Vector" d="M0,0V.01" transform="translate(820.5 355.7)" fill="none" stroke="#17191c" stroke-linecap="round" stroke-linejoin="round" stroke-width="1.5"/>
      <path id="Vector-12" data-name="Vector" d="M0,0V.01" transform="translate(820.5 358.7)" fill="none" stroke="#17191c" stroke-linecap="round" stroke-linejoin="round" stroke-width="1"/>
      <path id="Vector-13" data-name="Vector" d="M0,0V.01" transform="translate(803.5 355.7)" fill="none" stroke="#17191c" stroke-linecap="round" stroke-linejoin="round" stroke-width="1.5"/>
      <path id="Vector-14" data-name="Vector" d="M0,0V.01" transform="translate(803.5 358.7)" fill="none" stroke="#17191c" stroke-linecap="round" stroke-linejoin="round" stroke-width="1"/>
      <path id="Vector-15" data-name="Vector" d="M0,0V.01" transform="translate(807.8 350.7)" fill="none" stroke="#17191c" stroke-linecap="round" stroke-linejoin="round" stroke-width="3"/>
      <path id="Vector-16" data-name="Vector" d="M0,0V.01" transform="translate(807.75 346.5)" fill="none" stroke="#17191c" stroke-linecap="round" stroke-linejoin="round" stroke-width="3"/>
      <path id="Vector-17" data-name="Vector" d="M0,0V.01" transform="translate(816.2 350.7)" fill="none" stroke="#17191c" stroke-linecap="round" stroke-linejoin="round" stroke-width="3"/>
      <path id="Vector-18" data-name="Vector" d="M0,0V.01" transform="translate(816.25 346.5)" fill="none" stroke="#17191c" stroke-linecap="round" stroke-linejoin="round" stroke-width="3"/>
      <path id="Vector-19" data-name="Vector" d="M0,0V.01" transform="translate(807.8 354.7)" fill="none" stroke="#17191c" stroke-linecap="round" stroke-linejoin="round" stroke-width="2"/>
      <path id="Vector-20" data-name="Vector" d="M0,0V.01" transform="translate(807.8 357.7)" fill="none" stroke="#17191c" stroke-linecap="round" stroke-linejoin="round" stroke-width="1.5"/>
      <path id="Vector-21" data-name="Vector" d="M0,0V.01" transform="translate(807.8 360.7)" fill="none" stroke="#17191c" stroke-linecap="round" stroke-linejoin="round" stroke-width="1"/>
      <path id="Vector-22" data-name="Vector" d="M0,0V.01" transform="translate(816.2 354.7)" fill="none" stroke="#17191c" stroke-linecap="round" stroke-linejoin="round" stroke-width="2"/>
      <path id="Vector-23" data-name="Vector" d="M0,0V.01" transform="translate(816.2 357.7)" fill="none" stroke="#17191c" stroke-linecap="round" stroke-linejoin="round" stroke-width="1.5"/>
      <path id="Vector-24" data-name="Vector" d="M0,0V.01" transform="translate(816.2 360.7)" fill="none" stroke="#17191c" stroke-linecap="round" stroke-linejoin="round" stroke-width="1"/>
      <path id="Vector-25" data-name="Vector" d="M0,0H24V24H0Z" transform="translate(800 341)" fill="none" opacity="0"/>
    </g>
  </g>
</svg>
