<svg xmlns="http://www.w3.org/2000/svg" width="24" height="24" viewBox="0 0 24 24">
  <g id="vuesax_linear_quote-up-circle" data-name="vuesax/linear/quote-up-circle" transform="translate(-492 -316)">
    <g id="quote-up-circle">
      <g id="Group">
        <g id="Group-2" data-name="Group">
          <path id="Vector" d="M3.87,3.87H1.19A1.162,1.162,0,0,1,0,2.68V1.19A1.162,1.162,0,0,1,1.19,0H2.68A1.2,1.2,0,0,1,3.87,1.19Z" transform="translate(505.13 323.97)" fill="none" stroke="#292d32" stroke-linecap="round" stroke-linejoin="round" stroke-width="1.5"/>
          <path id="Vector-2" data-name="Vector" d="M2.09,0c0,2.79-.52,3.26-2.09,4.19" transform="translate(506.91 327.84)" fill="none" stroke="#292d32" stroke-linecap="round" stroke-linejoin="round" stroke-width="1.5"/>
        </g>
        <g id="Group-3" data-name="Group">
          <path id="Vector-3" data-name="Vector" d="M3.87,3.87H1.19A1.162,1.162,0,0,1,0,2.68V1.19A1.162,1.162,0,0,1,1.19,0H2.68A1.2,1.2,0,0,1,3.87,1.19Z" transform="translate(498.99 323.97)" fill="none" stroke="#292d32" stroke-linecap="round" stroke-linejoin="round" stroke-width="1.5"/>
          <path id="Vector-4" data-name="Vector" d="M2.09,0c0,2.79-.52,3.26-2.09,4.19" transform="translate(500.77 327.84)" fill="none" stroke="#292d32" stroke-linecap="round" stroke-linejoin="round" stroke-width="1.5"/>
        </g>
      </g>
      <path id="Vector-5" data-name="Vector" d="M20,10A10,10,0,1,1,10,0,10,10,0,0,1,20,10Z" transform="translate(494 318)" fill="none" stroke="#292d32" stroke-linecap="round" stroke-linejoin="round" stroke-width="1.5"/>
      <path id="Vector-6" data-name="Vector" d="M0,0H24V24H0Z" transform="translate(516 340) rotate(180)" fill="none" opacity="0"/>
    </g>
  </g>
</svg>
