<svg xmlns="http://www.w3.org/2000/svg" width="24" height="24" viewBox="0 0 24 24">
  <g id="vuesax_linear_repeat-circle" data-name="vuesax/linear/repeat-circle" transform="translate(-620 -508)">
    <g id="repeat-circle">
      <g id="Group">
        <path id="Vector" d="M0,0H7.4A1.6,1.6,0,0,1,9,1.6V3.37" transform="translate(627.5 516.34)" fill="none" stroke="#292d32" stroke-linecap="round" stroke-linejoin="round" stroke-width="1.5"/>
        <path id="Vector-2" data-name="Vector" d="M1.69,0,0,1.68,1.69,3.37" transform="translate(627.5 514.66)" fill="none" stroke="#292d32" stroke-linecap="round" stroke-linejoin="round" stroke-width="1.5"/>
        <path id="Vector-3" data-name="Vector" d="M9,3.37H1.6A1.6,1.6,0,0,1,0,1.77V0" transform="translate(627.5 520.29)" fill="none" stroke="#292d32" stroke-linecap="round" stroke-linejoin="round" stroke-width="1.5"/>
        <path id="Vector-4" data-name="Vector" d="M0,3.37,1.69,1.69,0,0" transform="translate(634.81 521.97)" fill="none" stroke="#292d32" stroke-linecap="round" stroke-linejoin="round" stroke-width="1.5"/>
      </g>
      <path id="Vector-5" data-name="Vector" d="M20,10A10,10,0,1,1,10,0,10,10,0,0,1,20,10Z" transform="translate(622 510)" fill="none" stroke="#292d32" stroke-linecap="round" stroke-linejoin="round" stroke-width="1.5"/>
      <path id="Vector-6" data-name="Vector" d="M0,0H24V24H0Z" transform="translate(644 532) rotate(180)" fill="none" opacity="0"/>
    </g>
  </g>
</svg>
