<svg xmlns="http://www.w3.org/2000/svg" width="24" height="24" viewBox="0 0 24 24">
  <g id="vuesax_linear_kyber-network-_knc_" data-name="vuesax/linear/kyber-network-(knc)" transform="translate(-928 -341)">
    <g id="kyber-network-_knc_" data-name="kyber-network-(knc)">
      <path id="BG_1" data-name="BG 1" d="M0,0H24V24H0Z" transform="translate(928 341)" fill="none" opacity="0.58"/>
      <path id="Vector" d="M6,.3,1,3.1A2.062,2.062,0,0,0,0,4.8v8.9a1.943,1.943,0,0,0,.8,1.6l5,3.6a1.951,1.951,0,0,0,2.3,0l5-3.6a2.088,2.088,0,0,0,.8-1.6V4.9a1.936,1.936,0,0,0-1-1.7L7.9.3A1.652,1.652,0,0,0,6,.3Z" transform="translate(933 343.3)" fill="none" stroke="#17191c" stroke-linecap="round" stroke-linejoin="round" stroke-width="1.5"/>
      <path id="Vector-2" data-name="Vector" d="M2,0,0,9l1.8,9.2" transform="translate(938 344)" fill="none" stroke="#17191c" stroke-linecap="round" stroke-linejoin="round" stroke-width="1.5"/>
      <path id="Vector-3" data-name="Vector" d="M8.2,9.6,0,4.7,8.5,0" transform="translate(938 348.3)" fill="none" stroke="#17191c" stroke-linecap="round" stroke-linejoin="round" stroke-width="1.5"/>
      <path id="Vector-4" data-name="Vector" d="M0,0H24V24H0Z" transform="translate(928 341)" fill="none" opacity="0"/>
    </g>
  </g>
</svg>
