<svg xmlns="http://www.w3.org/2000/svg" width="24" height="24" viewBox="0 0 24 24">
  <g id="vuesax_linear_nem-_xem_" data-name="vuesax/linear/nem-(xem)" transform="translate(-864 -277)">
    <g id="nem-_xem_" data-name="nem-(xem)">
      <path id="BG_1" data-name="BG 1" d="M0,0H24V24H0Z" transform="translate(864 277)" fill="none"/>
      <path id="Vector" d="M0,2.667s10-6,20,0c0,0,0,11-10,17A19.545,19.545,0,0,1,0,2.667Z" transform="translate(866 279.333)" fill="none" stroke="#17191c" stroke-width="1.5"/>
      <path id="Vector-2" data-name="Vector" d="M0,4.3c3.1,10,9.9,2.9,9.9,2.9C8.9,1.2,14,.1,14,.1l.6-.1" transform="translate(866.1 279.8)" fill="none" stroke="#17191c" stroke-linecap="round" stroke-linejoin="round" stroke-width="1.5"/>
      <path id="Vector-3" data-name="Vector" d="M4.4,8.5S7,3,0,0" transform="translate(876 287)" fill="none" stroke="#17191c" stroke-linecap="round" stroke-linejoin="round" stroke-width="1.5"/>
      <path id="Vector-4" data-name="Vector" d="M0,0H24V24H0Z" transform="translate(864 277)" fill="none" opacity="0"/>
    </g>
  </g>
</svg>
