<svg xmlns="http://www.w3.org/2000/svg" width="24" height="24" viewBox="0 0 24 24">
  <g id="vuesax_linear_civic-_cvc_" data-name="vuesax/linear/civic-(cvc)" transform="translate(-224 -405)">
    <g id="civic-_cvc_" data-name="civic-(cvc)">
      <path id="BG_1" data-name="BG 1" d="M0,0H24V24H0Z" transform="translate(224 405)" fill="none" opacity="0.58"/>
      <path id="Vector" d="M4.5,1.778a2.312,2.312,0,0,1-1,2.6v2a1.216,1.216,0,0,1-1.2,1.2,1.216,1.216,0,0,1-1.2-1.2v-2a2.305,2.305,0,0,1-1.1-2,2.384,2.384,0,0,1,3-2.3A2.831,2.831,0,0,1,4.5,1.778Z" transform="translate(233.8 413.322)" fill="none" stroke="#17191c" stroke-width="1.5"/>
      <path id="Vector-2" data-name="Vector" d="M19.6,7A10.153,10.153,0,0,0,10,0a10,10,0,0,0,0,20,9.812,9.812,0,0,0,9.5-7" transform="translate(226 407)" fill="none" stroke="#17191c" stroke-linecap="round" stroke-linejoin="round" stroke-width="1.5"/>
      <path id="Vector-3" data-name="Vector" d="M0,0H24V24H0Z" transform="translate(224 405)" fill="none" opacity="0"/>
    </g>
  </g>
</svg>
