<svg xmlns="http://www.w3.org/2000/svg" width="24" height="24" viewBox="0 0 24 24">
  <g id="vuesax_linear_flash-circle" data-name="vuesax/linear/flash-circle" transform="translate(-748 -316)">
    <g id="flash-circle">
      <path id="Vector" d="M20,10A10,10,0,1,1,10,0,10,10,0,0,1,20,10Z" transform="translate(750 318)" fill="none" stroke="#292d32" stroke-linecap="round" stroke-linejoin="round" stroke-width="1.5"/>
      <g id="Group">
        <path id="Vector-2" data-name="Vector" d="M.629,4.992l1.65.41-.95,3.84c-.22.9.22,1.2.98.67l5.18-3.59c.63-.44.54-.95-.21-1.14l-1.65-.41.95-3.84c.22-.9-.22-1.2-.98-.67L.419,3.852C-.211,4.292-.121,4.8.629,4.992Z" transform="translate(756.051 322.918)" fill="none" stroke="#292d32" stroke-linecap="round" stroke-linejoin="round" stroke-width="1.5"/>
      </g>
      <path id="Vector-3" data-name="Vector" d="M0,0H24V24H0Z" transform="translate(748 316)" fill="none" opacity="0"/>
    </g>
  </g>
</svg>
