<svg xmlns="http://www.w3.org/2000/svg" width="24" height="24" viewBox="0 0 24 24">
  <g id="vuesax_linear_document-like" data-name="vuesax/linear/document-like" transform="translate(-556 -252)">
    <g id="document-like">
      <path id="Vector" d="M18,5V15c0,3-1.5,5-5,5H5c-3.5,0-5-2-5-5V5C0,2,1.5,0,5,0h8C16.5,0,18,2,18,5Z" transform="translate(559 254)" fill="none" stroke="#292d32" stroke-linecap="round" stroke-linejoin="round" stroke-width="1.5"/>
      <path id="Vector-2" data-name="Vector" d="M0,0V2A2.006,2.006,0,0,0,2,4H4" transform="translate(570.5 256.5)" fill="none" stroke="#292d32" stroke-linecap="round" stroke-linejoin="round" stroke-width="1.5"/>
      <path id="Vector-3" data-name="Vector" d="M0,0H24V24H0Z" transform="translate(556 252)" fill="none" opacity="0"/>
      <path id="Vector-4" data-name="Vector" d="M0,5V0" transform="translate(565.561 265)" fill="none" stroke="#292d32" stroke-linecap="round" stroke-linejoin="round" stroke-width="1.5"/>
      <path id="Vector-5" data-name="Vector" d="M5,0H0" transform="translate(563 267.5)" fill="none" stroke="#292d32" stroke-linecap="round" stroke-linejoin="round" stroke-width="1.5"/>
    </g>
  </g>
</svg>
