<svg xmlns="http://www.w3.org/2000/svg" width="24" height="24" viewBox="0 0 24 24">
  <g id="vuesax_linear_more-2" data-name="vuesax/linear/more-2" transform="translate(-620 -188)">
    <g id="more-2">
      <path id="Vector" d="M2.16,4.32A2.16,2.16,0,1,0,0,2.16,2.164,2.164,0,0,0,2.16,4.32Z" transform="translate(629.84 193)" fill="none" stroke="#292d32" stroke-linecap="round" stroke-linejoin="round" stroke-width="1.5"/>
      <path id="Vector-2" data-name="Vector" d="M2.16,4.32A2.16,2.16,0,1,0,0,2.16,2.164,2.164,0,0,0,2.16,4.32Z" transform="translate(624.63 202.68)" fill="none" stroke="#292d32" stroke-linecap="round" stroke-linejoin="round" stroke-width="1.5"/>
      <path id="Vector-3" data-name="Vector" d="M2.16,4.32A2.16,2.16,0,1,0,0,2.16,2.164,2.164,0,0,0,2.16,4.32Z" transform="translate(635.05 202.68)" fill="none" stroke="#292d32" stroke-linecap="round" stroke-linejoin="round" stroke-width="1.5"/>
      <path id="Vector-4" data-name="Vector" d="M0,0H24V24H0Z" transform="translate(620 188)" fill="none" opacity="0"/>
    </g>
  </g>
</svg>
