<svg xmlns="http://www.w3.org/2000/svg" width="24" height="24" viewBox="0 0 24 24">
  <g id="vuesax_linear_bootsrap" data-name="vuesax/linear/bootsrap" transform="translate(-672 -469)">
    <g id="bootsrap">
      <path id="BG_1" data-name="BG 1" d="M0,0H24V24H0Z" transform="translate(672 469)" fill="none" opacity="0.58"/>
      <path id="Vector" d="M16,0H6A2.946,2.946,0,0,0,3,3v.8a6.2,6.2,0,0,1-.4,2.3A2.7,2.7,0,0,1,0,8v2a2.7,2.7,0,0,1,2.6,1.9A5.867,5.867,0,0,1,3,14.2V15a2.946,2.946,0,0,0,3,3H16a2.946,2.946,0,0,0,3-3v-.8a6.2,6.2,0,0,1,.4-2.3A2.8,2.8,0,0,1,22,10V8a2.7,2.7,0,0,1-2.6-1.9A5.867,5.867,0,0,1,19,3.8V3A2.946,2.946,0,0,0,16,0Z" transform="translate(673 472)" fill="none" stroke="#17191c" stroke-linejoin="round" stroke-width="1.5"/>
      <path id="Vector-2" data-name="Vector" d="M0,4.2H2.9A2.051,2.051,0,0,1,5,6.3,2.051,2.051,0,0,1,2.9,8.4H0V0H2.9A2.051,2.051,0,0,1,5,2.1,2.051,2.051,0,0,1,2.9,4.2Z" transform="translate(681.8 476.8)" fill="none" stroke="#17191c" stroke-linecap="round" stroke-linejoin="round" stroke-width="1.5"/>
      <path id="Vector-3" data-name="Vector" d="M0,0H24V24H0Z" transform="translate(672 469)" fill="none" opacity="0"/>
    </g>
  </g>
</svg>
