<svg xmlns="http://www.w3.org/2000/svg" width="24" height="24" viewBox="0 0 24 24">
  <g id="vuesax_linear_cloud-notif" data-name="vuesax/linear/cloud-notif" transform="translate(-556 -188)">
    <g id="cloud-notif">
      <path id="Vector" d="M19.866,10a5.1,5.1,0,0,1-1.63,4.72,5.317,5.317,0,0,1-3.64,1.4H3.506a3.748,3.748,0,0,1,0-7.48h.05c-2.19-6.13,3.5-9.73,7.79-8.35" transform="translate(558.034 191.956)" fill="none" stroke="#292d32" stroke-linecap="round" stroke-linejoin="round" stroke-width="1.5"/>
      <path id="Vector-2" data-name="Vector" d="M1.67.41A3.882,3.882,0,0,0,0,0" transform="translate(561.59 200.6)" fill="none" stroke="#292d32" stroke-linecap="round" stroke-linejoin="round" stroke-width="1.5"/>
      <path id="Vector-3" data-name="Vector" d="M7,3.5a3.5,3.5,0,1,1-7,0A3.437,3.437,0,0,1,1.03,1.04V1.03A3.46,3.46,0,0,1,3.5,0,3.5,3.5,0,0,1,7,3.5Z" transform="translate(570.97 193)" fill="none" stroke="#292d32" stroke-linecap="round" stroke-linejoin="round" stroke-width="1.5"/>
      <path id="Vector-4" data-name="Vector" d="M0,0H24V24H0Z" transform="translate(580 212) rotate(180)" fill="none" opacity="0"/>
    </g>
  </g>
</svg>
