<svg xmlns="http://www.w3.org/2000/svg" width="24" height="24" viewBox="0 0 24 24">
  <g id="vuesax_linear_js" data-name="vuesax/linear/js" transform="translate(-608 -469)">
    <g id="js">
      <path id="BG_1" data-name="BG 1" d="M0,0H24V24H0Z" transform="translate(608 469)" fill="none" opacity="0.58"/>
      <path id="Vector" d="M6,6.85v7.9a1.977,1.977,0,0,1-3,1.7L.5,15.05a.792.792,0,0,1-.5-.8V5.45a1.05,1.05,0,0,1,.5-.9l8-4.4a.908.908,0,0,1,1,0l8,4.4a1.05,1.05,0,0,1,.5.9v8.8a1.05,1.05,0,0,1-.5.9l-8,4.4a.908.908,0,0,1-1,0L7,18.85" transform="translate(611 471.15)" fill="none" stroke="#17191c" stroke-linecap="round" stroke-linejoin="round" stroke-width="1.5"/>
      <path id="Vector-2" data-name="Vector" d="M5.2,1.8A1.774,1.774,0,0,0,3.5,0H1.7A1.685,1.685,0,0,0,0,1.7,1.685,1.685,0,0,0,1.7,3.4H3.5a1.7,1.7,0,0,1,0,3.4H1.7A1.685,1.685,0,0,1,0,5.1" transform="translate(619.8 478)" fill="none" stroke="#17191c" stroke-linecap="round" stroke-linejoin="round" stroke-width="1.5"/>
      <path id="Vector-3" data-name="Vector" d="M0,0H24V24H0Z" transform="translate(608 469)" fill="none" opacity="0"/>
    </g>
  </g>
</svg>
