<svg xmlns="http://www.w3.org/2000/svg" width="24" height="24" viewBox="0 0 24 24">
  <g id="vuesax_linear_dash-_dash_" data-name="vuesax/linear/dash-(dash)" transform="translate(-96 -341)">
    <g id="dash-_dash_" data-name="dash-(dash)">
      <path id="BG_1" data-name="BG 1" d="M0,0H24V24H0Z" transform="translate(96 341)" fill="none"/>
      <path id="Vector" d="M3.2,0h8.9c4,0,6,2.5,6,6V8.5c0,5-3,8.5-8.5,8.5H0l1.1-4.3H8.5c3.6,0,5.3-2.2,5.3-5.3V7.2c0-1.8-.8-3-3-3H2.2Z" transform="translate(99.9 344.5)" fill="none" stroke="#17191c" stroke-linecap="round" stroke-linejoin="round" stroke-width="1.5"/>
      <path id="Vector-2" data-name="Vector" d="M9.5,0H2.3A1.927,1.927,0,0,0,.4,1.5L0,3H7.2A1.927,1.927,0,0,0,9.1,1.5Z" transform="translate(98 351.5)" fill="none" stroke="#17191c" stroke-linecap="round" stroke-linejoin="round" stroke-width="1.5"/>
      <path id="Vector-3" data-name="Vector" d="M0,0H24V24H0Z" transform="translate(96 341)" fill="none" opacity="0"/>
    </g>
  </g>
</svg>
