<svg xmlns="http://www.w3.org/2000/svg" width="24" height="24" viewBox="0 0 24 24">
  <g id="vuesax_linear_backward-item" data-name="vuesax/linear/backward-item" transform="translate(-428 -444)">
    <g id="backward-item">
      <path id="Vector" d="M9,3.15v2.7C9,8.1,8.1,9,5.85,9H3.15C.9,9,0,8.1,0,5.85V3.15C0,.9.9,0,3.15,0h2.7C8.1,0,9,.9,9,3.15Z" transform="translate(441 446)" fill="none" stroke="#292d32" stroke-linecap="round" stroke-linejoin="round" stroke-width="1.5"/>
      <path id="Vector-2" data-name="Vector" d="M9,3.15v2.7C9,8.1,8.1,9,5.85,9H3.15C.9,9,0,8.1,0,5.85V3.15C0,.9.9,0,3.15,0h2.7C8.1,0,9,.9,9,3.15Z" transform="translate(430 457)" fill="none" stroke="#292d32" stroke-linecap="round" stroke-linejoin="round" stroke-width="1.5"/>
      <path id="Vector-3" data-name="Vector" d="M10.76,4.38V7c0,2.69-1.07,3.76-3.76,3.76H4.38V9.53c0-2.25-.9-3.15-3.15-3.15H0V3.76C0,1.07,1.07,0,3.76,0H6.38V1.23c0,2.25.9,3.15,3.15,3.15Z" transform="translate(434.62 450.62)" fill="none" stroke="#292d32" stroke-linecap="round" stroke-linejoin="round" stroke-width="1.5"/>
      <path id="Vector-4" data-name="Vector" d="M0,0H24V24H0Z" transform="translate(428 444)" fill="none" opacity="0"/>
    </g>
  </g>
</svg>
