<svg xmlns="http://www.w3.org/2000/svg" width="24" height="24" viewBox="0 0 24 24">
  <g id="vuesax_linear_truck-remove" data-name="vuesax/linear/truck-remove" transform="translate(-236 -252)">
    <g id="truck-remove">
      <path id="Vector" d="M13,0V10a2.006,2.006,0,0,1-2,2H0V5.62A3.9,3.9,0,0,0,3.09,7a3.843,3.843,0,0,0,2.6-1.06,3.386,3.386,0,0,0,.77-.95A3.9,3.9,0,0,0,7,2.91,3.983,3.983,0,0,0,5.64,0Z" transform="translate(238 254)" fill="none" stroke="#292d32" stroke-linecap="round" stroke-linejoin="round" stroke-width="1.5"/>
      <path id="Vector-2" data-name="Vector" d="M20,9v3a3,3,0,0,1-3,3H16a2,2,0,0,0-4,0H8a2,2,0,0,0-4,0H3a3,3,0,0,1-3-3V9H11a2.006,2.006,0,0,0,2-2V0h1.84a2.016,2.016,0,0,1,1.74,1.01L18.29,4H17a1,1,0,0,0-1,1V8a1,1,0,0,0,1,1Z" transform="translate(238 257)" fill="none" stroke="#292d32" stroke-linecap="round" stroke-linejoin="round" stroke-width="1.5"/>
      <path id="Vector-3" data-name="Vector" d="M4,2A2,2,0,1,1,2,0,2,2,0,0,1,4,2Z" transform="translate(242 270)" fill="none" stroke="#292d32" stroke-linecap="round" stroke-linejoin="round" stroke-width="1.5"/>
      <path id="Vector-4" data-name="Vector" d="M4,2A2,2,0,1,1,2,0,2,2,0,0,1,4,2Z" transform="translate(250 270)" fill="none" stroke="#292d32" stroke-linecap="round" stroke-linejoin="round" stroke-width="1.5"/>
      <path id="Vector-5" data-name="Vector" d="M4,3V5H1A1,1,0,0,1,0,4V1A1,1,0,0,1,1,0H2.29Z" transform="translate(254 261)" fill="none" stroke="#292d32" stroke-linecap="round" stroke-linejoin="round" stroke-width="1.5"/>
      <g id="Group">
        <path id="Vector-6" data-name="Vector" d="M8,4a3.921,3.921,0,0,1-.58,2.06A3.593,3.593,0,0,1,6.63,7,3.905,3.905,0,0,1,4,8,3.97,3.97,0,0,1,.58,6.06,3.921,3.921,0,0,1,0,4,4,4,0,0,1,8,4Z" transform="translate(237 253)" fill="none" stroke="#292d32" stroke-linecap="round" stroke-linejoin="round" stroke-width="1.5"/>
        <g id="Group-2" data-name="Group">
          <path id="Vector-7" data-name="Vector" d="M2.11,2.11,0,0" transform="translate(239.96 255.93)" fill="none" stroke="#292d32" stroke-linecap="round" stroke-linejoin="round" stroke-width="1.5"/>
          <path id="Vector-8" data-name="Vector" d="M2.11,0,0,2.11" transform="translate(239.93 255.96)" fill="none" stroke="#292d32" stroke-linecap="round" stroke-linejoin="round" stroke-width="1.5"/>
        </g>
      </g>
      <path id="Vector-9" data-name="Vector" d="M0,0H24V24H0Z" transform="translate(236 252)" fill="none" opacity="0"/>
    </g>
  </g>
</svg>
