<svg xmlns="http://www.w3.org/2000/svg" width="24" height="24" viewBox="0 0 24 24">
  <g id="vuesax_linear_headphones" data-name="vuesax/linear/headphones" transform="translate(-748 -252)">
    <g id="headphones">
      <path id="Vector" d="M0,4.78V0" transform="translate(756.5 259.22)" fill="none" stroke="#292d32" stroke-linecap="round" stroke-linejoin="round" stroke-width="1.5"/>
      <path id="Vector-2" data-name="Vector" d="M0,3V0" transform="translate(756.5 271)" fill="none" stroke="#292d32" stroke-linecap="round" stroke-linejoin="round" stroke-width="1.5"/>
      <path id="Vector-3" data-name="Vector" d="M0,14.78V0" transform="translate(763.5 259.22)" fill="none" stroke="#292d32" stroke-linecap="round" stroke-linejoin="round" stroke-width="1.5"/>
      <path id="Vector-4" data-name="Vector" d="M4.05,1.8a1.775,1.775,0,0,1-.53,1.27,1.758,1.758,0,0,1-1.27.53H0A2.257,2.257,0,0,0,.45,2.25v-.9A2.257,2.257,0,0,0,0,0H2.25A1.805,1.805,0,0,1,4.05,1.8Z" transform="translate(754.05 255.5)" fill="none" stroke="#292d32" stroke-linecap="round" stroke-linejoin="round" stroke-width="1.5"/>
      <path id="Vector-5" data-name="Vector" d="M4.5,2.257v.9a2.257,2.257,0,0,1-.45,1.35c-.76,1.01-2.32,1.35-3.77.06A.993.993,0,0,1,0,3.907V1.567A1.043,1.043,0,0,1,.23.957a2.449,2.449,0,0,1,3.61-.3A2.573,2.573,0,0,1,4.05.9,2.31,2.31,0,0,1,4.5,2.257Z" transform="translate(750 254.593)" fill="none" stroke="#292d32" stroke-linecap="round" stroke-linejoin="round" stroke-width="1.5"/>
      <path id="Vector-6" data-name="Vector" d="M0,1.8A1.775,1.775,0,0,0,.53,3.07,1.758,1.758,0,0,0,1.8,3.6H4.05A2.257,2.257,0,0,1,3.6,2.25v-.9A2.257,2.257,0,0,1,4.05,0H1.8A1.805,1.805,0,0,0,0,1.8Z" transform="translate(761.9 255.5)" fill="none" stroke="#292d32" stroke-linecap="round" stroke-linejoin="round" stroke-width="1.5"/>
      <path id="Vector-7" data-name="Vector" d="M0,2.257v.9a2.257,2.257,0,0,0,.45,1.35c.76,1.01,2.32,1.35,3.77.06a.993.993,0,0,0,.28-.66V1.567a1.043,1.043,0,0,0-.23-.61A2.449,2.449,0,0,0,.66.657,2.573,2.573,0,0,0,.45.9,2.31,2.31,0,0,0,0,2.257Z" transform="translate(765.5 254.593)" fill="none" stroke="#292d32" stroke-linecap="round" stroke-linejoin="round" stroke-width="1.5"/>
      <path id="Vector-8" data-name="Vector" d="M3,1.5v4a1.5,1.5,0,0,1-3,0v-4a1.5,1.5,0,0,1,3,0Z" transform="translate(755 264)" fill="none" stroke="#292d32" stroke-linecap="round" stroke-linejoin="round" stroke-width="1.5"/>
      <path id="Vector-9" data-name="Vector" d="M0,0H24V24H0Z" transform="translate(748 252)" fill="none" opacity="0"/>
    </g>
  </g>
</svg>
