<svg xmlns="http://www.w3.org/2000/svg" width="24" height="24" viewBox="0 0 24 24">
  <g id="vuesax_linear_mask" data-name="vuesax/linear/mask" transform="translate(-172 -380)">
    <g id="mask">
      <path id="Vector" d="M17.07,2.93,2.93,17.07A10,10,0,1,1,17.07,2.93Z" transform="translate(174 382)" fill="none" stroke="#292d32" stroke-linecap="round" stroke-linejoin="round" stroke-width="1.5"/>
      <path id="Vector-2" data-name="Vector" d="M17.07,7.07A10,10,0,0,1,0,14.14L14.14,0A9.969,9.969,0,0,1,17.07,7.07Z" transform="translate(176.93 384.93)" fill="none" stroke="#292d32" stroke-linecap="round" stroke-linejoin="round" stroke-width="1.5"/>
      <path id="Vector-3" data-name="Vector" d="M0,0,5.65,5.66" transform="translate(179.76 396.24)" fill="none" stroke="#292d32" stroke-linecap="round" stroke-linejoin="round" stroke-width="1.5"/>
      <path id="Vector-4" data-name="Vector" d="M0,0,6.58,6.57" transform="translate(183.29 392.71)" fill="none" stroke="#292d32" stroke-linecap="round" stroke-linejoin="round" stroke-width="1.5"/>
      <path id="Vector-5" data-name="Vector" d="M0,0,6.29,6.3" transform="translate(186.83 389.17)" fill="none" stroke="#292d32" stroke-linecap="round" stroke-linejoin="round" stroke-width="1.5"/>
      <path id="Vector-6" data-name="Vector" d="M0,0H24V24H0Z" transform="translate(172 380)" fill="none" opacity="0"/>
    </g>
  </g>
</svg>
