<svg xmlns="http://www.w3.org/2000/svg" width="24" height="24" viewBox="0 0 24 24">
  <g id="vuesax_linear_hierarchy-square-3" data-name="vuesax/linear/hierarchy-square-3" transform="translate(-556 -188)">
    <g id="hierarchy-square-3">
      <path id="Vector" d="M0,4.2V0" transform="translate(563.8 197.6)" fill="none" stroke="#292d32" stroke-linecap="round" stroke-linejoin="round" stroke-width="1.5"/>
      <path id="Vector-2" data-name="Vector" d="M3.9,1.95A1.95,1.95,0,1,1,1.95,0,1.95,1.95,0,0,1,3.9,1.95Z" transform="translate(562 202.1)" fill="none" stroke="#292d32" stroke-linecap="round" stroke-linejoin="round" stroke-width="1.5"/>
      <path id="Vector-3" data-name="Vector" d="M3.6,1.8A1.8,1.8,0,1,1,1.8,0,1.8,1.8,0,0,1,3.6,1.8Z" transform="translate(562 194)" fill="none" stroke="#292d32" stroke-linecap="round" stroke-linejoin="round" stroke-width="1.5"/>
      <path id="Vector-4" data-name="Vector" d="M3.6,1.8A1.8,1.8,0,1,1,1.8,0,1.8,1.8,0,0,1,3.6,1.8Z" transform="translate(570.4 194)" fill="none" stroke="#292d32" stroke-linecap="round" stroke-linejoin="round" stroke-width="1.5"/>
      <path id="Vector-5" data-name="Vector" d="M0,4.22A2.425,2.425,0,0,1,2.36,2.4l2.06.01A3.581,3.581,0,0,0,7.82,0" transform="translate(563.88 197.58)" fill="none" stroke="#292d32" stroke-linecap="round" stroke-linejoin="round" stroke-width="1.5"/>
      <path id="Vector-6" data-name="Vector" d="M7,0h6c5,0,7,2,7,7v6c0,5-2,7-7,7H7c-5,0-7-2-7-7V7C0,2,2,0,7,0Z" transform="translate(558 190)" fill="none" stroke="#292d32" stroke-linecap="round" stroke-linejoin="round" stroke-width="1.5"/>
      <path id="Vector-7" data-name="Vector" d="M0,0H24V24H0Z" transform="translate(556 188)" fill="none" opacity="0"/>
    </g>
  </g>
</svg>
