<svg xmlns="http://www.w3.org/2000/svg" width="24" height="24" viewBox="0 0 24 24">
  <g id="vuesax_linear_building" data-name="vuesax/linear/building" transform="translate(-108 -188)">
    <g id="building">
      <path id="Vector" d="M10.53,20H2.11A2.1,2.1,0,0,1,0,17.93V3.09C0,.47,1.95-.72,4.34.45L8.78,2.63a3.4,3.4,0,0,1,1.75,2.78Z" transform="translate(109.97 190)" fill="none" stroke="#292d32" stroke-linecap="round" stroke-linejoin="round" stroke-width="1.5"/>
      <path id="Vector-2" data-name="Vector" d="M9.47,4.64V8.42c0,2.16-1,3.16-3.16,3.16H0V0L.47.1l4.5,1.01L7,1.56A2.747,2.747,0,0,1,9.46,4.45,1.148,1.148,0,0,1,9.47,4.64Z" transform="translate(120.5 198.42)" fill="none" stroke="#292d32" stroke-linecap="round" stroke-linejoin="round" stroke-width="1.5"/>
      <path id="Vector-3" data-name="Vector" d="M0,0H3.47" transform="translate(113.5 197)" fill="none" stroke="#292d32" stroke-linecap="round" stroke-linejoin="round" stroke-width="1.5"/>
      <path id="Vector-4" data-name="Vector" d="M0,0H3.47" transform="translate(113.5 201)" fill="none" stroke="#292d32" stroke-linecap="round" stroke-linejoin="round" stroke-width="1.5"/>
      <path id="Vector-5" data-name="Vector" d="M4.5,1.01V4.23a2.25,2.25,0,1,1-4.5,0V0Z" transform="translate(120.97 198.52)" fill="none" stroke="#292d32" stroke-linecap="round" stroke-linejoin="round" stroke-width="1.5"/>
      <path id="Vector-6" data-name="Vector" d="M4.49,3.34A2.247,2.247,0,0,1,0,3.22V0L2.03.45A2.747,2.747,0,0,1,4.49,3.34Z" transform="translate(125.47 199.53)" fill="none" stroke="#292d32" stroke-linecap="round" stroke-linejoin="round" stroke-width="1.5"/>
      <path id="Vector-7" data-name="Vector" d="M0,0H24V24H0Z" transform="translate(108 188)" fill="none" opacity="0"/>
    </g>
  </g>
</svg>
