<svg xmlns="http://www.w3.org/2000/svg" width="24" height="24" viewBox="0 0 24 24">
  <g id="vuesax_linear_calendar-add" data-name="vuesax/linear/calendar-add" transform="translate(-748 -188)">
    <g id="calendar-add">
      <path id="Vector" d="M0,0V3" transform="translate(756 190)" fill="none" stroke="#292d32" stroke-linecap="round" stroke-linejoin="round" stroke-width="1.5"/>
      <path id="Vector-2" data-name="Vector" d="M0,0V3" transform="translate(764 190)" fill="none" stroke="#292d32" stroke-linecap="round" stroke-linejoin="round" stroke-width="1.5"/>
      <path id="Vector-3" data-name="Vector" d="M0,0H17" transform="translate(751.5 197.09)" fill="none" stroke="#292d32" stroke-linecap="round" stroke-linejoin="round" stroke-width="1.5"/>
      <path id="Vector-4" data-name="Vector" d="M8,4A4,4,0,1,1,4,0,4,4,0,0,1,8,4Z" transform="translate(762 203)" fill="none" stroke="#292d32" stroke-linecap="round" stroke-linejoin="round" stroke-width="1.5"/>
      <g id="Group">
        <path id="Vector-5" data-name="Vector" d="M2.98,0H0" transform="translate(764.51 207.05)" fill="none" stroke="#292d32" stroke-linecap="round" stroke-linejoin="round" stroke-width="1.5"/>
        <path id="Vector-6" data-name="Vector" d="M0,0V2.99" transform="translate(766 205.59)" fill="none" stroke="#292d32" stroke-linecap="round" stroke-linejoin="round" stroke-width="1.5"/>
      </g>
      <path id="Vector-7" data-name="Vector" d="M18,5v7.86a4,4,0,0,0-7,2.64,3.921,3.921,0,0,0,.58,2.06,3.593,3.593,0,0,0,.79.94H5c-3.5,0-5-2-5-5V5C0,2,1.5,0,5,0h8C16.5,0,18,2,18,5Z" transform="translate(751 191.5)" fill="none" stroke="#292d32" stroke-linecap="round" stroke-linejoin="round" stroke-width="1.5"/>
      <path id="Vector-8" data-name="Vector" d="M0,0H24V24H0Z" transform="translate(748 188)" fill="none" opacity="0"/>
      <path id="Vector-9" data-name="Vector" d="M.495.5H.5" transform="translate(759.501 201.2)" fill="none" stroke="#292d32" stroke-linecap="round" stroke-linejoin="round" stroke-width="2"/>
      <path id="Vector-10" data-name="Vector" d="M.495.5H.5" transform="translate(755.8 201.2)" fill="none" stroke="#292d32" stroke-linecap="round" stroke-linejoin="round" stroke-width="2"/>
      <path id="Vector-11" data-name="Vector" d="M.495.5H.5" transform="translate(755.8 204.2)" fill="none" stroke="#292d32" stroke-linecap="round" stroke-linejoin="round" stroke-width="2"/>
    </g>
  </g>
</svg>
