<svg xmlns="http://www.w3.org/2000/svg" width="24" height="24" viewBox="0 0 24 24">
  <g id="vuesax_linear_chart-2" data-name="vuesax/linear/chart-2" transform="translate(-236 -188)">
    <g id="chart-2">
      <path id="Vector" d="M7,20h6c5,0,7-2,7-7V7c0-5-2-7-7-7H7C2,0,0,2,0,7v6C0,18,2,20,7,20Z" transform="translate(238 190)" fill="none" stroke="#292d32" stroke-linecap="round" stroke-linejoin="round" stroke-width="1.5"/>
      <path id="Vector-2" data-name="Vector" d="M2,13a2.006,2.006,0,0,0,2-2V2A2,2,0,0,0,0,2v9A2,2,0,0,0,2,13Z" transform="translate(249.5 193.5)" fill="none" stroke="#292d32" stroke-linecap="round" stroke-linejoin="round" stroke-width="1.5"/>
      <path id="Vector-3" data-name="Vector" d="M2,7.5a2.006,2.006,0,0,0,2-2V2A2,2,0,0,0,0,2V5.5A2,2,0,0,0,2,7.5Z" transform="translate(242.5 199)" fill="none" stroke="#292d32" stroke-linecap="round" stroke-linejoin="round" stroke-width="1.5"/>
      <path id="Vector-4" data-name="Vector" d="M0,0H24V24H0Z" transform="translate(236 188)" fill="none" opacity="0"/>
    </g>
  </g>
</svg>
