<svg xmlns="http://www.w3.org/2000/svg" width="24" height="24" viewBox="0 0 24 24">
  <g id="vuesax_linear_trontron-_trx_" data-name="vuesax/linear/trontron-(trx)" transform="translate(-800 -213)">
    <g id="trontron-_trx_" data-name="trontron-(trx)">
      <path id="BG_1" data-name="BG 1" d="M0,0H24V24H0Z" transform="translate(800 213)" fill="none"/>
      <path id="Vector" d="M.087,1.339l6.7,16.8c.4.9,1.1,1,1.7.2l9.4-11.9a.935.935,0,0,0-.1-1.3l-3.1-3.1a.683.683,0,0,0-.5-.3l-13-1.7C.287-.161-.213.439.087,1.339Z" transform="translate(802.513 215.261)" fill="none" stroke="#17191c" stroke-linecap="round" stroke-linejoin="round" stroke-width="1.5"/>
      <path id="Vector-2" data-name="Vector" d="M7,18.1l1-11L0,0" transform="translate(803 215.9)" fill="none" stroke="#17191c" stroke-linecap="round" stroke-linejoin="round" stroke-width="1.5"/>
      <path id="Vector-3" data-name="Vector" d="M6,0,0,6,9,4.2" transform="translate(811 217)" fill="none" stroke="#17191c" stroke-linecap="round" stroke-linejoin="round" stroke-width="1.5"/>
      <path id="Vector-4" data-name="Vector" d="M0,0H24V24H0Z" transform="translate(800 213)" fill="none" opacity="0"/>
    </g>
  </g>
</svg>
