<svg xmlns="http://www.w3.org/2000/svg" width="24" height="24" viewBox="0 0 24 24">
  <g id="vuesax_linear_smallcaps" data-name="vuesax/linear/smallcaps" transform="translate(-364 -252)">
    <g id="smallcaps">
      <path id="Vector" d="M0,3.36V1.85A1.852,1.852,0,0,1,1.85,0H14.77a1.852,1.852,0,0,1,1.85,1.85V3.36" transform="translate(365.99 254.57)" fill="none" stroke="#292d32" stroke-linecap="round" stroke-linejoin="round" stroke-width="1.5"/>
      <path id="Vector-2" data-name="Vector" d="M0,14.78V0" transform="translate(374.3 255.32)" fill="none" stroke="#292d32" stroke-linecap="round" stroke-linejoin="round" stroke-width="1.5"/>
      <path id="Vector-3" data-name="Vector" d="M0,0H5.58" transform="translate(370.9 270.1)" fill="none" stroke="#292d32" stroke-linecap="round" stroke-linejoin="round" stroke-width="1.5"/>
      <path id="Vector-4" data-name="Vector" d="M0,0H7.01A1.319,1.319,0,0,1,8.33,1.32v.8" transform="translate(377.68 262.34)" fill="none" stroke="#292d32" stroke-linecap="round" stroke-linejoin="round" stroke-width="1.5"/>
      <path id="Vector-5" data-name="Vector" d="M0,10.56V0" transform="translate(380.08 262.87)" fill="none" stroke="#292d32" stroke-linecap="round" stroke-linejoin="round" stroke-width="1.5"/>
      <path id="Vector-6" data-name="Vector" d="M0,0H4.28" transform="translate(377.94 273.43)" fill="none" stroke="#292d32" stroke-linecap="round" stroke-linejoin="round" stroke-width="1.5"/>
      <path id="Vector-7" data-name="Vector" d="M0,0H24V24H0Z" transform="translate(388 276) rotate(180)" fill="none" opacity="0"/>
    </g>
  </g>
</svg>
