<svg xmlns="http://www.w3.org/2000/svg" width="24" height="24" viewBox="0 0 24 24">
  <g id="wallet-money" transform="translate(-108 -380)">
    <path id="Vector" d="M7.15,0V2.03A3.363,3.363,0,0,1,3.58,5.14,3.373,3.373,0,0,1,0,2.03V0C0,1.72,1.6,2.94,3.58,2.94S7.15,1.71,7.15,0Z" transform="translate(111.602 396.86)" fill="none" stroke="#292d32" stroke-linecap="round" stroke-linejoin="round" stroke-width="1.5"/>
    <path id="Vector-2" data-name="Vector" d="M7.16,3.1a2.623,2.623,0,0,1-.38,1.36,3.675,3.675,0,0,1-3.2,1.58A3.7,3.7,0,0,1,.38,4.46,2.623,2.623,0,0,1,0,3.1,2.9,2.9,0,0,1,1.04.91,3.817,3.817,0,0,1,3.57,0,3.869,3.869,0,0,1,6.1.91,2.843,2.843,0,0,1,7.16,3.1Z" transform="translate(111.59 391.01)" fill="none" stroke="#292d32" stroke-linecap="round" stroke-linejoin="round" stroke-width="1.5"/>
    <path id="Vector-3" data-name="Vector" d="M7.15,3.11V5.86c0,1.72-1.6,2.94-3.57,2.94S0,7.57,0,5.86V3.11A3.367,3.367,0,0,1,3.58,0,3.869,3.869,0,0,1,6.11.91,2.925,2.925,0,0,1,7.15,3.11Z" transform="translate(111.602 391)" fill="none" stroke="#292d32" stroke-linecap="round" stroke-linejoin="round" stroke-width="1.5"/>
    <path id="Vector-4" data-name="Vector" d="M5.129,1.02V3.08a1.027,1.027,0,0,1-1,1.02H2.169A2.132,2.132,0,0,1,.009,2.23,2.008,2.008,0,0,1,.609.6,1.993,1.993,0,0,1,2.049,0h2.08A1.027,1.027,0,0,1,5.129,1.02Z" transform="translate(124.871 389.95)" fill="none" stroke="#292d32" stroke-linecap="round" stroke-linejoin="round" stroke-width="1.5"/>
    <path id="Vector-5" data-name="Vector" d="M0,7V5A4.654,4.654,0,0,1,4.19.06,5.322,5.322,0,0,1,5,0h9a4.573,4.573,0,0,1,.75.05A4.664,4.664,0,0,1,19,5V6.45H16.92a2.06,2.06,0,0,0-2.04,2.23,2.132,2.132,0,0,0,2.16,1.87H19V12a4.724,4.724,0,0,1-5,5H11.5" transform="translate(110 383.5)" fill="none" stroke="#292d32" stroke-linecap="round" stroke-linejoin="round" stroke-width="1.5"/>
    <path id="Vector-6" data-name="Vector" d="M0,0H24V24H0Z" transform="translate(132 404) rotate(180)" fill="none" opacity="0"/>
  </g>
</svg>
