<svg xmlns="http://www.w3.org/2000/svg" width="24" height="24" viewBox="0 0 24 24">
  <g id="wallet-search" transform="translate(-620 -188)">
    <path id="Vector" d="M10,15h5a4.724,4.724,0,0,0,5-5V5a4.757,4.757,0,0,0-4.2-5H5a2.2,2.2,0,0,0-.8.1A4.589,4.589,0,0,0,0,5V6" transform="translate(622 195)" fill="none" stroke="#292d32" stroke-linecap="round" stroke-linejoin="round" stroke-width="1.5"/>
    <path id="Vector-2" data-name="Vector" d="M11.6,5.05H.8a2.2,2.2,0,0,0-.8.1,2.1,2.1,0,0,1,.6-.8l3.2-3.3a3.5,3.5,0,0,1,5,0l1.8,1.8A3.719,3.719,0,0,1,11.6,5.05Z" transform="translate(626.2 189.95)" fill="none" stroke="#292d32" stroke-linecap="round" stroke-linejoin="round" stroke-width="1.5"/>
    <path id="Vector-3" data-name="Vector" d="M5,0H2A2,2,0,0,0,2,4H5" transform="translate(637 200.5)" fill="none" stroke="#292d32" stroke-linecap="round" stroke-linejoin="round" stroke-width="1.5"/>
    <path id="Vector-4" data-name="Vector" d="M3.2,6.4A3.2,3.2,0,1,0,0,3.2,3.2,3.2,0,0,0,3.2,6.4Z" transform="translate(622.602 203)" fill="none" stroke="#292d32" stroke-linecap="round" stroke-linejoin="round" stroke-width="1.5"/>
    <path id="Vector-5" data-name="Vector" d="M0,1,1,0" transform="translate(622 209)" fill="none" stroke="#292d32" stroke-linecap="round" stroke-linejoin="round" stroke-width="1.5"/>
    <g id="Group" opacity="0">
      <path id="Vector-6" data-name="Vector" d="M24,0H0V24H24Z" transform="translate(620 188)" fill="none" opacity="0"/>
    </g>
  </g>
</svg>
