<svg xmlns="http://www.w3.org/2000/svg" width="24" height="24" viewBox="0 0 24 24">
  <g id="wallet-3" transform="translate(-364 -380)">
    <path id="Vector" d="M6,0H0" transform="translate(371 391.15)" fill="none" stroke="#292d32" stroke-linecap="round" stroke-linejoin="round" stroke-width="1.5"/>
    <path id="Vector-2" data-name="Vector" d="M0,8.31V3.69A3.687,3.687,0,0,1,3.69,0H9.31A3.382,3.382,0,0,1,13,3.31" transform="translate(366 382.84)" fill="none" stroke="#292d32" stroke-linecap="round" stroke-linejoin="round" stroke-width="1.5"/>
    <path id="Vector-3" data-name="Vector" d="M15.48,6.05a2.013,2.013,0,0,0-.54,1.98,2.171,2.171,0,0,0,2.13,1.52H18V11a4,4,0,0,1-4,4H4a4,4,0,0,1-4-4V4A4,4,0,0,1,4,0H14a4.012,4.012,0,0,1,4,4V5.45H16.92A1.993,1.993,0,0,0,15.48,6.05Z" transform="translate(366 386.15)" fill="none" stroke="#292d32" stroke-linecap="round" stroke-linejoin="round" stroke-width="1.5"/>
    <path id="Vector-4" data-name="Vector" d="M5.129,1.02V3.08A1.026,1.026,0,0,1,4.1,4.1H2.169A2.132,2.132,0,0,1,.009,2.23,2.008,2.008,0,0,1,.609.6,1.993,1.993,0,0,1,2.049,0H4.1A1.026,1.026,0,0,1,5.129,1.02Z" transform="translate(380.871 391.6)" fill="none" stroke="#292d32" stroke-linecap="round" stroke-linejoin="round" stroke-width="1.5"/>
    <path id="Vector-5" data-name="Vector" d="M0,0H24V24H0Z" transform="translate(388 404) rotate(180)" fill="none" opacity="0"/>
  </g>
</svg>
